<svg width="3389" height="281" viewBox="0 0 3389 281" fill="none" xmlns="http://www.w3.org/2000/svg">
<mask id="path-1-outside-1_8001_2" maskUnits="userSpaceOnUse" x="-5" y="42" width="799" height="197" fill="black">
<rect fill="white" x="-5" y="42" width="799" height="197"/>
<path d="M2.67921 231L69.7758 58.599H105.654L172.751 231H135.941L118.002 184.988H46.7114L28.7723 231H2.67921ZM55.5644 162.04H109.148L82.3564 93.3121L55.5644 162.04ZM197.213 231V103.097H231.693V127.21C235.809 118.978 241.439 112.416 248.584 107.524C255.728 102.631 263.688 100.185 272.464 100.185C274.56 100.185 276.696 100.418 278.87 100.884V131.636C274.056 129.85 269.513 128.957 265.241 128.957C258.407 128.957 252.195 130.705 246.603 134.199C241.012 137.616 236.042 142.819 231.693 149.808V231H197.213ZM371.711 230.301C363.479 232.708 356.994 233.912 352.257 233.912C340.997 233.912 332.26 232.32 326.048 229.136C319.835 225.952 315.176 221.642 312.069 216.206C308.963 210.692 307.41 202.616 307.41 191.977V124.647H293.082V103.097H307.41V81.5469L341.89 77.5864V103.097H369.264V124.647H341.89V187.434C341.89 196.675 343.521 202.927 346.782 206.188C350.044 209.372 354.82 210.964 361.11 210.964C364.061 210.964 367.595 210.421 371.711 209.333V230.301ZM402.463 231V103.097H436.943V231H402.463ZM402.463 81.5469V52.7746H436.943V81.5469H402.463ZM574.398 228.204C560.109 232.01 546.791 233.912 534.443 233.912C512.544 233.912 496.08 227.467 485.053 214.575C474.025 201.606 468.511 185.725 468.511 166.932C468.511 147.207 474.336 131.17 485.985 118.823C497.633 106.398 514.757 100.185 537.355 100.185C547.762 100.185 559.76 101.855 573.35 105.194V130.122C559.216 125.54 547.956 123.249 539.569 123.249C527.609 123.249 518.873 127.792 513.359 136.878C507.845 145.887 505.088 155.827 505.088 166.699C505.088 175.086 506.68 182.93 509.864 190.229C513.048 197.452 517.475 202.732 523.144 206.072C528.891 209.411 535.336 211.081 542.481 211.081C552.809 211.081 563.449 208.829 574.398 204.324V228.204ZM607.015 231V47.0667H641.495V231H607.015ZM788.735 226.69C772.349 231.505 756.817 233.912 742.14 233.912C728.239 233.912 716.047 231.349 705.563 226.224C695.157 221.021 687.119 212.944 681.45 201.995C675.859 190.967 673.063 179.008 673.063 166.117C673.063 154.157 675.432 143.13 680.169 133.034C684.984 122.861 691.934 114.862 701.02 109.038C710.184 103.136 721.444 100.185 734.801 100.185C751.187 100.185 764.272 105.388 774.057 115.794C783.842 126.2 788.735 145.576 788.735 173.921H709.407C710.184 182.541 712.125 189.336 715.231 194.307C718.415 199.277 722.687 203.237 728.045 206.188C733.403 209.062 740.587 210.498 749.595 210.498C761.166 210.498 774.213 207.819 788.735 202.461V226.69ZM708.941 154.468H754.837C754.837 142.742 752.857 134.354 748.896 129.307C745.013 124.259 739.965 121.735 733.753 121.735C726.997 121.735 721.444 124.531 717.095 130.122C712.746 135.636 710.028 143.751 708.941 154.468Z"/>
</mask>
<path d="M2.67921 231L69.7758 58.599H105.654L172.751 231H135.941L118.002 184.988H46.7114L28.7723 231H2.67921ZM55.5644 162.04H109.148L82.3564 93.3121L55.5644 162.04ZM197.213 231V103.097H231.693V127.21C235.809 118.978 241.439 112.416 248.584 107.524C255.728 102.631 263.688 100.185 272.464 100.185C274.56 100.185 276.696 100.418 278.87 100.884V131.636C274.056 129.85 269.513 128.957 265.241 128.957C258.407 128.957 252.195 130.705 246.603 134.199C241.012 137.616 236.042 142.819 231.693 149.808V231H197.213ZM371.711 230.301C363.479 232.708 356.994 233.912 352.257 233.912C340.997 233.912 332.26 232.32 326.048 229.136C319.835 225.952 315.176 221.642 312.069 216.206C308.963 210.692 307.41 202.616 307.41 191.977V124.647H293.082V103.097H307.41V81.5469L341.89 77.5864V103.097H369.264V124.647H341.89V187.434C341.89 196.675 343.521 202.927 346.782 206.188C350.044 209.372 354.82 210.964 361.11 210.964C364.061 210.964 367.595 210.421 371.711 209.333V230.301ZM402.463 231V103.097H436.943V231H402.463ZM402.463 81.5469V52.7746H436.943V81.5469H402.463ZM574.398 228.204C560.109 232.01 546.791 233.912 534.443 233.912C512.544 233.912 496.08 227.467 485.053 214.575C474.025 201.606 468.511 185.725 468.511 166.932C468.511 147.207 474.336 131.17 485.985 118.823C497.633 106.398 514.757 100.185 537.355 100.185C547.762 100.185 559.76 101.855 573.35 105.194V130.122C559.216 125.54 547.956 123.249 539.569 123.249C527.609 123.249 518.873 127.792 513.359 136.878C507.845 145.887 505.088 155.827 505.088 166.699C505.088 175.086 506.68 182.93 509.864 190.229C513.048 197.452 517.475 202.732 523.144 206.072C528.891 209.411 535.336 211.081 542.481 211.081C552.809 211.081 563.449 208.829 574.398 204.324V228.204ZM607.015 231V47.0667H641.495V231H607.015ZM788.735 226.69C772.349 231.505 756.817 233.912 742.14 233.912C728.239 233.912 716.047 231.349 705.563 226.224C695.157 221.021 687.119 212.944 681.45 201.995C675.859 190.967 673.063 179.008 673.063 166.117C673.063 154.157 675.432 143.13 680.169 133.034C684.984 122.861 691.934 114.862 701.02 109.038C710.184 103.136 721.444 100.185 734.801 100.185C751.187 100.185 764.272 105.388 774.057 115.794C783.842 126.2 788.735 145.576 788.735 173.921H709.407C710.184 182.541 712.125 189.336 715.231 194.307C718.415 199.277 722.687 203.237 728.045 206.188C733.403 209.062 740.587 210.498 749.595 210.498C761.166 210.498 774.213 207.819 788.735 202.461V226.69ZM708.941 154.468H754.837C754.837 142.742 752.857 134.354 748.896 129.307C745.013 124.259 739.965 121.735 733.753 121.735C726.997 121.735 721.444 124.531 717.095 130.122C712.746 135.636 710.028 143.751 708.941 154.468Z" fill="#DCA413"/>
<path d="M2.67921 231L-1.98035 229.187L-4.63206 236H2.67921V231ZM69.7758 58.599V53.599H66.3564L65.1163 56.7855L69.7758 58.599ZM105.654 58.599L110.313 56.7855L109.073 53.599H105.654V58.599ZM172.751 231V236H180.062L177.41 229.187L172.751 231ZM135.941 231L131.282 232.816L132.523 236H135.941V231ZM118.002 184.988L122.66 183.171L121.419 179.988H118.002V184.988ZM46.7114 184.988V179.988H43.2942L42.0529 183.171L46.7114 184.988ZM28.7723 231V236H32.1895L33.4308 232.816L28.7723 231ZM55.5644 162.04L50.9058 160.224L48.2487 167.04H55.5644V162.04ZM109.148 162.04V167.04H116.464L113.807 160.224L109.148 162.04ZM82.3564 93.3121L87.015 91.4961L82.3564 79.5459L77.6979 91.4961L82.3564 93.3121ZM7.33876 232.813L74.4354 60.4124L65.1163 56.7855L-1.98035 229.187L7.33876 232.813ZM69.7758 63.599H105.654V53.599H69.7758V63.599ZM100.994 60.4124L168.091 232.813L177.41 229.187L110.313 56.7855L100.994 60.4124ZM172.751 226H135.941V236H172.751V226ZM140.599 229.184L122.66 183.171L113.343 186.804L131.282 232.816L140.599 229.184ZM118.002 179.988H46.7114V189.988H118.002V179.988ZM42.0529 183.171L24.1139 229.184L33.4308 232.816L51.3698 186.804L42.0529 183.171ZM28.7723 226H2.67921V236H28.7723V226ZM55.5644 167.04H109.148V157.04H55.5644V167.04ZM113.807 160.224L87.015 91.4961L77.6979 95.1282L104.49 163.856L113.807 160.224ZM77.6979 91.4961L50.9058 160.224L60.2229 163.856L87.015 95.1282L77.6979 91.4961ZM197.213 231H192.213V236H197.213V231ZM197.213 103.097V98.0971H192.213V103.097H197.213ZM231.693 103.097H236.693V98.0971H231.693V103.097ZM231.693 127.21H226.693L236.165 129.446L231.693 127.21ZM278.87 100.884H283.87V96.8417L279.918 95.9948L278.87 100.884ZM278.87 131.636L277.131 136.324L283.87 138.824V131.636H278.87ZM246.603 134.199L249.211 138.466L249.232 138.452L249.253 138.439L246.603 134.199ZM231.693 149.808L227.448 147.167L226.693 148.38V149.808H231.693ZM231.693 231V236H236.693V231H231.693ZM202.213 231V103.097H192.213V231H202.213ZM197.213 108.097H231.693V98.0971H197.213V108.097ZM226.693 103.097V127.21H236.693V103.097H226.693ZM236.165 129.446C239.926 121.924 245.009 116.032 251.409 111.649L245.759 103.398C237.869 108.801 231.692 116.032 227.221 124.974L236.165 129.446ZM251.409 111.649C257.709 107.334 264.682 105.185 272.464 105.185V95.1849C262.694 95.1849 253.747 97.9279 245.759 103.398L251.409 111.649ZM272.464 105.185C274.188 105.185 275.972 105.376 277.823 105.773L279.918 95.9948C277.42 95.4595 274.933 95.1849 272.464 95.1849V105.185ZM273.87 100.884V131.636H283.87V100.884H273.87ZM280.609 126.949C275.348 124.997 270.213 123.957 265.241 123.957V133.957C268.812 133.957 272.764 134.704 277.131 136.324L280.609 126.949ZM265.241 123.957C257.506 123.957 250.369 125.949 243.953 129.959L249.253 138.439C254.02 135.46 259.309 133.957 265.241 133.957V123.957ZM243.996 129.933C237.591 133.847 232.105 139.681 227.448 147.167L235.938 152.45C239.978 145.957 244.433 141.385 249.211 138.466L243.996 129.933ZM226.693 149.808V231H236.693V149.808H226.693ZM231.693 226H197.213V236H231.693V226ZM371.711 230.301L373.114 235.1L376.711 234.048V230.301H371.711ZM326.048 229.136L323.767 233.586L326.048 229.136ZM312.069 216.206L307.713 218.66L307.72 218.674L307.728 218.687L312.069 216.206ZM307.41 124.647H312.41V119.647H307.41V124.647ZM293.082 124.647H288.082V129.647H293.082V124.647ZM293.082 103.097V98.0971H288.082V103.097H293.082ZM307.41 103.097V108.097H312.41V103.097H307.41ZM307.41 81.5469L306.839 76.5796L302.41 77.0884V81.5469H307.41ZM341.89 77.5864H346.89V71.9792L341.319 72.619L341.89 77.5864ZM341.89 103.097H336.89V108.097H341.89V103.097ZM369.264 103.097H374.264V98.0971H369.264V103.097ZM369.264 124.647V129.647H374.264V124.647H369.264ZM341.89 124.647V119.647H336.89V124.647H341.89ZM346.782 206.188L343.247 209.724L343.268 209.745L343.29 209.766L346.782 206.188ZM371.711 209.333H376.711V202.841L370.434 204.499L371.711 209.333ZM370.307 225.502C362.226 227.865 356.282 228.912 352.257 228.912V238.912C357.707 238.912 364.732 237.552 373.114 235.1L370.307 225.502ZM352.257 228.912C341.357 228.912 333.53 227.353 328.328 224.687L323.767 233.586C330.99 237.288 340.637 238.912 352.257 238.912V228.912ZM328.328 224.687C322.876 221.892 318.981 218.224 316.41 213.725L307.728 218.687C311.37 225.06 316.794 230.012 323.767 233.586L328.328 224.687ZM316.425 213.752C313.938 209.336 312.41 202.273 312.41 191.977H302.41C302.41 202.959 303.988 212.049 307.713 218.66L316.425 213.752ZM312.41 191.977V124.647H302.41V191.977H312.41ZM307.41 119.647H293.082V129.647H307.41V119.647ZM298.082 124.647V103.097H288.082V124.647H298.082ZM293.082 108.097H307.41V98.0971H293.082V108.097ZM312.41 103.097V81.5469H302.41V103.097H312.41ZM307.98 86.5143L342.46 82.5537L341.319 72.619L306.839 76.5796L307.98 86.5143ZM336.89 77.5864V103.097H346.89V77.5864H336.89ZM341.89 108.097H369.264V98.0971H341.89V108.097ZM364.264 103.097V124.647H374.264V103.097H364.264ZM369.264 119.647H341.89V129.647H369.264V119.647ZM336.89 124.647V187.434H346.89V124.647H336.89ZM336.89 187.434C336.89 196.848 338.464 204.941 343.247 209.724L350.318 202.653C348.577 200.912 346.89 196.503 346.89 187.434H336.89ZM343.29 209.766C347.793 214.162 354.019 215.964 361.11 215.964V205.964C355.621 205.964 352.295 204.582 350.275 202.61L343.29 209.766ZM361.11 215.964C364.636 215.964 368.622 215.321 372.988 214.168L370.434 204.499C366.568 205.52 363.486 205.964 361.11 205.964V215.964ZM366.711 209.333V230.301H376.711V209.333H366.711ZM402.463 231H397.463V236H402.463V231ZM402.463 103.097V98.0971H397.463V103.097H402.463ZM436.943 103.097H441.943V98.0971H436.943V103.097ZM436.943 231V236H441.943V231H436.943ZM402.463 81.5469H397.463V86.5469H402.463V81.5469ZM402.463 52.7746V47.7746H397.463V52.7746H402.463ZM436.943 52.7746H441.943V47.7746H436.943V52.7746ZM436.943 81.5469V86.5469H441.943V81.5469H436.943ZM407.463 231V103.097H397.463V231H407.463ZM402.463 108.097H436.943V98.0971H402.463V108.097ZM431.943 103.097V231H441.943V103.097H431.943ZM436.943 226H402.463V236H436.943V226ZM407.463 81.5469V52.7746H397.463V81.5469H407.463ZM402.463 57.7746H436.943V47.7746H402.463V57.7746ZM431.943 52.7746V81.5469H441.943V52.7746H431.943ZM436.943 76.5469H402.463V86.5469H436.943V76.5469ZM574.398 228.204L575.685 233.036L579.398 232.047V228.204H574.398ZM485.053 214.575L481.244 217.814L481.248 217.82L481.253 217.825L485.053 214.575ZM485.985 118.823L489.622 122.254L489.627 122.248L489.632 122.243L485.985 118.823ZM573.35 105.194H578.35V101.274L574.543 100.338L573.35 105.194ZM573.35 130.122L571.808 134.878L578.35 136.999V130.122H573.35ZM513.359 136.878L517.624 139.489L517.629 139.48L517.634 139.472L513.359 136.878ZM509.864 190.229L505.281 192.228L505.285 192.237L505.289 192.246L509.864 190.229ZM523.144 206.072L520.606 210.38L520.619 210.387L520.632 210.395L523.144 206.072ZM574.398 204.324H579.398V196.861L572.496 199.7L574.398 204.324ZM573.112 223.373C559.162 227.087 546.281 228.912 534.443 228.912V238.912C547.301 238.912 561.056 236.932 575.685 233.036L573.112 223.373ZM534.443 228.912C513.549 228.912 498.669 222.801 488.852 211.325L481.253 217.825C493.491 232.132 511.538 238.912 534.443 238.912V228.912ZM488.862 211.336C478.685 199.367 473.511 184.671 473.511 166.932H463.511C463.511 186.78 469.366 203.845 481.244 217.814L488.862 211.336ZM473.511 166.932C473.511 148.261 478.989 133.524 489.622 122.254L482.348 115.392C469.682 128.817 463.511 146.153 463.511 166.932H473.511ZM489.632 122.243C500.055 111.125 515.667 105.185 537.355 105.185V95.1849C513.847 95.1849 495.211 101.67 482.337 115.403L489.632 122.243ZM537.355 105.185C547.249 105.185 558.833 106.775 572.157 110.049L574.543 100.338C560.687 96.9336 548.274 95.1849 537.355 95.1849V105.185ZM568.35 105.194V130.122H578.35V105.194H568.35ZM574.892 125.366C560.581 120.727 548.735 118.249 539.569 118.249V128.249C547.177 128.249 557.851 130.354 571.808 134.878L574.892 125.366ZM539.569 118.249C526.123 118.249 515.633 123.494 509.085 134.284L517.634 139.472C522.113 132.091 529.096 128.249 539.569 128.249V118.249ZM509.094 134.268C503.085 144.086 500.088 154.934 500.088 166.699H510.088C510.088 156.72 512.605 147.687 517.624 139.489L509.094 134.268ZM500.088 166.699C500.088 175.737 501.808 184.265 505.281 192.228L514.447 188.23C511.553 181.594 510.088 174.435 510.088 166.699H500.088ZM505.289 192.246C508.809 200.231 513.867 206.41 520.606 210.38L525.682 201.764C521.083 199.055 517.287 194.672 514.44 188.212L505.289 192.246ZM520.632 210.395C527.199 214.211 534.522 216.081 542.481 216.081V206.081C536.15 206.081 530.583 204.611 525.656 201.749L520.632 210.395ZM542.481 216.081C553.55 216.081 564.835 213.665 576.3 208.949L572.496 199.7C562.062 203.992 552.068 206.081 542.481 206.081V216.081ZM569.398 204.324V228.204H579.398V204.324H569.398ZM607.015 231H602.015V236H607.015V231ZM607.015 47.0667V42.0667H602.015V47.0667H607.015ZM641.495 47.0667H646.495V42.0667H641.495V47.0667ZM641.495 231V236H646.495V231H641.495ZM612.015 231V47.0667H602.015V231H612.015ZM607.015 52.0667H641.495V42.0667H607.015V52.0667ZM636.495 47.0667V231H646.495V47.0667H636.495ZM641.495 226H607.015V236H641.495V226ZM788.735 226.69L790.144 231.487L793.735 230.432V226.69H788.735ZM705.563 226.224L703.327 230.696L703.347 230.706L703.367 230.716L705.563 226.224ZM681.45 201.995L676.991 204.256L677 204.275L677.01 204.294L681.45 201.995ZM680.169 133.034L675.649 130.895L675.646 130.903L675.642 130.91L680.169 133.034ZM701.02 109.038L703.718 113.247L703.727 113.241L701.02 109.038ZM788.735 173.921V178.921H793.735V173.921H788.735ZM709.407 173.921V168.921H703.936L704.427 174.37L709.407 173.921ZM715.231 194.307L710.991 196.957L711.006 196.98L711.021 197.004L715.231 194.307ZM728.045 206.188L725.633 210.568L725.657 210.581L725.682 210.595L728.045 206.188ZM788.735 202.461H793.735V195.286L787.004 197.77L788.735 202.461ZM708.941 154.468L703.967 153.963L703.408 159.468H708.941V154.468ZM754.837 154.468V159.468H759.837V154.468H754.837ZM748.896 129.307L744.933 132.355L744.948 132.374L744.962 132.393L748.896 129.307ZM717.095 130.122L721.021 133.219L721.031 133.205L721.042 133.192L717.095 130.122ZM787.325 221.893C771.324 226.595 756.27 228.912 742.14 228.912V238.912C757.365 238.912 773.374 236.415 790.144 231.487L787.325 221.893ZM742.14 228.912C728.856 228.912 717.44 226.465 707.759 221.732L703.367 230.716C714.653 236.234 727.622 238.912 742.14 238.912V228.912ZM707.799 221.752C698.397 217.051 691.104 209.766 685.89 199.696L677.01 204.294C683.134 216.123 691.916 224.991 703.327 230.696L707.799 221.752ZM685.91 199.734C680.689 189.437 678.063 178.257 678.063 166.117H668.063C668.063 179.759 671.029 192.497 676.991 204.256L685.91 199.734ZM678.063 166.117C678.063 154.837 680.292 144.542 684.695 135.158L675.642 130.91C670.571 141.718 668.063 153.477 668.063 166.117H678.063ZM684.688 135.173C689.12 125.809 695.456 118.544 703.718 113.247L698.322 104.829C688.412 111.181 680.847 119.913 675.649 130.895L684.688 135.173ZM703.727 113.241C711.919 107.966 722.187 105.185 734.801 105.185V95.1849C720.701 95.1849 708.449 98.306 698.313 104.834L703.727 113.241ZM734.801 105.185C750.03 105.185 761.717 109.969 770.415 119.219L777.7 112.369C766.828 100.807 752.344 95.1849 734.801 95.1849V105.185ZM770.415 119.219C778.796 128.132 783.735 145.767 783.735 173.921H793.735C793.735 145.385 788.889 124.269 777.7 112.369L770.415 119.219ZM788.735 168.921H709.407V178.921H788.735V168.921ZM704.427 174.37C705.243 183.428 707.318 191.08 710.991 196.957L719.471 191.657C716.932 187.593 715.124 181.655 714.387 173.473L704.427 174.37ZM711.021 197.004C714.672 202.702 719.572 207.23 725.633 210.568L730.457 201.808C725.801 199.244 722.159 195.851 719.442 191.609L711.021 197.004ZM725.682 210.595C732.034 214.001 740.129 215.498 749.595 215.498V205.498C741.044 205.498 734.773 204.123 730.408 201.782L725.682 210.595ZM749.595 215.498C761.919 215.498 775.565 212.65 790.466 207.151L787.004 197.77C772.86 202.989 760.413 205.498 749.595 205.498V215.498ZM783.735 202.461V226.69H793.735V202.461H783.735ZM708.941 159.468H754.837V149.468H708.941V159.468ZM759.837 154.468C759.837 142.436 757.855 132.625 752.83 126.22L744.962 132.393C747.858 136.084 749.837 143.047 749.837 154.468H759.837ZM752.859 126.258C748.058 120.016 741.563 116.735 733.753 116.735V126.735C738.368 126.735 741.969 128.502 744.933 132.355L752.859 126.258ZM733.753 116.735C725.369 116.735 718.391 120.312 713.148 127.052L721.042 133.192C724.497 128.75 728.624 126.735 733.753 126.735V116.735ZM713.169 127.026C707.996 133.585 705.102 142.768 703.967 153.963L713.916 154.973C714.954 144.734 717.497 137.687 721.021 133.219L713.169 127.026Z" fill="#1B1B1B" mask="url(#path-1-outside-1_8001_2)"/>
<mask id="path-3-outside-2_8001_2" maskUnits="userSpaceOnUse" x="1888" y="39" width="1506" height="244" fill="black">
<rect fill="white" x="1888" y="39" width="1506" height="244"/>
<path d="M1893.88 229.486V199.898C1907.16 205.489 1917.06 208.829 1923.59 209.916C1930.19 211.003 1936.24 211.547 1941.76 211.547C1951.7 211.547 1959.11 209.295 1964.01 204.79C1968.9 200.286 1971.35 194.889 1971.35 188.599C1971.35 183.784 1970.03 179.435 1967.39 175.552C1964.74 171.747 1958.07 166.816 1947.35 160.758L1935.82 154.351C1919.35 145.11 1908.21 136.568 1902.39 128.724C1896.48 120.881 1893.53 111.795 1893.53 101.466C1893.53 88.4973 1898.42 77.3922 1908.21 68.1509C1918.07 58.9096 1932.21 54.2889 1950.61 54.2889C1964.36 54.2889 1979.85 56.2692 1997.09 60.2298V87.8372C1979.54 81.2363 1965.6 77.9358 1955.27 77.9358C1946.73 77.9358 1940.2 79.8385 1935.7 83.6437C1931.27 87.3713 1929.06 91.8755 1929.06 97.1562C1929.06 101.194 1930.38 104.961 1933.02 108.455C1935.58 111.95 1942.22 116.726 1952.94 122.783L1965.29 129.656C1984.16 140.295 1996.2 149.537 2001.4 157.38C2006.52 165.301 2009.09 174.193 2009.09 184.056C2009.09 198.189 2003.73 210.265 1993.01 220.283C1982.37 230.301 1965.4 235.31 1942.11 235.31C1928.28 235.31 1912.21 233.369 1893.88 229.486ZM2118.93 231V206.887C2112.8 216.672 2105.97 223.622 2098.43 227.738C2090.9 231.854 2083.21 233.912 2075.37 233.912C2065.27 233.912 2056.58 230.689 2049.28 224.244C2042.05 217.72 2038.44 207.47 2038.44 193.491V103.097H2072.92V184.988C2072.92 191.977 2073.54 196.714 2074.79 199.199C2076.11 201.684 2077.85 203.587 2080.03 204.907C2082.28 206.149 2084.77 206.771 2087.48 206.771C2092.22 206.771 2097.15 205.218 2102.28 202.111C2107.4 198.927 2112.96 192.753 2118.93 183.59V103.097H2153.42V231H2118.93ZM2290.99 228.204C2276.7 232.01 2263.38 233.912 2251.03 233.912C2229.13 233.912 2212.67 227.467 2201.64 214.575C2190.61 201.606 2185.1 185.725 2185.1 166.932C2185.1 147.207 2190.92 131.17 2202.57 118.823C2214.22 106.398 2231.35 100.185 2253.94 100.185C2264.35 100.185 2276.35 101.855 2289.94 105.194V130.122C2275.8 125.54 2264.54 123.249 2256.16 123.249C2244.2 123.249 2235.46 127.792 2229.95 136.878C2224.43 145.887 2221.68 155.827 2221.68 166.699C2221.68 175.086 2223.27 182.93 2226.45 190.229C2229.64 197.452 2234.06 202.732 2239.73 206.072C2245.48 209.411 2251.92 211.081 2259.07 211.081C2269.4 211.081 2280.04 208.829 2290.99 204.324V228.204ZM2417.96 228.204C2403.67 232.01 2390.35 233.912 2378 233.912C2356.1 233.912 2339.64 227.467 2328.61 214.575C2317.58 201.606 2312.07 185.725 2312.07 166.932C2312.07 147.207 2317.9 131.17 2329.54 118.823C2341.19 106.398 2358.32 100.185 2380.91 100.185C2391.32 100.185 2403.32 101.855 2416.91 105.194V130.122C2402.78 125.54 2391.51 123.249 2383.13 123.249C2371.17 123.249 2362.43 127.792 2356.92 136.878C2351.4 145.887 2348.65 155.827 2348.65 166.699C2348.65 175.086 2350.24 182.93 2353.42 190.229C2356.61 197.452 2361.03 202.732 2366.7 206.072C2372.45 209.411 2378.9 211.081 2386.04 211.081C2396.37 211.081 2407.01 208.829 2417.96 204.324V228.204ZM2554.71 226.69C2538.33 231.505 2522.8 233.912 2508.12 233.912C2494.22 233.912 2482.03 231.349 2471.54 226.224C2461.14 221.021 2453.1 212.944 2447.43 201.995C2441.84 190.967 2439.04 179.008 2439.04 166.117C2439.04 154.157 2441.41 143.13 2446.15 133.034C2450.96 122.861 2457.91 114.862 2467 109.038C2476.16 103.136 2487.42 100.185 2500.78 100.185C2517.17 100.185 2530.25 105.388 2540.04 115.794C2549.82 126.2 2554.71 145.576 2554.71 173.921H2475.39C2476.16 182.541 2478.1 189.336 2481.21 194.307C2484.39 199.277 2488.67 203.237 2494.02 206.188C2499.38 209.062 2506.57 210.498 2515.57 210.498C2527.14 210.498 2540.19 207.819 2554.71 202.461V226.69ZM2474.92 154.468H2520.82C2520.82 142.742 2518.84 134.354 2514.87 129.307C2510.99 124.259 2505.94 121.735 2499.73 121.735C2492.98 121.735 2487.42 124.531 2483.07 130.122C2478.73 135.636 2476.01 143.751 2474.92 154.468ZM2586.98 226.923V201.645C2604.07 208.79 2618.66 212.362 2630.78 212.362C2637.23 212.362 2642.35 211.003 2646.16 208.285C2650.04 205.567 2651.98 202.111 2651.98 197.918C2651.98 194.268 2650.54 191.2 2647.67 188.715C2644.8 186.308 2640.41 183.939 2634.51 181.609L2622.86 176.95C2610.82 172.135 2601.93 166.816 2596.18 160.991C2590.44 155.244 2587.56 147.75 2587.56 138.509C2587.56 127.404 2591.87 118.24 2600.49 111.018C2609.19 103.796 2622.43 100.185 2640.22 100.185C2650.62 100.185 2663.01 101.699 2677.37 104.728V128.957C2663.55 124.142 2652.1 121.735 2643.01 121.735C2635.87 121.735 2630.51 122.978 2626.94 125.463C2623.36 127.87 2621.58 131.015 2621.58 134.898C2621.58 137.927 2622.74 140.606 2625.07 142.936C2627.32 145.265 2631.44 147.556 2637.42 149.808L2647.44 153.653C2663.98 159.943 2674.81 166.039 2679.94 171.941C2684.99 177.921 2687.51 185.065 2687.51 193.375C2687.51 204.169 2682.85 213.643 2673.53 221.798C2664.29 229.874 2650.82 233.912 2633.11 233.912C2618.04 233.912 2602.67 231.582 2586.98 226.923ZM2721.87 226.923V201.645C2738.96 208.79 2753.56 212.362 2765.67 212.362C2772.12 212.362 2777.24 211.003 2781.05 208.285C2784.93 205.567 2786.87 202.111 2786.87 197.918C2786.87 194.268 2785.44 191.2 2782.56 188.715C2779.69 186.308 2775.3 183.939 2769.4 181.609L2757.75 176.95C2745.71 172.135 2736.82 166.816 2731.08 160.991C2725.33 155.244 2722.46 147.75 2722.46 138.509C2722.46 127.404 2726.77 118.24 2735.39 111.018C2744.08 103.796 2757.32 100.185 2775.11 100.185C2785.51 100.185 2797.9 101.699 2812.27 104.728V128.957C2798.44 124.142 2786.99 121.735 2777.9 121.735C2770.76 121.735 2765.4 122.978 2761.83 125.463C2758.26 127.87 2756.47 131.015 2756.47 134.898C2756.47 137.927 2757.63 140.606 2759.96 142.936C2762.22 145.265 2766.33 147.556 2772.31 149.808L2782.33 153.653C2798.87 159.943 2809.7 166.039 2814.83 171.941C2819.88 177.921 2822.4 185.065 2822.4 193.375C2822.4 204.169 2817.74 213.643 2808.42 221.798C2799.18 229.874 2785.71 233.912 2768 233.912C2752.94 233.912 2737.56 231.582 2721.87 226.923ZM2863.75 231V124.647H2846.16V103.097H2863.75V93.8946C2863.75 76.0332 2867.83 63.2973 2875.99 55.6868C2884.22 47.9986 2895.87 44.1545 2910.93 44.1545C2921.1 44.1545 2931.59 45.6301 2942.38 48.5811V71.8785C2932.6 67.7626 2923.82 65.7047 2916.06 65.7047C2912.41 65.7047 2909.26 66.4424 2906.62 67.9179C2904.06 69.3158 2902 71.7232 2900.45 75.1401C2898.97 78.4794 2898.23 84.3038 2898.23 92.6132V103.097H2930.62V124.647H2898.23V231H2863.75ZM3038.25 231V206.887C3032.12 216.672 3025.28 223.622 3017.75 227.738C3010.22 231.854 3002.53 233.912 2994.69 233.912C2984.59 233.912 2975.89 230.689 2968.59 224.244C2961.37 217.72 2957.76 207.47 2957.76 193.491V103.097H2992.24V184.988C2992.24 191.977 2992.86 196.714 2994.1 199.199C2995.42 201.684 2997.17 203.587 2999.35 204.907C3001.6 206.149 3004.08 206.771 3006.8 206.771C3011.54 206.771 3016.47 205.218 3021.59 202.111C3026.72 198.927 3032.27 192.753 3038.25 183.59V103.097H3072.73V231H3038.25ZM3115.95 231V47.0667H3150.43V231H3115.95ZM3193.53 231V47.0667H3228.01V231H3193.53ZM3271.58 277.012L3300.58 231L3253.17 103.097H3290.21L3321.9 188.599L3359.52 103.097H3385.73L3306.75 277.012H3271.58Z"/>
</mask>
<path d="M1893.88 229.486V199.898C1907.16 205.489 1917.06 208.829 1923.59 209.916C1930.19 211.003 1936.24 211.547 1941.76 211.547C1951.7 211.547 1959.11 209.295 1964.01 204.79C1968.9 200.286 1971.35 194.889 1971.35 188.599C1971.35 183.784 1970.03 179.435 1967.39 175.552C1964.74 171.747 1958.07 166.816 1947.35 160.758L1935.82 154.351C1919.35 145.11 1908.21 136.568 1902.39 128.724C1896.48 120.881 1893.53 111.795 1893.53 101.466C1893.53 88.4973 1898.42 77.3922 1908.21 68.1509C1918.07 58.9096 1932.21 54.2889 1950.61 54.2889C1964.36 54.2889 1979.85 56.2692 1997.09 60.2298V87.8372C1979.54 81.2363 1965.6 77.9358 1955.27 77.9358C1946.73 77.9358 1940.2 79.8385 1935.7 83.6437C1931.27 87.3713 1929.06 91.8755 1929.06 97.1562C1929.06 101.194 1930.38 104.961 1933.02 108.455C1935.58 111.95 1942.22 116.726 1952.94 122.783L1965.29 129.656C1984.16 140.295 1996.2 149.537 2001.4 157.38C2006.52 165.301 2009.09 174.193 2009.09 184.056C2009.09 198.189 2003.73 210.265 1993.01 220.283C1982.37 230.301 1965.4 235.31 1942.11 235.31C1928.28 235.31 1912.21 233.369 1893.88 229.486ZM2118.93 231V206.887C2112.8 216.672 2105.97 223.622 2098.43 227.738C2090.9 231.854 2083.21 233.912 2075.37 233.912C2065.27 233.912 2056.58 230.689 2049.28 224.244C2042.05 217.72 2038.44 207.47 2038.44 193.491V103.097H2072.92V184.988C2072.92 191.977 2073.54 196.714 2074.79 199.199C2076.11 201.684 2077.85 203.587 2080.03 204.907C2082.28 206.149 2084.77 206.771 2087.48 206.771C2092.22 206.771 2097.15 205.218 2102.28 202.111C2107.4 198.927 2112.96 192.753 2118.93 183.59V103.097H2153.42V231H2118.93ZM2290.99 228.204C2276.7 232.01 2263.38 233.912 2251.03 233.912C2229.13 233.912 2212.67 227.467 2201.64 214.575C2190.61 201.606 2185.1 185.725 2185.1 166.932C2185.1 147.207 2190.92 131.17 2202.57 118.823C2214.22 106.398 2231.35 100.185 2253.94 100.185C2264.35 100.185 2276.35 101.855 2289.94 105.194V130.122C2275.8 125.54 2264.54 123.249 2256.16 123.249C2244.2 123.249 2235.46 127.792 2229.95 136.878C2224.43 145.887 2221.68 155.827 2221.68 166.699C2221.68 175.086 2223.27 182.93 2226.45 190.229C2229.64 197.452 2234.06 202.732 2239.73 206.072C2245.48 209.411 2251.92 211.081 2259.07 211.081C2269.4 211.081 2280.04 208.829 2290.99 204.324V228.204ZM2417.96 228.204C2403.67 232.01 2390.35 233.912 2378 233.912C2356.1 233.912 2339.64 227.467 2328.61 214.575C2317.58 201.606 2312.07 185.725 2312.07 166.932C2312.07 147.207 2317.9 131.17 2329.54 118.823C2341.19 106.398 2358.32 100.185 2380.91 100.185C2391.32 100.185 2403.32 101.855 2416.91 105.194V130.122C2402.78 125.54 2391.51 123.249 2383.13 123.249C2371.17 123.249 2362.43 127.792 2356.92 136.878C2351.4 145.887 2348.65 155.827 2348.65 166.699C2348.65 175.086 2350.24 182.93 2353.42 190.229C2356.61 197.452 2361.03 202.732 2366.7 206.072C2372.45 209.411 2378.9 211.081 2386.04 211.081C2396.37 211.081 2407.01 208.829 2417.96 204.324V228.204ZM2554.71 226.69C2538.33 231.505 2522.8 233.912 2508.12 233.912C2494.22 233.912 2482.03 231.349 2471.54 226.224C2461.14 221.021 2453.1 212.944 2447.43 201.995C2441.84 190.967 2439.04 179.008 2439.04 166.117C2439.04 154.157 2441.41 143.13 2446.15 133.034C2450.96 122.861 2457.91 114.862 2467 109.038C2476.16 103.136 2487.42 100.185 2500.78 100.185C2517.17 100.185 2530.25 105.388 2540.04 115.794C2549.82 126.2 2554.71 145.576 2554.71 173.921H2475.39C2476.16 182.541 2478.1 189.336 2481.21 194.307C2484.39 199.277 2488.67 203.237 2494.02 206.188C2499.38 209.062 2506.57 210.498 2515.57 210.498C2527.14 210.498 2540.19 207.819 2554.71 202.461V226.69ZM2474.92 154.468H2520.82C2520.82 142.742 2518.84 134.354 2514.87 129.307C2510.99 124.259 2505.94 121.735 2499.73 121.735C2492.98 121.735 2487.42 124.531 2483.07 130.122C2478.73 135.636 2476.01 143.751 2474.92 154.468ZM2586.98 226.923V201.645C2604.07 208.79 2618.66 212.362 2630.78 212.362C2637.23 212.362 2642.35 211.003 2646.16 208.285C2650.04 205.567 2651.98 202.111 2651.98 197.918C2651.98 194.268 2650.54 191.2 2647.67 188.715C2644.8 186.308 2640.41 183.939 2634.51 181.609L2622.86 176.95C2610.82 172.135 2601.93 166.816 2596.18 160.991C2590.44 155.244 2587.56 147.75 2587.56 138.509C2587.56 127.404 2591.87 118.24 2600.49 111.018C2609.19 103.796 2622.43 100.185 2640.22 100.185C2650.62 100.185 2663.01 101.699 2677.37 104.728V128.957C2663.55 124.142 2652.1 121.735 2643.01 121.735C2635.87 121.735 2630.51 122.978 2626.94 125.463C2623.36 127.87 2621.58 131.015 2621.58 134.898C2621.58 137.927 2622.74 140.606 2625.07 142.936C2627.32 145.265 2631.44 147.556 2637.42 149.808L2647.44 153.653C2663.98 159.943 2674.81 166.039 2679.94 171.941C2684.99 177.921 2687.51 185.065 2687.51 193.375C2687.51 204.169 2682.85 213.643 2673.53 221.798C2664.29 229.874 2650.82 233.912 2633.11 233.912C2618.04 233.912 2602.67 231.582 2586.98 226.923ZM2721.87 226.923V201.645C2738.96 208.79 2753.56 212.362 2765.67 212.362C2772.12 212.362 2777.24 211.003 2781.05 208.285C2784.93 205.567 2786.87 202.111 2786.87 197.918C2786.87 194.268 2785.44 191.2 2782.56 188.715C2779.69 186.308 2775.3 183.939 2769.4 181.609L2757.75 176.95C2745.71 172.135 2736.82 166.816 2731.08 160.991C2725.33 155.244 2722.46 147.75 2722.46 138.509C2722.46 127.404 2726.77 118.24 2735.39 111.018C2744.08 103.796 2757.32 100.185 2775.11 100.185C2785.51 100.185 2797.9 101.699 2812.27 104.728V128.957C2798.44 124.142 2786.99 121.735 2777.9 121.735C2770.76 121.735 2765.4 122.978 2761.83 125.463C2758.26 127.87 2756.47 131.015 2756.47 134.898C2756.47 137.927 2757.63 140.606 2759.96 142.936C2762.22 145.265 2766.33 147.556 2772.31 149.808L2782.33 153.653C2798.87 159.943 2809.7 166.039 2814.83 171.941C2819.88 177.921 2822.4 185.065 2822.4 193.375C2822.4 204.169 2817.74 213.643 2808.42 221.798C2799.18 229.874 2785.71 233.912 2768 233.912C2752.94 233.912 2737.56 231.582 2721.87 226.923ZM2863.75 231V124.647H2846.16V103.097H2863.75V93.8946C2863.75 76.0332 2867.83 63.2973 2875.99 55.6868C2884.22 47.9986 2895.87 44.1545 2910.93 44.1545C2921.1 44.1545 2931.59 45.6301 2942.38 48.5811V71.8785C2932.6 67.7626 2923.82 65.7047 2916.06 65.7047C2912.41 65.7047 2909.26 66.4424 2906.62 67.9179C2904.06 69.3158 2902 71.7232 2900.45 75.1401C2898.97 78.4794 2898.23 84.3038 2898.23 92.6132V103.097H2930.62V124.647H2898.23V231H2863.75ZM3038.25 231V206.887C3032.12 216.672 3025.28 223.622 3017.75 227.738C3010.22 231.854 3002.53 233.912 2994.69 233.912C2984.59 233.912 2975.89 230.689 2968.59 224.244C2961.37 217.72 2957.76 207.47 2957.76 193.491V103.097H2992.24V184.988C2992.24 191.977 2992.86 196.714 2994.1 199.199C2995.42 201.684 2997.17 203.587 2999.35 204.907C3001.6 206.149 3004.08 206.771 3006.8 206.771C3011.54 206.771 3016.47 205.218 3021.59 202.111C3026.72 198.927 3032.27 192.753 3038.25 183.59V103.097H3072.73V231H3038.25ZM3115.95 231V47.0667H3150.43V231H3115.95ZM3193.53 231V47.0667H3228.01V231H3193.53ZM3271.58 277.012L3300.58 231L3253.17 103.097H3290.21L3321.9 188.599L3359.52 103.097H3385.73L3306.75 277.012H3271.58Z" fill="#DCA413"/>
<path d="M1893.88 229.486H1888.88V233.537L1892.85 234.377L1893.88 229.486ZM1893.88 199.898L1895.82 195.29L1888.88 192.368V199.898H1893.88ZM1923.59 209.916L1922.76 214.848L1922.77 214.849L1923.59 209.916ZM1967.39 175.552L1971.52 172.741L1971.51 172.721L1971.49 172.702L1967.39 175.552ZM1947.35 160.758L1949.81 156.405L1949.79 156.396L1949.78 156.387L1947.35 160.758ZM1935.82 154.351L1933.37 158.712L1933.38 158.717L1933.39 158.722L1935.82 154.351ZM1902.39 128.724L1906.4 125.743L1906.39 125.731L1906.38 125.718L1902.39 128.724ZM1908.21 68.1509L1904.79 64.5023L1904.78 64.5091L1904.78 64.5158L1908.21 68.1509ZM1997.09 60.2298H2002.09V56.2482L1998.21 55.3567L1997.09 60.2298ZM1997.09 87.8372L1995.33 92.5172L2002.09 95.0597V87.8372H1997.09ZM1935.7 83.6437L1938.92 87.4683L1938.93 87.4631L1935.7 83.6437ZM1933.02 108.455L1937.05 105.499L1937.03 105.47L1937.01 105.441L1933.02 108.455ZM1952.94 122.783L1950.48 127.136L1950.49 127.144L1950.51 127.152L1952.94 122.783ZM1965.29 129.656L1967.74 125.301L1967.73 125.294L1967.72 125.287L1965.29 129.656ZM2001.4 157.38L2005.6 154.664L2005.58 154.64L2005.57 154.616L2001.4 157.38ZM1993.01 220.283L1989.6 216.631L1989.59 216.637L1989.58 216.643L1993.01 220.283ZM1898.88 229.486V199.898H1888.88V229.486H1898.88ZM1891.94 204.506C1905.26 210.115 1915.62 213.658 1922.76 214.848L1924.41 204.984C1918.5 204 1909.06 200.864 1895.82 195.29L1891.94 204.506ZM1922.77 214.849C1929.59 215.972 1935.92 216.547 1941.76 216.547V206.547C1936.57 206.547 1930.79 206.034 1924.4 204.982L1922.77 214.849ZM1941.76 216.547C1952.35 216.547 1961.21 214.16 1967.39 208.469L1960.62 201.112C1957.02 204.429 1951.05 206.547 1941.76 206.547V216.547ZM1967.39 208.469C1973.25 203.079 1976.35 196.374 1976.35 188.599H1966.35C1966.35 193.404 1964.55 197.493 1960.62 201.112L1967.39 208.469ZM1976.35 188.599C1976.35 182.808 1974.74 177.475 1971.52 172.741L1963.25 178.364C1965.31 181.395 1966.35 184.76 1966.35 188.599H1976.35ZM1971.49 172.702C1969.71 170.125 1966.85 167.554 1963.37 164.977C1959.81 162.349 1955.27 159.491 1949.81 156.405L1944.89 165.111C1950.15 168.083 1954.31 170.719 1957.43 173.022C1960.62 175.377 1962.42 177.174 1963.28 178.403L1971.49 172.702ZM1949.78 156.387L1938.25 149.981L1933.39 158.722L1944.92 165.129L1949.78 156.387ZM1938.26 149.991C1921.95 140.833 1911.57 132.71 1906.4 125.743L1898.37 131.705C1904.85 140.425 1916.76 149.388 1933.37 158.712L1938.26 149.991ZM1906.38 125.718C1901.17 118.788 1898.53 110.771 1898.53 101.466H1888.53C1888.53 112.819 1891.8 122.973 1898.39 131.731L1906.38 125.718ZM1898.53 101.466C1898.53 89.9305 1902.82 80.123 1911.64 71.786L1904.78 64.5158C1894.03 74.6615 1888.53 87.0642 1888.53 101.466H1898.53ZM1911.63 71.7995C1920.27 63.7 1933.01 59.2889 1950.61 59.2889V49.2889C1931.4 49.2889 1915.87 54.1192 1904.79 64.5023L1911.63 71.7995ZM1950.61 59.2889C1963.89 59.2889 1979 61.2039 1995.97 65.1028L1998.21 55.3567C1980.7 51.3345 1964.82 49.2889 1950.61 49.2889V59.2889ZM1992.09 60.2298V87.8372H2002.09V60.2298H1992.09ZM1998.85 83.1573C1981.12 76.4883 1966.5 72.9358 1955.27 72.9358V82.9358C1964.69 82.9358 1977.96 85.9843 1995.33 92.5172L1998.85 83.1573ZM1955.27 72.9358C1946.07 72.9358 1938.21 74.9783 1932.47 79.8243L1938.93 87.4631C1942.2 84.6986 1947.39 82.9358 1955.27 82.9358V72.9358ZM1932.48 79.8191C1927.05 84.3937 1924.06 90.2477 1924.06 97.1562H1934.06C1934.06 93.5032 1935.5 90.3489 1938.92 87.4683L1932.48 79.8191ZM1924.06 97.1562C1924.06 102.376 1925.79 107.185 1929.03 111.47L1937.01 105.441C1934.97 102.737 1934.06 100.013 1934.06 97.1562H1924.06ZM1928.99 111.412C1930.75 113.807 1933.56 116.244 1937 118.717C1940.52 121.25 1945.03 124.058 1950.48 127.136L1955.4 118.431C1950.13 115.452 1945.96 112.843 1942.84 110.599C1939.64 108.297 1937.86 106.598 1937.05 105.499L1928.99 111.412ZM1950.51 127.152L1962.86 134.025L1967.72 125.287L1955.37 118.415L1950.51 127.152ZM1962.83 134.012C1981.69 144.643 1992.75 153.392 1997.23 160.144L2005.57 154.616C1999.64 145.682 1986.63 135.948 1967.74 125.301L1962.83 134.012ZM1997.2 160.096C2001.78 167.171 2004.09 175.111 2004.09 184.056H2014.09C2014.09 173.275 2011.27 163.432 2005.6 154.664L1997.2 160.096ZM2004.09 184.056C2004.09 196.747 1999.35 207.518 1989.6 216.631L1996.43 223.936C2008.11 213.013 2014.09 199.632 2014.09 184.056H2004.09ZM1989.58 216.643C1980.29 225.393 1964.85 230.31 1942.11 230.31V240.31C1965.96 240.31 1984.45 235.209 1996.44 223.923L1989.58 216.643ZM1942.11 230.31C1928.73 230.31 1913.02 228.429 1894.92 224.594L1892.85 234.377C1911.4 238.309 1927.84 240.31 1942.11 240.31V230.31ZM2118.93 231H2113.93V236H2118.93V231ZM2118.93 206.887H2123.93V189.5L2114.7 204.231L2118.93 206.887ZM2049.28 224.244L2045.92 227.954L2045.95 227.973L2045.97 227.992L2049.28 224.244ZM2038.44 103.097V98.0971H2033.44V103.097H2038.44ZM2072.92 103.097H2077.92V98.0971H2072.92V103.097ZM2074.79 199.199L2070.31 201.435L2070.34 201.49L2070.37 201.545L2074.79 199.199ZM2080.03 204.907L2077.43 209.181L2077.52 209.235L2077.61 209.285L2080.03 204.907ZM2102.28 202.111L2104.87 206.387L2104.89 206.373L2104.92 206.358L2102.28 202.111ZM2118.93 183.59L2123.12 186.322L2123.93 185.077V183.59H2118.93ZM2118.93 103.097V98.0971H2113.93V103.097H2118.93ZM2153.42 103.097H2158.42V98.0971H2153.42V103.097ZM2153.42 231V236H2158.42V231H2153.42ZM2123.93 231V206.887H2113.93V231H2123.93ZM2114.7 204.231C2108.87 213.532 2102.6 219.763 2096.04 223.351L2100.83 232.126C2109.33 227.482 2116.73 219.812 2123.17 209.543L2114.7 204.231ZM2096.04 223.351C2089.17 227.104 2082.3 228.912 2075.37 228.912V238.912C2084.13 238.912 2092.63 236.605 2100.83 232.126L2096.04 223.351ZM2075.37 228.912C2066.44 228.912 2058.94 226.103 2052.59 220.496L2045.97 227.992C2054.22 235.276 2064.1 238.912 2075.37 238.912V228.912ZM2052.63 220.533C2046.85 215.311 2043.44 206.686 2043.44 193.491H2033.44C2033.44 208.254 2037.26 220.13 2045.92 227.954L2052.63 220.533ZM2043.44 193.491V103.097H2033.44V193.491H2043.44ZM2038.44 108.097H2072.92V98.0971H2038.44V108.097ZM2067.92 103.097V184.988H2077.92V103.097H2067.92ZM2067.92 184.988C2067.92 188.61 2068.08 191.775 2068.43 194.433C2068.77 197.016 2069.33 199.461 2070.31 201.435L2079.26 196.963C2079 196.452 2078.63 195.286 2078.35 193.132C2078.07 191.053 2077.92 188.354 2077.92 184.988H2067.92ZM2070.37 201.545C2072.07 204.738 2074.41 207.345 2077.43 209.181L2082.62 200.633C2081.3 199.828 2080.15 198.63 2079.2 196.853L2070.37 201.545ZM2077.61 209.285C2080.65 210.959 2083.97 211.771 2087.48 211.771V201.771C2085.56 201.771 2083.91 201.34 2082.44 200.529L2077.61 209.285ZM2087.48 211.771C2093.35 211.771 2099.17 209.843 2104.87 206.387L2099.69 197.835C2095.14 200.592 2091.09 201.771 2087.48 201.771V211.771ZM2104.92 206.358C2110.98 202.591 2117.02 195.679 2123.12 186.322L2114.75 180.857C2108.89 189.828 2103.83 195.263 2099.64 197.864L2104.92 206.358ZM2123.93 183.59V103.097H2113.93V183.59H2123.93ZM2118.93 108.097H2153.42V98.0971H2118.93V108.097ZM2148.42 103.097V231H2158.42V103.097H2148.42ZM2153.42 226H2118.93V236H2153.42V226ZM2290.99 228.204L2292.27 233.036L2295.99 232.047V228.204H2290.99ZM2201.64 214.575L2197.83 217.814L2197.84 217.82L2197.84 217.825L2201.64 214.575ZM2202.57 118.823L2206.21 122.254L2206.22 122.248L2206.22 122.243L2202.57 118.823ZM2289.94 105.194H2294.94V101.274L2291.13 100.338L2289.94 105.194ZM2289.94 130.122L2288.4 134.878L2294.94 136.999V130.122H2289.94ZM2229.95 136.878L2234.21 139.489L2234.22 139.48L2234.22 139.472L2229.95 136.878ZM2226.45 190.229L2221.87 192.228L2221.87 192.237L2221.88 192.246L2226.45 190.229ZM2239.73 206.072L2237.19 210.38L2237.21 210.387L2237.22 210.395L2239.73 206.072ZM2290.99 204.324H2295.99V196.861L2289.08 199.7L2290.99 204.324ZM2289.7 223.373C2275.75 227.087 2262.87 228.912 2251.03 228.912V238.912C2263.89 238.912 2277.64 236.932 2292.27 233.036L2289.7 223.373ZM2251.03 228.912C2230.14 228.912 2215.26 222.801 2205.44 211.325L2197.84 217.825C2210.08 232.132 2228.13 238.912 2251.03 238.912V228.912ZM2205.45 211.336C2195.27 199.367 2190.1 184.671 2190.1 166.932H2180.1C2180.1 186.78 2185.95 203.845 2197.83 217.814L2205.45 211.336ZM2190.1 166.932C2190.1 148.261 2195.58 133.524 2206.21 122.254L2198.94 115.392C2186.27 128.817 2180.1 146.153 2180.1 166.932H2190.1ZM2206.22 122.243C2216.64 111.125 2232.25 105.185 2253.94 105.185V95.1849C2230.44 95.1849 2211.8 101.67 2198.93 115.403L2206.22 122.243ZM2253.94 105.185C2263.84 105.185 2275.42 106.775 2288.75 110.049L2291.13 100.338C2277.28 96.9336 2264.86 95.1849 2253.94 95.1849V105.185ZM2284.94 105.194V130.122H2294.94V105.194H2284.94ZM2291.48 125.366C2277.17 120.727 2265.32 118.249 2256.16 118.249V128.249C2263.77 128.249 2274.44 130.354 2288.4 134.878L2291.48 125.366ZM2256.16 118.249C2242.71 118.249 2232.22 123.494 2225.67 134.284L2234.22 139.472C2238.7 132.091 2245.68 128.249 2256.16 128.249V118.249ZM2225.68 134.268C2219.67 144.086 2216.68 154.934 2216.68 166.699H2226.68C2226.68 156.72 2229.19 147.687 2234.21 139.489L2225.68 134.268ZM2216.68 166.699C2216.68 175.737 2218.4 184.265 2221.87 192.228L2231.04 188.23C2228.14 181.594 2226.68 174.435 2226.68 166.699H2216.68ZM2221.88 192.246C2225.4 200.231 2230.45 206.41 2237.19 210.38L2242.27 201.764C2237.67 199.055 2233.88 194.672 2231.03 188.212L2221.88 192.246ZM2237.22 210.395C2243.79 214.211 2251.11 216.081 2259.07 216.081V206.081C2252.74 206.081 2247.17 204.611 2242.24 201.749L2237.22 210.395ZM2259.07 216.081C2270.14 216.081 2281.42 213.665 2292.89 208.949L2289.08 199.7C2278.65 203.992 2268.66 206.081 2259.07 206.081V216.081ZM2285.99 204.324V228.204H2295.99V204.324H2285.99ZM2417.96 228.204L2419.24 233.036L2422.96 232.047V228.204H2417.96ZM2328.61 214.575L2324.8 217.814L2324.81 217.82L2324.81 217.825L2328.61 214.575ZM2329.54 118.823L2333.18 122.254L2333.19 122.248L2333.19 122.243L2329.54 118.823ZM2416.91 105.194H2421.91V101.274L2418.1 100.338L2416.91 105.194ZM2416.91 130.122L2415.37 134.878L2421.91 136.999V130.122H2416.91ZM2356.92 136.878L2361.18 139.489L2361.19 139.48L2361.19 139.472L2356.92 136.878ZM2353.42 190.229L2348.84 192.228L2348.84 192.237L2348.85 192.246L2353.42 190.229ZM2366.7 206.072L2364.17 210.38L2364.18 210.387L2364.19 210.395L2366.7 206.072ZM2417.96 204.324H2422.96V196.861L2416.06 199.7L2417.96 204.324ZM2416.67 223.373C2402.72 227.087 2389.84 228.912 2378 228.912V238.912C2390.86 238.912 2404.62 236.932 2419.24 233.036L2416.67 223.373ZM2378 228.912C2357.11 228.912 2342.23 222.801 2332.41 211.325L2324.81 217.825C2337.05 232.132 2355.1 238.912 2378 238.912V228.912ZM2332.42 211.336C2322.24 199.367 2317.07 184.671 2317.07 166.932H2307.07C2307.07 186.78 2312.93 203.845 2324.8 217.814L2332.42 211.336ZM2317.07 166.932C2317.07 148.261 2322.55 133.524 2333.18 122.254L2325.91 115.392C2313.24 128.817 2307.07 146.153 2307.07 166.932H2317.07ZM2333.19 122.243C2343.61 111.125 2359.23 105.185 2380.91 105.185V95.1849C2357.41 95.1849 2338.77 101.67 2325.9 115.403L2333.19 122.243ZM2380.91 105.185C2390.81 105.185 2402.39 106.775 2415.72 110.049L2418.1 100.338C2404.25 96.9336 2391.83 95.1849 2380.91 95.1849V105.185ZM2411.91 105.194V130.122H2421.91V105.194H2411.91ZM2418.45 125.366C2404.14 120.727 2392.29 118.249 2383.13 118.249V128.249C2390.74 128.249 2401.41 130.354 2415.37 134.878L2418.45 125.366ZM2383.13 118.249C2369.68 118.249 2359.19 123.494 2352.64 134.284L2361.19 139.472C2365.67 132.091 2372.65 128.249 2383.13 128.249V118.249ZM2352.65 134.268C2346.64 144.086 2343.65 154.934 2343.65 166.699H2353.65C2353.65 156.72 2356.16 147.687 2361.18 139.489L2352.65 134.268ZM2343.65 166.699C2343.65 175.737 2345.37 184.265 2348.84 192.228L2358.01 188.23C2355.11 181.594 2353.65 174.435 2353.65 166.699H2343.65ZM2348.85 192.246C2352.37 200.231 2357.43 206.41 2364.17 210.38L2369.24 201.764C2364.64 199.055 2360.85 194.672 2358 188.212L2348.85 192.246ZM2364.19 210.395C2370.76 214.211 2378.08 216.081 2386.04 216.081V206.081C2379.71 206.081 2374.14 204.611 2369.22 201.749L2364.19 210.395ZM2386.04 216.081C2397.11 216.081 2408.39 213.665 2419.86 208.949L2416.06 199.7C2405.62 203.992 2395.63 206.081 2386.04 206.081V216.081ZM2412.96 204.324V228.204H2422.96V204.324H2412.96ZM2554.71 226.69L2556.12 231.487L2559.71 230.432V226.69H2554.71ZM2471.54 226.224L2469.31 230.696L2469.33 230.706L2469.35 230.716L2471.54 226.224ZM2447.43 201.995L2442.97 204.256L2442.98 204.275L2442.99 204.294L2447.43 201.995ZM2446.15 133.034L2441.63 130.895L2441.62 130.903L2441.62 130.91L2446.15 133.034ZM2467 109.038L2469.7 113.247L2469.71 113.241L2467 109.038ZM2554.71 173.921V178.921H2559.71V173.921H2554.71ZM2475.39 173.921V168.921H2469.92L2470.41 174.37L2475.39 173.921ZM2481.21 194.307L2476.97 196.957L2476.98 196.98L2477 197.004L2481.21 194.307ZM2494.02 206.188L2491.61 210.568L2491.64 210.581L2491.66 210.595L2494.02 206.188ZM2554.71 202.461H2559.71V195.286L2552.98 197.77L2554.71 202.461ZM2474.92 154.468L2469.95 153.963L2469.39 159.468H2474.92V154.468ZM2520.82 154.468V159.468H2525.82V154.468H2520.82ZM2514.87 129.307L2510.91 132.355L2510.93 132.374L2510.94 132.393L2514.87 129.307ZM2483.07 130.122L2487 133.219L2487.01 133.205L2487.02 133.192L2483.07 130.122ZM2553.3 221.893C2537.3 226.595 2522.25 228.912 2508.12 228.912V238.912C2523.34 238.912 2539.35 236.415 2556.12 231.487L2553.3 221.893ZM2508.12 228.912C2494.83 228.912 2483.42 226.465 2473.74 221.732L2469.35 230.716C2480.63 236.234 2493.6 238.912 2508.12 238.912V228.912ZM2473.78 221.752C2464.38 217.051 2457.08 209.766 2451.87 199.696L2442.99 204.294C2449.11 216.123 2457.89 224.991 2469.31 230.696L2473.78 221.752ZM2451.89 199.734C2446.67 189.437 2444.04 178.257 2444.04 166.117H2434.04C2434.04 179.759 2437.01 192.497 2442.97 204.256L2451.89 199.734ZM2444.04 166.117C2444.04 154.837 2446.27 144.542 2450.67 135.158L2441.62 130.91C2436.55 141.718 2434.04 153.477 2434.04 166.117H2444.04ZM2450.67 135.173C2455.1 125.809 2461.43 118.544 2469.7 113.247L2464.3 104.829C2454.39 111.181 2446.83 119.913 2441.63 130.895L2450.67 135.173ZM2469.71 113.241C2477.9 107.966 2488.17 105.185 2500.78 105.185V95.1849C2486.68 95.1849 2474.43 98.306 2464.29 104.834L2469.71 113.241ZM2500.78 105.185C2516.01 105.185 2527.7 109.969 2536.39 119.219L2543.68 112.369C2532.81 100.807 2518.32 95.1849 2500.78 95.1849V105.185ZM2536.39 119.219C2544.77 128.132 2549.71 145.767 2549.71 173.921H2559.71C2559.71 145.385 2554.87 124.269 2543.68 112.369L2536.39 119.219ZM2554.71 168.921H2475.39V178.921H2554.71V168.921ZM2470.41 174.37C2471.22 183.428 2473.3 191.08 2476.97 196.957L2485.45 191.657C2482.91 187.593 2481.1 181.655 2480.37 173.473L2470.41 174.37ZM2477 197.004C2480.65 202.702 2485.55 207.23 2491.61 210.568L2496.44 201.808C2491.78 199.244 2488.14 195.851 2485.42 191.609L2477 197.004ZM2491.66 210.595C2498.01 214.001 2506.11 215.498 2515.57 215.498V205.498C2507.02 205.498 2500.75 204.123 2496.39 201.782L2491.66 210.595ZM2515.57 215.498C2527.9 215.498 2541.54 212.65 2556.44 207.151L2552.98 197.77C2538.84 202.989 2526.39 205.498 2515.57 205.498V215.498ZM2549.71 202.461V226.69H2559.71V202.461H2549.71ZM2474.92 159.468H2520.82V149.468H2474.92V159.468ZM2525.82 154.468C2525.82 142.436 2523.83 132.625 2518.81 126.22L2510.94 132.393C2513.84 136.084 2515.82 143.047 2515.82 154.468H2525.82ZM2518.84 126.258C2514.04 120.016 2507.54 116.735 2499.73 116.735V126.735C2504.35 126.735 2507.95 128.502 2510.91 132.355L2518.84 126.258ZM2499.73 116.735C2491.35 116.735 2484.37 120.312 2479.13 127.052L2487.02 133.192C2490.48 128.75 2494.6 126.735 2499.73 126.735V116.735ZM2479.15 127.026C2473.97 133.585 2471.08 142.768 2469.95 153.963L2479.89 154.973C2480.93 144.734 2483.48 137.687 2487 133.219L2479.15 127.026ZM2586.98 226.923H2581.98V230.654L2585.56 231.716L2586.98 226.923ZM2586.98 201.645L2588.91 197.032L2581.98 194.135V201.645H2586.98ZM2646.16 208.285L2643.29 204.189L2643.27 204.202L2643.25 204.216L2646.16 208.285ZM2647.67 188.715L2650.94 184.933L2650.91 184.908L2650.88 184.883L2647.67 188.715ZM2634.51 181.609L2632.65 186.252L2632.66 186.256L2632.67 186.26L2634.51 181.609ZM2596.18 160.991L2599.74 157.479L2599.73 157.468L2599.72 157.456L2596.18 160.991ZM2600.49 111.018L2597.3 107.171L2597.29 107.179L2597.28 107.186L2600.49 111.018ZM2677.37 104.728H2682.37V100.672L2678.41 99.8354L2677.37 104.728ZM2677.37 128.957L2675.73 133.679L2682.37 135.993V128.957H2677.37ZM2626.94 125.463L2629.73 129.609L2629.76 129.588L2629.79 129.567L2626.94 125.463ZM2625.07 142.936L2628.67 139.461L2628.64 139.43L2628.61 139.4L2625.07 142.936ZM2637.42 149.808L2639.21 145.14L2639.2 145.135L2639.18 145.129L2637.42 149.808ZM2647.44 153.653L2645.65 158.321L2645.65 158.323L2645.66 158.326L2647.44 153.653ZM2679.94 171.941L2683.76 168.716L2683.74 168.689L2683.71 168.663L2679.94 171.941ZM2673.53 221.798L2676.82 225.562L2676.82 225.56L2673.53 221.798ZM2591.98 226.923V201.645H2581.98V226.923H2591.98ZM2585.05 206.258C2602.46 213.537 2617.75 217.362 2630.78 217.362V207.362C2619.58 207.362 2605.67 204.043 2588.91 197.032L2585.05 206.258ZM2630.78 217.362C2637.88 217.362 2644.14 215.868 2649.06 212.354L2643.25 204.216C2640.56 206.138 2636.57 207.362 2630.78 207.362V217.362ZM2649.02 212.381C2654.04 208.869 2656.98 203.975 2656.98 197.918H2646.98C2646.98 200.248 2646.04 202.265 2643.29 204.189L2649.02 212.381ZM2656.98 197.918C2656.98 192.749 2654.86 188.324 2650.94 184.933L2644.4 192.497C2646.23 194.077 2646.98 195.786 2646.98 197.918H2656.98ZM2650.88 184.883C2647.41 181.973 2642.45 179.369 2636.34 176.959L2632.67 186.26C2638.37 188.509 2642.19 190.643 2644.46 192.548L2650.88 184.883ZM2636.36 176.967L2624.72 172.308L2621 181.592L2632.65 186.252L2636.36 176.967ZM2624.72 172.308C2612.99 167.616 2604.81 162.611 2599.74 157.479L2592.62 164.503C2599.05 171.02 2608.66 176.655 2621 181.592L2624.72 172.308ZM2599.72 157.456C2595.04 152.778 2592.56 146.622 2592.56 138.509H2582.56C2582.56 148.879 2585.83 157.711 2592.65 164.527L2599.72 157.456ZM2592.56 138.509C2592.56 128.905 2596.2 121.137 2603.7 114.851L2597.28 107.186C2587.54 115.344 2582.56 125.903 2582.56 138.509H2592.56ZM2603.69 114.865C2611.1 108.711 2622.97 105.185 2640.22 105.185V95.1849C2621.9 95.1849 2607.28 98.8814 2597.3 107.171L2603.69 114.865ZM2640.22 105.185C2650.17 105.185 2662.19 106.637 2676.34 109.62L2678.41 99.8354C2663.83 96.7619 2651.08 95.1849 2640.22 95.1849V105.185ZM2672.37 104.728V128.957H2682.37V104.728H2672.37ZM2679.02 124.235C2664.95 119.335 2652.89 116.735 2643.01 116.735V126.735C2651.3 126.735 2662.15 128.95 2675.73 133.679L2679.02 124.235ZM2643.01 116.735C2635.44 116.735 2628.87 118.024 2624.08 121.358L2629.79 129.567C2632.14 127.931 2636.29 126.735 2643.01 126.735V116.735ZM2624.14 121.316C2619.37 124.534 2616.58 129.149 2616.58 134.898H2626.58C2626.58 132.881 2627.36 131.206 2629.73 129.609L2624.14 121.316ZM2616.58 134.898C2616.58 139.376 2618.36 143.295 2621.54 146.471L2628.61 139.4C2627.12 137.917 2626.58 136.478 2626.58 134.898H2616.58ZM2621.48 146.411C2624.53 149.574 2629.53 152.18 2635.66 154.488L2639.18 145.129C2633.35 142.933 2630.11 140.957 2628.67 139.461L2621.48 146.411ZM2635.63 154.477L2645.65 158.321L2649.23 148.984L2639.21 145.14L2635.63 154.477ZM2645.66 158.326C2662.17 164.605 2671.93 170.346 2676.16 175.219L2683.71 168.663C2677.69 161.732 2665.78 155.28 2649.21 148.979L2645.66 158.326ZM2676.12 175.166C2680.35 180.185 2682.51 186.167 2682.51 193.375H2692.51C2692.51 183.964 2689.62 175.656 2683.76 168.716L2676.12 175.166ZM2682.51 193.375C2682.51 202.508 2678.65 210.675 2670.24 218.035L2676.82 225.56C2687.05 216.612 2692.51 205.831 2692.51 193.375H2682.51ZM2670.24 218.033C2662.24 225.024 2650.13 228.912 2633.11 228.912V238.912C2651.5 238.912 2666.34 234.724 2676.82 225.562L2670.24 218.033ZM2633.11 228.912C2618.57 228.912 2603.67 226.664 2588.4 222.13L2585.56 231.716C2601.67 236.501 2617.52 238.912 2633.11 238.912V228.912ZM2721.87 226.923H2716.87V230.654L2720.45 231.716L2721.87 226.923ZM2721.87 201.645L2723.8 197.032L2716.87 194.135V201.645H2721.87ZM2781.05 208.285L2778.18 204.189L2778.16 204.202L2778.14 204.216L2781.05 208.285ZM2782.56 188.715L2785.83 184.933L2785.8 184.908L2785.77 184.883L2782.56 188.715ZM2769.4 181.609L2767.54 186.252L2767.55 186.256L2767.56 186.26L2769.4 181.609ZM2731.08 160.991L2734.63 157.479L2734.62 157.468L2734.61 157.456L2731.08 160.991ZM2735.39 111.018L2732.19 107.171L2732.18 107.179L2732.17 107.186L2735.39 111.018ZM2812.27 104.728H2817.27V100.672L2813.3 99.8354L2812.27 104.728ZM2812.27 128.957L2810.62 133.679L2817.27 135.993V128.957H2812.27ZM2761.83 125.463L2764.62 129.609L2764.65 129.588L2764.68 129.567L2761.83 125.463ZM2759.96 142.936L2763.56 139.461L2763.53 139.43L2763.5 139.4L2759.96 142.936ZM2772.31 149.808L2774.1 145.14L2774.09 145.135L2774.07 145.129L2772.31 149.808ZM2782.33 153.653L2780.54 158.321L2780.55 158.323L2780.55 158.326L2782.33 153.653ZM2814.83 171.941L2818.65 168.716L2818.63 168.689L2818.6 168.663L2814.83 171.941ZM2808.42 221.798L2811.71 225.562L2811.72 225.56L2808.42 221.798ZM2726.87 226.923V201.645H2716.87V226.923H2726.87ZM2719.94 206.258C2737.35 213.537 2752.64 217.362 2765.67 217.362V207.362C2754.47 207.362 2740.57 204.043 2723.8 197.032L2719.94 206.258ZM2765.67 217.362C2772.77 217.362 2779.03 215.868 2783.95 212.354L2778.14 204.216C2775.45 206.138 2771.46 207.362 2765.67 207.362V217.362ZM2783.92 212.381C2788.93 208.869 2791.87 203.975 2791.87 197.918H2781.87C2781.87 200.248 2780.93 202.265 2778.18 204.189L2783.92 212.381ZM2791.87 197.918C2791.87 192.749 2789.75 188.324 2785.83 184.933L2779.29 192.497C2781.12 194.077 2781.87 195.786 2781.87 197.918H2791.87ZM2785.77 184.883C2782.3 181.973 2777.34 179.369 2771.24 176.959L2767.56 186.26C2773.26 188.509 2777.08 190.643 2779.35 192.548L2785.77 184.883ZM2771.26 176.967L2759.61 172.308L2755.89 181.592L2767.54 186.252L2771.26 176.967ZM2759.61 172.308C2747.88 167.616 2739.7 162.611 2734.63 157.479L2727.52 164.503C2733.95 171.02 2743.55 176.655 2755.89 181.592L2759.61 172.308ZM2734.61 157.456C2729.93 152.778 2727.46 146.622 2727.46 138.509H2717.46C2717.46 148.879 2720.72 157.711 2727.54 164.527L2734.61 157.456ZM2727.46 138.509C2727.46 128.905 2731.09 121.137 2738.6 114.851L2732.17 107.186C2722.44 115.344 2717.46 125.903 2717.46 138.509H2727.46ZM2738.58 114.865C2745.99 108.711 2757.86 105.185 2775.11 105.185V95.1849C2756.79 95.1849 2742.17 98.8814 2732.19 107.171L2738.58 114.865ZM2775.11 105.185C2785.06 105.185 2797.08 106.637 2811.24 109.62L2813.3 99.8354C2798.72 96.7619 2785.97 95.1849 2775.11 95.1849V105.185ZM2807.27 104.728V128.957H2817.27V104.728H2807.27ZM2813.91 124.235C2799.84 119.335 2787.79 116.735 2777.9 116.735V126.735C2786.19 126.735 2797.05 128.95 2810.62 133.679L2813.91 124.235ZM2777.9 116.735C2770.33 116.735 2763.77 118.024 2758.97 121.358L2764.68 129.567C2767.03 127.931 2771.18 126.735 2777.9 126.735V116.735ZM2759.03 121.316C2754.26 124.534 2751.47 129.149 2751.47 134.898H2761.47C2761.47 132.881 2762.25 131.206 2764.62 129.609L2759.03 121.316ZM2751.47 134.898C2751.47 139.376 2753.25 143.295 2756.43 146.471L2763.5 139.4C2762.02 137.917 2761.47 136.478 2761.47 134.898H2751.47ZM2756.37 146.411C2759.43 149.574 2764.42 152.18 2770.55 154.488L2774.07 145.129C2768.24 142.933 2765.01 140.957 2763.56 139.461L2756.37 146.411ZM2770.52 154.477L2780.54 158.321L2784.12 148.984L2774.1 145.14L2770.52 154.477ZM2780.55 158.326C2797.06 164.605 2806.82 170.346 2811.05 175.219L2818.6 168.663C2812.59 161.732 2800.68 155.28 2784.11 148.979L2780.55 158.326ZM2811.01 175.166C2815.25 180.185 2817.4 186.167 2817.4 193.375H2827.4C2827.4 183.964 2824.51 175.656 2818.65 168.716L2811.01 175.166ZM2817.4 193.375C2817.4 202.508 2813.54 210.675 2805.13 218.035L2811.72 225.56C2821.94 216.612 2827.4 205.831 2827.4 193.375H2817.4ZM2805.13 218.033C2797.13 225.024 2785.02 228.912 2768 228.912V238.912C2786.39 238.912 2801.23 234.724 2811.71 225.562L2805.13 218.033ZM2768 228.912C2753.46 228.912 2738.56 226.664 2723.3 222.13L2720.45 231.716C2736.56 236.501 2752.41 238.912 2768 238.912V228.912ZM2863.75 231H2858.75V236H2863.75V231ZM2863.75 124.647H2868.75V119.647H2863.75V124.647ZM2846.16 124.647H2841.16V129.647H2846.16V124.647ZM2846.16 103.097V98.0971H2841.16V103.097H2846.16ZM2863.75 103.097V108.097H2868.75V103.097H2863.75ZM2875.99 55.6868L2879.4 59.3421L2879.4 59.3409L2875.99 55.6868ZM2942.38 48.5811H2947.38V44.7645L2943.7 43.758L2942.38 48.5811ZM2942.38 71.8785L2940.44 76.4874L2947.38 79.406V71.8785H2942.38ZM2906.62 67.9179L2909.02 72.3074L2909.04 72.2951L2909.06 72.2827L2906.62 67.9179ZM2900.45 75.1401L2895.9 73.0711L2895.88 73.0952L2895.87 73.1193L2900.45 75.1401ZM2898.23 103.097H2893.23V108.097H2898.23V103.097ZM2930.62 103.097H2935.62V98.0971H2930.62V103.097ZM2930.62 124.647V129.647H2935.62V124.647H2930.62ZM2898.23 124.647V119.647H2893.23V124.647H2898.23ZM2898.23 231V236H2903.23V231H2898.23ZM2868.75 231V124.647H2858.75V231H2868.75ZM2863.75 119.647H2846.16V129.647H2863.75V119.647ZM2851.16 124.647V103.097H2841.16V124.647H2851.16ZM2846.16 108.097H2863.75V98.0971H2846.16V108.097ZM2868.75 103.097V93.8946H2858.75V103.097H2868.75ZM2868.75 93.8946C2868.75 76.6088 2872.73 65.5683 2879.4 59.3421L2872.57 52.0315C2862.94 61.0262 2858.75 75.4576 2858.75 93.8946H2868.75ZM2879.4 59.3409C2886.43 52.7756 2896.7 49.1545 2910.93 49.1545V39.1545C2895.04 39.1545 2882.01 43.2216 2872.57 52.0326L2879.4 59.3409ZM2910.93 49.1545C2920.62 49.1545 2930.66 50.5589 2941.06 53.4041L2943.7 43.758C2932.52 40.7012 2921.59 39.1545 2910.93 39.1545V49.1545ZM2937.38 48.5811V71.8785H2947.38V48.5811H2937.38ZM2944.32 67.2696C2934.13 62.9844 2924.68 60.7047 2916.06 60.7047V70.7047C2922.96 70.7047 2931.06 72.5408 2940.44 76.4874L2944.32 67.2696ZM2916.06 60.7047C2911.73 60.7047 2907.71 61.583 2904.18 63.5532L2909.06 72.2827C2910.82 71.3018 2913.08 70.7047 2916.06 70.7047V60.7047ZM2904.23 63.5285C2900.47 65.5771 2897.77 68.9509 2895.9 73.0711L2905 77.2092C2906.23 74.4954 2907.65 73.0545 2909.02 72.3074L2904.23 63.5285ZM2895.87 73.1193C2893.94 77.5066 2893.23 84.2747 2893.23 92.6132H2903.23C2903.23 84.3329 2904.01 79.4523 2905.02 77.161L2895.87 73.1193ZM2893.23 92.6132V103.097H2903.23V92.6132H2893.23ZM2898.23 108.097H2930.62V98.0971H2898.23V108.097ZM2925.62 103.097V124.647H2935.62V103.097H2925.62ZM2930.62 119.647H2898.23V129.647H2930.62V119.647ZM2893.23 124.647V231H2903.23V124.647H2893.23ZM2898.23 226H2863.75V236H2898.23V226ZM3038.25 231H3033.25V236H3038.25V231ZM3038.25 206.887H3043.25V189.5L3034.02 204.231L3038.25 206.887ZM2968.59 224.244L2965.24 227.954L2965.26 227.973L2965.28 227.992L2968.59 224.244ZM2957.76 103.097V98.0971H2952.76V103.097H2957.76ZM2992.24 103.097H2997.24V98.0971H2992.24V103.097ZM2994.1 199.199L2989.63 201.435L2989.66 201.49L2989.69 201.545L2994.1 199.199ZM2999.35 204.907L2996.75 209.181L2996.84 209.235L2996.93 209.285L2999.35 204.907ZM3021.59 202.111L3024.19 206.387L3024.21 206.373L3024.23 206.358L3021.59 202.111ZM3038.25 183.59L3042.44 186.322L3043.25 185.077V183.59H3038.25ZM3038.25 103.097V98.0971H3033.25V103.097H3038.25ZM3072.73 103.097H3077.73V98.0971H3072.73V103.097ZM3072.73 231V236H3077.73V231H3072.73ZM3043.25 231V206.887H3033.25V231H3043.25ZM3034.02 204.231C3028.18 213.532 3021.92 219.763 3015.35 223.351L3020.15 232.126C3028.65 227.482 3036.05 219.812 3042.49 209.543L3034.02 204.231ZM3015.35 223.351C3008.48 227.104 3001.61 228.912 2994.69 228.912V238.912C3003.44 238.912 3011.95 236.605 3020.15 232.126L3015.35 223.351ZM2994.69 228.912C2985.76 228.912 2978.25 226.103 2971.9 220.496L2965.28 227.992C2973.53 235.276 2983.42 238.912 2994.69 238.912V228.912ZM2971.94 220.533C2966.16 215.311 2962.76 206.686 2962.76 193.491H2952.76C2952.76 208.254 2956.58 220.13 2965.24 227.954L2971.94 220.533ZM2962.76 193.491V103.097H2952.76V193.491H2962.76ZM2957.76 108.097H2992.24V98.0971H2957.76V108.097ZM2987.24 103.097V184.988H2997.24V103.097H2987.24ZM2987.24 184.988C2987.24 188.61 2987.4 191.775 2987.75 194.433C2988.09 197.016 2988.64 199.461 2989.63 201.435L2998.58 196.963C2998.32 196.452 2997.95 195.286 2997.66 193.132C2997.39 191.053 2997.24 188.354 2997.24 184.988H2987.24ZM2989.69 201.545C2991.38 204.738 2993.73 207.345 2996.75 209.181L3001.94 200.633C3000.61 199.828 2999.46 198.63 2998.52 196.853L2989.69 201.545ZM2996.93 209.285C2999.96 210.959 3003.29 211.771 3006.8 211.771V201.771C3004.88 201.771 3003.23 201.34 3001.76 200.529L2996.93 209.285ZM3006.8 211.771C3012.66 211.771 3018.48 209.843 3024.19 206.387L3019 197.835C3014.45 200.592 3010.41 201.771 3006.8 201.771V211.771ZM3024.23 206.358C3030.3 202.591 3036.33 195.679 3042.44 186.322L3034.06 180.857C3028.21 189.828 3023.14 195.263 3018.96 197.864L3024.23 206.358ZM3043.25 183.59V103.097H3033.25V183.59H3043.25ZM3038.25 108.097H3072.73V98.0971H3038.25V108.097ZM3067.73 103.097V231H3077.73V103.097H3067.73ZM3072.73 226H3038.25V236H3072.73V226ZM3115.95 231H3110.95V236H3115.95V231ZM3115.95 47.0667V42.0667H3110.95V47.0667H3115.95ZM3150.43 47.0667H3155.43V42.0667H3150.43V47.0667ZM3150.43 231V236H3155.43V231H3150.43ZM3120.95 231V47.0667H3110.95V231H3120.95ZM3115.95 52.0667H3150.43V42.0667H3115.95V52.0667ZM3145.43 47.0667V231H3155.43V47.0667H3145.43ZM3150.43 226H3115.95V236H3150.43V226ZM3193.53 231H3188.53V236H3193.53V231ZM3193.53 47.0667V42.0667H3188.53V47.0667H3193.53ZM3228.01 47.0667H3233.01V42.0667H3228.01V47.0667ZM3228.01 231V236H3233.01V231H3228.01ZM3198.53 231V47.0667H3188.53V231H3198.53ZM3193.53 52.0667H3228.01V42.0667H3193.53V52.0667ZM3223.01 47.0667V231H3233.01V47.0667H3223.01ZM3228.01 226H3193.53V236H3228.01V226ZM3271.58 277.012L3267.35 274.346L3262.51 282.012H3271.58V277.012ZM3300.58 231L3304.81 233.666L3306.13 231.577L3305.27 229.262L3300.58 231ZM3253.17 103.097V98.0971H3245.98L3248.48 104.835L3253.17 103.097ZM3290.21 103.097L3294.9 101.36L3293.69 98.0971H3290.21V103.097ZM3321.9 188.599L3317.21 190.336L3321.5 201.915L3326.47 190.613L3321.9 188.599ZM3359.52 103.097V98.0971H3356.26L3354.95 101.083L3359.52 103.097ZM3385.73 103.097L3390.29 105.164L3393.5 98.0971H3385.73V103.097ZM3306.75 277.012V282.012H3309.98L3311.31 279.08L3306.75 277.012ZM3275.81 279.679L3304.81 233.666L3296.35 228.334L3267.35 274.346L3275.81 279.679ZM3305.27 229.262L3257.86 101.359L3248.48 104.835L3295.89 232.738L3305.27 229.262ZM3253.17 108.097H3290.21V98.0971H3253.17V108.097ZM3285.53 104.834L3317.21 190.336L3326.59 186.861L3294.9 101.36L3285.53 104.834ZM3326.47 190.613L3364.1 105.111L3354.95 101.083L3317.32 186.585L3326.47 190.613ZM3359.52 108.097H3385.73V98.0971H3359.52V108.097ZM3381.18 101.03L3302.2 274.945L3311.31 279.08L3390.29 105.164L3381.18 101.03ZM3306.75 272.012H3271.58V282.012H3306.75V272.012Z" fill="#1B1B1B" mask="url(#path-3-outside-2_8001_2)"/>
<mask id="path-5-outside-3_8001_2" maskUnits="userSpaceOnUse" x="888" y="42" width="909" height="197" fill="black">
<rect fill="white" x="888" y="42" width="909" height="197"/>
<path d="M893.55 231V58.599H967.752C987.633 58.599 1003.09 61.7829 1014.11 68.1509C1025.22 74.5189 1034.03 83.9155 1040.56 96.3408C1047.16 108.688 1050.46 123.638 1050.46 141.188C1050.46 158.351 1047.31 173.688 1041.02 187.201C1034.81 200.713 1025.72 211.391 1013.76 219.235C1001.81 227.078 985.42 231 964.607 231H893.55ZM929.428 206.538H956.22C970.199 206.538 980.877 204.363 988.254 200.014C995.709 195.666 1001.57 188.327 1005.84 177.998C1010.19 167.592 1012.37 156.021 1012.37 143.285C1012.37 131.093 1010.27 120.298 1006.08 110.902C1001.88 101.505 996.059 94.3994 988.604 89.5846C981.226 84.6921 968.723 82.2459 951.095 82.2459H929.428V206.538ZM1186.86 226.69C1170.48 231.505 1154.95 233.912 1140.27 233.912C1126.37 233.912 1114.18 231.349 1103.69 226.224C1093.29 221.021 1085.25 212.944 1079.58 201.995C1073.99 190.967 1071.19 179.008 1071.19 166.117C1071.19 154.157 1073.56 143.13 1078.3 133.034C1083.11 122.861 1090.06 114.862 1099.15 109.038C1108.31 103.136 1119.57 100.185 1132.93 100.185C1149.32 100.185 1162.4 105.388 1172.19 115.794C1181.97 126.2 1186.86 145.576 1186.86 173.921H1107.54C1108.31 182.541 1110.26 189.336 1113.36 194.307C1116.55 199.277 1120.82 203.237 1126.18 206.188C1131.53 209.062 1138.72 210.498 1147.73 210.498C1159.3 210.498 1172.34 207.819 1186.86 202.461V226.69ZM1107.07 154.468H1152.97C1152.97 142.742 1150.99 134.354 1147.03 129.307C1143.14 124.259 1138.1 121.735 1131.88 121.735C1125.13 121.735 1119.57 124.531 1115.23 130.122C1110.88 135.636 1108.16 143.751 1107.07 154.468ZM1222.51 231V47.0667H1256.99V231H1222.51ZM1404.23 226.69C1387.84 231.505 1372.31 233.912 1357.64 233.912C1343.73 233.912 1331.54 231.349 1321.06 226.224C1310.65 221.021 1302.61 212.944 1296.95 201.995C1291.35 190.967 1288.56 179.008 1288.56 166.117C1288.56 154.157 1290.93 143.13 1295.66 133.034C1300.48 122.861 1307.43 114.862 1316.52 109.038C1325.68 103.136 1336.94 100.185 1350.3 100.185C1366.68 100.185 1379.77 105.388 1389.55 115.794C1399.34 126.2 1404.23 145.576 1404.23 173.921H1324.9C1325.68 182.541 1327.62 189.336 1330.73 194.307C1333.91 199.277 1338.18 203.237 1343.54 206.188C1348.9 209.062 1356.08 210.498 1365.09 210.498C1376.66 210.498 1389.71 207.819 1404.23 202.461V226.69ZM1324.44 154.468H1370.33C1370.33 142.742 1368.35 134.354 1364.39 129.307C1360.51 124.259 1355.46 121.735 1349.25 121.735C1342.49 121.735 1336.94 124.531 1332.59 130.122C1328.24 135.636 1325.52 143.751 1324.44 154.468ZM1505.81 230.301C1497.58 232.708 1491.09 233.912 1486.35 233.912C1475.09 233.912 1466.36 232.32 1460.14 229.136C1453.93 225.952 1449.27 221.642 1446.17 216.206C1443.06 210.692 1441.51 202.616 1441.51 191.977V124.647H1427.18V103.097H1441.51V81.5469L1475.99 77.5864V103.097H1503.36V124.647H1475.99V187.434C1475.99 196.675 1477.62 202.927 1480.88 206.188C1484.14 209.372 1488.92 210.964 1495.21 210.964C1498.16 210.964 1501.69 210.421 1505.81 209.333V230.301ZM1640.7 226.69C1624.31 231.505 1608.78 233.912 1594.1 233.912C1580.2 233.912 1568.01 231.349 1557.53 226.224C1547.12 221.021 1539.08 212.944 1533.41 201.995C1527.82 190.967 1525.03 179.008 1525.03 166.117C1525.03 154.157 1527.4 143.13 1532.13 133.034C1536.95 122.861 1543.9 114.862 1552.98 109.038C1562.15 103.136 1573.41 100.185 1586.77 100.185C1603.15 100.185 1616.24 105.388 1626.02 115.794C1635.81 126.2 1640.7 145.576 1640.7 173.921H1561.37C1562.15 182.541 1564.09 189.336 1567.2 194.307C1570.38 199.277 1574.65 203.237 1580.01 206.188C1585.37 209.062 1592.55 210.498 1601.56 210.498C1613.13 210.498 1626.18 207.819 1640.7 202.461V226.69ZM1560.91 154.468H1606.8C1606.8 142.742 1604.82 134.354 1600.86 129.307C1596.98 124.259 1591.93 121.735 1585.72 121.735C1578.96 121.735 1573.41 124.531 1569.06 130.122C1564.71 135.636 1561.99 143.751 1560.91 154.468ZM1756.84 231V206.887C1752.41 215.895 1746.7 222.652 1739.71 227.156C1732.8 231.66 1724.57 233.912 1715.02 233.912C1699.33 233.912 1687.18 228.127 1678.56 216.556C1669.94 204.907 1665.63 189.569 1665.63 170.543C1665.63 150.43 1670.44 133.694 1680.07 120.337C1689.7 106.902 1703.14 100.185 1720.38 100.185C1725.04 100.185 1729.31 100.69 1733.19 101.699C1737.07 102.631 1740.8 104.107 1744.37 106.126C1747.94 108.145 1752.1 111.445 1756.84 116.027V47.0667H1791.43V231H1756.84ZM1756.84 136.529C1752.02 131.093 1747.48 127.404 1743.21 125.463C1738.94 123.521 1734.59 122.55 1730.16 122.55C1720.84 122.55 1713.85 127.055 1709.19 136.063C1704.61 144.994 1702.32 155.516 1702.32 167.631C1702.32 179.59 1704.46 189.142 1708.73 196.287C1713.08 203.354 1719.33 206.887 1727.48 206.887C1732.68 206.887 1737.81 205.101 1742.86 201.529C1747.98 197.879 1752.64 193.103 1756.84 187.201V136.529Z"/>
</mask>
<path d="M893.55 231V58.599H967.752C987.633 58.599 1003.09 61.7829 1014.11 68.1509C1025.22 74.5189 1034.03 83.9155 1040.56 96.3408C1047.16 108.688 1050.46 123.638 1050.46 141.188C1050.46 158.351 1047.31 173.688 1041.02 187.201C1034.81 200.713 1025.72 211.391 1013.76 219.235C1001.81 227.078 985.42 231 964.607 231H893.55ZM929.428 206.538H956.22C970.199 206.538 980.877 204.363 988.254 200.014C995.709 195.666 1001.57 188.327 1005.84 177.998C1010.19 167.592 1012.37 156.021 1012.37 143.285C1012.37 131.093 1010.27 120.298 1006.08 110.902C1001.88 101.505 996.059 94.3994 988.604 89.5846C981.226 84.6921 968.723 82.2459 951.095 82.2459H929.428V206.538ZM1186.86 226.69C1170.48 231.505 1154.95 233.912 1140.27 233.912C1126.37 233.912 1114.18 231.349 1103.69 226.224C1093.29 221.021 1085.25 212.944 1079.58 201.995C1073.99 190.967 1071.19 179.008 1071.19 166.117C1071.19 154.157 1073.56 143.13 1078.3 133.034C1083.11 122.861 1090.06 114.862 1099.15 109.038C1108.31 103.136 1119.57 100.185 1132.93 100.185C1149.32 100.185 1162.4 105.388 1172.19 115.794C1181.97 126.2 1186.86 145.576 1186.86 173.921H1107.54C1108.31 182.541 1110.26 189.336 1113.36 194.307C1116.55 199.277 1120.82 203.237 1126.18 206.188C1131.53 209.062 1138.72 210.498 1147.73 210.498C1159.3 210.498 1172.34 207.819 1186.86 202.461V226.69ZM1107.07 154.468H1152.97C1152.97 142.742 1150.99 134.354 1147.03 129.307C1143.14 124.259 1138.1 121.735 1131.88 121.735C1125.13 121.735 1119.57 124.531 1115.23 130.122C1110.88 135.636 1108.16 143.751 1107.07 154.468ZM1222.51 231V47.0667H1256.99V231H1222.51ZM1404.23 226.69C1387.84 231.505 1372.31 233.912 1357.64 233.912C1343.73 233.912 1331.54 231.349 1321.06 226.224C1310.65 221.021 1302.61 212.944 1296.95 201.995C1291.35 190.967 1288.56 179.008 1288.56 166.117C1288.56 154.157 1290.93 143.13 1295.66 133.034C1300.48 122.861 1307.43 114.862 1316.52 109.038C1325.68 103.136 1336.94 100.185 1350.3 100.185C1366.68 100.185 1379.77 105.388 1389.55 115.794C1399.34 126.2 1404.23 145.576 1404.23 173.921H1324.9C1325.68 182.541 1327.62 189.336 1330.73 194.307C1333.91 199.277 1338.18 203.237 1343.54 206.188C1348.9 209.062 1356.08 210.498 1365.09 210.498C1376.66 210.498 1389.71 207.819 1404.23 202.461V226.69ZM1324.44 154.468H1370.33C1370.33 142.742 1368.35 134.354 1364.39 129.307C1360.51 124.259 1355.46 121.735 1349.25 121.735C1342.49 121.735 1336.94 124.531 1332.59 130.122C1328.24 135.636 1325.52 143.751 1324.44 154.468ZM1505.81 230.301C1497.58 232.708 1491.09 233.912 1486.35 233.912C1475.09 233.912 1466.36 232.32 1460.14 229.136C1453.93 225.952 1449.27 221.642 1446.17 216.206C1443.06 210.692 1441.51 202.616 1441.51 191.977V124.647H1427.18V103.097H1441.51V81.5469L1475.99 77.5864V103.097H1503.36V124.647H1475.99V187.434C1475.99 196.675 1477.62 202.927 1480.88 206.188C1484.14 209.372 1488.92 210.964 1495.21 210.964C1498.16 210.964 1501.69 210.421 1505.81 209.333V230.301ZM1640.7 226.69C1624.31 231.505 1608.78 233.912 1594.1 233.912C1580.2 233.912 1568.01 231.349 1557.53 226.224C1547.12 221.021 1539.08 212.944 1533.41 201.995C1527.82 190.967 1525.03 179.008 1525.03 166.117C1525.03 154.157 1527.4 143.13 1532.13 133.034C1536.95 122.861 1543.9 114.862 1552.98 109.038C1562.15 103.136 1573.41 100.185 1586.77 100.185C1603.15 100.185 1616.24 105.388 1626.02 115.794C1635.81 126.2 1640.7 145.576 1640.7 173.921H1561.37C1562.15 182.541 1564.09 189.336 1567.2 194.307C1570.38 199.277 1574.65 203.237 1580.01 206.188C1585.37 209.062 1592.55 210.498 1601.56 210.498C1613.13 210.498 1626.18 207.819 1640.7 202.461V226.69ZM1560.91 154.468H1606.8C1606.8 142.742 1604.82 134.354 1600.86 129.307C1596.98 124.259 1591.93 121.735 1585.72 121.735C1578.96 121.735 1573.41 124.531 1569.06 130.122C1564.71 135.636 1561.99 143.751 1560.91 154.468ZM1756.84 231V206.887C1752.41 215.895 1746.7 222.652 1739.71 227.156C1732.8 231.66 1724.57 233.912 1715.02 233.912C1699.33 233.912 1687.18 228.127 1678.56 216.556C1669.94 204.907 1665.63 189.569 1665.63 170.543C1665.63 150.43 1670.44 133.694 1680.07 120.337C1689.7 106.902 1703.14 100.185 1720.38 100.185C1725.04 100.185 1729.31 100.69 1733.19 101.699C1737.07 102.631 1740.8 104.107 1744.37 106.126C1747.94 108.145 1752.1 111.445 1756.84 116.027V47.0667H1791.43V231H1756.84ZM1756.84 136.529C1752.02 131.093 1747.48 127.404 1743.21 125.463C1738.94 123.521 1734.59 122.55 1730.16 122.55C1720.84 122.55 1713.85 127.055 1709.19 136.063C1704.61 144.994 1702.32 155.516 1702.32 167.631C1702.32 179.59 1704.46 189.142 1708.73 196.287C1713.08 203.354 1719.33 206.887 1727.48 206.887C1732.68 206.887 1737.81 205.101 1742.86 201.529C1747.98 197.879 1752.64 193.103 1756.84 187.201V136.529Z" fill="#1B1B1B"/>
<path d="M893.55 231H888.55V236H893.55V231ZM893.55 58.599V53.599H888.55V58.599H893.55ZM1014.11 68.1509L1011.61 72.4808L1011.62 72.4846L1011.63 72.4884L1014.11 68.1509ZM1040.56 96.3408L1036.13 98.665L1036.14 98.6816L1036.15 98.6981L1040.56 96.3408ZM1041.02 187.201L1036.49 185.091L1036.49 185.101L1036.48 185.112L1041.02 187.201ZM929.428 206.538H924.428V211.538H929.428V206.538ZM988.254 200.014L985.735 195.696L985.725 195.701L985.715 195.707L988.254 200.014ZM1005.84 177.998L1001.23 176.07L1001.23 176.079L1001.22 176.088L1005.84 177.998ZM1006.08 110.902L1001.51 112.939L1006.08 110.902ZM988.604 89.5846L985.84 93.7515L985.866 93.7683L985.891 93.7847L988.604 89.5846ZM929.428 82.2459V77.2459H924.428V82.2459H929.428ZM898.55 231V58.599H888.55V231H898.55ZM893.55 63.599H967.752V53.599H893.55V63.599ZM967.752 63.599C987.204 63.599 1001.66 66.732 1011.61 72.4808L1016.61 63.821C1004.52 56.8339 988.062 53.599 967.752 53.599V63.599ZM1011.63 72.4884C1021.83 78.3382 1030 86.9975 1036.13 98.665L1044.98 94.0166C1038.06 80.8335 1028.61 70.6995 1016.6 63.8134L1011.63 72.4884ZM1036.15 98.6981C1042.27 110.159 1045.46 124.256 1045.46 141.188H1055.46C1055.46 123.02 1052.04 107.218 1044.97 93.9835L1036.15 98.6981ZM1045.46 141.188C1045.46 157.732 1042.43 172.332 1036.49 185.091L1045.56 189.311C1052.2 175.044 1055.46 158.97 1055.46 141.188H1045.46ZM1036.48 185.112C1030.64 197.808 1022.17 207.746 1011.02 215.054L1016.51 223.416C1029.28 215.037 1038.98 203.619 1045.57 189.289L1036.48 185.112ZM1011.02 215.054C1000.17 222.171 984.866 226 964.607 226V236C985.974 236 1003.44 231.985 1016.51 223.416L1011.02 215.054ZM964.607 226H893.55V236H964.607V226ZM929.428 211.538H956.22V201.538H929.428V211.538ZM956.22 211.538C970.586 211.538 982.304 209.326 990.793 204.322L985.715 195.707C979.449 199.401 969.812 201.538 956.22 201.538V211.538ZM990.774 204.333C999.42 199.29 1005.9 190.949 1010.46 179.909L1001.22 176.088C997.246 185.705 991.999 192.042 985.735 195.696L990.774 204.333ZM1010.46 179.926C1015.09 168.835 1017.37 156.598 1017.37 143.285H1007.37C1007.37 155.444 1005.29 166.349 1001.23 176.07L1010.46 179.926ZM1017.37 143.285C1017.37 130.519 1015.17 119.009 1010.64 108.864L1001.51 112.939C1005.37 121.587 1007.37 131.667 1007.37 143.285H1017.37ZM1010.64 108.864C1006.12 98.7266 999.709 90.8048 991.316 85.3844L985.891 93.7847C992.408 97.9939 997.648 104.284 1001.51 112.939L1010.64 108.864ZM991.367 85.4176C982.689 79.6625 968.9 77.2459 951.095 77.2459V87.2459C968.547 87.2459 979.764 89.7217 985.84 93.7515L991.367 85.4176ZM951.095 77.2459H929.428V87.2459H951.095V77.2459ZM924.428 82.2459V206.538H934.428V82.2459H924.428ZM1186.86 226.69L1188.27 231.487L1191.86 230.432V226.69H1186.86ZM1103.69 226.224L1101.46 230.696L1101.48 230.706L1101.5 230.716L1103.69 226.224ZM1079.58 201.995L1075.12 204.256L1075.13 204.275L1075.14 204.294L1079.58 201.995ZM1078.3 133.034L1073.78 130.895L1073.78 130.903L1073.77 130.91L1078.3 133.034ZM1099.15 109.038L1101.85 113.247L1101.86 113.241L1099.15 109.038ZM1186.86 173.921V178.921H1191.86V173.921H1186.86ZM1107.54 173.921V168.921H1102.07L1102.56 174.37L1107.54 173.921ZM1113.36 194.307L1109.12 196.957L1109.14 196.98L1109.15 197.004L1113.36 194.307ZM1126.18 206.188L1123.76 210.568L1123.79 210.581L1123.81 210.595L1126.18 206.188ZM1186.86 202.461H1191.86V195.286L1185.13 197.77L1186.86 202.461ZM1107.07 154.468L1102.1 153.963L1101.54 159.468H1107.07V154.468ZM1152.97 154.468V159.468H1157.97V154.468H1152.97ZM1147.03 129.307L1143.06 132.355L1143.08 132.374L1143.09 132.393L1147.03 129.307ZM1115.23 130.122L1119.15 133.219L1119.16 133.205L1119.17 133.192L1115.23 130.122ZM1185.46 221.893C1169.45 226.595 1154.4 228.912 1140.27 228.912V238.912C1155.5 238.912 1171.5 236.415 1188.27 231.487L1185.46 221.893ZM1140.27 228.912C1126.99 228.912 1115.57 226.465 1105.89 221.732L1101.5 230.716C1112.78 236.234 1125.75 238.912 1140.27 238.912V228.912ZM1105.93 221.752C1096.53 217.051 1089.23 209.766 1084.02 199.696L1075.14 204.294C1081.26 216.123 1090.05 224.991 1101.46 230.696L1105.93 221.752ZM1084.04 199.734C1078.82 189.437 1076.19 178.257 1076.19 166.117H1066.19C1066.19 179.759 1069.16 192.497 1075.12 204.256L1084.04 199.734ZM1076.19 166.117C1076.19 154.837 1078.42 144.542 1082.83 135.158L1073.77 130.91C1068.7 141.718 1066.19 153.477 1066.19 166.117H1076.19ZM1082.82 135.173C1087.25 125.809 1093.59 118.544 1101.85 113.247L1096.45 104.829C1086.54 111.181 1078.98 119.913 1073.78 130.895L1082.82 135.173ZM1101.86 113.241C1110.05 107.966 1120.32 105.185 1132.93 105.185V95.1849C1118.83 95.1849 1106.58 98.306 1096.44 104.834L1101.86 113.241ZM1132.93 105.185C1148.16 105.185 1159.85 109.969 1168.54 119.219L1175.83 112.369C1164.96 100.807 1150.47 95.1849 1132.93 95.1849V105.185ZM1168.54 119.219C1176.93 128.132 1181.86 145.767 1181.86 173.921H1191.86C1191.86 145.385 1187.02 124.268 1175.83 112.369L1168.54 119.219ZM1186.86 168.921H1107.54V178.921H1186.86V168.921ZM1102.56 174.37C1103.37 183.428 1105.45 191.08 1109.12 196.957L1117.6 191.657C1115.06 187.593 1113.25 181.655 1112.52 173.473L1102.56 174.37ZM1109.15 197.004C1112.8 202.702 1117.7 207.23 1123.76 210.568L1128.59 201.808C1123.93 199.244 1120.29 195.851 1117.57 191.609L1109.15 197.004ZM1123.81 210.595C1130.16 214.001 1138.26 215.498 1147.73 215.498V205.498C1139.17 205.498 1132.9 204.123 1128.54 201.782L1123.81 210.595ZM1147.73 215.498C1160.05 215.498 1173.7 212.65 1188.6 207.151L1185.13 197.77C1170.99 202.989 1158.54 205.498 1147.73 205.498V215.498ZM1181.86 202.461V226.69H1191.86V202.461H1181.86ZM1107.07 159.468H1152.97V149.468H1107.07V159.468ZM1157.97 154.468C1157.97 142.436 1155.99 132.625 1150.96 126.22L1143.09 132.393C1145.99 136.084 1147.97 143.047 1147.97 154.468H1157.97ZM1150.99 126.258C1146.19 120.016 1139.69 116.735 1131.88 116.735V126.735C1136.5 126.735 1140.1 128.502 1143.06 132.355L1150.99 126.258ZM1131.88 116.735C1123.5 116.735 1116.52 120.312 1111.28 127.052L1119.17 133.192C1122.63 128.75 1126.75 126.735 1131.88 126.735V116.735ZM1111.3 127.026C1106.13 133.585 1103.23 142.768 1102.1 153.963L1112.05 154.973C1113.08 144.734 1115.63 137.687 1119.15 133.219L1111.3 127.026ZM1222.51 231H1217.51V236H1222.51V231ZM1222.51 47.0667V42.0667H1217.51V47.0667H1222.51ZM1256.99 47.0667H1261.99V42.0667H1256.99V47.0667ZM1256.99 231V236H1261.99V231H1256.99ZM1227.51 231V47.0667H1217.51V231H1227.51ZM1222.51 52.0667H1256.99V42.0667H1222.51V52.0667ZM1251.99 47.0667V231H1261.99V47.0667H1251.99ZM1256.99 226H1222.51V236H1256.99V226ZM1404.23 226.69L1405.64 231.487L1409.23 230.432V226.69H1404.23ZM1321.06 226.224L1318.82 230.696L1318.84 230.706L1318.86 230.716L1321.06 226.224ZM1296.95 201.995L1292.49 204.256L1292.5 204.275L1292.51 204.294L1296.95 201.995ZM1295.66 133.034L1291.14 130.895L1291.14 130.903L1291.14 130.91L1295.66 133.034ZM1316.52 109.038L1319.21 113.247L1319.22 113.241L1316.52 109.038ZM1404.23 173.921V178.921H1409.23V173.921H1404.23ZM1324.9 173.921V168.921H1319.43L1319.92 174.37L1324.9 173.921ZM1330.73 194.307L1326.49 196.957L1326.5 196.98L1326.52 197.004L1330.73 194.307ZM1343.54 206.188L1341.13 210.568L1341.15 210.581L1341.18 210.595L1343.54 206.188ZM1404.23 202.461H1409.23V195.286L1402.5 197.77L1404.23 202.461ZM1324.44 154.468L1319.46 153.963L1318.9 159.468H1324.44V154.468ZM1370.33 154.468V159.468H1375.33V154.468H1370.33ZM1364.39 129.307L1360.43 132.355L1360.44 132.374L1360.46 132.393L1364.39 129.307ZM1332.59 130.122L1336.52 133.219L1336.53 133.205L1336.54 133.192L1332.59 130.122ZM1402.82 221.893C1386.82 226.595 1371.76 228.912 1357.64 228.912V238.912C1372.86 238.912 1388.87 236.415 1405.64 231.487L1402.82 221.893ZM1357.64 228.912C1344.35 228.912 1332.94 226.465 1323.25 221.732L1318.86 230.716C1330.15 236.234 1343.12 238.912 1357.64 238.912V228.912ZM1323.29 221.752C1313.89 217.051 1306.6 209.766 1301.39 199.696L1292.51 204.294C1298.63 216.123 1307.41 224.991 1318.82 230.696L1323.29 221.752ZM1301.4 199.734C1296.18 189.437 1293.56 178.257 1293.56 166.117H1283.56C1283.56 179.759 1286.52 192.497 1292.49 204.256L1301.4 199.734ZM1293.56 166.117C1293.56 154.837 1295.79 144.542 1300.19 135.158L1291.14 130.91C1286.07 141.718 1283.56 153.477 1283.56 166.117H1293.56ZM1300.18 135.173C1304.62 125.809 1310.95 118.544 1319.21 113.247L1313.82 104.829C1303.91 111.181 1296.34 119.913 1291.14 130.895L1300.18 135.173ZM1319.22 113.241C1327.41 107.966 1337.68 105.185 1350.3 105.185V95.1849C1336.2 95.1849 1323.94 98.306 1313.81 104.834L1319.22 113.241ZM1350.3 105.185C1365.53 105.185 1377.21 109.969 1385.91 119.219L1393.2 112.369C1382.32 100.807 1367.84 95.1849 1350.3 95.1849V105.185ZM1385.91 119.219C1394.29 128.132 1399.23 145.767 1399.23 173.921H1409.23C1409.23 145.385 1404.38 124.268 1393.2 112.369L1385.91 119.219ZM1404.23 168.921H1324.9V178.921H1404.23V168.921ZM1319.92 174.37C1320.74 183.428 1322.81 191.08 1326.49 196.957L1334.97 191.657C1332.43 187.593 1330.62 181.655 1329.88 173.473L1319.92 174.37ZM1326.52 197.004C1330.17 202.702 1335.07 207.23 1341.13 210.568L1345.95 201.808C1341.3 199.244 1337.65 195.851 1334.94 191.609L1326.52 197.004ZM1341.18 210.595C1347.53 214.001 1355.62 215.498 1365.09 215.498V205.498C1356.54 205.498 1350.27 204.123 1345.9 201.782L1341.18 210.595ZM1365.09 215.498C1377.41 215.498 1391.06 212.65 1405.96 207.151L1402.5 197.77C1388.36 202.989 1375.91 205.498 1365.09 205.498V215.498ZM1399.23 202.461V226.69H1409.23V202.461H1399.23ZM1324.44 159.468H1370.33V149.468H1324.44V159.468ZM1375.33 154.468C1375.33 142.436 1373.35 132.625 1368.33 126.22L1360.46 132.393C1363.35 136.084 1365.33 143.047 1365.33 154.468H1375.33ZM1368.35 126.258C1363.55 120.016 1357.06 116.735 1349.25 116.735V126.735C1353.86 126.735 1357.46 128.502 1360.43 132.355L1368.35 126.258ZM1349.25 116.735C1340.86 116.735 1333.89 120.312 1328.64 127.052L1336.54 133.192C1339.99 128.75 1344.12 126.735 1349.25 126.735V116.735ZM1328.66 127.026C1323.49 133.585 1320.6 142.768 1319.46 153.963L1329.41 154.973C1330.45 144.734 1332.99 137.687 1336.52 133.219L1328.66 127.026ZM1505.81 230.301L1507.21 235.1L1510.81 234.048V230.301H1505.81ZM1460.14 229.136L1457.86 233.586L1460.14 229.136ZM1446.17 216.206L1441.81 218.66L1441.82 218.674L1441.82 218.687L1446.17 216.206ZM1441.51 124.647H1446.51V119.647H1441.51V124.647ZM1427.18 124.647H1422.18V129.647H1427.18V124.647ZM1427.18 103.097V98.0971H1422.18V103.097H1427.18ZM1441.51 103.097V108.097H1446.51V103.097H1441.51ZM1441.51 81.5469L1440.94 76.5796L1436.51 77.0884V81.5469H1441.51ZM1475.99 77.5864H1480.99V71.9792L1475.42 72.619L1475.99 77.5864ZM1475.99 103.097H1470.99V108.097H1475.99V103.097ZM1503.36 103.097H1508.36V98.0971H1503.36V103.097ZM1503.36 124.647V129.647H1508.36V124.647H1503.36ZM1475.99 124.647V119.647H1470.99V124.647H1475.99ZM1480.88 206.188L1477.34 209.724L1477.36 209.745L1477.39 209.766L1480.88 206.188ZM1505.81 209.333H1510.81V202.841L1504.53 204.499L1505.81 209.333ZM1504.4 225.502C1496.32 227.865 1490.38 228.912 1486.35 228.912V238.912C1491.8 238.912 1498.83 237.552 1507.21 235.1L1504.4 225.502ZM1486.35 228.912C1475.45 228.912 1467.63 227.353 1462.42 224.687L1457.86 233.586C1465.09 237.288 1474.73 238.912 1486.35 238.912V228.912ZM1462.42 224.687C1456.97 221.892 1453.08 218.224 1450.51 213.725L1441.82 218.687C1445.47 225.06 1450.89 230.012 1457.86 233.586L1462.42 224.687ZM1450.52 213.752C1448.03 209.336 1446.51 202.273 1446.51 191.977H1436.51C1436.51 202.959 1438.08 212.049 1441.81 218.66L1450.52 213.752ZM1446.51 191.977V124.647H1436.51V191.977H1446.51ZM1441.51 119.647H1427.18V129.647H1441.51V119.647ZM1432.18 124.647V103.097H1422.18V124.647H1432.18ZM1427.18 108.097H1441.51V98.0971H1427.18V108.097ZM1446.51 103.097V81.5469H1436.51V103.097H1446.51ZM1442.08 86.5143L1476.56 82.5537L1475.42 72.619L1440.94 76.5796L1442.08 86.5143ZM1470.99 77.5864V103.097H1480.99V77.5864H1470.99ZM1475.99 108.097H1503.36V98.0971H1475.99V108.097ZM1498.36 103.097V124.647H1508.36V103.097H1498.36ZM1503.36 119.647H1475.99V129.647H1503.36V119.647ZM1470.99 124.647V187.434H1480.99V124.647H1470.99ZM1470.99 187.434C1470.99 196.848 1472.56 204.941 1477.34 209.724L1484.41 202.653C1482.67 200.912 1480.99 196.503 1480.99 187.434H1470.99ZM1477.39 209.766C1481.89 214.162 1488.12 215.964 1495.21 215.964V205.964C1489.72 205.964 1486.39 204.582 1484.37 202.61L1477.39 209.766ZM1495.21 215.964C1498.73 215.964 1502.72 215.321 1507.08 214.168L1504.53 204.499C1500.66 205.52 1497.58 205.964 1495.21 205.964V215.964ZM1500.81 209.333V230.301H1510.81V209.333H1500.81ZM1640.7 226.69L1642.11 231.487L1645.7 230.432V226.69H1640.7ZM1557.53 226.224L1555.29 230.696L1555.31 230.706L1555.33 230.716L1557.53 226.224ZM1533.41 201.995L1528.95 204.256L1528.96 204.275L1528.97 204.294L1533.41 201.995ZM1532.13 133.034L1527.61 130.895L1527.61 130.903L1527.61 130.91L1532.13 133.034ZM1552.98 109.038L1555.68 113.247L1555.69 113.241L1552.98 109.038ZM1640.7 173.921V178.921H1645.7V173.921H1640.7ZM1561.37 173.921V168.921H1555.9L1556.39 174.37L1561.37 173.921ZM1567.2 194.307L1562.96 196.957L1562.97 196.98L1562.99 197.004L1567.2 194.307ZM1580.01 206.188L1577.6 210.568L1577.62 210.581L1577.65 210.595L1580.01 206.188ZM1640.7 202.461H1645.7V195.286L1638.97 197.77L1640.7 202.461ZM1560.91 154.468L1555.93 153.963L1555.37 159.468H1560.91V154.468ZM1606.8 154.468V159.468H1611.8V154.468H1606.8ZM1600.86 129.307L1596.9 132.355L1596.91 132.374L1596.93 132.393L1600.86 129.307ZM1569.06 130.122L1572.99 133.219L1573 133.205L1573.01 133.192L1569.06 130.122ZM1639.29 221.893C1623.29 226.595 1608.23 228.912 1594.1 228.912V238.912C1609.33 238.912 1625.34 236.415 1642.11 231.487L1639.29 221.893ZM1594.1 228.912C1580.82 228.912 1569.4 226.465 1559.72 221.732L1555.33 230.716C1566.62 236.234 1579.59 238.912 1594.1 238.912V228.912ZM1559.76 221.752C1550.36 217.051 1543.07 209.766 1537.85 199.696L1528.97 204.294C1535.1 216.123 1543.88 224.991 1555.29 230.696L1559.76 221.752ZM1537.87 199.734C1532.65 189.437 1530.03 178.257 1530.03 166.117H1520.03C1520.03 179.759 1522.99 192.497 1528.95 204.256L1537.87 199.734ZM1530.03 166.117C1530.03 154.837 1532.26 144.542 1536.66 135.158L1527.61 130.91C1522.54 141.718 1520.03 153.477 1520.03 166.117H1530.03ZM1536.65 135.173C1541.08 125.809 1547.42 118.544 1555.68 113.247L1550.29 104.829C1540.38 111.181 1532.81 119.913 1527.61 130.895L1536.65 135.173ZM1555.69 113.241C1563.88 107.966 1574.15 105.185 1586.77 105.185V95.1849C1572.67 95.1849 1560.41 98.306 1550.28 104.834L1555.69 113.241ZM1586.77 105.185C1601.99 105.185 1613.68 109.969 1622.38 119.219L1629.66 112.369C1618.79 100.807 1604.31 95.1849 1586.77 95.1849V105.185ZM1622.38 119.219C1630.76 128.132 1635.7 145.767 1635.7 173.921H1645.7C1645.7 145.385 1640.85 124.268 1629.66 112.369L1622.38 119.219ZM1640.7 168.921H1561.37V178.921H1640.7V168.921ZM1556.39 174.37C1557.21 183.428 1559.28 191.08 1562.96 196.957L1571.44 191.657C1568.9 187.593 1567.09 181.655 1566.35 173.473L1556.39 174.37ZM1562.99 197.004C1566.64 202.702 1571.54 207.23 1577.6 210.568L1582.42 201.808C1577.77 199.244 1574.12 195.851 1571.41 191.609L1562.99 197.004ZM1577.65 210.595C1584 214.001 1592.09 215.498 1601.56 215.498V205.498C1593.01 205.498 1586.74 204.123 1582.37 201.782L1577.65 210.595ZM1601.56 215.498C1613.88 215.498 1627.53 212.65 1642.43 207.151L1638.97 197.77C1624.82 202.989 1612.38 205.498 1601.56 205.498V215.498ZM1635.7 202.461V226.69H1645.7V202.461H1635.7ZM1560.91 159.468H1606.8V149.468H1560.91V159.468ZM1611.8 154.468C1611.8 142.436 1609.82 132.625 1604.79 126.22L1596.93 132.393C1599.82 136.084 1601.8 143.047 1601.8 154.468H1611.8ZM1604.82 126.258C1600.02 120.016 1593.53 116.735 1585.72 116.735V126.735C1590.33 126.735 1593.93 128.502 1596.9 132.355L1604.82 126.258ZM1585.72 116.735C1577.33 116.735 1570.36 120.312 1565.11 127.052L1573.01 133.192C1576.46 128.75 1580.59 126.735 1585.72 126.735V116.735ZM1565.13 127.026C1559.96 133.585 1557.07 142.768 1555.93 153.963L1565.88 154.973C1566.92 144.734 1569.46 137.687 1572.99 133.219L1565.13 127.026ZM1756.84 231H1751.84V236H1756.84V231ZM1756.84 206.887H1761.84L1752.35 204.682L1756.84 206.887ZM1739.71 227.156L1737 222.953L1736.99 222.96L1736.98 222.967L1739.71 227.156ZM1678.56 216.556L1674.54 219.53L1674.54 219.536L1674.55 219.543L1678.56 216.556ZM1680.07 120.337L1684.13 123.261L1684.14 123.25L1680.07 120.337ZM1733.19 101.699L1731.93 106.538L1731.98 106.55L1732.02 106.561L1733.19 101.699ZM1756.84 116.027L1753.36 119.621L1761.84 127.819V116.027H1756.84ZM1756.84 47.0667V42.0667H1751.84V47.0667H1756.84ZM1791.43 47.0667H1796.43V42.0667H1791.43V47.0667ZM1791.43 231V236H1796.43V231H1791.43ZM1756.84 136.529H1761.84V134.633L1760.58 133.214L1756.84 136.529ZM1709.19 136.063L1704.75 133.766L1704.75 133.773L1704.74 133.781L1709.19 136.063ZM1708.73 196.287L1704.44 198.852L1704.45 198.88L1704.47 198.907L1708.73 196.287ZM1742.86 201.529L1745.75 205.61L1745.75 205.606L1745.76 205.602L1742.86 201.529ZM1756.84 187.201L1760.91 190.097L1761.84 188.796V187.201H1756.84ZM1761.84 231V206.887H1751.84V231H1761.84ZM1752.35 204.682C1748.24 213.045 1743.09 219.034 1737 222.953L1742.42 231.359C1750.32 226.27 1756.58 218.746 1761.32 209.092L1752.35 204.682ZM1736.98 222.967C1731.01 226.862 1723.76 228.912 1715.02 228.912V238.912C1725.38 238.912 1734.6 236.458 1742.44 231.345L1736.98 222.967ZM1715.02 228.912C1700.75 228.912 1690.15 223.75 1682.57 213.569L1674.55 219.543C1684.2 232.503 1697.91 238.912 1715.02 238.912V228.912ZM1682.58 213.581C1674.77 203.028 1670.63 188.833 1670.63 170.543H1660.63C1660.63 190.306 1665.11 206.786 1674.54 219.53L1682.58 213.581ZM1670.63 170.543C1670.63 151.243 1675.24 135.593 1684.13 123.261L1676.02 117.413C1665.65 131.796 1660.63 149.617 1660.63 170.543H1670.63ZM1684.14 123.25C1692.78 111.19 1704.67 105.185 1720.38 105.185V95.1849C1701.61 95.1849 1686.62 102.614 1676.01 117.424L1684.14 123.25ZM1720.38 105.185C1724.68 105.185 1728.52 105.651 1731.93 106.538L1734.45 96.8601C1730.09 95.7282 1725.39 95.1849 1720.38 95.1849V105.185ZM1732.02 106.561C1735.44 107.381 1738.73 108.682 1741.91 110.479L1746.83 101.773C1742.87 99.5311 1738.7 97.8808 1734.36 96.8373L1732.02 106.561ZM1741.91 110.479C1744.96 112.202 1748.77 115.179 1753.36 119.621L1760.31 112.433C1755.43 107.711 1750.93 104.088 1746.83 101.773L1741.91 110.479ZM1761.84 116.027V47.0667H1751.84V116.027H1761.84ZM1756.84 52.0667H1791.43V42.0667H1756.84V52.0667ZM1786.43 47.0667V231H1796.43V47.0667H1786.43ZM1791.43 226H1756.84V236H1791.43V226ZM1760.58 133.214C1755.53 127.511 1750.44 123.258 1745.28 120.911L1741.14 130.014C1744.52 131.551 1748.52 134.675 1753.09 139.844L1760.58 133.214ZM1745.28 120.911C1740.4 118.692 1735.34 117.55 1730.16 117.55V127.55C1733.83 127.55 1737.48 128.35 1741.14 130.014L1745.28 120.911ZM1730.16 117.55C1724.66 117.55 1719.62 118.892 1715.22 121.726C1710.85 124.545 1707.4 128.656 1704.75 133.766L1713.63 138.36C1715.65 134.462 1718.02 131.817 1720.64 130.131C1723.23 128.461 1726.34 127.55 1730.16 127.55V117.55ZM1704.74 133.781C1699.73 143.549 1697.32 154.885 1697.32 167.631H1707.32C1707.32 156.147 1709.49 146.438 1713.64 138.345L1704.74 133.781ZM1697.32 167.631C1697.32 180.121 1699.54 190.665 1704.44 198.852L1713.02 193.721C1709.37 187.619 1707.32 179.059 1707.32 167.631H1697.32ZM1704.47 198.907C1709.71 207.421 1717.55 211.887 1727.48 211.887V201.887C1721.1 201.887 1716.44 199.286 1712.99 193.666L1704.47 198.907ZM1727.48 211.887C1733.9 211.887 1740.02 209.665 1745.75 205.61L1739.97 197.447C1735.6 200.537 1731.47 201.887 1727.48 201.887V211.887ZM1745.76 205.602C1751.4 201.583 1756.44 196.387 1760.91 190.097L1752.76 184.305C1748.84 189.819 1744.57 194.175 1739.96 197.456L1745.76 205.602ZM1761.84 187.201V136.529H1751.84V187.201H1761.84Z" fill="#DCA413" mask="url(#path-5-outside-3_8001_2)"/>
</svg>
