<svg width="2328" height="300" viewBox="0 0 2328 300" fill="none" xmlns="http://www.w3.org/2000/svg">
<path d="M1286.42 231V58.599H1333.95L1375.42 179.862L1418.17 58.599H1459.87V231H1426.79V100.884L1384.74 219.468H1355.85L1314.61 99.1365V231H1286.42ZM1484.22 231L1551.32 58.599H1587.19L1654.29 231H1617.48L1599.54 184.988H1528.25L1510.31 231H1484.22ZM1537.1 162.04H1590.69L1563.9 93.3121L1537.1 162.04ZM1678.75 231V58.599H1743.29C1756.49 58.599 1766.54 60.2686 1773.46 63.6079C1780.37 66.8695 1785.8 71.8785 1789.76 78.6348C1793.8 85.3134 1795.82 92.885 1795.82 101.35C1795.82 111.445 1792.91 120.997 1787.09 130.006C1781.26 138.936 1773.03 145.77 1762.39 150.507L1818.77 231H1775.09L1732.34 160.525H1712.53V231H1678.75ZM1712.53 136.878H1720.8C1735.64 136.878 1745.85 133.656 1751.44 127.21C1757.03 120.764 1759.83 113.464 1759.83 105.31C1759.83 98.2434 1757.54 92.652 1752.95 88.5362C1748.37 84.3426 1739.05 82.2459 1725 82.2459H1712.53V136.878ZM1843.47 231V58.599H1877.95V142.237L1943.88 58.599H1973.7L1913.94 135.946L1988.14 231H1943.29L1877.95 146.197V231H1843.47ZM2012.84 231V58.599H2120.59V82.2459H2048.72V130.355H2107.66V154.118H2048.72V206.538H2126.06V231H2012.84ZM2198.87 231V82.2459H2137.13V58.599H2296.6V82.2459H2234.86V231H2198.87Z" fill="#DCA413"/>
<path d="M21.8873 234V58.9017H58.3267V234H21.8873ZM102.338 234V58.9017H134.4L215.56 178.513V58.9017H244.783V234H212.129L131.56 114.389V234H102.338ZM331.977 234V82.9185H269.273V58.9017H431.239V82.9185H368.535V234H331.977ZM455.847 234V58.9017H565.284V82.9185H492.287V131.78H552.151V155.916H492.287V209.155H570.844V234H455.847ZM601.368 234V58.9017H666.912C680.32 58.9017 690.534 60.5975 697.554 63.989C704.574 67.3017 710.095 72.389 714.117 79.2509C718.219 86.034 720.269 93.7242 720.269 102.321C720.269 112.575 717.312 122.276 711.396 131.426C705.481 140.496 697.12 147.437 686.314 152.248L743.576 234H699.21L655.791 162.423H635.678V234H601.368ZM635.678 138.406H644.078C659.143 138.406 669.514 135.133 675.193 128.586C680.872 122.04 683.712 114.626 683.712 106.344C683.712 99.1664 681.385 93.4875 676.731 89.3073C672.078 85.0481 662.613 82.9185 648.337 82.9185H635.678V138.406ZM768.658 234V58.9017H800.72L881.88 178.513V58.9017H911.103V234H878.449L797.88 114.389V234H768.658ZM935.711 234L1003.86 58.9017H1040.3L1108.44 234H1071.06L1052.84 187.268H980.432L962.213 234H935.711ZM989.424 163.961H1043.85L1016.64 94.158L989.424 163.961ZM1133.29 234V58.9017H1169.73V209.155H1248.64V234H1133.29Z" fill="#1B1B1B"/>
</svg>
