<svg width="3455" height="281" viewBox="0 0 3455 281" fill="none" xmlns="http://www.w3.org/2000/svg">
<mask id="path-1-outside-1_6006_2" maskUnits="userSpaceOnUse" x="16" y="53" width="516" height="186" fill="black">
<rect fill="white" x="16" y="53" width="516" height="186"/>
<path d="M21.5501 231V58.599H57.4282V231H21.5501ZM166.693 230.301C158.461 232.708 151.977 233.912 147.24 233.912C135.979 233.912 127.243 232.32 121.03 229.136C114.818 225.952 110.158 221.642 107.052 216.206C103.945 210.692 102.392 202.616 102.392 191.977V124.647H88.0643V103.097H102.392V81.5469L136.872 77.5864V103.097H164.247V124.647H136.872V187.434C136.872 196.675 138.503 202.927 141.765 206.188C145.027 209.372 149.803 210.964 156.093 210.964C159.044 210.964 162.577 210.421 166.693 209.333V230.301ZM301.585 226.69C285.199 231.505 269.668 233.912 254.99 233.912C241.09 233.912 228.897 231.349 218.413 226.224C208.007 221.021 199.97 212.944 194.301 201.995C188.709 190.967 185.914 179.008 185.914 166.117C185.914 154.157 188.282 143.13 193.019 133.034C197.834 122.861 204.784 114.862 213.87 109.038C223.034 103.136 234.295 100.185 247.652 100.185C264.038 100.185 277.123 105.388 286.908 115.794C296.693 126.2 301.585 145.576 301.585 173.921H222.258C223.034 182.541 224.976 189.336 228.082 194.307C231.266 199.277 235.537 203.237 240.896 206.188C246.254 209.062 253.437 210.498 262.446 210.498C274.017 210.498 287.063 207.819 301.585 202.461V226.69ZM221.792 154.468H267.688C267.688 142.742 265.707 134.354 261.747 129.307C257.864 124.259 252.816 121.735 246.603 121.735C239.847 121.735 234.295 124.531 229.946 130.122C225.597 135.636 222.879 143.751 221.792 154.468ZM337.23 231V103.097H370.313V127.21C374.662 119.444 380.369 112.998 387.436 107.873C394.503 102.748 403.162 100.185 413.413 100.185C419.626 100.185 425.023 101.156 429.605 103.097C434.187 104.961 438.225 107.951 441.719 112.067C445.292 116.105 447.583 121.153 448.592 127.21C454.96 117.58 461.406 110.669 467.929 106.475C474.53 102.282 482.529 100.185 491.925 100.185C502.332 100.185 510.757 103.252 517.203 109.387C523.726 115.445 526.988 125.268 526.988 138.859V231H493.906V150.158C493.906 140.606 492.353 134.432 489.246 131.636C486.218 128.841 482.801 127.443 478.995 127.443C473.792 127.443 468.628 129.307 463.503 133.034C458.455 136.762 453.485 142.353 448.592 149.808V231H415.51V150.158C415.51 140.684 413.995 134.51 410.967 131.636C408.016 128.763 404.444 127.326 400.25 127.326C395.202 127.326 390.154 129.19 385.107 132.918C380.137 136.645 375.205 142.276 370.313 149.808V231H337.23Z"/>
</mask>
<path d="M21.5501 231V58.599H57.4282V231H21.5501ZM166.693 230.301C158.461 232.708 151.977 233.912 147.24 233.912C135.979 233.912 127.243 232.32 121.03 229.136C114.818 225.952 110.158 221.642 107.052 216.206C103.945 210.692 102.392 202.616 102.392 191.977V124.647H88.0643V103.097H102.392V81.5469L136.872 77.5864V103.097H164.247V124.647H136.872V187.434C136.872 196.675 138.503 202.927 141.765 206.188C145.027 209.372 149.803 210.964 156.093 210.964C159.044 210.964 162.577 210.421 166.693 209.333V230.301ZM301.585 226.69C285.199 231.505 269.668 233.912 254.99 233.912C241.09 233.912 228.897 231.349 218.413 226.224C208.007 221.021 199.97 212.944 194.301 201.995C188.709 190.967 185.914 179.008 185.914 166.117C185.914 154.157 188.282 143.13 193.019 133.034C197.834 122.861 204.784 114.862 213.87 109.038C223.034 103.136 234.295 100.185 247.652 100.185C264.038 100.185 277.123 105.388 286.908 115.794C296.693 126.2 301.585 145.576 301.585 173.921H222.258C223.034 182.541 224.976 189.336 228.082 194.307C231.266 199.277 235.537 203.237 240.896 206.188C246.254 209.062 253.437 210.498 262.446 210.498C274.017 210.498 287.063 207.819 301.585 202.461V226.69ZM221.792 154.468H267.688C267.688 142.742 265.707 134.354 261.747 129.307C257.864 124.259 252.816 121.735 246.603 121.735C239.847 121.735 234.295 124.531 229.946 130.122C225.597 135.636 222.879 143.751 221.792 154.468ZM337.23 231V103.097H370.313V127.21C374.662 119.444 380.369 112.998 387.436 107.873C394.503 102.748 403.162 100.185 413.413 100.185C419.626 100.185 425.023 101.156 429.605 103.097C434.187 104.961 438.225 107.951 441.719 112.067C445.292 116.105 447.583 121.153 448.592 127.21C454.96 117.58 461.406 110.669 467.929 106.475C474.53 102.282 482.529 100.185 491.925 100.185C502.332 100.185 510.757 103.252 517.203 109.387C523.726 115.445 526.988 125.268 526.988 138.859V231H493.906V150.158C493.906 140.606 492.353 134.432 489.246 131.636C486.218 128.841 482.801 127.443 478.995 127.443C473.792 127.443 468.628 129.307 463.503 133.034C458.455 136.762 453.485 142.353 448.592 149.808V231H415.51V150.158C415.51 140.684 413.995 134.51 410.967 131.636C408.016 128.763 404.444 127.326 400.25 127.326C395.202 127.326 390.154 129.19 385.107 132.918C380.137 136.645 375.205 142.276 370.313 149.808V231H337.23Z" fill="#DCA413"/>
<path d="M21.5501 231H16.5501V236H21.5501V231ZM21.5501 58.599V53.599H16.5501V58.599H21.5501ZM57.4282 58.599H62.4282V53.599H57.4282V58.599ZM57.4282 231V236H62.4282V231H57.4282ZM26.5501 231V58.599H16.5501V231H26.5501ZM21.5501 63.599H57.4282V53.599H21.5501V63.599ZM52.4282 58.599V231H62.4282V58.599H52.4282ZM57.4282 226H21.5501V236H57.4282V226ZM166.693 230.301L168.097 235.1L171.693 234.048V230.301H166.693ZM121.03 229.136L118.75 233.586L121.03 229.136ZM107.052 216.206L102.695 218.66L102.703 218.674L102.711 218.687L107.052 216.206ZM102.392 124.647H107.392V119.647H102.392V124.647ZM88.0643 124.647H83.0643V129.647H88.0643V124.647ZM88.0643 103.097V98.0971H83.0643V103.097H88.0643ZM102.392 103.097V108.097H107.392V103.097H102.392ZM102.392 81.5469L101.822 76.5796L97.3922 77.0884V81.5469H102.392ZM136.872 77.5864H141.872V71.9792L136.302 72.619L136.872 77.5864ZM136.872 103.097H131.872V108.097H136.872V103.097ZM164.247 103.097H169.247V98.0971H164.247V103.097ZM164.247 124.647V129.647H169.247V124.647H164.247ZM136.872 124.647V119.647H131.872V124.647H136.872ZM141.765 206.188L138.229 209.724L138.251 209.745L138.272 209.766L141.765 206.188ZM166.693 209.333H171.693V202.841L165.416 204.499L166.693 209.333ZM165.29 225.502C157.209 227.865 151.264 228.912 147.24 228.912V238.912C152.69 238.912 159.714 237.552 168.097 235.1L165.29 225.502ZM147.24 228.912C136.339 228.912 128.513 227.353 123.311 224.687L118.75 233.586C125.973 237.288 135.619 238.912 147.24 238.912V228.912ZM123.311 224.687C117.859 221.892 113.964 218.224 111.393 213.725L102.711 218.687C106.352 225.06 111.776 230.012 118.75 233.586L123.311 224.687ZM111.408 213.752C108.92 209.336 107.392 202.273 107.392 191.977H97.3922C97.3922 202.959 98.9707 212.049 102.695 218.66L111.408 213.752ZM107.392 191.977V124.647H97.3922V191.977H107.392ZM102.392 119.647H88.0643V129.647H102.392V119.647ZM93.0643 124.647V103.097H83.0643V124.647H93.0643ZM88.0643 108.097H102.392V98.0971H88.0643V108.097ZM107.392 103.097V81.5469H97.3922V103.097H107.392ZM102.963 86.5143L137.443 82.5537L136.302 72.619L101.822 76.5796L102.963 86.5143ZM131.872 77.5864V103.097H141.872V77.5864H131.872ZM136.872 108.097H164.247V98.0971H136.872V108.097ZM159.247 103.097V124.647H169.247V103.097H159.247ZM164.247 119.647H136.872V129.647H164.247V119.647ZM131.872 124.647V187.434H141.872V124.647H131.872ZM131.872 187.434C131.872 196.848 133.447 204.941 138.229 209.724L145.3 202.653C143.56 200.912 141.872 196.503 141.872 187.434H131.872ZM138.272 209.766C142.775 214.162 149.002 215.964 156.093 215.964V205.964C150.604 205.964 147.278 204.582 145.258 202.61L138.272 209.766ZM156.093 215.964C159.619 215.964 163.604 215.321 167.97 214.168L165.416 204.499C161.55 205.52 158.469 205.964 156.093 205.964V215.964ZM161.693 209.333V230.301H171.693V209.333H161.693ZM301.585 226.69L302.995 231.487L306.585 230.432V226.69H301.585ZM218.413 226.224L216.177 230.696L216.197 230.706L216.217 230.716L218.413 226.224ZM194.301 201.995L189.841 204.256L189.851 204.275L189.86 204.294L194.301 201.995ZM193.019 133.034L188.5 130.895L188.496 130.903L188.493 130.91L193.019 133.034ZM213.87 109.038L216.569 113.247L216.578 113.241L213.87 109.038ZM301.585 173.921V178.921H306.585V173.921H301.585ZM222.258 173.921V168.921H216.787L217.278 174.37L222.258 173.921ZM228.082 194.307L223.842 196.957L223.857 196.98L223.872 197.004L228.082 194.307ZM240.896 206.188L238.483 210.568L238.508 210.581L238.533 210.595L240.896 206.188ZM301.585 202.461H306.585V195.286L299.854 197.77L301.585 202.461ZM221.792 154.468L216.817 153.963L216.259 159.468H221.792V154.468ZM267.688 154.468V159.468H272.688V154.468H267.688ZM261.747 129.307L257.784 132.355L257.798 132.374L257.813 132.393L261.747 129.307ZM229.946 130.122L233.872 133.219L233.882 133.205L233.892 133.192L229.946 130.122ZM300.176 221.893C284.175 226.595 269.12 228.912 254.99 228.912V238.912C270.215 238.912 286.224 236.415 302.995 231.487L300.176 221.893ZM254.99 228.912C241.707 228.912 230.291 226.465 220.61 221.732L216.217 230.716C227.504 236.234 240.473 238.912 254.99 238.912V228.912ZM220.65 221.752C211.248 217.051 203.954 209.766 198.741 199.696L189.86 204.294C195.985 216.123 204.767 224.991 216.177 230.696L220.65 221.752ZM198.76 199.734C193.539 189.437 190.914 178.257 190.914 166.117H180.914C180.914 179.759 183.879 192.497 189.841 204.256L198.76 199.734ZM190.914 166.117C190.914 154.837 193.143 144.542 197.546 135.158L188.493 130.91C183.422 141.718 180.914 153.477 180.914 166.117H190.914ZM197.539 135.173C201.971 125.809 208.307 118.544 216.569 113.247L211.172 104.829C201.262 111.181 193.698 119.913 188.5 130.895L197.539 135.173ZM216.578 113.241C224.769 107.966 235.037 105.185 247.652 105.185V95.1849C233.552 95.1849 221.299 98.306 211.163 104.834L216.578 113.241ZM247.652 105.185C262.881 105.185 274.568 109.969 283.265 119.219L290.551 112.369C279.678 100.807 265.195 95.1849 247.652 95.1849V105.185ZM283.265 119.219C291.646 128.132 296.585 145.767 296.585 173.921H306.585C306.585 145.385 301.74 124.269 290.551 112.369L283.265 119.219ZM301.585 168.921H222.258V178.921H301.585V168.921ZM217.278 174.37C218.094 183.428 220.169 191.08 223.842 196.957L232.322 191.657C229.782 187.593 227.975 181.655 227.237 173.473L217.278 174.37ZM223.872 197.004C227.522 202.702 232.422 207.23 238.483 210.568L243.308 201.808C238.652 199.244 235.01 195.851 232.292 191.609L223.872 197.004ZM238.533 210.595C244.884 214.001 252.98 215.498 262.446 215.498V205.498C253.895 205.498 247.624 204.123 243.258 201.782L238.533 210.595ZM262.446 215.498C274.769 215.498 288.416 212.65 303.316 207.151L299.854 197.77C285.711 202.989 273.264 205.498 262.446 205.498V215.498ZM296.585 202.461V226.69H306.585V202.461H296.585ZM221.792 159.468H267.688V149.468H221.792V159.468ZM272.688 154.468C272.688 142.436 270.706 132.625 265.68 126.22L257.813 132.393C260.709 136.084 262.688 143.047 262.688 154.468H272.688ZM265.71 126.258C260.908 120.016 254.413 116.735 246.603 116.735V126.735C251.219 126.735 254.819 128.502 257.784 132.355L265.71 126.258ZM246.603 116.735C238.219 116.735 231.242 120.312 225.999 127.052L233.892 133.192C237.347 128.75 241.475 126.735 246.603 126.735V116.735ZM226.02 127.026C220.847 133.585 217.953 142.768 216.817 153.963L226.766 154.973C227.805 144.734 230.347 137.687 233.872 133.219L226.02 127.026ZM337.23 231H332.23V236H337.23V231ZM337.23 103.097V98.0971H332.23V103.097H337.23ZM370.313 103.097H375.313V98.0971H370.313V103.097ZM370.313 127.21H365.313V146.372L374.675 129.653L370.313 127.21ZM429.605 103.097L427.654 107.701L427.687 107.715L427.721 107.729L429.605 103.097ZM441.719 112.067L437.908 115.303L437.941 115.341L437.974 115.379L441.719 112.067ZM448.592 127.21L443.66 128.032L445.75 140.572L452.763 129.968L448.592 127.21ZM467.929 106.475L465.248 102.255L465.237 102.262L465.225 102.269L467.929 106.475ZM517.203 109.387L513.756 113.009L513.778 113.03L513.801 113.051L517.203 109.387ZM526.988 231V236H531.988V231H526.988ZM493.906 231H488.906V236H493.906V231ZM489.246 131.636L485.855 135.31L485.878 135.332L485.901 135.353L489.246 131.636ZM463.503 133.034L460.562 128.991L460.547 129.001L460.532 129.012L463.503 133.034ZM448.592 149.808L444.412 147.065L443.592 148.314V149.808H448.592ZM448.592 231V236H453.592V231H448.592ZM415.51 231H410.51V236H415.51V231ZM410.967 131.636L407.479 135.219L407.502 135.241L407.525 135.264L410.967 131.636ZM385.107 132.918L382.136 128.896L382.121 128.907L382.107 128.918L385.107 132.918ZM370.313 149.808L366.12 147.085L365.313 148.327V149.808H370.313ZM370.313 231V236H375.313V231H370.313ZM342.23 231V103.097H332.23V231H342.23ZM337.23 108.097H370.313V98.0971H337.23V108.097ZM365.313 103.097V127.21H375.313V103.097H365.313ZM374.675 129.653C378.677 122.506 383.903 116.612 390.372 111.921L384.501 103.826C376.836 109.385 370.646 116.382 365.95 124.767L374.675 129.653ZM390.372 111.921C396.444 107.517 404.027 105.185 413.413 105.185V95.1849C402.297 95.1849 392.563 97.9783 384.501 103.826L390.372 111.921ZM413.413 105.185C419.117 105.185 423.822 106.077 427.654 107.701L431.555 98.4933C426.224 96.2341 420.135 95.1849 413.413 95.1849V105.185ZM427.721 107.729C431.49 109.262 434.885 111.743 437.908 115.303L445.531 108.83C441.564 104.158 436.883 100.66 431.489 98.4656L427.721 107.729ZM437.974 115.379C440.842 118.621 442.783 122.768 443.66 128.032L453.524 126.388C452.382 119.537 449.741 113.588 445.464 108.754L437.974 115.379ZM452.763 129.968C458.918 120.66 464.907 114.362 470.633 110.681L465.225 102.269C457.904 106.976 451.002 114.501 444.422 124.452L452.763 129.968ZM470.61 110.696C476.261 107.106 483.285 105.185 491.925 105.185V95.1849C481.772 95.1849 472.799 97.4575 465.248 102.255L470.61 110.696ZM491.925 105.185C501.281 105.185 508.396 107.907 513.756 113.009L520.65 105.766C513.119 98.5974 503.382 95.1849 491.925 95.1849V105.185ZM513.801 113.051C518.873 117.761 521.988 125.932 521.988 138.859H531.988C531.988 124.605 528.58 113.128 520.605 105.723L513.801 113.051ZM521.988 138.859V231H531.988V138.859H521.988ZM526.988 226H493.906V236H526.988V226ZM498.906 231V150.158H488.906V231H498.906ZM498.906 150.158C498.906 145.154 498.503 140.775 497.59 137.144C496.689 133.564 495.175 130.246 492.591 127.92L485.901 135.353C486.423 135.823 487.239 136.989 487.892 139.583C488.532 142.126 488.906 145.61 488.906 150.158H498.906ZM492.638 127.962C488.769 124.391 484.167 122.443 478.995 122.443V132.443C481.434 132.443 483.666 133.29 485.855 135.31L492.638 127.962ZM478.995 122.443C472.523 122.443 466.352 124.78 460.562 128.991L466.443 137.078C470.904 133.834 475.062 132.443 478.995 132.443V122.443ZM460.532 129.012C454.854 133.205 449.503 139.307 444.412 147.065L452.772 152.552C457.466 145.4 462.055 140.318 466.473 137.056L460.532 129.012ZM443.592 149.808V231H453.592V149.808H443.592ZM448.592 226H415.51V236H448.592V226ZM420.51 231V150.158H410.51V231H420.51ZM420.51 150.158C420.51 145.195 420.117 140.847 419.23 137.231C418.355 133.665 416.892 130.366 414.408 128.009L407.525 135.264C408.07 135.78 408.878 137.005 409.518 139.613C410.145 142.17 410.51 145.647 410.51 150.158H420.51ZM414.455 128.054C410.552 124.253 405.72 122.326 400.25 122.326V132.326C403.167 132.326 405.48 133.273 407.479 135.219L414.455 128.054ZM400.25 122.326C393.896 122.326 387.832 124.69 382.136 128.896L388.077 136.94C392.477 133.691 396.508 132.326 400.25 132.326V122.326ZM382.107 128.918C376.508 133.117 371.202 139.26 366.12 147.085L374.506 152.532C379.209 145.291 383.765 140.174 388.107 136.918L382.107 128.918ZM365.313 149.808V231H375.313V149.808H365.313ZM370.313 226H337.23V236H370.313V226Z" fill="#1B1B1B" mask="url(#path-1-outside-1_6006_2)"/>
<mask id="path-3-outside-2_6006_2" maskUnits="userSpaceOnUse" x="1954" y="39" width="1506" height="244" fill="black">
<rect fill="white" x="1954" y="39" width="1506" height="244"/>
<path d="M1959.88 229.486V199.898C1973.16 205.489 1983.06 208.829 1989.59 209.916C1996.19 211.003 2002.24 211.547 2007.76 211.547C2017.7 211.547 2025.11 209.295 2030.01 204.79C2034.9 200.286 2037.35 194.889 2037.35 188.599C2037.35 183.784 2036.03 179.435 2033.39 175.552C2030.74 171.747 2024.07 166.816 2013.35 160.758L2001.82 154.351C1985.35 145.11 1974.21 136.568 1968.39 128.724C1962.48 120.881 1959.53 111.795 1959.53 101.466C1959.53 88.4973 1964.42 77.3922 1974.21 68.1509C1984.07 58.9096 1998.21 54.2889 2016.61 54.2889C2030.36 54.2889 2045.85 56.2692 2063.09 60.2298V87.8372C2045.54 81.2363 2031.6 77.9358 2021.27 77.9358C2012.73 77.9358 2006.2 79.8385 2001.7 83.6437C1997.27 87.3713 1995.06 91.8755 1995.06 97.1562C1995.06 101.194 1996.38 104.961 1999.02 108.455C2001.58 111.95 2008.22 116.726 2018.94 122.783L2031.29 129.656C2050.16 140.295 2062.2 149.537 2067.4 157.38C2072.52 165.301 2075.09 174.193 2075.09 184.056C2075.09 198.189 2069.73 210.265 2059.01 220.283C2048.37 230.301 2031.4 235.31 2008.11 235.31C1994.28 235.31 1978.21 233.369 1959.88 229.486ZM2184.93 231V206.887C2178.8 216.672 2171.97 223.622 2164.43 227.738C2156.9 231.854 2149.21 233.912 2141.37 233.912C2131.27 233.912 2122.58 230.689 2115.28 224.244C2108.05 217.72 2104.44 207.47 2104.44 193.491V103.097H2138.92V184.988C2138.92 191.977 2139.54 196.714 2140.79 199.199C2142.11 201.684 2143.85 203.587 2146.03 204.907C2148.28 206.149 2150.77 206.771 2153.48 206.771C2158.22 206.771 2163.15 205.218 2168.28 202.111C2173.4 198.927 2178.96 192.753 2184.93 183.59V103.097H2219.42V231H2184.93ZM2356.99 228.204C2342.7 232.01 2329.38 233.912 2317.03 233.912C2295.13 233.912 2278.67 227.467 2267.64 214.575C2256.61 201.606 2251.1 185.725 2251.1 166.932C2251.1 147.207 2256.92 131.17 2268.57 118.823C2280.22 106.398 2297.35 100.185 2319.94 100.185C2330.35 100.185 2342.35 101.855 2355.94 105.194V130.122C2341.8 125.54 2330.54 123.249 2322.16 123.249C2310.2 123.249 2301.46 127.792 2295.95 136.878C2290.43 145.887 2287.68 155.827 2287.68 166.699C2287.68 175.086 2289.27 182.93 2292.45 190.229C2295.64 197.452 2300.06 202.732 2305.73 206.072C2311.48 209.411 2317.92 211.081 2325.07 211.081C2335.4 211.081 2346.04 208.829 2356.99 204.324V228.204ZM2483.96 228.204C2469.67 232.01 2456.35 233.912 2444 233.912C2422.1 233.912 2405.64 227.467 2394.61 214.575C2383.58 201.606 2378.07 185.725 2378.07 166.932C2378.07 147.207 2383.9 131.17 2395.54 118.823C2407.19 106.398 2424.32 100.185 2446.91 100.185C2457.32 100.185 2469.32 101.855 2482.91 105.194V130.122C2468.78 125.54 2457.51 123.249 2449.13 123.249C2437.17 123.249 2428.43 127.792 2422.92 136.878C2417.4 145.887 2414.65 155.827 2414.65 166.699C2414.65 175.086 2416.24 182.93 2419.42 190.229C2422.61 197.452 2427.03 202.732 2432.7 206.072C2438.45 209.411 2444.9 211.081 2452.04 211.081C2462.37 211.081 2473.01 208.829 2483.96 204.324V228.204ZM2620.71 226.69C2604.33 231.505 2588.8 233.912 2574.12 233.912C2560.22 233.912 2548.03 231.349 2537.54 226.224C2527.14 221.021 2519.1 212.944 2513.43 201.995C2507.84 190.967 2505.04 179.008 2505.04 166.117C2505.04 154.157 2507.41 143.13 2512.15 133.034C2516.96 122.861 2523.91 114.862 2533 109.038C2542.16 103.136 2553.42 100.185 2566.78 100.185C2583.17 100.185 2596.25 105.388 2606.04 115.794C2615.82 126.2 2620.71 145.576 2620.71 173.921H2541.39C2542.16 182.541 2544.1 189.336 2547.21 194.307C2550.39 199.277 2554.67 203.237 2560.02 206.188C2565.38 209.062 2572.57 210.498 2581.57 210.498C2593.14 210.498 2606.19 207.819 2620.71 202.461V226.69ZM2540.92 154.468H2586.82C2586.82 142.742 2584.84 134.354 2580.87 129.307C2576.99 124.259 2571.94 121.735 2565.73 121.735C2558.98 121.735 2553.42 124.531 2549.07 130.122C2544.73 135.636 2542.01 143.751 2540.92 154.468ZM2652.98 226.923V201.645C2670.07 208.79 2684.66 212.362 2696.78 212.362C2703.23 212.362 2708.35 211.003 2712.16 208.285C2716.04 205.567 2717.98 202.111 2717.98 197.918C2717.98 194.268 2716.54 191.2 2713.67 188.715C2710.8 186.308 2706.41 183.939 2700.51 181.609L2688.86 176.95C2676.82 172.135 2667.93 166.816 2662.18 160.991C2656.44 155.244 2653.56 147.75 2653.56 138.509C2653.56 127.404 2657.87 118.24 2666.49 111.018C2675.19 103.796 2688.43 100.185 2706.22 100.185C2716.62 100.185 2729.01 101.699 2743.37 104.728V128.957C2729.55 124.142 2718.1 121.735 2709.01 121.735C2701.87 121.735 2696.51 122.978 2692.94 125.463C2689.36 127.87 2687.58 131.015 2687.58 134.898C2687.58 137.927 2688.74 140.606 2691.07 142.936C2693.32 145.265 2697.44 147.556 2703.42 149.808L2713.44 153.653C2729.98 159.943 2740.81 166.039 2745.94 171.941C2750.99 177.921 2753.51 185.065 2753.51 193.375C2753.51 204.169 2748.85 213.643 2739.53 221.798C2730.29 229.874 2716.82 233.912 2699.11 233.912C2684.04 233.912 2668.67 231.582 2652.98 226.923ZM2787.87 226.923V201.645C2804.96 208.79 2819.56 212.362 2831.67 212.362C2838.12 212.362 2843.24 211.003 2847.05 208.285C2850.93 205.567 2852.87 202.111 2852.87 197.918C2852.87 194.268 2851.44 191.2 2848.56 188.715C2845.69 186.308 2841.3 183.939 2835.4 181.609L2823.75 176.95C2811.71 172.135 2802.82 166.816 2797.08 160.991C2791.33 155.244 2788.46 147.75 2788.46 138.509C2788.46 127.404 2792.77 118.24 2801.39 111.018C2810.08 103.796 2823.32 100.185 2841.11 100.185C2851.51 100.185 2863.9 101.699 2878.27 104.728V128.957C2864.44 124.142 2852.99 121.735 2843.9 121.735C2836.76 121.735 2831.4 122.978 2827.83 125.463C2824.26 127.87 2822.47 131.015 2822.47 134.898C2822.47 137.927 2823.63 140.606 2825.96 142.936C2828.22 145.265 2832.33 147.556 2838.31 149.808L2848.33 153.653C2864.87 159.943 2875.7 166.039 2880.83 171.941C2885.88 177.921 2888.4 185.065 2888.4 193.375C2888.4 204.169 2883.74 213.643 2874.42 221.798C2865.18 229.874 2851.71 233.912 2834 233.912C2818.94 233.912 2803.56 231.582 2787.87 226.923ZM2929.75 231V124.647H2912.16V103.097H2929.75V93.8946C2929.75 76.0332 2933.83 63.2973 2941.99 55.6868C2950.22 47.9986 2961.87 44.1545 2976.93 44.1545C2987.1 44.1545 2997.59 45.6301 3008.38 48.5811V71.8785C2998.6 67.7626 2989.82 65.7047 2982.06 65.7047C2978.41 65.7047 2975.26 66.4424 2972.62 67.9179C2970.06 69.3158 2968 71.7232 2966.45 75.1401C2964.97 78.4794 2964.23 84.3038 2964.23 92.6132V103.097H2996.62V124.647H2964.23V231H2929.75ZM3104.25 231V206.887C3098.12 216.672 3091.28 223.622 3083.75 227.738C3076.22 231.854 3068.53 233.912 3060.69 233.912C3050.59 233.912 3041.89 230.689 3034.59 224.244C3027.37 217.72 3023.76 207.47 3023.76 193.491V103.097H3058.24V184.988C3058.24 191.977 3058.86 196.714 3060.1 199.199C3061.42 201.684 3063.17 203.587 3065.35 204.907C3067.6 206.149 3070.08 206.771 3072.8 206.771C3077.54 206.771 3082.47 205.218 3087.59 202.111C3092.72 198.927 3098.27 192.753 3104.25 183.59V103.097H3138.73V231H3104.25ZM3181.95 231V47.0667H3216.43V231H3181.95ZM3259.53 231V47.0667H3294.01V231H3259.53ZM3337.58 277.012L3366.58 231L3319.17 103.097H3356.21L3387.9 188.599L3425.52 103.097H3451.73L3372.75 277.012H3337.58Z"/>
</mask>
<path d="M1959.88 229.486V199.898C1973.16 205.489 1983.06 208.829 1989.59 209.916C1996.19 211.003 2002.24 211.547 2007.76 211.547C2017.7 211.547 2025.11 209.295 2030.01 204.79C2034.9 200.286 2037.35 194.889 2037.35 188.599C2037.35 183.784 2036.03 179.435 2033.39 175.552C2030.74 171.747 2024.07 166.816 2013.35 160.758L2001.82 154.351C1985.35 145.11 1974.21 136.568 1968.39 128.724C1962.48 120.881 1959.53 111.795 1959.53 101.466C1959.53 88.4973 1964.42 77.3922 1974.21 68.1509C1984.07 58.9096 1998.21 54.2889 2016.61 54.2889C2030.36 54.2889 2045.85 56.2692 2063.09 60.2298V87.8372C2045.54 81.2363 2031.6 77.9358 2021.27 77.9358C2012.73 77.9358 2006.2 79.8385 2001.7 83.6437C1997.27 87.3713 1995.06 91.8755 1995.06 97.1562C1995.06 101.194 1996.38 104.961 1999.02 108.455C2001.58 111.95 2008.22 116.726 2018.94 122.783L2031.29 129.656C2050.16 140.295 2062.2 149.537 2067.4 157.38C2072.52 165.301 2075.09 174.193 2075.09 184.056C2075.09 198.189 2069.73 210.265 2059.01 220.283C2048.37 230.301 2031.4 235.31 2008.11 235.31C1994.28 235.31 1978.21 233.369 1959.88 229.486ZM2184.93 231V206.887C2178.8 216.672 2171.97 223.622 2164.43 227.738C2156.9 231.854 2149.21 233.912 2141.37 233.912C2131.27 233.912 2122.58 230.689 2115.28 224.244C2108.05 217.72 2104.44 207.47 2104.44 193.491V103.097H2138.92V184.988C2138.92 191.977 2139.54 196.714 2140.79 199.199C2142.11 201.684 2143.85 203.587 2146.03 204.907C2148.28 206.149 2150.77 206.771 2153.48 206.771C2158.22 206.771 2163.15 205.218 2168.28 202.111C2173.4 198.927 2178.96 192.753 2184.93 183.59V103.097H2219.42V231H2184.93ZM2356.99 228.204C2342.7 232.01 2329.38 233.912 2317.03 233.912C2295.13 233.912 2278.67 227.467 2267.64 214.575C2256.61 201.606 2251.1 185.725 2251.1 166.932C2251.1 147.207 2256.92 131.17 2268.57 118.823C2280.22 106.398 2297.35 100.185 2319.94 100.185C2330.35 100.185 2342.35 101.855 2355.94 105.194V130.122C2341.8 125.54 2330.54 123.249 2322.16 123.249C2310.2 123.249 2301.46 127.792 2295.95 136.878C2290.43 145.887 2287.68 155.827 2287.68 166.699C2287.68 175.086 2289.27 182.93 2292.45 190.229C2295.64 197.452 2300.06 202.732 2305.73 206.072C2311.48 209.411 2317.92 211.081 2325.07 211.081C2335.4 211.081 2346.04 208.829 2356.99 204.324V228.204ZM2483.96 228.204C2469.67 232.01 2456.35 233.912 2444 233.912C2422.1 233.912 2405.64 227.467 2394.61 214.575C2383.58 201.606 2378.07 185.725 2378.07 166.932C2378.07 147.207 2383.9 131.17 2395.54 118.823C2407.19 106.398 2424.32 100.185 2446.91 100.185C2457.32 100.185 2469.32 101.855 2482.91 105.194V130.122C2468.78 125.54 2457.51 123.249 2449.13 123.249C2437.17 123.249 2428.43 127.792 2422.92 136.878C2417.4 145.887 2414.65 155.827 2414.65 166.699C2414.65 175.086 2416.24 182.93 2419.42 190.229C2422.61 197.452 2427.03 202.732 2432.7 206.072C2438.45 209.411 2444.9 211.081 2452.04 211.081C2462.37 211.081 2473.01 208.829 2483.96 204.324V228.204ZM2620.71 226.69C2604.33 231.505 2588.8 233.912 2574.12 233.912C2560.22 233.912 2548.03 231.349 2537.54 226.224C2527.14 221.021 2519.1 212.944 2513.43 201.995C2507.84 190.967 2505.04 179.008 2505.04 166.117C2505.04 154.157 2507.41 143.13 2512.15 133.034C2516.96 122.861 2523.91 114.862 2533 109.038C2542.16 103.136 2553.42 100.185 2566.78 100.185C2583.17 100.185 2596.25 105.388 2606.04 115.794C2615.82 126.2 2620.71 145.576 2620.71 173.921H2541.39C2542.16 182.541 2544.1 189.336 2547.21 194.307C2550.39 199.277 2554.67 203.237 2560.02 206.188C2565.38 209.062 2572.57 210.498 2581.57 210.498C2593.14 210.498 2606.19 207.819 2620.71 202.461V226.69ZM2540.92 154.468H2586.82C2586.82 142.742 2584.84 134.354 2580.87 129.307C2576.99 124.259 2571.94 121.735 2565.73 121.735C2558.98 121.735 2553.42 124.531 2549.07 130.122C2544.73 135.636 2542.01 143.751 2540.92 154.468ZM2652.98 226.923V201.645C2670.07 208.79 2684.66 212.362 2696.78 212.362C2703.23 212.362 2708.35 211.003 2712.16 208.285C2716.04 205.567 2717.98 202.111 2717.98 197.918C2717.98 194.268 2716.54 191.2 2713.67 188.715C2710.8 186.308 2706.41 183.939 2700.51 181.609L2688.86 176.95C2676.82 172.135 2667.93 166.816 2662.18 160.991C2656.44 155.244 2653.56 147.75 2653.56 138.509C2653.56 127.404 2657.87 118.24 2666.49 111.018C2675.19 103.796 2688.43 100.185 2706.22 100.185C2716.62 100.185 2729.01 101.699 2743.37 104.728V128.957C2729.55 124.142 2718.1 121.735 2709.01 121.735C2701.87 121.735 2696.51 122.978 2692.94 125.463C2689.36 127.87 2687.58 131.015 2687.58 134.898C2687.58 137.927 2688.74 140.606 2691.07 142.936C2693.32 145.265 2697.44 147.556 2703.42 149.808L2713.44 153.653C2729.98 159.943 2740.81 166.039 2745.94 171.941C2750.99 177.921 2753.51 185.065 2753.51 193.375C2753.51 204.169 2748.85 213.643 2739.53 221.798C2730.29 229.874 2716.82 233.912 2699.11 233.912C2684.04 233.912 2668.67 231.582 2652.98 226.923ZM2787.87 226.923V201.645C2804.96 208.79 2819.56 212.362 2831.67 212.362C2838.12 212.362 2843.24 211.003 2847.05 208.285C2850.93 205.567 2852.87 202.111 2852.87 197.918C2852.87 194.268 2851.44 191.2 2848.56 188.715C2845.69 186.308 2841.3 183.939 2835.4 181.609L2823.75 176.95C2811.71 172.135 2802.82 166.816 2797.08 160.991C2791.33 155.244 2788.46 147.75 2788.46 138.509C2788.46 127.404 2792.77 118.24 2801.39 111.018C2810.08 103.796 2823.32 100.185 2841.11 100.185C2851.51 100.185 2863.9 101.699 2878.27 104.728V128.957C2864.44 124.142 2852.99 121.735 2843.9 121.735C2836.76 121.735 2831.4 122.978 2827.83 125.463C2824.26 127.87 2822.47 131.015 2822.47 134.898C2822.47 137.927 2823.63 140.606 2825.96 142.936C2828.22 145.265 2832.33 147.556 2838.31 149.808L2848.33 153.653C2864.87 159.943 2875.7 166.039 2880.83 171.941C2885.88 177.921 2888.4 185.065 2888.4 193.375C2888.4 204.169 2883.74 213.643 2874.42 221.798C2865.18 229.874 2851.71 233.912 2834 233.912C2818.94 233.912 2803.56 231.582 2787.87 226.923ZM2929.75 231V124.647H2912.16V103.097H2929.75V93.8946C2929.75 76.0332 2933.83 63.2973 2941.99 55.6868C2950.22 47.9986 2961.87 44.1545 2976.93 44.1545C2987.1 44.1545 2997.59 45.6301 3008.38 48.5811V71.8785C2998.6 67.7626 2989.82 65.7047 2982.06 65.7047C2978.41 65.7047 2975.26 66.4424 2972.62 67.9179C2970.06 69.3158 2968 71.7232 2966.45 75.1401C2964.97 78.4794 2964.23 84.3038 2964.23 92.6132V103.097H2996.62V124.647H2964.23V231H2929.75ZM3104.25 231V206.887C3098.12 216.672 3091.28 223.622 3083.75 227.738C3076.22 231.854 3068.53 233.912 3060.69 233.912C3050.59 233.912 3041.89 230.689 3034.59 224.244C3027.37 217.72 3023.76 207.47 3023.76 193.491V103.097H3058.24V184.988C3058.24 191.977 3058.86 196.714 3060.1 199.199C3061.42 201.684 3063.17 203.587 3065.35 204.907C3067.6 206.149 3070.08 206.771 3072.8 206.771C3077.54 206.771 3082.47 205.218 3087.59 202.111C3092.72 198.927 3098.27 192.753 3104.25 183.59V103.097H3138.73V231H3104.25ZM3181.95 231V47.0667H3216.43V231H3181.95ZM3259.53 231V47.0667H3294.01V231H3259.53ZM3337.58 277.012L3366.58 231L3319.17 103.097H3356.21L3387.9 188.599L3425.52 103.097H3451.73L3372.75 277.012H3337.58Z" fill="#DCA413"/>
<path d="M1959.88 229.486H1954.88V233.537L1958.85 234.377L1959.88 229.486ZM1959.88 199.898L1961.82 195.29L1954.88 192.368V199.898H1959.88ZM1989.59 209.916L1988.76 214.848L1988.77 214.849L1989.59 209.916ZM2033.39 175.552L2037.52 172.741L2037.51 172.721L2037.49 172.702L2033.39 175.552ZM2013.35 160.758L2015.81 156.405L2015.79 156.396L2015.78 156.387L2013.35 160.758ZM2001.82 154.351L1999.37 158.712L1999.38 158.717L1999.39 158.722L2001.82 154.351ZM1968.39 128.724L1972.4 125.743L1972.39 125.731L1972.38 125.718L1968.39 128.724ZM1974.21 68.1509L1970.79 64.5023L1970.78 64.5091L1970.78 64.5158L1974.21 68.1509ZM2063.09 60.2298H2068.09V56.2482L2064.21 55.3567L2063.09 60.2298ZM2063.09 87.8372L2061.33 92.5172L2068.09 95.0597V87.8372H2063.09ZM2001.7 83.6437L2004.92 87.4683L2004.93 87.4631L2001.7 83.6437ZM1999.02 108.455L2003.05 105.499L2003.03 105.47L2003.01 105.441L1999.02 108.455ZM2018.94 122.783L2016.48 127.136L2016.49 127.144L2016.51 127.152L2018.94 122.783ZM2031.29 129.656L2033.74 125.301L2033.73 125.294L2033.72 125.287L2031.29 129.656ZM2067.4 157.38L2071.6 154.664L2071.58 154.64L2071.57 154.616L2067.4 157.38ZM2059.01 220.283L2055.6 216.631L2055.59 216.637L2055.58 216.643L2059.01 220.283ZM1964.88 229.486V199.898H1954.88V229.486H1964.88ZM1957.94 204.506C1971.26 210.115 1981.62 213.658 1988.76 214.848L1990.41 204.984C1984.5 204 1975.06 200.864 1961.82 195.29L1957.94 204.506ZM1988.77 214.849C1995.59 215.972 2001.92 216.547 2007.76 216.547V206.547C2002.57 206.547 1996.79 206.034 1990.4 204.982L1988.77 214.849ZM2007.76 216.547C2018.35 216.547 2027.21 214.16 2033.39 208.469L2026.62 201.112C2023.02 204.429 2017.05 206.547 2007.76 206.547V216.547ZM2033.39 208.469C2039.25 203.079 2042.35 196.374 2042.35 188.599H2032.35C2032.35 193.404 2030.55 197.493 2026.62 201.112L2033.39 208.469ZM2042.35 188.599C2042.35 182.808 2040.74 177.475 2037.52 172.741L2029.25 178.364C2031.31 181.395 2032.35 184.76 2032.35 188.599H2042.35ZM2037.49 172.702C2035.71 170.125 2032.85 167.554 2029.37 164.977C2025.81 162.349 2021.27 159.491 2015.81 156.405L2010.89 165.111C2016.15 168.083 2020.31 170.719 2023.43 173.022C2026.62 175.377 2028.42 177.174 2029.28 178.403L2037.49 172.702ZM2015.78 156.387L2004.25 149.981L1999.39 158.722L2010.92 165.129L2015.78 156.387ZM2004.26 149.991C1987.95 140.833 1977.57 132.71 1972.4 125.743L1964.37 131.705C1970.85 140.425 1982.76 149.388 1999.37 158.712L2004.26 149.991ZM1972.38 125.718C1967.17 118.788 1964.53 110.771 1964.53 101.466H1954.53C1954.53 112.819 1957.8 122.973 1964.39 131.731L1972.38 125.718ZM1964.53 101.466C1964.53 89.9305 1968.82 80.123 1977.64 71.786L1970.78 64.5158C1960.03 74.6615 1954.53 87.0642 1954.53 101.466H1964.53ZM1977.63 71.7995C1986.27 63.7 1999.01 59.2889 2016.61 59.2889V49.2889C1997.4 49.2889 1981.87 54.1192 1970.79 64.5023L1977.63 71.7995ZM2016.61 59.2889C2029.89 59.2889 2045 61.2039 2061.97 65.1028L2064.21 55.3567C2046.7 51.3345 2030.82 49.2889 2016.61 49.2889V59.2889ZM2058.09 60.2298V87.8372H2068.09V60.2298H2058.09ZM2064.85 83.1573C2047.12 76.4883 2032.5 72.9358 2021.27 72.9358V82.9358C2030.69 82.9358 2043.96 85.9843 2061.33 92.5172L2064.85 83.1573ZM2021.27 72.9358C2012.07 72.9358 2004.21 74.9783 1998.47 79.8243L2004.93 87.4631C2008.2 84.6986 2013.39 82.9358 2021.27 82.9358V72.9358ZM1998.48 79.8191C1993.05 84.3937 1990.06 90.2477 1990.06 97.1562H2000.06C2000.06 93.5032 2001.5 90.3489 2004.92 87.4683L1998.48 79.8191ZM1990.06 97.1562C1990.06 102.376 1991.79 107.185 1995.03 111.47L2003.01 105.441C2000.97 102.737 2000.06 100.013 2000.06 97.1562H1990.06ZM1994.99 111.412C1996.75 113.807 1999.56 116.244 2003 118.717C2006.52 121.25 2011.03 124.058 2016.48 127.136L2021.4 118.431C2016.13 115.452 2011.96 112.843 2008.84 110.599C2005.64 108.297 2003.86 106.598 2003.05 105.499L1994.99 111.412ZM2016.51 127.152L2028.86 134.025L2033.72 125.287L2021.37 118.415L2016.51 127.152ZM2028.83 134.012C2047.69 144.643 2058.75 153.392 2063.23 160.144L2071.57 154.616C2065.64 145.682 2052.63 135.948 2033.74 125.301L2028.83 134.012ZM2063.2 160.096C2067.78 167.171 2070.09 175.111 2070.09 184.056H2080.09C2080.09 173.275 2077.27 163.432 2071.6 154.664L2063.2 160.096ZM2070.09 184.056C2070.09 196.747 2065.35 207.518 2055.6 216.631L2062.43 223.936C2074.11 213.013 2080.09 199.632 2080.09 184.056H2070.09ZM2055.58 216.643C2046.29 225.393 2030.85 230.31 2008.11 230.31V240.31C2031.96 240.31 2050.45 235.209 2062.44 223.923L2055.58 216.643ZM2008.11 230.31C1994.73 230.31 1979.02 228.429 1960.92 224.594L1958.85 234.377C1977.4 238.309 1993.84 240.31 2008.11 240.31V230.31ZM2184.93 231H2179.93V236H2184.93V231ZM2184.93 206.887H2189.93V189.5L2180.7 204.231L2184.93 206.887ZM2115.28 224.244L2111.92 227.954L2111.95 227.973L2111.97 227.992L2115.28 224.244ZM2104.44 103.097V98.0971H2099.44V103.097H2104.44ZM2138.92 103.097H2143.92V98.0971H2138.92V103.097ZM2140.79 199.199L2136.31 201.435L2136.34 201.49L2136.37 201.545L2140.79 199.199ZM2146.03 204.907L2143.43 209.181L2143.52 209.235L2143.61 209.285L2146.03 204.907ZM2168.28 202.111L2170.87 206.387L2170.89 206.373L2170.92 206.358L2168.28 202.111ZM2184.93 183.59L2189.12 186.322L2189.93 185.077V183.59H2184.93ZM2184.93 103.097V98.0971H2179.93V103.097H2184.93ZM2219.42 103.097H2224.42V98.0971H2219.42V103.097ZM2219.42 231V236H2224.42V231H2219.42ZM2189.93 231V206.887H2179.93V231H2189.93ZM2180.7 204.231C2174.87 213.532 2168.6 219.763 2162.04 223.351L2166.83 232.126C2175.33 227.482 2182.73 219.812 2189.17 209.543L2180.7 204.231ZM2162.04 223.351C2155.17 227.104 2148.3 228.912 2141.37 228.912V238.912C2150.13 238.912 2158.63 236.605 2166.83 232.126L2162.04 223.351ZM2141.37 228.912C2132.44 228.912 2124.94 226.103 2118.59 220.496L2111.97 227.992C2120.22 235.276 2130.1 238.912 2141.37 238.912V228.912ZM2118.63 220.533C2112.85 215.311 2109.44 206.686 2109.44 193.491H2099.44C2099.44 208.254 2103.26 220.13 2111.92 227.954L2118.63 220.533ZM2109.44 193.491V103.097H2099.44V193.491H2109.44ZM2104.44 108.097H2138.92V98.0971H2104.44V108.097ZM2133.92 103.097V184.988H2143.92V103.097H2133.92ZM2133.92 184.988C2133.92 188.61 2134.08 191.775 2134.43 194.433C2134.77 197.016 2135.33 199.461 2136.31 201.435L2145.26 196.963C2145 196.452 2144.63 195.286 2144.35 193.132C2144.07 191.053 2143.92 188.354 2143.92 184.988H2133.92ZM2136.37 201.545C2138.07 204.738 2140.41 207.345 2143.43 209.181L2148.62 200.633C2147.3 199.828 2146.15 198.63 2145.2 196.853L2136.37 201.545ZM2143.61 209.285C2146.65 210.959 2149.97 211.771 2153.48 211.771V201.771C2151.56 201.771 2149.91 201.34 2148.44 200.529L2143.61 209.285ZM2153.48 211.771C2159.35 211.771 2165.17 209.843 2170.87 206.387L2165.69 197.835C2161.14 200.592 2157.09 201.771 2153.48 201.771V211.771ZM2170.92 206.358C2176.98 202.591 2183.02 195.679 2189.12 186.322L2180.75 180.857C2174.89 189.828 2169.83 195.263 2165.64 197.864L2170.92 206.358ZM2189.93 183.59V103.097H2179.93V183.59H2189.93ZM2184.93 108.097H2219.42V98.0971H2184.93V108.097ZM2214.42 103.097V231H2224.42V103.097H2214.42ZM2219.42 226H2184.93V236H2219.42V226ZM2356.99 228.204L2358.27 233.036L2361.99 232.047V228.204H2356.99ZM2267.64 214.575L2263.83 217.814L2263.84 217.82L2263.84 217.825L2267.64 214.575ZM2268.57 118.823L2272.21 122.254L2272.22 122.248L2272.22 122.243L2268.57 118.823ZM2355.94 105.194H2360.94V101.274L2357.13 100.338L2355.94 105.194ZM2355.94 130.122L2354.4 134.878L2360.94 136.999V130.122H2355.94ZM2295.95 136.878L2300.21 139.489L2300.22 139.48L2300.22 139.472L2295.95 136.878ZM2292.45 190.229L2287.87 192.228L2287.87 192.237L2287.88 192.246L2292.45 190.229ZM2305.73 206.072L2303.19 210.38L2303.21 210.387L2303.22 210.395L2305.73 206.072ZM2356.99 204.324H2361.99V196.861L2355.08 199.7L2356.99 204.324ZM2355.7 223.373C2341.75 227.087 2328.87 228.912 2317.03 228.912V238.912C2329.89 238.912 2343.64 236.932 2358.27 233.036L2355.7 223.373ZM2317.03 228.912C2296.14 228.912 2281.26 222.801 2271.44 211.325L2263.84 217.825C2276.08 232.132 2294.13 238.912 2317.03 238.912V228.912ZM2271.45 211.336C2261.27 199.367 2256.1 184.671 2256.1 166.932H2246.1C2246.1 186.78 2251.95 203.845 2263.83 217.814L2271.45 211.336ZM2256.1 166.932C2256.1 148.261 2261.58 133.524 2272.21 122.254L2264.94 115.392C2252.27 128.817 2246.1 146.153 2246.1 166.932H2256.1ZM2272.22 122.243C2282.64 111.125 2298.25 105.185 2319.94 105.185V95.1849C2296.44 95.1849 2277.8 101.67 2264.93 115.403L2272.22 122.243ZM2319.94 105.185C2329.84 105.185 2341.42 106.775 2354.75 110.049L2357.13 100.338C2343.28 96.9336 2330.86 95.1849 2319.94 95.1849V105.185ZM2350.94 105.194V130.122H2360.94V105.194H2350.94ZM2357.48 125.366C2343.17 120.727 2331.32 118.249 2322.16 118.249V128.249C2329.77 128.249 2340.44 130.354 2354.4 134.878L2357.48 125.366ZM2322.16 118.249C2308.71 118.249 2298.22 123.494 2291.67 134.284L2300.22 139.472C2304.7 132.091 2311.68 128.249 2322.16 128.249V118.249ZM2291.68 134.268C2285.67 144.086 2282.68 154.934 2282.68 166.699H2292.68C2292.68 156.72 2295.19 147.687 2300.21 139.489L2291.68 134.268ZM2282.68 166.699C2282.68 175.737 2284.4 184.265 2287.87 192.228L2297.04 188.23C2294.14 181.594 2292.68 174.435 2292.68 166.699H2282.68ZM2287.88 192.246C2291.4 200.231 2296.45 206.41 2303.19 210.38L2308.27 201.764C2303.67 199.055 2299.88 194.672 2297.03 188.212L2287.88 192.246ZM2303.22 210.395C2309.79 214.211 2317.11 216.081 2325.07 216.081V206.081C2318.74 206.081 2313.17 204.611 2308.24 201.749L2303.22 210.395ZM2325.07 216.081C2336.14 216.081 2347.42 213.665 2358.89 208.949L2355.08 199.7C2344.65 203.992 2334.66 206.081 2325.07 206.081V216.081ZM2351.99 204.324V228.204H2361.99V204.324H2351.99ZM2483.96 228.204L2485.24 233.036L2488.96 232.047V228.204H2483.96ZM2394.61 214.575L2390.8 217.814L2390.81 217.82L2390.81 217.825L2394.61 214.575ZM2395.54 118.823L2399.18 122.254L2399.19 122.248L2399.19 122.243L2395.54 118.823ZM2482.91 105.194H2487.91V101.274L2484.1 100.338L2482.91 105.194ZM2482.91 130.122L2481.37 134.878L2487.91 136.999V130.122H2482.91ZM2422.92 136.878L2427.18 139.489L2427.19 139.48L2427.19 139.472L2422.92 136.878ZM2419.42 190.229L2414.84 192.228L2414.84 192.237L2414.85 192.246L2419.42 190.229ZM2432.7 206.072L2430.17 210.38L2430.18 210.387L2430.19 210.395L2432.7 206.072ZM2483.96 204.324H2488.96V196.861L2482.06 199.7L2483.96 204.324ZM2482.67 223.373C2468.72 227.087 2455.84 228.912 2444 228.912V238.912C2456.86 238.912 2470.62 236.932 2485.24 233.036L2482.67 223.373ZM2444 228.912C2423.11 228.912 2408.23 222.801 2398.41 211.325L2390.81 217.825C2403.05 232.132 2421.1 238.912 2444 238.912V228.912ZM2398.42 211.336C2388.24 199.367 2383.07 184.671 2383.07 166.932H2373.07C2373.07 186.78 2378.93 203.845 2390.8 217.814L2398.42 211.336ZM2383.07 166.932C2383.07 148.261 2388.55 133.524 2399.18 122.254L2391.91 115.392C2379.24 128.817 2373.07 146.153 2373.07 166.932H2383.07ZM2399.19 122.243C2409.61 111.125 2425.23 105.185 2446.91 105.185V95.1849C2423.41 95.1849 2404.77 101.67 2391.9 115.403L2399.19 122.243ZM2446.91 105.185C2456.81 105.185 2468.39 106.775 2481.72 110.049L2484.1 100.338C2470.25 96.9336 2457.83 95.1849 2446.91 95.1849V105.185ZM2477.91 105.194V130.122H2487.91V105.194H2477.91ZM2484.45 125.366C2470.14 120.727 2458.29 118.249 2449.13 118.249V128.249C2456.74 128.249 2467.41 130.354 2481.37 134.878L2484.45 125.366ZM2449.13 118.249C2435.68 118.249 2425.19 123.494 2418.64 134.284L2427.19 139.472C2431.67 132.091 2438.65 128.249 2449.13 128.249V118.249ZM2418.65 134.268C2412.64 144.086 2409.65 154.934 2409.65 166.699H2419.65C2419.65 156.72 2422.16 147.687 2427.18 139.489L2418.65 134.268ZM2409.65 166.699C2409.65 175.737 2411.37 184.265 2414.84 192.228L2424.01 188.23C2421.11 181.594 2419.65 174.435 2419.65 166.699H2409.65ZM2414.85 192.246C2418.37 200.231 2423.43 206.41 2430.17 210.38L2435.24 201.764C2430.64 199.055 2426.85 194.672 2424 188.212L2414.85 192.246ZM2430.19 210.395C2436.76 214.211 2444.08 216.081 2452.04 216.081V206.081C2445.71 206.081 2440.14 204.611 2435.22 201.749L2430.19 210.395ZM2452.04 216.081C2463.11 216.081 2474.39 213.665 2485.86 208.949L2482.06 199.7C2471.62 203.992 2461.63 206.081 2452.04 206.081V216.081ZM2478.96 204.324V228.204H2488.96V204.324H2478.96ZM2620.71 226.69L2622.12 231.487L2625.71 230.432V226.69H2620.71ZM2537.54 226.224L2535.31 230.696L2535.33 230.706L2535.35 230.716L2537.54 226.224ZM2513.43 201.995L2508.97 204.256L2508.98 204.275L2508.99 204.294L2513.43 201.995ZM2512.15 133.034L2507.63 130.895L2507.62 130.903L2507.62 130.91L2512.15 133.034ZM2533 109.038L2535.7 113.247L2535.71 113.241L2533 109.038ZM2620.71 173.921V178.921H2625.71V173.921H2620.71ZM2541.39 173.921V168.921H2535.92L2536.41 174.37L2541.39 173.921ZM2547.21 194.307L2542.97 196.957L2542.98 196.98L2543 197.004L2547.21 194.307ZM2560.02 206.188L2557.61 210.568L2557.64 210.581L2557.66 210.595L2560.02 206.188ZM2620.71 202.461H2625.71V195.286L2618.98 197.77L2620.71 202.461ZM2540.92 154.468L2535.95 153.963L2535.39 159.468H2540.92V154.468ZM2586.82 154.468V159.468H2591.82V154.468H2586.82ZM2580.87 129.307L2576.91 132.355L2576.93 132.374L2576.94 132.393L2580.87 129.307ZM2549.07 130.122L2553 133.219L2553.01 133.205L2553.02 133.192L2549.07 130.122ZM2619.3 221.893C2603.3 226.595 2588.25 228.912 2574.12 228.912V238.912C2589.34 238.912 2605.35 236.415 2622.12 231.487L2619.3 221.893ZM2574.12 228.912C2560.83 228.912 2549.42 226.465 2539.74 221.732L2535.35 230.716C2546.63 236.234 2559.6 238.912 2574.12 238.912V228.912ZM2539.78 221.752C2530.38 217.051 2523.08 209.766 2517.87 199.696L2508.99 204.294C2515.11 216.123 2523.89 224.991 2535.31 230.696L2539.78 221.752ZM2517.89 199.734C2512.67 189.437 2510.04 178.257 2510.04 166.117H2500.04C2500.04 179.759 2503.01 192.497 2508.97 204.256L2517.89 199.734ZM2510.04 166.117C2510.04 154.837 2512.27 144.542 2516.67 135.158L2507.62 130.91C2502.55 141.718 2500.04 153.477 2500.04 166.117H2510.04ZM2516.67 135.173C2521.1 125.809 2527.43 118.544 2535.7 113.247L2530.3 104.829C2520.39 111.181 2512.83 119.913 2507.63 130.895L2516.67 135.173ZM2535.71 113.241C2543.9 107.966 2554.17 105.185 2566.78 105.185V95.1849C2552.68 95.1849 2540.43 98.306 2530.29 104.834L2535.71 113.241ZM2566.78 105.185C2582.01 105.185 2593.7 109.969 2602.39 119.219L2609.68 112.369C2598.81 100.807 2584.32 95.1849 2566.78 95.1849V105.185ZM2602.39 119.219C2610.77 128.132 2615.71 145.767 2615.71 173.921H2625.71C2625.71 145.385 2620.87 124.269 2609.68 112.369L2602.39 119.219ZM2620.71 168.921H2541.39V178.921H2620.71V168.921ZM2536.41 174.37C2537.22 183.428 2539.3 191.08 2542.97 196.957L2551.45 191.657C2548.91 187.593 2547.1 181.655 2546.37 173.473L2536.41 174.37ZM2543 197.004C2546.65 202.702 2551.55 207.23 2557.61 210.568L2562.44 201.808C2557.78 199.244 2554.14 195.851 2551.42 191.609L2543 197.004ZM2557.66 210.595C2564.01 214.001 2572.11 215.498 2581.57 215.498V205.498C2573.02 205.498 2566.75 204.123 2562.39 201.782L2557.66 210.595ZM2581.57 215.498C2593.9 215.498 2607.54 212.65 2622.44 207.151L2618.98 197.77C2604.84 202.989 2592.39 205.498 2581.57 205.498V215.498ZM2615.71 202.461V226.69H2625.71V202.461H2615.71ZM2540.92 159.468H2586.82V149.468H2540.92V159.468ZM2591.82 154.468C2591.82 142.436 2589.83 132.625 2584.81 126.22L2576.94 132.393C2579.84 136.084 2581.82 143.047 2581.82 154.468H2591.82ZM2584.84 126.258C2580.04 120.016 2573.54 116.735 2565.73 116.735V126.735C2570.35 126.735 2573.95 128.502 2576.91 132.355L2584.84 126.258ZM2565.73 116.735C2557.35 116.735 2550.37 120.312 2545.13 127.052L2553.02 133.192C2556.48 128.75 2560.6 126.735 2565.73 126.735V116.735ZM2545.15 127.026C2539.97 133.585 2537.08 142.768 2535.95 153.963L2545.89 154.973C2546.93 144.734 2549.48 137.687 2553 133.219L2545.15 127.026ZM2652.98 226.923H2647.98V230.654L2651.56 231.716L2652.98 226.923ZM2652.98 201.645L2654.91 197.032L2647.98 194.135V201.645H2652.98ZM2712.16 208.285L2709.29 204.189L2709.27 204.202L2709.25 204.216L2712.16 208.285ZM2713.67 188.715L2716.94 184.933L2716.91 184.908L2716.88 184.883L2713.67 188.715ZM2700.51 181.609L2698.65 186.252L2698.66 186.256L2698.67 186.26L2700.51 181.609ZM2662.18 160.991L2665.74 157.479L2665.73 157.468L2665.72 157.456L2662.18 160.991ZM2666.49 111.018L2663.3 107.171L2663.29 107.179L2663.28 107.186L2666.49 111.018ZM2743.37 104.728H2748.37V100.672L2744.41 99.8354L2743.37 104.728ZM2743.37 128.957L2741.73 133.679L2748.37 135.993V128.957H2743.37ZM2692.94 125.463L2695.73 129.609L2695.76 129.588L2695.79 129.567L2692.94 125.463ZM2691.07 142.936L2694.67 139.461L2694.64 139.43L2694.61 139.4L2691.07 142.936ZM2703.42 149.808L2705.21 145.14L2705.2 145.135L2705.18 145.129L2703.42 149.808ZM2713.44 153.653L2711.65 158.321L2711.65 158.323L2711.66 158.326L2713.44 153.653ZM2745.94 171.941L2749.76 168.716L2749.74 168.689L2749.71 168.663L2745.94 171.941ZM2739.53 221.798L2742.82 225.562L2742.82 225.56L2739.53 221.798ZM2657.98 226.923V201.645H2647.98V226.923H2657.98ZM2651.05 206.258C2668.46 213.537 2683.75 217.362 2696.78 217.362V207.362C2685.58 207.362 2671.67 204.043 2654.91 197.032L2651.05 206.258ZM2696.78 217.362C2703.88 217.362 2710.14 215.868 2715.06 212.354L2709.25 204.216C2706.56 206.138 2702.57 207.362 2696.78 207.362V217.362ZM2715.02 212.381C2720.04 208.869 2722.98 203.975 2722.98 197.918H2712.98C2712.98 200.248 2712.04 202.265 2709.29 204.189L2715.02 212.381ZM2722.98 197.918C2722.98 192.749 2720.86 188.324 2716.94 184.933L2710.4 192.497C2712.23 194.077 2712.98 195.786 2712.98 197.918H2722.98ZM2716.88 184.883C2713.41 181.973 2708.45 179.369 2702.34 176.959L2698.67 186.26C2704.37 188.509 2708.19 190.643 2710.46 192.548L2716.88 184.883ZM2702.36 176.967L2690.72 172.308L2687 181.592L2698.65 186.252L2702.36 176.967ZM2690.72 172.308C2678.99 167.616 2670.81 162.611 2665.74 157.479L2658.62 164.503C2665.05 171.02 2674.66 176.655 2687 181.592L2690.72 172.308ZM2665.72 157.456C2661.04 152.778 2658.56 146.622 2658.56 138.509H2648.56C2648.56 148.879 2651.83 157.711 2658.65 164.527L2665.72 157.456ZM2658.56 138.509C2658.56 128.905 2662.2 121.137 2669.7 114.851L2663.28 107.186C2653.54 115.344 2648.56 125.903 2648.56 138.509H2658.56ZM2669.69 114.865C2677.1 108.711 2688.97 105.185 2706.22 105.185V95.1849C2687.9 95.1849 2673.28 98.8814 2663.3 107.171L2669.69 114.865ZM2706.22 105.185C2716.17 105.185 2728.19 106.637 2742.34 109.62L2744.41 99.8354C2729.83 96.7619 2717.08 95.1849 2706.22 95.1849V105.185ZM2738.37 104.728V128.957H2748.37V104.728H2738.37ZM2745.02 124.235C2730.95 119.335 2718.89 116.735 2709.01 116.735V126.735C2717.3 126.735 2728.15 128.95 2741.73 133.679L2745.02 124.235ZM2709.01 116.735C2701.44 116.735 2694.87 118.024 2690.08 121.358L2695.79 129.567C2698.14 127.931 2702.29 126.735 2709.01 126.735V116.735ZM2690.14 121.316C2685.37 124.534 2682.58 129.149 2682.58 134.898H2692.58C2692.58 132.881 2693.36 131.206 2695.73 129.609L2690.14 121.316ZM2682.58 134.898C2682.58 139.376 2684.36 143.295 2687.54 146.471L2694.61 139.4C2693.12 137.917 2692.58 136.478 2692.58 134.898H2682.58ZM2687.48 146.411C2690.53 149.574 2695.53 152.18 2701.66 154.488L2705.18 145.129C2699.35 142.933 2696.11 140.957 2694.67 139.461L2687.48 146.411ZM2701.63 154.477L2711.65 158.321L2715.23 148.984L2705.21 145.14L2701.63 154.477ZM2711.66 158.326C2728.17 164.605 2737.93 170.346 2742.16 175.219L2749.71 168.663C2743.69 161.732 2731.78 155.28 2715.21 148.979L2711.66 158.326ZM2742.12 175.166C2746.35 180.185 2748.51 186.167 2748.51 193.375H2758.51C2758.51 183.964 2755.62 175.656 2749.76 168.716L2742.12 175.166ZM2748.51 193.375C2748.51 202.508 2744.65 210.675 2736.24 218.035L2742.82 225.56C2753.05 216.612 2758.51 205.831 2758.51 193.375H2748.51ZM2736.24 218.033C2728.24 225.024 2716.13 228.912 2699.11 228.912V238.912C2717.5 238.912 2732.34 234.724 2742.82 225.562L2736.24 218.033ZM2699.11 228.912C2684.57 228.912 2669.67 226.664 2654.4 222.13L2651.56 231.716C2667.67 236.501 2683.52 238.912 2699.11 238.912V228.912ZM2787.87 226.923H2782.87V230.654L2786.45 231.716L2787.87 226.923ZM2787.87 201.645L2789.8 197.032L2782.87 194.135V201.645H2787.87ZM2847.05 208.285L2844.18 204.189L2844.16 204.202L2844.14 204.216L2847.05 208.285ZM2848.56 188.715L2851.83 184.933L2851.8 184.908L2851.77 184.883L2848.56 188.715ZM2835.4 181.609L2833.54 186.252L2833.55 186.256L2833.56 186.26L2835.4 181.609ZM2797.08 160.991L2800.63 157.479L2800.62 157.468L2800.61 157.456L2797.08 160.991ZM2801.39 111.018L2798.19 107.171L2798.18 107.179L2798.17 107.186L2801.39 111.018ZM2878.27 104.728H2883.27V100.672L2879.3 99.8354L2878.27 104.728ZM2878.27 128.957L2876.62 133.679L2883.27 135.993V128.957H2878.27ZM2827.83 125.463L2830.62 129.609L2830.65 129.588L2830.68 129.567L2827.83 125.463ZM2825.96 142.936L2829.56 139.461L2829.53 139.43L2829.5 139.4L2825.96 142.936ZM2838.31 149.808L2840.1 145.14L2840.09 145.135L2840.07 145.129L2838.31 149.808ZM2848.33 153.653L2846.54 158.321L2846.55 158.323L2846.55 158.326L2848.33 153.653ZM2880.83 171.941L2884.65 168.716L2884.63 168.689L2884.6 168.663L2880.83 171.941ZM2874.42 221.798L2877.71 225.562L2877.72 225.56L2874.42 221.798ZM2792.87 226.923V201.645H2782.87V226.923H2792.87ZM2785.94 206.258C2803.35 213.537 2818.64 217.362 2831.67 217.362V207.362C2820.47 207.362 2806.57 204.043 2789.8 197.032L2785.94 206.258ZM2831.67 217.362C2838.77 217.362 2845.03 215.868 2849.95 212.354L2844.14 204.216C2841.45 206.138 2837.46 207.362 2831.67 207.362V217.362ZM2849.92 212.381C2854.93 208.869 2857.87 203.975 2857.87 197.918H2847.87C2847.87 200.248 2846.93 202.265 2844.18 204.189L2849.92 212.381ZM2857.87 197.918C2857.87 192.749 2855.75 188.324 2851.83 184.933L2845.29 192.497C2847.12 194.077 2847.87 195.786 2847.87 197.918H2857.87ZM2851.77 184.883C2848.3 181.973 2843.34 179.369 2837.24 176.959L2833.56 186.26C2839.26 188.509 2843.08 190.643 2845.35 192.548L2851.77 184.883ZM2837.26 176.967L2825.61 172.308L2821.89 181.592L2833.54 186.252L2837.26 176.967ZM2825.61 172.308C2813.88 167.616 2805.7 162.611 2800.63 157.479L2793.52 164.503C2799.95 171.02 2809.55 176.655 2821.89 181.592L2825.61 172.308ZM2800.61 157.456C2795.93 152.778 2793.46 146.622 2793.46 138.509H2783.46C2783.46 148.879 2786.72 157.711 2793.54 164.527L2800.61 157.456ZM2793.46 138.509C2793.46 128.905 2797.09 121.137 2804.6 114.851L2798.17 107.186C2788.44 115.344 2783.46 125.903 2783.46 138.509H2793.46ZM2804.58 114.865C2811.99 108.711 2823.86 105.185 2841.11 105.185V95.1849C2822.79 95.1849 2808.17 98.8814 2798.19 107.171L2804.58 114.865ZM2841.11 105.185C2851.06 105.185 2863.08 106.637 2877.24 109.62L2879.3 99.8354C2864.72 96.7619 2851.97 95.1849 2841.11 95.1849V105.185ZM2873.27 104.728V128.957H2883.27V104.728H2873.27ZM2879.91 124.235C2865.84 119.335 2853.79 116.735 2843.9 116.735V126.735C2852.19 126.735 2863.05 128.95 2876.62 133.679L2879.91 124.235ZM2843.9 116.735C2836.33 116.735 2829.77 118.024 2824.97 121.358L2830.68 129.567C2833.03 127.931 2837.18 126.735 2843.9 126.735V116.735ZM2825.03 121.316C2820.26 124.534 2817.47 129.149 2817.47 134.898H2827.47C2827.47 132.881 2828.25 131.206 2830.62 129.609L2825.03 121.316ZM2817.47 134.898C2817.47 139.376 2819.25 143.295 2822.43 146.471L2829.5 139.4C2828.02 137.917 2827.47 136.478 2827.47 134.898H2817.47ZM2822.37 146.411C2825.43 149.574 2830.42 152.18 2836.55 154.488L2840.07 145.129C2834.24 142.933 2831.01 140.957 2829.56 139.461L2822.37 146.411ZM2836.52 154.477L2846.54 158.321L2850.12 148.984L2840.1 145.14L2836.52 154.477ZM2846.55 158.326C2863.06 164.605 2872.82 170.346 2877.05 175.219L2884.6 168.663C2878.59 161.732 2866.68 155.28 2850.11 148.979L2846.55 158.326ZM2877.01 175.166C2881.25 180.185 2883.4 186.167 2883.4 193.375H2893.4C2893.4 183.964 2890.51 175.656 2884.65 168.716L2877.01 175.166ZM2883.4 193.375C2883.4 202.508 2879.54 210.675 2871.13 218.035L2877.72 225.56C2887.94 216.612 2893.4 205.831 2893.4 193.375H2883.4ZM2871.13 218.033C2863.13 225.024 2851.02 228.912 2834 228.912V238.912C2852.39 238.912 2867.23 234.724 2877.71 225.562L2871.13 218.033ZM2834 228.912C2819.46 228.912 2804.56 226.664 2789.3 222.13L2786.45 231.716C2802.56 236.501 2818.41 238.912 2834 238.912V228.912ZM2929.75 231H2924.75V236H2929.75V231ZM2929.75 124.647H2934.75V119.647H2929.75V124.647ZM2912.16 124.647H2907.16V129.647H2912.16V124.647ZM2912.16 103.097V98.0971H2907.16V103.097H2912.16ZM2929.75 103.097V108.097H2934.75V103.097H2929.75ZM2941.99 55.6868L2945.4 59.3421L2945.4 59.3409L2941.99 55.6868ZM3008.38 48.5811H3013.38V44.7645L3009.7 43.758L3008.38 48.5811ZM3008.38 71.8785L3006.44 76.4874L3013.38 79.406V71.8785H3008.38ZM2972.62 67.9179L2975.02 72.3074L2975.04 72.2951L2975.06 72.2827L2972.62 67.9179ZM2966.45 75.1401L2961.9 73.0711L2961.88 73.0952L2961.87 73.1193L2966.45 75.1401ZM2964.23 103.097H2959.23V108.097H2964.23V103.097ZM2996.62 103.097H3001.62V98.0971H2996.62V103.097ZM2996.62 124.647V129.647H3001.62V124.647H2996.62ZM2964.23 124.647V119.647H2959.23V124.647H2964.23ZM2964.23 231V236H2969.23V231H2964.23ZM2934.75 231V124.647H2924.75V231H2934.75ZM2929.75 119.647H2912.16V129.647H2929.75V119.647ZM2917.16 124.647V103.097H2907.16V124.647H2917.16ZM2912.16 108.097H2929.75V98.0971H2912.16V108.097ZM2934.75 103.097V93.8946H2924.75V103.097H2934.75ZM2934.75 93.8946C2934.75 76.6088 2938.73 65.5683 2945.4 59.3421L2938.57 52.0315C2928.94 61.0262 2924.75 75.4576 2924.75 93.8946H2934.75ZM2945.4 59.3409C2952.43 52.7756 2962.7 49.1545 2976.93 49.1545V39.1545C2961.04 39.1545 2948.01 43.2216 2938.57 52.0326L2945.4 59.3409ZM2976.93 49.1545C2986.62 49.1545 2996.66 50.5589 3007.06 53.4041L3009.7 43.758C2998.52 40.7012 2987.59 39.1545 2976.93 39.1545V49.1545ZM3003.38 48.5811V71.8785H3013.38V48.5811H3003.38ZM3010.32 67.2696C3000.13 62.9844 2990.68 60.7047 2982.06 60.7047V70.7047C2988.96 70.7047 2997.06 72.5408 3006.44 76.4874L3010.32 67.2696ZM2982.06 60.7047C2977.73 60.7047 2973.71 61.583 2970.18 63.5532L2975.06 72.2827C2976.82 71.3018 2979.08 70.7047 2982.06 70.7047V60.7047ZM2970.23 63.5285C2966.47 65.5771 2963.77 68.9509 2961.9 73.0711L2971 77.2092C2972.23 74.4954 2973.65 73.0545 2975.02 72.3074L2970.23 63.5285ZM2961.87 73.1193C2959.94 77.5066 2959.23 84.2747 2959.23 92.6132H2969.23C2969.23 84.3329 2970.01 79.4523 2971.02 77.161L2961.87 73.1193ZM2959.23 92.6132V103.097H2969.23V92.6132H2959.23ZM2964.23 108.097H2996.62V98.0971H2964.23V108.097ZM2991.62 103.097V124.647H3001.62V103.097H2991.62ZM2996.62 119.647H2964.23V129.647H2996.62V119.647ZM2959.23 124.647V231H2969.23V124.647H2959.23ZM2964.23 226H2929.75V236H2964.23V226ZM3104.25 231H3099.25V236H3104.25V231ZM3104.25 206.887H3109.25V189.5L3100.02 204.231L3104.25 206.887ZM3034.59 224.244L3031.24 227.954L3031.26 227.973L3031.28 227.992L3034.59 224.244ZM3023.76 103.097V98.0971H3018.76V103.097H3023.76ZM3058.24 103.097H3063.24V98.0971H3058.24V103.097ZM3060.1 199.199L3055.63 201.435L3055.66 201.49L3055.69 201.545L3060.1 199.199ZM3065.35 204.907L3062.75 209.181L3062.84 209.235L3062.93 209.285L3065.35 204.907ZM3087.59 202.111L3090.19 206.387L3090.21 206.373L3090.23 206.358L3087.59 202.111ZM3104.25 183.59L3108.44 186.322L3109.25 185.077V183.59H3104.25ZM3104.25 103.097V98.0971H3099.25V103.097H3104.25ZM3138.73 103.097H3143.73V98.0971H3138.73V103.097ZM3138.73 231V236H3143.73V231H3138.73ZM3109.25 231V206.887H3099.25V231H3109.25ZM3100.02 204.231C3094.18 213.532 3087.92 219.763 3081.35 223.351L3086.15 232.126C3094.65 227.482 3102.05 219.812 3108.49 209.543L3100.02 204.231ZM3081.35 223.351C3074.48 227.104 3067.61 228.912 3060.69 228.912V238.912C3069.44 238.912 3077.95 236.605 3086.15 232.126L3081.35 223.351ZM3060.69 228.912C3051.76 228.912 3044.25 226.103 3037.9 220.496L3031.28 227.992C3039.53 235.276 3049.42 238.912 3060.69 238.912V228.912ZM3037.94 220.533C3032.16 215.311 3028.76 206.686 3028.76 193.491H3018.76C3018.76 208.254 3022.58 220.13 3031.24 227.954L3037.94 220.533ZM3028.76 193.491V103.097H3018.76V193.491H3028.76ZM3023.76 108.097H3058.24V98.0971H3023.76V108.097ZM3053.24 103.097V184.988H3063.24V103.097H3053.24ZM3053.24 184.988C3053.24 188.61 3053.4 191.775 3053.75 194.433C3054.09 197.016 3054.64 199.461 3055.63 201.435L3064.58 196.963C3064.32 196.452 3063.95 195.286 3063.66 193.132C3063.39 191.053 3063.24 188.354 3063.24 184.988H3053.24ZM3055.69 201.545C3057.38 204.738 3059.73 207.345 3062.75 209.181L3067.94 200.633C3066.61 199.828 3065.46 198.63 3064.52 196.853L3055.69 201.545ZM3062.93 209.285C3065.96 210.959 3069.29 211.771 3072.8 211.771V201.771C3070.88 201.771 3069.23 201.34 3067.76 200.529L3062.93 209.285ZM3072.8 211.771C3078.66 211.771 3084.48 209.843 3090.19 206.387L3085 197.835C3080.45 200.592 3076.41 201.771 3072.8 201.771V211.771ZM3090.23 206.358C3096.3 202.591 3102.33 195.679 3108.44 186.322L3100.06 180.857C3094.21 189.828 3089.14 195.263 3084.96 197.864L3090.23 206.358ZM3109.25 183.59V103.097H3099.25V183.59H3109.25ZM3104.25 108.097H3138.73V98.0971H3104.25V108.097ZM3133.73 103.097V231H3143.73V103.097H3133.73ZM3138.73 226H3104.25V236H3138.73V226ZM3181.95 231H3176.95V236H3181.95V231ZM3181.95 47.0667V42.0667H3176.95V47.0667H3181.95ZM3216.43 47.0667H3221.43V42.0667H3216.43V47.0667ZM3216.43 231V236H3221.43V231H3216.43ZM3186.95 231V47.0667H3176.95V231H3186.95ZM3181.95 52.0667H3216.43V42.0667H3181.95V52.0667ZM3211.43 47.0667V231H3221.43V47.0667H3211.43ZM3216.43 226H3181.95V236H3216.43V226ZM3259.53 231H3254.53V236H3259.53V231ZM3259.53 47.0667V42.0667H3254.53V47.0667H3259.53ZM3294.01 47.0667H3299.01V42.0667H3294.01V47.0667ZM3294.01 231V236H3299.01V231H3294.01ZM3264.53 231V47.0667H3254.53V231H3264.53ZM3259.53 52.0667H3294.01V42.0667H3259.53V52.0667ZM3289.01 47.0667V231H3299.01V47.0667H3289.01ZM3294.01 226H3259.53V236H3294.01V226ZM3337.58 277.012L3333.35 274.346L3328.51 282.012H3337.58V277.012ZM3366.58 231L3370.81 233.666L3372.13 231.577L3371.27 229.262L3366.58 231ZM3319.17 103.097V98.0971H3311.98L3314.48 104.835L3319.17 103.097ZM3356.21 103.097L3360.9 101.36L3359.69 98.0971H3356.21V103.097ZM3387.9 188.599L3383.21 190.336L3387.5 201.915L3392.47 190.613L3387.9 188.599ZM3425.52 103.097V98.0971H3422.26L3420.95 101.083L3425.52 103.097ZM3451.73 103.097L3456.29 105.164L3459.5 98.0971H3451.73V103.097ZM3372.75 277.012V282.012H3375.98L3377.31 279.08L3372.75 277.012ZM3341.81 279.679L3370.81 233.666L3362.35 228.334L3333.35 274.346L3341.81 279.679ZM3371.27 229.262L3323.86 101.359L3314.48 104.835L3361.89 232.738L3371.27 229.262ZM3319.17 108.097H3356.21V98.0971H3319.17V108.097ZM3351.53 104.834L3383.21 190.336L3392.59 186.861L3360.9 101.36L3351.53 104.834ZM3392.47 190.613L3430.1 105.111L3420.95 101.083L3383.32 186.585L3392.47 190.613ZM3425.52 108.097H3451.73V98.0971H3425.52V108.097ZM3447.18 101.03L3368.2 274.945L3377.31 279.08L3456.29 105.164L3447.18 101.03ZM3372.75 272.012H3337.58V282.012H3372.75V272.012Z" fill="#1B1B1B" mask="url(#path-3-outside-2_6006_2)"/>
<mask id="path-5-outside-3_6006_2" maskUnits="userSpaceOnUse" x="628" y="42" width="1229" height="199" fill="black">
<rect fill="white" x="628" y="42" width="1229" height="199"/>
<path d="M633.882 229.486V199.898C647.161 205.489 657.063 208.829 663.586 209.916C670.187 211.003 676.244 211.547 681.758 211.547C691.698 211.547 699.115 209.295 704.007 204.79C708.899 200.286 711.346 194.889 711.346 188.599C711.346 183.784 710.025 179.435 707.385 175.552C704.745 171.747 698.066 166.816 687.349 160.758L675.817 154.351C659.354 145.11 648.21 136.568 642.385 128.724C636.483 120.881 633.532 111.795 633.532 101.466C633.532 88.4973 638.425 77.3922 648.21 68.1509C658.072 58.9096 672.206 54.2889 690.611 54.2889C704.356 54.2889 719.849 56.2692 737.089 60.2298V87.8372C719.539 81.2363 705.599 77.9358 695.27 77.9358C686.728 77.9358 680.205 79.8385 675.701 83.6437C671.274 87.3713 669.061 91.8755 669.061 97.1562C669.061 101.194 670.381 104.961 673.021 108.455C675.584 111.95 682.224 116.726 692.941 122.783L705.288 129.656C724.159 140.295 736.196 149.537 741.399 157.38C746.525 165.301 749.088 174.193 749.088 184.056C749.088 198.189 743.729 210.265 733.012 220.283C722.373 230.301 705.405 235.31 682.107 235.31C668.284 235.31 652.209 233.369 633.882 229.486ZM858.935 231V206.887C852.8 216.672 845.966 223.622 838.433 227.738C830.9 231.854 823.212 233.912 815.369 233.912C805.273 233.912 796.575 230.689 789.276 224.244C782.053 217.72 778.442 207.47 778.442 193.491V103.097H812.923V184.988C812.923 191.977 813.544 196.714 814.786 199.199C816.106 201.684 817.854 203.587 820.028 204.907C822.28 206.149 824.765 206.771 827.483 206.771C832.221 206.771 837.152 205.218 842.277 202.111C847.403 198.927 852.955 192.753 858.935 183.59V103.097H893.415V231H858.935ZM936.632 231V47.0667H971.112V127.21C975.539 118.202 981.247 111.445 988.236 106.941C995.225 102.437 1003.46 100.185 1012.93 100.185C1028.7 100.185 1040.89 106.009 1049.51 117.658C1058.13 129.307 1062.44 144.605 1062.44 163.554C1062.44 183.59 1057.62 200.325 1047.99 213.76C1038.36 227.195 1024.93 233.912 1007.69 233.912C1002.87 233.912 998.409 233.369 994.293 232.281C990.177 231.272 986.294 229.719 982.644 227.622C979.072 225.525 975.228 222.341 971.112 218.07L964.705 231H936.632ZM971.112 197.568C976.005 203.004 980.586 206.693 984.858 208.634C989.129 210.576 993.478 211.547 997.904 211.547C1007.3 211.547 1014.29 207.004 1018.87 197.918C1023.45 188.754 1025.74 178.27 1025.74 166.466C1025.74 154.274 1023.53 144.683 1019.1 137.694C1014.76 130.705 1008.54 127.21 1000.47 127.21C995.419 127.21 990.333 128.996 985.207 132.568C980.159 136.063 975.461 140.839 971.112 146.896V197.568ZM1094.82 231V103.097H1127.9V127.21C1132.25 119.444 1137.96 112.998 1145.03 107.873C1152.09 102.748 1160.75 100.185 1171 100.185C1177.22 100.185 1182.61 101.156 1187.2 103.097C1191.78 104.961 1195.82 107.951 1199.31 112.067C1202.88 116.105 1205.17 121.153 1206.18 127.21C1212.55 117.58 1219 110.669 1225.52 106.475C1232.12 102.282 1240.12 100.185 1249.52 100.185C1259.92 100.185 1268.35 103.252 1274.79 109.387C1281.32 115.445 1284.58 125.268 1284.58 138.859V231H1251.5V150.158C1251.5 140.606 1249.94 134.432 1246.84 131.636C1243.81 128.841 1240.39 127.443 1236.59 127.443C1231.38 127.443 1226.22 129.307 1221.09 133.034C1216.05 136.762 1211.08 142.353 1206.18 149.808V231H1173.1V150.158C1173.1 140.684 1171.59 134.51 1168.56 131.636C1165.61 128.763 1162.03 127.326 1157.84 127.326C1152.79 127.326 1147.75 129.19 1142.7 132.918C1137.73 136.645 1132.8 142.276 1127.9 149.808V231H1094.82ZM1326.17 231V103.097H1360.65V231H1326.17ZM1326.17 81.5469V52.7746H1360.65V81.5469H1326.17ZM1469.68 230.301C1461.45 232.708 1454.96 233.912 1450.22 233.912C1438.96 233.912 1430.23 232.32 1424.01 229.136C1417.8 225.952 1413.14 221.642 1410.04 216.206C1406.93 210.692 1405.38 202.616 1405.38 191.977V124.647H1391.05V103.097H1405.38V81.5469L1439.86 77.5864V103.097H1467.23V124.647H1439.86V187.434C1439.86 196.675 1441.49 202.927 1444.75 206.188C1448.01 209.372 1452.79 210.964 1459.08 210.964C1462.03 210.964 1465.56 210.421 1469.68 209.333V230.301ZM1566.36 230.301C1558.13 232.708 1551.65 233.912 1546.91 233.912C1535.65 233.912 1526.91 232.32 1520.7 229.136C1514.49 225.952 1509.83 221.642 1506.72 216.206C1503.61 210.692 1502.06 202.616 1502.06 191.977V124.647H1487.73V103.097H1502.06V81.5469L1536.54 77.5864V103.097H1563.92V124.647H1536.54V187.434C1536.54 196.675 1538.17 202.927 1541.43 206.188C1544.7 209.372 1549.47 210.964 1555.76 210.964C1558.71 210.964 1562.25 210.421 1566.36 209.333V230.301ZM1701.25 226.69C1684.87 231.505 1669.34 233.912 1654.66 233.912C1640.76 233.912 1628.57 231.349 1618.08 226.224C1607.68 221.021 1599.64 212.944 1593.97 201.995C1588.38 190.967 1585.58 179.008 1585.58 166.117C1585.58 154.157 1587.95 143.13 1592.69 133.034C1597.5 122.861 1604.45 114.862 1613.54 109.038C1622.7 103.136 1633.96 100.185 1647.32 100.185C1663.71 100.185 1676.79 105.388 1686.58 115.794C1696.36 126.2 1701.25 145.576 1701.25 173.921H1621.93C1622.7 182.541 1624.64 189.336 1627.75 194.307C1630.93 199.277 1635.21 203.237 1640.56 206.188C1645.92 209.062 1653.11 210.498 1662.11 210.498C1673.69 210.498 1686.73 207.819 1701.25 202.461V226.69ZM1621.46 154.468H1667.36C1667.36 142.742 1665.38 134.354 1661.42 129.307C1657.53 124.259 1652.48 121.735 1646.27 121.735C1639.52 121.735 1633.96 124.531 1629.61 130.122C1625.27 135.636 1622.55 143.751 1621.46 154.468ZM1817.39 231V206.887C1812.97 215.895 1807.26 222.652 1800.27 227.156C1793.36 231.66 1785.12 233.912 1775.57 233.912C1759.89 233.912 1747.73 228.127 1739.11 216.556C1730.49 204.907 1726.18 189.569 1726.18 170.543C1726.18 150.43 1731 133.694 1740.63 120.337C1750.26 106.902 1763.69 100.185 1780.93 100.185C1785.59 100.185 1789.86 100.69 1793.74 101.699C1797.63 102.631 1801.36 104.107 1804.93 106.126C1808.5 108.145 1812.65 111.445 1817.39 116.027V47.0667H1851.99V231H1817.39ZM1817.39 136.529C1812.58 131.093 1808.03 127.404 1803.76 125.463C1799.49 123.521 1795.14 122.55 1790.72 122.55C1781.4 122.55 1774.41 127.055 1769.75 136.063C1765.17 144.994 1762.88 155.516 1762.88 167.631C1762.88 179.59 1765.01 189.142 1769.28 196.287C1773.63 203.354 1779.88 206.887 1788.04 206.887C1793.24 206.887 1798.37 205.101 1803.41 201.529C1808.54 197.879 1813.2 193.103 1817.39 187.201V136.529Z"/>
</mask>
<path d="M633.882 229.486V199.898C647.161 205.489 657.063 208.829 663.586 209.916C670.187 211.003 676.244 211.547 681.758 211.547C691.698 211.547 699.115 209.295 704.007 204.79C708.899 200.286 711.346 194.889 711.346 188.599C711.346 183.784 710.025 179.435 707.385 175.552C704.745 171.747 698.066 166.816 687.349 160.758L675.817 154.351C659.354 145.11 648.21 136.568 642.385 128.724C636.483 120.881 633.532 111.795 633.532 101.466C633.532 88.4973 638.425 77.3922 648.21 68.1509C658.072 58.9096 672.206 54.2889 690.611 54.2889C704.356 54.2889 719.849 56.2692 737.089 60.2298V87.8372C719.539 81.2363 705.599 77.9358 695.27 77.9358C686.728 77.9358 680.205 79.8385 675.701 83.6437C671.274 87.3713 669.061 91.8755 669.061 97.1562C669.061 101.194 670.381 104.961 673.021 108.455C675.584 111.95 682.224 116.726 692.941 122.783L705.288 129.656C724.159 140.295 736.196 149.537 741.399 157.38C746.525 165.301 749.088 174.193 749.088 184.056C749.088 198.189 743.729 210.265 733.012 220.283C722.373 230.301 705.405 235.31 682.107 235.31C668.284 235.31 652.209 233.369 633.882 229.486ZM858.935 231V206.887C852.8 216.672 845.966 223.622 838.433 227.738C830.9 231.854 823.212 233.912 815.369 233.912C805.273 233.912 796.575 230.689 789.276 224.244C782.053 217.72 778.442 207.47 778.442 193.491V103.097H812.923V184.988C812.923 191.977 813.544 196.714 814.786 199.199C816.106 201.684 817.854 203.587 820.028 204.907C822.28 206.149 824.765 206.771 827.483 206.771C832.221 206.771 837.152 205.218 842.277 202.111C847.403 198.927 852.955 192.753 858.935 183.59V103.097H893.415V231H858.935ZM936.632 231V47.0667H971.112V127.21C975.539 118.202 981.247 111.445 988.236 106.941C995.225 102.437 1003.46 100.185 1012.93 100.185C1028.7 100.185 1040.89 106.009 1049.51 117.658C1058.13 129.307 1062.44 144.605 1062.44 163.554C1062.44 183.59 1057.62 200.325 1047.99 213.76C1038.36 227.195 1024.93 233.912 1007.69 233.912C1002.87 233.912 998.409 233.369 994.293 232.281C990.177 231.272 986.294 229.719 982.644 227.622C979.072 225.525 975.228 222.341 971.112 218.07L964.705 231H936.632ZM971.112 197.568C976.005 203.004 980.586 206.693 984.858 208.634C989.129 210.576 993.478 211.547 997.904 211.547C1007.3 211.547 1014.29 207.004 1018.87 197.918C1023.45 188.754 1025.74 178.27 1025.74 166.466C1025.74 154.274 1023.53 144.683 1019.1 137.694C1014.76 130.705 1008.54 127.21 1000.47 127.21C995.419 127.21 990.333 128.996 985.207 132.568C980.159 136.063 975.461 140.839 971.112 146.896V197.568ZM1094.82 231V103.097H1127.9V127.21C1132.25 119.444 1137.96 112.998 1145.03 107.873C1152.09 102.748 1160.75 100.185 1171 100.185C1177.22 100.185 1182.61 101.156 1187.2 103.097C1191.78 104.961 1195.82 107.951 1199.31 112.067C1202.88 116.105 1205.17 121.153 1206.18 127.21C1212.55 117.58 1219 110.669 1225.52 106.475C1232.12 102.282 1240.12 100.185 1249.52 100.185C1259.92 100.185 1268.35 103.252 1274.79 109.387C1281.32 115.445 1284.58 125.268 1284.58 138.859V231H1251.5V150.158C1251.5 140.606 1249.94 134.432 1246.84 131.636C1243.81 128.841 1240.39 127.443 1236.59 127.443C1231.38 127.443 1226.22 129.307 1221.09 133.034C1216.05 136.762 1211.08 142.353 1206.18 149.808V231H1173.1V150.158C1173.1 140.684 1171.59 134.51 1168.56 131.636C1165.61 128.763 1162.03 127.326 1157.84 127.326C1152.79 127.326 1147.75 129.19 1142.7 132.918C1137.73 136.645 1132.8 142.276 1127.9 149.808V231H1094.82ZM1326.17 231V103.097H1360.65V231H1326.17ZM1326.17 81.5469V52.7746H1360.65V81.5469H1326.17ZM1469.68 230.301C1461.45 232.708 1454.96 233.912 1450.22 233.912C1438.96 233.912 1430.23 232.32 1424.01 229.136C1417.8 225.952 1413.14 221.642 1410.04 216.206C1406.93 210.692 1405.38 202.616 1405.38 191.977V124.647H1391.05V103.097H1405.38V81.5469L1439.86 77.5864V103.097H1467.23V124.647H1439.86V187.434C1439.86 196.675 1441.49 202.927 1444.75 206.188C1448.01 209.372 1452.79 210.964 1459.08 210.964C1462.03 210.964 1465.56 210.421 1469.68 209.333V230.301ZM1566.36 230.301C1558.13 232.708 1551.65 233.912 1546.91 233.912C1535.65 233.912 1526.91 232.32 1520.7 229.136C1514.49 225.952 1509.83 221.642 1506.72 216.206C1503.61 210.692 1502.06 202.616 1502.06 191.977V124.647H1487.73V103.097H1502.06V81.5469L1536.54 77.5864V103.097H1563.92V124.647H1536.54V187.434C1536.54 196.675 1538.17 202.927 1541.43 206.188C1544.7 209.372 1549.47 210.964 1555.76 210.964C1558.71 210.964 1562.25 210.421 1566.36 209.333V230.301ZM1701.25 226.69C1684.87 231.505 1669.34 233.912 1654.66 233.912C1640.76 233.912 1628.57 231.349 1618.08 226.224C1607.68 221.021 1599.64 212.944 1593.97 201.995C1588.38 190.967 1585.58 179.008 1585.58 166.117C1585.58 154.157 1587.95 143.13 1592.69 133.034C1597.5 122.861 1604.45 114.862 1613.54 109.038C1622.7 103.136 1633.96 100.185 1647.32 100.185C1663.71 100.185 1676.79 105.388 1686.58 115.794C1696.36 126.2 1701.25 145.576 1701.25 173.921H1621.93C1622.7 182.541 1624.64 189.336 1627.75 194.307C1630.93 199.277 1635.21 203.237 1640.56 206.188C1645.92 209.062 1653.11 210.498 1662.11 210.498C1673.69 210.498 1686.73 207.819 1701.25 202.461V226.69ZM1621.46 154.468H1667.36C1667.36 142.742 1665.38 134.354 1661.42 129.307C1657.53 124.259 1652.48 121.735 1646.27 121.735C1639.52 121.735 1633.96 124.531 1629.61 130.122C1625.27 135.636 1622.55 143.751 1621.46 154.468ZM1817.39 231V206.887C1812.97 215.895 1807.26 222.652 1800.27 227.156C1793.36 231.66 1785.12 233.912 1775.57 233.912C1759.89 233.912 1747.73 228.127 1739.11 216.556C1730.49 204.907 1726.18 189.569 1726.18 170.543C1726.18 150.43 1731 133.694 1740.63 120.337C1750.26 106.902 1763.69 100.185 1780.93 100.185C1785.59 100.185 1789.86 100.69 1793.74 101.699C1797.63 102.631 1801.36 104.107 1804.93 106.126C1808.5 108.145 1812.65 111.445 1817.39 116.027V47.0667H1851.99V231H1817.39ZM1817.39 136.529C1812.58 131.093 1808.03 127.404 1803.76 125.463C1799.49 123.521 1795.14 122.55 1790.72 122.55C1781.4 122.55 1774.41 127.055 1769.75 136.063C1765.17 144.994 1762.88 155.516 1762.88 167.631C1762.88 179.59 1765.01 189.142 1769.28 196.287C1773.63 203.354 1779.88 206.887 1788.04 206.887C1793.24 206.887 1798.37 205.101 1803.41 201.529C1808.54 197.879 1813.2 193.103 1817.39 187.201V136.529Z" fill="#1B1B1B"/>
<path d="M633.882 229.486H628.882V233.537L632.845 234.377L633.882 229.486ZM633.882 199.898L635.822 195.29L628.882 192.368V199.898H633.882ZM663.586 209.916L662.764 214.848L662.773 214.849L663.586 209.916ZM707.385 175.552L711.52 172.741L711.506 172.721L711.493 172.702L707.385 175.552ZM687.349 160.758L689.81 156.405L689.794 156.396L689.778 156.387L687.349 160.758ZM675.817 154.351L673.37 158.712L673.379 158.717L673.389 158.722L675.817 154.351ZM642.385 128.724L646.4 125.743L646.39 125.731L646.381 125.718L642.385 128.724ZM648.21 68.1509L644.791 64.5023L644.784 64.5091L644.777 64.5158L648.21 68.1509ZM737.089 60.2298H742.089V56.2482L738.209 55.3567L737.089 60.2298ZM737.089 87.8372L735.329 92.5172L742.089 95.0597V87.8372H737.089ZM675.701 83.6437L678.921 87.4683L678.927 87.4631L675.701 83.6437ZM673.021 108.455L677.053 105.499L677.032 105.47L677.011 105.441L673.021 108.455ZM692.941 122.783L690.48 127.136L690.495 127.144L690.509 127.152L692.941 122.783ZM705.288 129.656L707.744 125.301L707.732 125.294L707.72 125.287L705.288 129.656ZM741.399 157.38L745.597 154.664L745.582 154.64L745.566 154.616L741.399 157.38ZM733.012 220.283L729.598 216.631L729.591 216.637L729.585 216.643L733.012 220.283ZM638.882 229.486V199.898H628.882V229.486H638.882ZM631.941 204.506C645.261 210.115 655.622 213.658 662.764 214.848L664.408 204.984C658.503 204 649.061 200.864 635.822 195.29L631.941 204.506ZM662.773 214.849C669.588 215.972 675.922 216.547 681.758 216.547V206.547C676.567 206.547 670.785 206.034 664.399 204.982L662.773 214.849ZM681.758 216.547C692.346 216.547 701.212 214.16 707.394 208.469L700.62 201.112C697.017 204.429 691.05 206.547 681.758 206.547V216.547ZM707.394 208.469C713.248 203.079 716.346 196.374 716.346 188.599H706.346C706.346 193.404 704.551 197.493 700.62 201.112L707.394 208.469ZM716.346 188.599C716.346 182.808 714.739 177.475 711.52 172.741L703.25 178.364C705.312 181.395 706.346 184.76 706.346 188.599H716.346ZM711.493 172.702C709.705 170.125 706.855 167.554 703.366 164.977C699.806 162.349 695.269 159.491 689.81 156.405L684.889 165.111C690.146 168.083 694.307 170.719 697.426 173.022C700.616 175.377 702.425 177.174 703.277 178.403L711.493 172.702ZM689.778 156.387L678.245 149.981L673.389 158.722L684.921 165.129L689.778 156.387ZM678.264 149.991C661.948 140.833 651.573 132.71 646.4 125.743L638.371 131.705C644.846 140.425 656.759 149.388 673.37 158.712L678.264 149.991ZM646.381 125.718C641.166 118.788 638.532 110.771 638.532 101.466H628.532C628.532 112.819 631.8 122.973 638.39 131.731L646.381 125.718ZM638.532 101.466C638.532 89.9305 642.815 80.123 651.643 71.786L644.777 64.5158C634.034 74.6615 628.532 87.0642 628.532 101.466H638.532ZM651.628 71.7995C660.272 63.7 673.009 59.2889 690.611 59.2889V49.2889C671.403 49.2889 655.872 54.1192 644.791 64.5023L651.628 71.7995ZM690.611 59.2889C703.89 59.2889 718.998 61.2039 735.97 65.1028L738.209 55.3567C720.7 51.3345 704.823 49.2889 690.611 49.2889V59.2889ZM732.089 60.2298V87.8372H742.089V60.2298H732.089ZM738.85 83.1573C721.118 76.4883 706.505 72.9358 695.27 72.9358V82.9358C704.693 82.9358 717.959 85.9843 735.329 92.5172L738.85 83.1573ZM695.27 72.9358C686.065 72.9358 678.21 74.9783 672.474 79.8243L678.927 87.4631C682.2 84.6986 687.391 82.9358 695.27 82.9358V72.9358ZM672.48 79.8191C667.048 84.3937 664.061 90.2477 664.061 97.1562H674.061C674.061 93.5032 675.501 90.3489 678.921 87.4683L672.48 79.8191ZM664.061 97.1562C664.061 102.376 665.795 107.185 669.032 111.47L677.011 105.441C674.967 102.737 674.061 100.013 674.061 97.1562H664.061ZM668.989 111.412C670.746 113.807 673.565 116.244 677.004 118.717C680.525 121.25 685.034 124.058 690.48 127.136L695.401 118.431C690.13 115.452 685.961 112.843 682.843 110.599C679.642 108.297 677.86 106.598 677.053 105.499L668.989 111.412ZM690.509 127.152L702.857 134.025L707.72 125.287L695.372 118.415L690.509 127.152ZM702.833 134.012C721.69 144.643 732.754 153.392 737.233 160.144L745.566 154.616C739.639 145.682 726.629 135.948 707.744 125.301L702.833 134.012ZM737.202 160.096C741.779 167.171 744.088 175.111 744.088 184.056H754.088C754.088 173.275 751.271 163.432 745.597 154.664L737.202 160.096ZM744.088 184.056C744.088 196.747 739.347 207.518 729.598 216.631L736.427 223.936C748.112 213.013 754.088 199.632 754.088 184.056H744.088ZM729.585 216.643C720.292 225.393 704.854 230.31 682.107 230.31V240.31C705.956 240.31 724.455 235.209 736.44 223.923L729.585 216.643ZM682.107 230.31C668.73 230.31 653.016 228.429 634.918 224.594L632.845 234.377C651.402 238.309 667.838 240.31 682.107 240.31V230.31ZM858.935 231H853.935V236H858.935V231ZM858.935 206.887H863.935V189.5L854.699 204.231L858.935 206.887ZM789.276 224.244L785.924 227.954L785.945 227.973L785.966 227.992L789.276 224.244ZM778.442 103.097V98.0971H773.442V103.097H778.442ZM812.923 103.097H817.923V98.0971H812.923V103.097ZM814.786 199.199L810.314 201.435L810.342 201.49L810.371 201.545L814.786 199.199ZM820.028 204.907L817.433 209.181L817.522 209.235L817.613 209.285L820.028 204.907ZM842.277 202.111L844.869 206.387L844.892 206.373L844.916 206.358L842.277 202.111ZM858.935 183.59L863.122 186.322L863.935 185.077V183.59H858.935ZM858.935 103.097V98.0971H853.935V103.097H858.935ZM893.415 103.097H898.415V98.0971H893.415V103.097ZM893.415 231V236H898.415V231H893.415ZM863.935 231V206.887H853.935V231H863.935ZM854.699 204.231C848.867 213.532 842.602 219.763 836.036 223.351L840.831 232.126C849.33 227.482 856.732 219.812 863.171 209.543L854.699 204.231ZM836.036 223.351C829.167 227.104 822.297 228.912 815.369 228.912V238.912C824.127 238.912 832.634 236.605 840.831 232.126L836.036 223.351ZM815.369 228.912C806.443 228.912 798.935 226.103 792.585 220.496L785.966 227.992C794.216 235.276 804.103 238.912 815.369 238.912V228.912ZM792.627 220.533C786.845 215.311 783.442 206.686 783.442 193.491H773.442C773.442 208.254 777.261 220.13 785.924 227.954L792.627 220.533ZM783.442 193.491V103.097H773.442V193.491H783.442ZM778.442 108.097H812.923V98.0971H778.442V108.097ZM807.923 103.097V184.988H817.923V103.097H807.923ZM807.923 184.988C807.923 188.61 808.082 191.775 808.431 194.433C808.77 197.016 809.327 199.461 810.314 201.435L819.258 196.963C819.003 196.452 818.628 195.286 818.346 193.132C818.073 191.053 817.923 188.354 817.923 184.988H807.923ZM810.371 201.545C812.067 204.738 814.41 207.345 817.433 209.181L822.623 200.633C821.298 199.828 820.146 198.63 819.202 196.853L810.371 201.545ZM817.613 209.285C820.647 210.959 823.97 211.771 827.483 211.771V201.771C825.561 201.771 823.914 201.34 822.444 200.529L817.613 209.285ZM827.483 211.771C833.347 211.771 839.167 209.843 844.869 206.387L839.686 197.835C835.137 200.592 831.094 201.771 827.483 201.771V211.771ZM844.916 206.358C850.98 202.591 857.017 195.679 863.122 186.322L854.748 180.857C848.894 189.828 843.826 195.263 839.639 197.864L844.916 206.358ZM863.935 183.59V103.097H853.935V183.59H863.935ZM858.935 108.097H893.415V98.0971H858.935V108.097ZM888.415 103.097V231H898.415V103.097H888.415ZM893.415 226H858.935V236H893.415V226ZM936.632 231H931.632V236H936.632V231ZM936.632 47.0667V42.0667H931.632V47.0667H936.632ZM971.112 47.0667H976.112V42.0667H971.112V47.0667ZM971.112 127.21H966.112L975.6 129.415L971.112 127.21ZM988.236 106.941L990.944 111.144L988.236 106.941ZM1047.99 213.76L1043.93 210.847L1047.99 213.76ZM994.293 232.281L995.57 227.447L995.527 227.436L995.484 227.425L994.293 232.281ZM982.644 227.622L980.113 231.934L980.133 231.946L980.154 231.957L982.644 227.622ZM971.112 218.07L974.713 214.6L969.785 209.487L966.632 215.85L971.112 218.07ZM964.705 231V236H967.808L969.186 233.22L964.705 231ZM971.112 197.568H966.112V199.487L967.396 200.913L971.112 197.568ZM1018.87 197.918L1023.34 200.169L1023.34 200.161L1023.34 200.154L1018.87 197.918ZM1019.1 137.694L1014.86 140.335L1014.87 140.352L1014.88 140.369L1019.1 137.694ZM985.207 132.568L988.053 136.679L988.06 136.675L988.066 136.67L985.207 132.568ZM971.112 146.896L967.051 143.98L966.112 145.287V146.896H971.112ZM941.632 231V47.0667H931.632V231H941.632ZM936.632 52.0667H971.112V42.0667H936.632V52.0667ZM966.112 47.0667V127.21H976.112V47.0667H966.112ZM975.6 129.415C979.709 121.052 984.863 115.063 990.944 111.144L985.527 102.738C977.63 107.827 971.368 115.351 966.625 125.005L975.6 129.415ZM990.944 111.144C997.018 107.23 1004.28 105.185 1012.93 105.185V95.1849C1002.63 95.1849 993.432 97.6439 985.527 102.738L990.944 111.144ZM1012.93 105.185C1027.27 105.185 1037.9 110.382 1045.49 120.632L1053.53 114.684C1043.87 101.636 1030.12 95.1849 1012.93 95.1849V105.185ZM1045.49 120.632C1053.3 131.189 1057.44 145.347 1057.44 163.554H1067.44C1067.44 143.863 1062.96 127.425 1053.53 114.684L1045.49 120.632ZM1057.44 163.554C1057.44 182.771 1052.83 198.428 1043.93 210.847L1052.06 216.673C1062.42 202.222 1067.44 184.409 1067.44 163.554H1057.44ZM1043.93 210.847C1035.29 222.907 1023.4 228.912 1007.69 228.912V238.912C1026.46 238.912 1041.44 231.483 1052.06 216.673L1043.93 210.847ZM1007.69 228.912C1003.25 228.912 999.219 228.411 995.57 227.447L993.016 237.116C997.599 238.326 1002.5 238.912 1007.69 238.912V228.912ZM995.484 227.425C991.821 226.527 988.376 225.148 985.135 223.286L980.154 231.957C984.213 234.289 988.534 236.017 993.102 237.137L995.484 227.425ZM985.175 223.31C982.125 221.52 978.636 218.672 974.713 214.6L967.512 221.539C971.82 226.01 976.019 229.531 980.113 231.934L985.175 223.31ZM966.632 215.85L960.225 228.78L969.186 233.22L975.592 220.29L966.632 215.85ZM964.705 226H936.632V236H964.705V226ZM967.396 200.913C972.518 206.605 977.64 210.846 982.789 213.186L986.927 204.083C983.533 202.54 979.491 199.404 974.829 194.223L967.396 200.913ZM982.789 213.186C987.67 215.405 992.722 216.547 997.904 216.547V206.547C994.234 206.547 990.588 205.747 986.927 204.083L982.789 213.186ZM997.904 216.547C1003.44 216.547 1008.51 215.195 1012.92 212.332C1017.3 209.482 1020.73 205.328 1023.34 200.169L1014.41 195.666C1012.43 199.594 1010.07 202.253 1007.47 203.947C1004.89 205.626 1001.76 206.547 997.904 206.547V216.547ZM1023.34 200.154C1028.32 190.197 1030.74 178.928 1030.74 166.466H1020.74C1020.74 177.612 1018.59 187.311 1014.4 195.682L1023.34 200.154ZM1030.74 166.466C1030.74 153.748 1028.45 143.102 1023.33 135.018L1014.88 140.369C1018.61 146.264 1020.74 154.799 1020.74 166.466H1030.74ZM1023.35 135.052C1018.11 126.631 1010.31 122.21 1000.47 122.21V132.21C1006.78 132.21 1011.4 134.778 1014.86 140.335L1023.35 135.052ZM1000.47 122.21C994.176 122.21 988.111 124.45 982.348 128.466L988.066 136.67C992.554 133.542 996.662 132.21 1000.47 132.21V122.21ZM982.361 128.457C976.754 132.339 971.664 137.555 967.051 143.98L975.174 149.812C979.258 144.123 983.565 139.787 988.053 136.679L982.361 128.457ZM966.112 146.896V197.568H976.112V146.896H966.112ZM1094.82 231H1089.82V236H1094.82V231ZM1094.82 103.097V98.0971H1089.82V103.097H1094.82ZM1127.9 103.097H1132.9V98.0971H1127.9V103.097ZM1127.9 127.21H1122.9V146.372L1132.27 129.653L1127.9 127.21ZM1187.2 103.097L1185.25 107.701L1185.28 107.715L1185.31 107.729L1187.2 103.097ZM1199.31 112.067L1195.5 115.303L1195.53 115.341L1195.57 115.379L1199.31 112.067ZM1206.18 127.21L1201.25 128.032L1203.34 140.572L1210.35 129.968L1206.18 127.21ZM1225.52 106.475L1222.84 102.255L1222.83 102.262L1222.82 102.269L1225.52 106.475ZM1274.79 109.387L1271.35 113.009L1271.37 113.03L1271.39 113.051L1274.79 109.387ZM1284.58 231V236H1289.58V231H1284.58ZM1251.5 231H1246.5V236H1251.5V231ZM1246.84 131.636L1243.45 135.31L1243.47 135.332L1243.49 135.353L1246.84 131.636ZM1221.09 133.034L1218.15 128.991L1218.14 129.001L1218.12 129.012L1221.09 133.034ZM1206.18 149.808L1202 147.065L1201.18 148.314V149.808H1206.18ZM1206.18 231V236H1211.18V231H1206.18ZM1173.1 231H1168.1V236H1173.1V231ZM1168.56 131.636L1165.07 135.219L1165.09 135.241L1165.12 135.264L1168.56 131.636ZM1142.7 132.918L1139.73 128.896L1139.71 128.907L1139.7 128.918L1142.7 132.918ZM1127.9 149.808L1123.71 147.085L1122.9 148.327V149.808H1127.9ZM1127.9 231V236H1132.9V231H1127.9ZM1099.82 231V103.097H1089.82V231H1099.82ZM1094.82 108.097H1127.9V98.0971H1094.82V108.097ZM1122.9 103.097V127.21H1132.9V103.097H1122.9ZM1132.27 129.653C1136.27 122.506 1141.49 116.612 1147.96 111.921L1142.09 103.826C1134.43 109.385 1128.24 116.382 1123.54 124.767L1132.27 129.653ZM1147.96 111.921C1154.03 107.517 1161.62 105.185 1171 105.185V95.1849C1159.89 95.1849 1150.15 97.9783 1142.09 103.826L1147.96 111.921ZM1171 105.185C1176.71 105.185 1181.41 106.077 1185.25 107.701L1189.15 98.4933C1183.81 96.2341 1177.73 95.1849 1171 95.1849V105.185ZM1185.31 107.729C1189.08 109.262 1192.48 111.743 1195.5 115.303L1203.12 108.83C1199.16 104.158 1194.47 100.66 1189.08 98.4656L1185.31 107.729ZM1195.57 115.379C1198.43 118.621 1200.37 122.768 1201.25 128.032L1211.12 126.388C1209.97 119.537 1207.33 113.588 1203.06 108.754L1195.57 115.379ZM1210.35 129.968C1216.51 120.66 1222.5 114.362 1228.22 110.681L1222.82 102.269C1215.5 106.976 1208.59 114.501 1202.01 124.452L1210.35 129.968ZM1228.2 110.696C1233.85 107.106 1240.88 105.185 1249.52 105.185V95.1849C1239.36 95.1849 1230.39 97.4575 1222.84 102.255L1228.2 110.696ZM1249.52 105.185C1258.87 105.185 1265.99 107.907 1271.35 113.009L1278.24 105.766C1270.71 98.5974 1260.97 95.1849 1249.52 95.1849V105.185ZM1271.39 113.051C1276.46 117.761 1279.58 125.932 1279.58 138.859H1289.58C1289.58 124.605 1286.17 113.128 1278.2 105.723L1271.39 113.051ZM1279.58 138.859V231H1289.58V138.859H1279.58ZM1284.58 226H1251.5V236H1284.58V226ZM1256.5 231V150.158H1246.5V231H1256.5ZM1256.5 150.158C1256.5 145.154 1256.09 140.775 1255.18 137.144C1254.28 133.564 1252.77 130.246 1250.18 127.92L1243.49 135.353C1244.01 135.823 1244.83 136.989 1245.48 139.583C1246.12 142.126 1246.5 145.61 1246.5 150.158H1256.5ZM1250.23 127.962C1246.36 124.391 1241.76 122.443 1236.59 122.443V132.443C1239.03 132.443 1241.26 133.29 1243.45 135.31L1250.23 127.962ZM1236.59 122.443C1230.11 122.443 1223.94 124.78 1218.15 128.991L1224.03 137.078C1228.5 133.834 1232.65 132.443 1236.59 132.443V122.443ZM1218.12 129.012C1212.45 133.205 1207.09 139.307 1202 147.065L1210.36 152.552C1215.06 145.4 1219.65 140.318 1224.06 137.056L1218.12 129.012ZM1201.18 149.808V231H1211.18V149.808H1201.18ZM1206.18 226H1173.1V236H1206.18V226ZM1178.1 231V150.158H1168.1V231H1178.1ZM1178.1 150.158C1178.1 145.195 1177.71 140.847 1176.82 137.231C1175.95 133.665 1174.48 130.366 1172 128.009L1165.12 135.264C1165.66 135.78 1166.47 137.005 1167.11 139.613C1167.74 142.17 1168.1 145.647 1168.1 150.158H1178.1ZM1172.05 128.054C1168.14 124.253 1163.31 122.326 1157.84 122.326V132.326C1160.76 132.326 1163.07 133.273 1165.07 135.219L1172.05 128.054ZM1157.84 122.326C1151.49 122.326 1145.42 124.69 1139.73 128.896L1145.67 136.94C1150.07 133.691 1154.1 132.326 1157.84 132.326V122.326ZM1139.7 128.918C1134.1 133.117 1128.79 139.26 1123.71 147.085L1132.1 152.532C1136.8 145.291 1141.36 140.174 1145.7 136.918L1139.7 128.918ZM1122.9 149.808V231H1132.9V149.808H1122.9ZM1127.9 226H1094.82V236H1127.9V226ZM1326.17 231H1321.17V236H1326.17V231ZM1326.17 103.097V98.0971H1321.17V103.097H1326.17ZM1360.65 103.097H1365.65V98.0971H1360.65V103.097ZM1360.65 231V236H1365.65V231H1360.65ZM1326.17 81.5469H1321.17V86.5469H1326.17V81.5469ZM1326.17 52.7746V47.7746H1321.17V52.7746H1326.17ZM1360.65 52.7746H1365.65V47.7746H1360.65V52.7746ZM1360.65 81.5469V86.5469H1365.65V81.5469H1360.65ZM1331.17 231V103.097H1321.17V231H1331.17ZM1326.17 108.097H1360.65V98.0971H1326.17V108.097ZM1355.65 103.097V231H1365.65V103.097H1355.65ZM1360.65 226H1326.17V236H1360.65V226ZM1331.17 81.5469V52.7746H1321.17V81.5469H1331.17ZM1326.17 57.7746H1360.65V47.7746H1326.17V57.7746ZM1355.65 52.7746V81.5469H1365.65V52.7746H1355.65ZM1360.65 76.5469H1326.17V86.5469H1360.65V76.5469ZM1469.68 230.301L1471.08 235.1L1474.68 234.048V230.301H1469.68ZM1424.01 229.136L1421.73 233.586L1424.01 229.136ZM1410.04 216.206L1405.68 218.66L1405.69 218.674L1405.69 218.687L1410.04 216.206ZM1405.38 124.647H1410.38V119.647H1405.38V124.647ZM1391.05 124.647H1386.05V129.647H1391.05V124.647ZM1391.05 103.097V98.0971H1386.05V103.097H1391.05ZM1405.38 103.097V108.097H1410.38V103.097H1405.38ZM1405.38 81.5469L1404.81 76.5796L1400.38 77.0884V81.5469H1405.38ZM1439.86 77.5864H1444.86V71.9792L1439.29 72.619L1439.86 77.5864ZM1439.86 103.097H1434.86V108.097H1439.86V103.097ZM1467.23 103.097H1472.23V98.0971H1467.23V103.097ZM1467.23 124.647V129.647H1472.23V124.647H1467.23ZM1439.86 124.647V119.647H1434.86V124.647H1439.86ZM1444.75 206.188L1441.21 209.724L1441.23 209.745L1441.26 209.766L1444.75 206.188ZM1469.68 209.333H1474.68V202.841L1468.4 204.499L1469.68 209.333ZM1468.27 225.502C1460.19 227.865 1454.25 228.912 1450.22 228.912V238.912C1455.67 238.912 1462.7 237.552 1471.08 235.1L1468.27 225.502ZM1450.22 228.912C1439.32 228.912 1431.5 227.353 1426.29 224.687L1421.73 233.586C1428.96 237.288 1438.6 238.912 1450.22 238.912V228.912ZM1426.29 224.687C1420.84 221.892 1416.95 218.224 1414.38 213.725L1405.69 218.687C1409.34 225.06 1414.76 230.012 1421.73 233.586L1426.29 224.687ZM1414.39 213.752C1411.9 209.336 1410.38 202.273 1410.38 191.977H1400.38C1400.38 202.959 1401.95 212.049 1405.68 218.66L1414.39 213.752ZM1410.38 191.977V124.647H1400.38V191.977H1410.38ZM1405.38 119.647H1391.05V129.647H1405.38V119.647ZM1396.05 124.647V103.097H1386.05V124.647H1396.05ZM1391.05 108.097H1405.38V98.0971H1391.05V108.097ZM1410.38 103.097V81.5469H1400.38V103.097H1410.38ZM1405.95 86.5143L1440.43 82.5537L1439.29 72.619L1404.81 76.5796L1405.95 86.5143ZM1434.86 77.5864V103.097H1444.86V77.5864H1434.86ZM1439.86 108.097H1467.23V98.0971H1439.86V108.097ZM1462.23 103.097V124.647H1472.23V103.097H1462.23ZM1467.23 119.647H1439.86V129.647H1467.23V119.647ZM1434.86 124.647V187.434H1444.86V124.647H1434.86ZM1434.86 187.434C1434.86 196.848 1436.43 204.941 1441.21 209.724L1448.28 202.653C1446.54 200.912 1444.86 196.503 1444.86 187.434H1434.86ZM1441.26 209.766C1445.76 214.162 1451.99 215.964 1459.08 215.964V205.964C1453.59 205.964 1450.26 204.582 1448.24 202.61L1441.26 209.766ZM1459.08 215.964C1462.6 215.964 1466.59 215.321 1470.95 214.168L1468.4 204.499C1464.53 205.52 1461.45 205.964 1459.08 205.964V215.964ZM1464.68 209.333V230.301H1474.68V209.333H1464.68ZM1566.36 230.301L1567.77 235.1L1571.36 234.048V230.301H1566.36ZM1520.7 229.136L1518.42 233.586L1520.7 229.136ZM1506.72 216.206L1502.36 218.66L1502.37 218.674L1502.38 218.687L1506.72 216.206ZM1502.06 124.647H1507.06V119.647H1502.06V124.647ZM1487.73 124.647H1482.73V129.647H1487.73V124.647ZM1487.73 103.097V98.0971H1482.73V103.097H1487.73ZM1502.06 103.097V108.097H1507.06V103.097H1502.06ZM1502.06 81.5469L1501.49 76.5796L1497.06 77.0884V81.5469H1502.06ZM1536.54 77.5864H1541.54V71.9792L1535.97 72.619L1536.54 77.5864ZM1536.54 103.097H1531.54V108.097H1536.54V103.097ZM1563.92 103.097H1568.92V98.0971H1563.92V103.097ZM1563.92 124.647V129.647H1568.92V124.647H1563.92ZM1536.54 124.647V119.647H1531.54V124.647H1536.54ZM1541.43 206.188L1537.9 209.724L1537.92 209.745L1537.94 209.766L1541.43 206.188ZM1566.36 209.333H1571.36V202.841L1565.08 204.499L1566.36 209.333ZM1564.96 225.502C1556.88 227.865 1550.93 228.912 1546.91 228.912V238.912C1552.36 238.912 1559.38 237.552 1567.77 235.1L1564.96 225.502ZM1546.91 228.912C1536.01 228.912 1528.18 227.353 1522.98 224.687L1518.42 233.586C1525.64 237.288 1535.29 238.912 1546.91 238.912V228.912ZM1522.98 224.687C1517.53 221.892 1513.63 218.224 1511.06 213.725L1502.38 218.687C1506.02 225.06 1511.44 230.012 1518.42 233.586L1522.98 224.687ZM1511.08 213.752C1508.59 209.336 1507.06 202.273 1507.06 191.977H1497.06C1497.06 202.959 1498.64 212.049 1502.36 218.66L1511.08 213.752ZM1507.06 191.977V124.647H1497.06V191.977H1507.06ZM1502.06 119.647H1487.73V129.647H1502.06V119.647ZM1492.73 124.647V103.097H1482.73V124.647H1492.73ZM1487.73 108.097H1502.06V98.0971H1487.73V108.097ZM1507.06 103.097V81.5469H1497.06V103.097H1507.06ZM1502.63 86.5143L1537.11 82.5537L1535.97 72.619L1501.49 76.5796L1502.63 86.5143ZM1531.54 77.5864V103.097H1541.54V77.5864H1531.54ZM1536.54 108.097H1563.92V98.0971H1536.54V108.097ZM1558.92 103.097V124.647H1568.92V103.097H1558.92ZM1563.92 119.647H1536.54V129.647H1563.92V119.647ZM1531.54 124.647V187.434H1541.54V124.647H1531.54ZM1531.54 187.434C1531.54 196.848 1533.12 204.941 1537.9 209.724L1544.97 202.653C1543.23 200.912 1541.54 196.503 1541.54 187.434H1531.54ZM1537.94 209.766C1542.44 214.162 1548.67 215.964 1555.76 215.964V205.964C1550.27 205.964 1546.95 204.582 1544.93 202.61L1537.94 209.766ZM1555.76 215.964C1559.29 215.964 1563.27 215.321 1567.64 214.168L1565.08 204.499C1561.22 205.52 1558.14 205.964 1555.76 205.964V215.964ZM1561.36 209.333V230.301H1571.36V209.333H1561.36ZM1701.25 226.69L1702.66 231.487L1706.25 230.432V226.69H1701.25ZM1618.08 226.224L1615.85 230.696L1615.87 230.706L1615.89 230.716L1618.08 226.224ZM1593.97 201.995L1589.51 204.256L1589.52 204.275L1589.53 204.294L1593.97 201.995ZM1592.69 133.034L1588.17 130.895L1588.16 130.903L1588.16 130.91L1592.69 133.034ZM1613.54 109.038L1616.24 113.247L1616.25 113.241L1613.54 109.038ZM1701.25 173.921V178.921H1706.25V173.921H1701.25ZM1621.93 173.921V168.921H1616.46L1616.95 174.37L1621.93 173.921ZM1627.75 194.307L1623.51 196.957L1623.53 196.98L1623.54 197.004L1627.75 194.307ZM1640.56 206.188L1638.15 210.568L1638.18 210.581L1638.2 210.595L1640.56 206.188ZM1701.25 202.461H1706.25V195.286L1699.52 197.77L1701.25 202.461ZM1621.46 154.468L1616.49 153.963L1615.93 159.468H1621.46V154.468ZM1667.36 154.468V159.468H1672.36V154.468H1667.36ZM1661.42 129.307L1657.45 132.355L1657.47 132.374L1657.48 132.393L1661.42 129.307ZM1629.61 130.122L1633.54 133.219L1633.55 133.205L1633.56 133.192L1629.61 130.122ZM1699.84 221.893C1683.84 226.595 1668.79 228.912 1654.66 228.912V238.912C1669.88 238.912 1685.89 236.415 1702.66 231.487L1699.84 221.893ZM1654.66 228.912C1641.38 228.912 1629.96 226.465 1620.28 221.732L1615.89 230.716C1627.17 236.234 1640.14 238.912 1654.66 238.912V228.912ZM1620.32 221.752C1610.92 217.051 1603.62 209.766 1598.41 199.696L1589.53 204.294C1595.65 216.123 1604.44 224.991 1615.85 230.696L1620.32 221.752ZM1598.43 199.734C1593.21 189.437 1590.58 178.257 1590.58 166.117H1580.58C1580.58 179.759 1583.55 192.497 1589.51 204.256L1598.43 199.734ZM1590.58 166.117C1590.58 154.837 1592.81 144.542 1597.21 135.158L1588.16 130.91C1583.09 141.718 1580.58 153.477 1580.58 166.117H1590.58ZM1597.21 135.173C1601.64 125.809 1607.98 118.544 1616.24 113.247L1610.84 104.829C1600.93 111.181 1593.37 119.913 1588.17 130.895L1597.21 135.173ZM1616.25 113.241C1624.44 107.966 1634.71 105.185 1647.32 105.185V95.1849C1633.22 95.1849 1620.97 98.306 1610.83 104.834L1616.25 113.241ZM1647.32 105.185C1662.55 105.185 1674.24 109.969 1682.93 119.219L1690.22 112.369C1679.35 100.807 1664.86 95.1849 1647.32 95.1849V105.185ZM1682.93 119.219C1691.31 128.132 1696.25 145.767 1696.25 173.921H1706.25C1706.25 145.385 1701.41 124.269 1690.22 112.369L1682.93 119.219ZM1701.25 168.921H1621.93V178.921H1701.25V168.921ZM1616.95 174.37C1617.76 183.428 1619.84 191.08 1623.51 196.957L1631.99 191.657C1629.45 187.593 1627.64 181.655 1626.91 173.473L1616.95 174.37ZM1623.54 197.004C1627.19 202.702 1632.09 207.23 1638.15 210.568L1642.98 201.808C1638.32 199.244 1634.68 195.851 1631.96 191.609L1623.54 197.004ZM1638.2 210.595C1644.55 214.001 1652.65 215.498 1662.11 215.498V205.498C1653.56 205.498 1647.29 204.123 1642.93 201.782L1638.2 210.595ZM1662.11 215.498C1674.44 215.498 1688.08 212.65 1702.98 207.151L1699.52 197.77C1685.38 202.989 1672.93 205.498 1662.11 205.498V215.498ZM1696.25 202.461V226.69H1706.25V202.461H1696.25ZM1621.46 159.468H1667.36V149.468H1621.46V159.468ZM1672.36 154.468C1672.36 142.436 1670.37 132.625 1665.35 126.22L1657.48 132.393C1660.38 136.084 1662.36 143.047 1662.36 154.468H1672.36ZM1665.38 126.258C1660.58 120.016 1654.08 116.735 1646.27 116.735V126.735C1650.89 126.735 1654.49 128.502 1657.45 132.355L1665.38 126.258ZM1646.27 116.735C1637.89 116.735 1630.91 120.312 1625.67 127.052L1633.56 133.192C1637.02 128.75 1641.14 126.735 1646.27 126.735V116.735ZM1625.69 127.026C1620.52 133.585 1617.62 142.768 1616.49 153.963L1626.43 154.973C1627.47 144.734 1630.02 137.687 1633.54 133.219L1625.69 127.026ZM1817.39 231H1812.39V236H1817.39V231ZM1817.39 206.887H1822.39L1812.9 204.682L1817.39 206.887ZM1800.27 227.156L1797.56 222.953L1797.55 222.96L1797.54 222.967L1800.27 227.156ZM1739.11 216.556L1735.09 219.53L1735.1 219.536L1735.1 219.543L1739.11 216.556ZM1740.63 120.337L1744.68 123.261L1744.69 123.25L1740.63 120.337ZM1793.74 101.699L1792.49 106.538L1792.53 106.55L1792.58 106.561L1793.74 101.699ZM1817.39 116.027L1813.92 119.621L1822.39 127.819V116.027H1817.39ZM1817.39 47.0667V42.0667H1812.39V47.0667H1817.39ZM1851.99 47.0667H1856.99V42.0667H1851.99V47.0667ZM1851.99 231V236H1856.99V231H1851.99ZM1817.39 136.529H1822.39V134.633L1821.13 133.214L1817.39 136.529ZM1769.75 136.063L1765.31 133.766L1765.3 133.773L1765.3 133.781L1769.75 136.063ZM1769.28 196.287L1764.99 198.852L1765.01 198.88L1765.02 198.907L1769.28 196.287ZM1803.41 201.529L1806.3 205.61L1806.31 205.606L1806.31 205.602L1803.41 201.529ZM1817.39 187.201L1821.47 190.097L1822.39 188.796V187.201H1817.39ZM1822.39 231V206.887H1812.39V231H1822.39ZM1812.9 204.682C1808.79 213.045 1803.64 219.034 1797.56 222.953L1802.98 231.359C1810.87 226.27 1817.14 218.746 1821.88 209.092L1812.9 204.682ZM1797.54 222.967C1791.56 226.862 1784.31 228.912 1775.57 228.912V238.912C1785.94 238.912 1795.15 236.458 1803 231.345L1797.54 222.967ZM1775.57 228.912C1761.31 228.912 1750.71 223.75 1743.12 213.569L1735.1 219.543C1744.76 232.503 1758.47 238.912 1775.57 238.912V228.912ZM1743.13 213.581C1735.32 203.028 1731.18 188.833 1731.18 170.543H1721.18C1721.18 190.306 1725.66 206.786 1735.09 219.53L1743.13 213.581ZM1731.18 170.543C1731.18 151.243 1735.79 135.593 1744.68 123.261L1736.57 117.413C1726.2 131.796 1721.18 149.617 1721.18 170.543H1731.18ZM1744.69 123.25C1753.33 111.19 1765.22 105.185 1780.93 105.185V95.1849C1762.16 95.1849 1747.18 102.614 1736.56 117.424L1744.69 123.25ZM1780.93 105.185C1785.23 105.185 1789.07 105.651 1792.49 106.538L1795 96.8601C1790.65 95.7282 1785.95 95.1849 1780.93 95.1849V105.185ZM1792.58 106.561C1796 107.381 1799.29 108.682 1802.47 110.479L1807.39 101.773C1803.42 99.5311 1799.26 97.8808 1794.91 96.8373L1792.58 106.561ZM1802.47 110.479C1805.52 112.202 1809.32 115.179 1813.92 119.621L1820.87 112.433C1815.99 107.711 1811.48 104.088 1807.39 101.773L1802.47 110.479ZM1822.39 116.027V47.0667H1812.39V116.027H1822.39ZM1817.39 52.0667H1851.99V42.0667H1817.39V52.0667ZM1846.99 47.0667V231H1856.99V47.0667H1846.99ZM1851.99 226H1817.39V236H1851.99V226ZM1821.13 133.214C1816.08 127.511 1810.99 123.258 1805.83 120.911L1801.69 130.014C1805.07 131.551 1809.07 134.675 1813.65 139.844L1821.13 133.214ZM1805.83 120.911C1800.95 118.692 1795.9 117.55 1790.72 117.55V127.55C1794.39 127.55 1798.03 128.35 1801.69 130.014L1805.83 120.911ZM1790.72 117.55C1785.22 117.55 1780.17 118.892 1775.78 121.726C1771.4 124.545 1767.95 128.656 1765.31 133.766L1774.19 138.36C1776.21 134.462 1778.58 131.817 1781.19 130.131C1783.79 128.461 1786.9 127.55 1790.72 127.55V117.55ZM1765.3 133.781C1760.29 143.549 1757.88 154.885 1757.88 167.631H1767.88C1767.88 156.147 1770.05 146.438 1774.2 138.345L1765.3 133.781ZM1757.88 167.631C1757.88 180.121 1760.1 190.665 1764.99 198.852L1773.57 193.721C1769.93 187.619 1767.88 179.059 1767.88 167.631H1757.88ZM1765.02 198.907C1770.26 207.421 1778.11 211.887 1788.04 211.887V201.887C1781.66 201.887 1777 199.286 1773.54 193.666L1765.02 198.907ZM1788.04 211.887C1794.46 211.887 1800.57 209.665 1806.3 205.61L1800.52 197.447C1796.16 200.537 1792.02 201.887 1788.04 201.887V211.887ZM1806.31 205.602C1811.96 201.583 1817 196.387 1821.47 190.097L1813.32 184.305C1809.4 189.819 1805.12 194.175 1800.51 197.456L1806.31 205.602ZM1822.39 187.201V136.529H1812.39V187.201H1822.39Z" fill="#DCA413" mask="url(#path-5-outside-3_6006_2)"/>
</svg>
