<svg width="3431" height="234" viewBox="0 0 3431 234" fill="none" xmlns="http://www.w3.org/2000/svg">
<mask id="path-1-outside-1_0_1" maskUnits="userSpaceOnUse" x="-5" y="9" width="516" height="186" fill="black">
<rect fill="white" x="-5" y="9" width="516" height="186"/>
<path d="M0.55013 187V14.599H36.4282V187H0.55013ZM145.693 186.301C137.461 188.708 130.977 189.912 126.24 189.912C114.979 189.912 106.243 188.32 100.03 185.136C93.8175 181.952 89.1581 177.642 86.0517 172.206C82.9454 166.692 81.3922 158.616 81.3922 147.977V80.6472H67.0643V59.0971H81.3922V37.5469L115.872 33.5864V59.0971H143.247V80.6472H115.872V143.434C115.872 152.675 117.503 158.927 120.765 162.188C124.027 165.372 128.803 166.964 135.093 166.964C138.044 166.964 141.577 166.421 145.693 165.333V186.301ZM280.585 182.69C264.199 187.505 248.668 189.912 233.99 189.912C220.09 189.912 207.897 187.349 197.413 182.224C187.007 177.021 178.97 168.944 173.301 157.995C167.709 146.967 164.914 135.008 164.914 122.117C164.914 110.157 167.282 99.1298 172.019 89.0343C176.834 78.8611 183.784 70.8623 192.87 65.0379C202.034 59.1359 213.295 56.1849 226.652 56.1849C243.038 56.1849 256.123 61.388 265.908 71.7942C275.693 82.2004 280.585 101.576 280.585 129.921H201.258C202.034 138.541 203.976 145.336 207.082 150.307C210.266 155.277 214.537 159.237 219.896 162.188C225.254 165.062 232.437 166.498 241.446 166.498C253.017 166.498 266.063 163.819 280.585 158.461V182.69ZM200.792 110.468H246.688C246.688 98.7415 244.707 90.3545 240.747 85.3067C236.864 80.2589 231.816 77.735 225.603 77.735C218.847 77.735 213.295 80.5307 208.946 86.1221C204.597 91.6358 201.879 99.7511 200.792 110.468ZM316.23 187V59.0971H349.313V83.2099C353.662 75.4441 359.369 68.9985 366.436 63.873C373.503 58.7476 382.162 56.1849 392.413 56.1849C398.626 56.1849 404.023 57.1556 408.605 59.0971C413.187 60.9609 417.225 63.9507 420.719 68.0666C424.292 72.1048 426.583 77.1526 427.592 83.2099C433.96 73.5803 440.406 66.6687 446.929 62.4752C453.53 58.2817 461.529 56.1849 470.925 56.1849C481.332 56.1849 489.757 59.2524 496.203 65.3874C502.726 71.4447 505.988 81.2685 505.988 94.8586V187H472.906V106.158C472.906 96.6059 471.353 90.4321 468.246 87.6364C465.218 84.8407 461.801 83.4429 457.995 83.4429C452.792 83.4429 447.628 85.3067 442.503 89.0343C437.455 92.7619 432.485 98.3532 427.592 105.808V187H394.51V106.158C394.51 96.6836 392.995 90.5098 389.967 87.6364C387.016 84.7631 383.444 83.3264 379.25 83.3264C374.202 83.3264 369.154 85.1902 364.107 88.9178C359.137 92.6454 354.205 98.2756 349.313 105.808V187H316.23Z"/>
</mask>
<path d="M0.55013 187V14.599H36.4282V187H0.55013ZM145.693 186.301C137.461 188.708 130.977 189.912 126.24 189.912C114.979 189.912 106.243 188.32 100.03 185.136C93.8175 181.952 89.1581 177.642 86.0517 172.206C82.9454 166.692 81.3922 158.616 81.3922 147.977V80.6472H67.0643V59.0971H81.3922V37.5469L115.872 33.5864V59.0971H143.247V80.6472H115.872V143.434C115.872 152.675 117.503 158.927 120.765 162.188C124.027 165.372 128.803 166.964 135.093 166.964C138.044 166.964 141.577 166.421 145.693 165.333V186.301ZM280.585 182.69C264.199 187.505 248.668 189.912 233.99 189.912C220.09 189.912 207.897 187.349 197.413 182.224C187.007 177.021 178.97 168.944 173.301 157.995C167.709 146.967 164.914 135.008 164.914 122.117C164.914 110.157 167.282 99.1298 172.019 89.0343C176.834 78.8611 183.784 70.8623 192.87 65.0379C202.034 59.1359 213.295 56.1849 226.652 56.1849C243.038 56.1849 256.123 61.388 265.908 71.7942C275.693 82.2004 280.585 101.576 280.585 129.921H201.258C202.034 138.541 203.976 145.336 207.082 150.307C210.266 155.277 214.537 159.237 219.896 162.188C225.254 165.062 232.437 166.498 241.446 166.498C253.017 166.498 266.063 163.819 280.585 158.461V182.69ZM200.792 110.468H246.688C246.688 98.7415 244.707 90.3545 240.747 85.3067C236.864 80.2589 231.816 77.735 225.603 77.735C218.847 77.735 213.295 80.5307 208.946 86.1221C204.597 91.6358 201.879 99.7511 200.792 110.468ZM316.23 187V59.0971H349.313V83.2099C353.662 75.4441 359.369 68.9985 366.436 63.873C373.503 58.7476 382.162 56.1849 392.413 56.1849C398.626 56.1849 404.023 57.1556 408.605 59.0971C413.187 60.9609 417.225 63.9507 420.719 68.0666C424.292 72.1048 426.583 77.1526 427.592 83.2099C433.96 73.5803 440.406 66.6687 446.929 62.4752C453.53 58.2817 461.529 56.1849 470.925 56.1849C481.332 56.1849 489.757 59.2524 496.203 65.3874C502.726 71.4447 505.988 81.2685 505.988 94.8586V187H472.906V106.158C472.906 96.6059 471.353 90.4321 468.246 87.6364C465.218 84.8407 461.801 83.4429 457.995 83.4429C452.792 83.4429 447.628 85.3067 442.503 89.0343C437.455 92.7619 432.485 98.3532 427.592 105.808V187H394.51V106.158C394.51 96.6836 392.995 90.5098 389.967 87.6364C387.016 84.7631 383.444 83.3264 379.25 83.3264C374.202 83.3264 369.154 85.1902 364.107 88.9178C359.137 92.6454 354.205 98.2756 349.313 105.808V187H316.23Z" fill="#DCA413"/>
<path d="M0.55013 187H-4.44987V192H0.55013V187ZM0.55013 14.599V9.59896H-4.44987V14.599H0.55013ZM36.4282 14.599H41.4282V9.59896H36.4282V14.599ZM36.4282 187V192H41.4282V187H36.4282ZM5.55013 187V14.599H-4.44987V187H5.55013ZM0.55013 19.599H36.4282V9.59896H0.55013V19.599ZM31.4282 14.599V187H41.4282V14.599H31.4282ZM36.4282 182H0.55013V192H36.4282V182ZM145.693 186.301L147.097 191.1L150.693 190.048V186.301H145.693ZM100.03 185.136L97.7497 189.586L100.03 185.136ZM86.0517 172.206L81.6955 174.66L81.703 174.674L81.7105 174.687L86.0517 172.206ZM81.3922 80.6472H86.3922V75.6472H81.3922V80.6472ZM67.0643 80.6472H62.0643V85.6472H67.0643V80.6472ZM67.0643 59.0971V54.0971H62.0643V59.0971H67.0643ZM81.3922 59.0971V64.0971H86.3922V59.0971H81.3922ZM81.3922 37.5469L80.8217 32.5796L76.3922 33.0884V37.5469H81.3922ZM115.872 33.5864H120.872V27.9792L115.302 28.619L115.872 33.5864ZM115.872 59.0971H110.872V64.0971H115.872V59.0971ZM143.247 59.0971H148.247V54.0971H143.247V59.0971ZM143.247 80.6472V85.6472H148.247V80.6472H143.247ZM115.872 80.6472V75.6472H110.872V80.6472H115.872ZM120.765 162.188L117.229 165.724L117.251 165.745L117.272 165.766L120.765 162.188ZM145.693 165.333H150.693V158.841L144.416 160.499L145.693 165.333ZM144.29 181.502C136.209 183.865 130.264 184.912 126.24 184.912V194.912C131.69 194.912 138.714 193.552 147.097 191.1L144.29 181.502ZM126.24 184.912C115.339 184.912 107.513 183.353 102.311 180.687L97.7497 189.586C104.973 193.288 114.619 194.912 126.24 194.912V184.912ZM102.311 180.687C96.8586 177.892 92.9637 174.224 90.3929 169.725L81.7105 174.687C85.3525 181.06 90.7765 186.012 97.7497 189.586L102.311 180.687ZM90.408 169.752C87.9201 165.336 86.3922 158.273 86.3922 147.977H76.3922C76.3922 158.959 77.9707 168.049 81.6955 174.66L90.408 169.752ZM86.3922 147.977V80.6472H76.3922V147.977H86.3922ZM81.3922 75.6472H67.0643V85.6472H81.3922V75.6472ZM72.0643 80.6472V59.0971H62.0643V80.6472H72.0643ZM67.0643 64.0971H81.3922V54.0971H67.0643V64.0971ZM86.3922 59.0971V37.5469H76.3922V59.0971H86.3922ZM81.9628 42.5143L116.443 38.5537L115.302 28.619L80.8217 32.5796L81.9628 42.5143ZM110.872 33.5864V59.0971H120.872V33.5864H110.872ZM115.872 64.0971H143.247V54.0971H115.872V64.0971ZM138.247 59.0971V80.6472H148.247V59.0971H138.247ZM143.247 75.6472H115.872V85.6472H143.247V75.6472ZM110.872 80.6472V143.434H120.872V80.6472H110.872ZM110.872 143.434C110.872 152.848 112.447 160.941 117.229 165.724L124.3 158.653C122.56 156.912 120.872 152.503 120.872 143.434H110.872ZM117.272 165.766C121.775 170.162 128.002 171.964 135.093 171.964V161.964C129.603 161.964 126.278 160.582 124.258 158.61L117.272 165.766ZM135.093 171.964C138.619 171.964 142.604 171.321 146.97 170.168L144.416 160.499C140.55 161.52 137.469 161.964 135.093 161.964V171.964ZM140.693 165.333V186.301H150.693V165.333H140.693ZM280.585 182.69L281.995 187.487L285.585 186.432V182.69H280.585ZM197.413 182.224L195.177 186.696L195.197 186.706L195.217 186.716L197.413 182.224ZM173.301 157.995L168.841 160.256L168.851 160.275L168.86 160.294L173.301 157.995ZM172.019 89.0343L167.5 86.8953L167.496 86.9028L167.493 86.9103L172.019 89.0343ZM192.87 65.0379L195.569 69.2473L195.578 69.2415L192.87 65.0379ZM280.585 129.921V134.921H285.585V129.921H280.585ZM201.258 129.921V124.921H195.787L196.278 130.37L201.258 129.921ZM207.082 150.307L202.842 152.957L202.857 152.98L202.872 153.004L207.082 150.307ZM219.896 162.188L217.483 166.568L217.508 166.581L217.533 166.595L219.896 162.188ZM280.585 158.461H285.585V151.286L278.854 153.77L280.585 158.461ZM200.792 110.468L195.817 109.963L195.259 115.468H200.792V110.468ZM246.688 110.468V115.468H251.688V110.468H246.688ZM240.747 85.3067L236.784 88.3552L236.798 88.3742L236.813 88.3931L240.747 85.3067ZM208.946 86.1221L212.872 89.2185L212.882 89.2052L212.892 89.1918L208.946 86.1221ZM279.176 177.893C263.175 182.595 248.12 184.912 233.99 184.912V194.912C249.215 194.912 265.224 192.415 281.995 187.487L279.176 177.893ZM233.99 184.912C220.707 184.912 209.291 182.465 199.61 177.732L195.217 186.716C206.504 192.234 219.473 194.912 233.99 194.912V184.912ZM199.65 177.752C190.248 173.051 182.954 165.766 177.741 155.696L168.86 160.294C174.985 172.123 183.767 180.991 195.177 186.696L199.65 177.752ZM177.76 155.734C172.539 145.437 169.914 134.257 169.914 122.117H159.914C159.914 135.759 162.879 148.497 168.841 160.256L177.76 155.734ZM169.914 122.117C169.914 110.837 172.143 100.542 176.546 91.1582L167.493 86.9103C162.422 97.7178 159.914 109.477 159.914 122.117H169.914ZM176.539 91.1732C180.971 81.8091 187.307 74.5436 195.569 69.2473L190.172 60.8285C180.262 67.181 172.698 75.913 167.5 86.8953L176.539 91.1732ZM195.578 69.2415C203.769 63.9658 214.037 61.1849 226.652 61.1849V51.1849C212.552 51.1849 200.299 54.306 190.163 60.8343L195.578 69.2415ZM226.652 61.1849C241.881 61.1849 253.568 65.9694 262.265 75.2193L269.551 68.369C258.678 56.8066 244.195 51.1849 226.652 51.1849V61.1849ZM262.265 75.2193C270.646 84.1322 275.585 101.767 275.585 129.921H285.585C285.585 101.385 280.74 80.2685 269.551 68.369L262.265 75.2193ZM280.585 124.921H201.258V134.921H280.585V124.921ZM196.278 130.37C197.094 139.428 199.169 147.08 202.842 152.957L211.322 147.657C208.782 143.593 206.975 137.655 206.237 129.473L196.278 130.37ZM202.872 153.004C206.522 158.702 211.422 163.23 217.483 166.568L222.308 157.808C217.652 155.244 214.01 151.851 211.292 147.609L202.872 153.004ZM217.533 166.595C223.884 170.001 231.98 171.498 241.446 171.498V161.498C232.895 161.498 226.624 160.123 222.258 157.782L217.533 166.595ZM241.446 171.498C253.769 171.498 267.416 168.65 282.316 163.151L278.854 153.77C264.711 158.989 252.264 161.498 241.446 161.498V171.498ZM275.585 158.461V182.69H285.585V158.461H275.585ZM200.792 115.468H246.688V105.468H200.792V115.468ZM251.688 110.468C251.688 98.4356 249.706 88.6253 244.68 82.2202L236.813 88.3931C239.709 92.0836 241.688 99.0475 241.688 110.468H251.688ZM244.71 82.2581C239.908 76.0161 233.413 72.735 225.603 72.735V82.735C230.219 82.735 233.819 84.5017 236.784 88.3552L244.71 82.2581ZM225.603 72.735C217.219 72.735 210.242 76.3116 204.999 83.0524L212.892 89.1918C216.347 84.7498 220.475 82.735 225.603 82.735V72.735ZM205.02 83.0257C199.847 89.5848 196.953 98.768 195.817 109.963L205.766 110.973C206.805 100.734 209.347 93.6869 212.872 89.2185L205.02 83.0257ZM316.23 187H311.23V192H316.23V187ZM316.23 59.0971V54.0971H311.23V59.0971H316.23ZM349.313 59.0971H354.313V54.0971H349.313V59.0971ZM349.313 83.2099H344.313V102.372L353.675 85.6529L349.313 83.2099ZM408.605 59.0971L406.654 63.7008L406.687 63.7149L406.721 63.7285L408.605 59.0971ZM420.719 68.0666L416.908 71.3027L416.941 71.3414L416.974 71.3794L420.719 68.0666ZM427.592 83.2099L422.66 84.0319L424.75 96.5721L431.763 85.9679L427.592 83.2099ZM446.929 62.4752L444.248 58.2548L444.237 58.262L444.225 58.2693L446.929 62.4752ZM496.203 65.3874L492.756 69.0091L492.778 69.0304L492.801 69.0513L496.203 65.3874ZM505.988 187V192H510.988V187H505.988ZM472.906 187H467.906V192H472.906V187ZM468.246 87.6364L464.855 91.3104L464.878 91.3318L464.901 91.3529L468.246 87.6364ZM442.503 89.0343L439.562 84.9906L439.547 85.0013L439.532 85.0121L442.503 89.0343ZM427.592 105.808L423.412 103.065L422.592 104.314V105.808H427.592ZM427.592 187V192H432.592V187H427.592ZM394.51 187H389.51V192H394.51V187ZM389.967 87.6364L386.479 91.2188L386.502 91.2414L386.525 91.2637L389.967 87.6364ZM364.107 88.9178L361.136 84.8956L361.121 84.9066L361.107 84.9178L364.107 88.9178ZM349.313 105.808L345.12 103.085L344.313 104.327V105.808H349.313ZM349.313 187V192H354.313V187H349.313ZM321.23 187V59.0971H311.23V187H321.23ZM316.23 64.0971H349.313V54.0971H316.23V64.0971ZM344.313 59.0971V83.2099H354.313V59.0971H344.313ZM353.675 85.6529C357.677 78.5062 362.903 72.6123 369.372 67.9206L363.501 59.8255C355.836 65.3846 349.646 72.382 344.95 80.7669L353.675 85.6529ZM369.372 67.9206C375.444 63.5169 383.027 61.1849 392.413 61.1849V51.1849C381.297 51.1849 371.563 53.9783 363.501 59.8255L369.372 67.9206ZM392.413 61.1849C398.117 61.1849 402.822 62.0771 406.654 63.7008L410.555 54.4933C405.224 52.2341 399.135 51.1849 392.413 51.1849V61.1849ZM406.721 63.7285C410.49 65.262 413.885 67.7429 416.908 71.3027L424.531 64.8304C420.564 60.1584 415.883 56.6597 410.489 54.4656L406.721 63.7285ZM416.974 71.3794C419.842 74.6214 421.783 78.768 422.66 84.0319L432.524 82.3879C431.382 75.5371 428.741 69.5882 424.464 64.7537L416.974 71.3794ZM431.763 85.9679C437.918 76.6596 443.907 70.3618 449.633 66.6811L444.225 58.2693C436.904 62.9757 430.002 70.501 423.422 80.452L431.763 85.9679ZM449.61 66.6955C455.261 63.1058 462.285 61.1849 470.925 61.1849V51.1849C460.772 51.1849 451.799 53.4575 444.248 58.2548L449.61 66.6955ZM470.925 61.1849C480.281 61.1849 487.396 63.9074 492.756 69.0091L499.65 61.7656C492.119 54.5974 482.382 51.1849 470.925 51.1849V61.1849ZM492.801 69.0513C497.873 73.7612 500.988 81.932 500.988 94.8586H510.988C510.988 80.6049 507.58 69.1282 499.605 61.7234L492.801 69.0513ZM500.988 94.8586V187H510.988V94.8586H500.988ZM505.988 182H472.906V192H505.988V182ZM477.906 187V106.158H467.906V187H477.906ZM477.906 106.158C477.906 101.154 477.503 96.7748 476.59 93.1437C475.689 89.5641 474.175 86.2457 471.591 83.92L464.901 91.3529C465.423 91.8228 466.239 92.9892 466.892 95.5834C467.532 98.1262 467.906 101.61 467.906 106.158H477.906ZM471.638 83.9624C467.769 80.3914 463.167 78.4429 457.995 78.4429V88.4429C460.434 88.4429 462.666 89.29 464.855 91.3104L471.638 83.9624ZM457.995 78.4429C451.523 78.4429 445.352 80.7797 439.562 84.9906L445.443 93.078C449.904 89.8337 454.062 88.4429 457.995 88.4429V78.4429ZM439.532 85.0121C433.854 89.2053 428.503 95.3068 423.412 103.065L431.772 108.552C436.466 101.4 441.055 96.3185 445.473 93.0564L439.532 85.0121ZM422.592 105.808V187H432.592V105.808H422.592ZM427.592 182H394.51V192H427.592V182ZM399.51 187V106.158H389.51V187H399.51ZM399.51 106.158C399.51 101.195 399.117 96.8473 398.23 93.2307C397.356 89.6651 395.892 86.3658 393.408 84.0091L386.525 91.2637C387.07 91.7804 387.878 93.0047 388.518 95.6129C389.145 98.1701 389.51 101.647 389.51 106.158H399.51ZM393.455 84.0541C389.552 80.2535 384.72 78.3264 379.25 78.3264V88.3264C382.167 88.3264 384.48 89.2727 386.479 91.2188L393.455 84.0541ZM379.25 78.3264C372.896 78.3264 366.832 80.6896 361.136 84.8956L367.077 92.94C371.477 89.6908 375.508 88.3264 379.25 88.3264V78.3264ZM361.107 84.9178C355.508 89.1169 350.202 95.2602 345.12 103.085L353.506 108.532C358.209 101.291 362.765 96.1738 367.107 92.9178L361.107 84.9178ZM344.313 105.808V187H354.313V105.808H344.313ZM349.313 182H316.23V192H349.313V182Z" fill="#1B1B1B" mask="url(#path-1-outside-1_0_1)"/>
<mask id="path-3-outside-2_0_1" maskUnits="userSpaceOnUse" x="1933" y="-5" width="1506" height="244" fill="black">
<rect fill="white" x="1933" y="-5" width="1506" height="244"/>
<path d="M1938.88 185.486V155.898C1952.16 161.489 1962.06 164.829 1968.59 165.916C1975.19 167.003 1981.24 167.547 1986.76 167.547C1996.7 167.547 2004.11 165.295 2009.01 160.79C2013.9 156.286 2016.35 150.889 2016.35 144.599C2016.35 139.784 2015.03 135.435 2012.39 131.552C2009.74 127.747 2003.07 122.816 1992.35 116.758L1980.82 110.351C1964.35 101.11 1953.21 92.5677 1947.39 84.7242C1941.48 76.8808 1938.53 67.7948 1938.53 57.4662C1938.53 44.4973 1943.42 33.3922 1953.21 24.1509C1963.07 14.9096 1977.21 10.2889 1995.61 10.2889C2009.36 10.2889 2024.85 12.2692 2042.09 16.2298V43.8372C2024.54 37.2363 2010.6 33.9358 2000.27 33.9358C1991.73 33.9358 1985.2 35.8385 1980.7 39.6437C1976.27 43.3713 1974.06 47.8755 1974.06 53.1562C1974.06 57.1944 1975.38 60.9609 1978.02 64.4555C1980.58 67.9501 1987.22 72.7261 1997.94 78.7834L2010.29 85.6561C2029.16 96.2953 2041.2 105.537 2046.4 113.38C2051.52 121.301 2054.09 130.193 2054.09 140.056C2054.09 154.189 2048.73 166.265 2038.01 176.283C2027.37 186.301 2010.4 191.31 1987.11 191.31C1973.28 191.31 1957.21 189.369 1938.88 185.486ZM2163.93 187V162.887C2157.8 172.672 2150.97 179.622 2143.43 183.738C2135.9 187.854 2128.21 189.912 2120.37 189.912C2110.27 189.912 2101.58 186.689 2094.28 180.244C2087.05 173.72 2083.44 163.47 2083.44 149.491V59.0971H2117.92V140.988C2117.92 147.977 2118.54 152.714 2119.79 155.199C2121.11 157.684 2122.85 159.587 2125.03 160.907C2127.28 162.149 2129.77 162.771 2132.48 162.771C2137.22 162.771 2142.15 161.218 2147.28 158.111C2152.4 154.927 2157.96 148.753 2163.93 139.59V59.0971H2198.42V187H2163.93ZM2335.99 184.204C2321.7 188.01 2308.38 189.912 2296.03 189.912C2274.13 189.912 2257.67 183.467 2246.64 170.575C2235.61 157.606 2230.1 141.725 2230.1 122.932C2230.1 103.207 2235.92 87.1705 2247.57 74.8228C2259.22 62.3975 2276.35 56.1849 2298.94 56.1849C2309.35 56.1849 2321.35 57.8545 2334.94 61.1938V86.1221C2320.8 81.5403 2309.54 79.2493 2301.16 79.2493C2289.2 79.2493 2280.46 83.7923 2274.95 92.8784C2269.43 101.887 2266.68 111.827 2266.68 122.699C2266.68 131.086 2268.27 138.93 2271.45 146.229C2274.64 153.452 2279.06 158.732 2284.73 162.072C2290.48 165.411 2296.92 167.081 2304.07 167.081C2314.4 167.081 2325.04 164.829 2335.99 160.324V184.204ZM2462.96 184.204C2448.67 188.01 2435.35 189.912 2423 189.912C2401.1 189.912 2384.64 183.467 2373.61 170.575C2362.58 157.606 2357.07 141.725 2357.07 122.932C2357.07 103.207 2362.9 87.1705 2374.54 74.8228C2386.19 62.3975 2403.32 56.1849 2425.91 56.1849C2436.32 56.1849 2448.32 57.8545 2461.91 61.1938V86.1221C2447.78 81.5403 2436.51 79.2493 2428.13 79.2493C2416.17 79.2493 2407.43 83.7923 2401.92 92.8784C2396.4 101.887 2393.65 111.827 2393.65 122.699C2393.65 131.086 2395.24 138.93 2398.42 146.229C2401.61 153.452 2406.03 158.732 2411.7 162.072C2417.45 165.411 2423.9 167.081 2431.04 167.081C2441.37 167.081 2452.01 164.829 2462.96 160.324V184.204ZM2599.71 182.69C2583.33 187.505 2567.8 189.912 2553.12 189.912C2539.22 189.912 2527.03 187.349 2516.54 182.224C2506.14 177.021 2498.1 168.944 2492.43 157.995C2486.84 146.967 2484.04 135.008 2484.04 122.117C2484.04 110.157 2486.41 99.1298 2491.15 89.0343C2495.96 78.8611 2502.91 70.8623 2512 65.0379C2521.16 59.1359 2532.42 56.1849 2545.78 56.1849C2562.17 56.1849 2575.25 61.388 2585.04 71.7942C2594.82 82.2004 2599.71 101.576 2599.71 129.921H2520.39C2521.16 138.541 2523.1 145.336 2526.21 150.307C2529.39 155.277 2533.67 159.237 2539.02 162.188C2544.38 165.062 2551.57 166.498 2560.57 166.498C2572.14 166.498 2585.19 163.819 2599.71 158.461V182.69ZM2519.92 110.468H2565.82C2565.82 98.7415 2563.84 90.3545 2559.87 85.3067C2555.99 80.2589 2550.94 77.735 2544.73 77.735C2537.98 77.735 2532.42 80.5307 2528.07 86.1221C2523.73 91.6358 2521.01 99.7511 2519.92 110.468ZM2631.98 182.923V157.645C2649.07 164.79 2663.66 168.362 2675.78 168.362C2682.23 168.362 2687.35 167.003 2691.16 164.285C2695.04 161.567 2696.98 158.111 2696.98 153.918C2696.98 150.268 2695.54 147.2 2692.67 144.715C2689.8 142.308 2685.41 139.939 2679.51 137.609L2667.86 132.95C2655.82 128.135 2646.93 122.816 2641.18 116.991C2635.44 111.244 2632.56 103.75 2632.56 94.5092C2632.56 83.4041 2636.87 74.2404 2645.49 67.0182C2654.19 59.796 2667.43 56.1849 2685.22 56.1849C2695.62 56.1849 2708.01 57.6992 2722.37 60.7279V84.9572C2708.55 80.1424 2697.1 77.735 2688.01 77.735C2680.87 77.735 2675.51 78.9775 2671.94 81.4626C2668.36 83.87 2666.58 87.0152 2666.58 90.8981C2666.58 93.9267 2667.74 96.6059 2670.07 98.9357C2672.32 101.265 2676.44 103.556 2682.42 105.808L2692.44 109.653C2708.98 115.943 2719.81 122.039 2724.94 127.941C2729.99 133.921 2732.51 141.065 2732.51 149.375C2732.51 160.169 2727.85 169.643 2718.53 177.798C2709.29 185.874 2695.82 189.912 2678.11 189.912C2663.04 189.912 2647.67 187.582 2631.98 182.923ZM2766.87 182.923V157.645C2783.96 164.79 2798.56 168.362 2810.67 168.362C2817.12 168.362 2822.24 167.003 2826.05 164.285C2829.93 161.567 2831.87 158.111 2831.87 153.918C2831.87 150.268 2830.44 147.2 2827.56 144.715C2824.69 142.308 2820.3 139.939 2814.4 137.609L2802.75 132.95C2790.71 128.135 2781.82 122.816 2776.08 116.991C2770.33 111.244 2767.46 103.75 2767.46 94.5092C2767.46 83.4041 2771.77 74.2404 2780.39 67.0182C2789.08 59.796 2802.32 56.1849 2820.11 56.1849C2830.51 56.1849 2842.9 57.6992 2857.27 60.7279V84.9572C2843.44 80.1424 2831.99 77.735 2822.9 77.735C2815.76 77.735 2810.4 78.9775 2806.83 81.4626C2803.26 83.87 2801.47 87.0152 2801.47 90.8981C2801.47 93.9267 2802.63 96.6059 2804.96 98.9357C2807.22 101.265 2811.33 103.556 2817.31 105.808L2827.33 109.653C2843.87 115.943 2854.7 122.039 2859.83 127.941C2864.88 133.921 2867.4 141.065 2867.4 149.375C2867.4 160.169 2862.74 169.643 2853.42 177.798C2844.18 185.874 2830.71 189.912 2813 189.912C2797.94 189.912 2782.56 187.582 2766.87 182.923ZM2908.75 187V80.6472H2891.16V59.0971H2908.75V49.8946C2908.75 32.0332 2912.83 19.2973 2920.99 11.6868C2929.22 3.99862 2940.87 0.154547 2955.93 0.154547C2966.1 0.154547 2976.59 1.63005 2987.38 4.58106V27.8785C2977.6 23.7626 2968.82 21.7047 2961.06 21.7047C2957.41 21.7047 2954.26 22.4424 2951.62 23.9179C2949.06 25.3158 2947 27.7232 2945.45 31.1401C2943.97 34.4794 2943.23 40.3038 2943.23 48.6132V59.0971H2975.62V80.6472H2943.23V187H2908.75ZM3083.25 187V162.887C3077.12 172.672 3070.28 179.622 3062.75 183.738C3055.22 187.854 3047.53 189.912 3039.69 189.912C3029.59 189.912 3020.89 186.689 3013.59 180.244C3006.37 173.72 3002.76 163.47 3002.76 149.491V59.0971H3037.24V140.988C3037.24 147.977 3037.86 152.714 3039.1 155.199C3040.42 157.684 3042.17 159.587 3044.35 160.907C3046.6 162.149 3049.08 162.771 3051.8 162.771C3056.54 162.771 3061.47 161.218 3066.59 158.111C3071.72 154.927 3077.27 148.753 3083.25 139.59V59.0971H3117.73V187H3083.25ZM3160.95 187V3.06673H3195.43V187H3160.95ZM3238.53 187V3.06673H3273.01V187H3238.53ZM3316.58 233.012L3345.58 187L3298.17 59.0971H3335.21L3366.9 144.599L3404.52 59.0971H3430.73L3351.75 233.012H3316.58Z"/>
</mask>
<path d="M1938.88 185.486V155.898C1952.16 161.489 1962.06 164.829 1968.59 165.916C1975.19 167.003 1981.24 167.547 1986.76 167.547C1996.7 167.547 2004.11 165.295 2009.01 160.79C2013.9 156.286 2016.35 150.889 2016.35 144.599C2016.35 139.784 2015.03 135.435 2012.39 131.552C2009.74 127.747 2003.07 122.816 1992.35 116.758L1980.82 110.351C1964.35 101.11 1953.21 92.5677 1947.39 84.7242C1941.48 76.8808 1938.53 67.7948 1938.53 57.4662C1938.53 44.4973 1943.42 33.3922 1953.21 24.1509C1963.07 14.9096 1977.21 10.2889 1995.61 10.2889C2009.36 10.2889 2024.85 12.2692 2042.09 16.2298V43.8372C2024.54 37.2363 2010.6 33.9358 2000.27 33.9358C1991.73 33.9358 1985.2 35.8385 1980.7 39.6437C1976.27 43.3713 1974.06 47.8755 1974.06 53.1562C1974.06 57.1944 1975.38 60.9609 1978.02 64.4555C1980.58 67.9501 1987.22 72.7261 1997.94 78.7834L2010.29 85.6561C2029.16 96.2953 2041.2 105.537 2046.4 113.38C2051.52 121.301 2054.09 130.193 2054.09 140.056C2054.09 154.189 2048.73 166.265 2038.01 176.283C2027.37 186.301 2010.4 191.31 1987.11 191.31C1973.28 191.31 1957.21 189.369 1938.88 185.486ZM2163.93 187V162.887C2157.8 172.672 2150.97 179.622 2143.43 183.738C2135.9 187.854 2128.21 189.912 2120.37 189.912C2110.27 189.912 2101.58 186.689 2094.28 180.244C2087.05 173.72 2083.44 163.47 2083.44 149.491V59.0971H2117.92V140.988C2117.92 147.977 2118.54 152.714 2119.79 155.199C2121.11 157.684 2122.85 159.587 2125.03 160.907C2127.28 162.149 2129.77 162.771 2132.48 162.771C2137.22 162.771 2142.15 161.218 2147.28 158.111C2152.4 154.927 2157.96 148.753 2163.93 139.59V59.0971H2198.42V187H2163.93ZM2335.99 184.204C2321.7 188.01 2308.38 189.912 2296.03 189.912C2274.13 189.912 2257.67 183.467 2246.64 170.575C2235.61 157.606 2230.1 141.725 2230.1 122.932C2230.1 103.207 2235.92 87.1705 2247.57 74.8228C2259.22 62.3975 2276.35 56.1849 2298.94 56.1849C2309.35 56.1849 2321.35 57.8545 2334.94 61.1938V86.1221C2320.8 81.5403 2309.54 79.2493 2301.16 79.2493C2289.2 79.2493 2280.46 83.7923 2274.95 92.8784C2269.43 101.887 2266.68 111.827 2266.68 122.699C2266.68 131.086 2268.27 138.93 2271.45 146.229C2274.64 153.452 2279.06 158.732 2284.73 162.072C2290.48 165.411 2296.92 167.081 2304.07 167.081C2314.4 167.081 2325.04 164.829 2335.99 160.324V184.204ZM2462.96 184.204C2448.67 188.01 2435.35 189.912 2423 189.912C2401.1 189.912 2384.64 183.467 2373.61 170.575C2362.58 157.606 2357.07 141.725 2357.07 122.932C2357.07 103.207 2362.9 87.1705 2374.54 74.8228C2386.19 62.3975 2403.32 56.1849 2425.91 56.1849C2436.32 56.1849 2448.32 57.8545 2461.91 61.1938V86.1221C2447.78 81.5403 2436.51 79.2493 2428.13 79.2493C2416.17 79.2493 2407.43 83.7923 2401.92 92.8784C2396.4 101.887 2393.65 111.827 2393.65 122.699C2393.65 131.086 2395.24 138.93 2398.42 146.229C2401.61 153.452 2406.03 158.732 2411.7 162.072C2417.45 165.411 2423.9 167.081 2431.04 167.081C2441.37 167.081 2452.01 164.829 2462.96 160.324V184.204ZM2599.71 182.69C2583.33 187.505 2567.8 189.912 2553.12 189.912C2539.22 189.912 2527.03 187.349 2516.54 182.224C2506.14 177.021 2498.1 168.944 2492.43 157.995C2486.84 146.967 2484.04 135.008 2484.04 122.117C2484.04 110.157 2486.41 99.1298 2491.15 89.0343C2495.96 78.8611 2502.91 70.8623 2512 65.0379C2521.16 59.1359 2532.42 56.1849 2545.78 56.1849C2562.17 56.1849 2575.25 61.388 2585.04 71.7942C2594.82 82.2004 2599.71 101.576 2599.71 129.921H2520.39C2521.16 138.541 2523.1 145.336 2526.21 150.307C2529.39 155.277 2533.67 159.237 2539.02 162.188C2544.38 165.062 2551.57 166.498 2560.57 166.498C2572.14 166.498 2585.19 163.819 2599.71 158.461V182.69ZM2519.92 110.468H2565.82C2565.82 98.7415 2563.84 90.3545 2559.87 85.3067C2555.99 80.2589 2550.94 77.735 2544.73 77.735C2537.98 77.735 2532.42 80.5307 2528.07 86.1221C2523.73 91.6358 2521.01 99.7511 2519.92 110.468ZM2631.98 182.923V157.645C2649.07 164.79 2663.66 168.362 2675.78 168.362C2682.23 168.362 2687.35 167.003 2691.16 164.285C2695.04 161.567 2696.98 158.111 2696.98 153.918C2696.98 150.268 2695.54 147.2 2692.67 144.715C2689.8 142.308 2685.41 139.939 2679.51 137.609L2667.86 132.95C2655.82 128.135 2646.93 122.816 2641.18 116.991C2635.44 111.244 2632.56 103.75 2632.56 94.5092C2632.56 83.4041 2636.87 74.2404 2645.49 67.0182C2654.19 59.796 2667.43 56.1849 2685.22 56.1849C2695.62 56.1849 2708.01 57.6992 2722.37 60.7279V84.9572C2708.55 80.1424 2697.1 77.735 2688.01 77.735C2680.87 77.735 2675.51 78.9775 2671.94 81.4626C2668.36 83.87 2666.58 87.0152 2666.58 90.8981C2666.58 93.9267 2667.74 96.6059 2670.07 98.9357C2672.32 101.265 2676.44 103.556 2682.42 105.808L2692.44 109.653C2708.98 115.943 2719.81 122.039 2724.94 127.941C2729.99 133.921 2732.51 141.065 2732.51 149.375C2732.51 160.169 2727.85 169.643 2718.53 177.798C2709.29 185.874 2695.82 189.912 2678.11 189.912C2663.04 189.912 2647.67 187.582 2631.98 182.923ZM2766.87 182.923V157.645C2783.96 164.79 2798.56 168.362 2810.67 168.362C2817.12 168.362 2822.24 167.003 2826.05 164.285C2829.93 161.567 2831.87 158.111 2831.87 153.918C2831.87 150.268 2830.44 147.2 2827.56 144.715C2824.69 142.308 2820.3 139.939 2814.4 137.609L2802.75 132.95C2790.71 128.135 2781.82 122.816 2776.08 116.991C2770.33 111.244 2767.46 103.75 2767.46 94.5092C2767.46 83.4041 2771.77 74.2404 2780.39 67.0182C2789.08 59.796 2802.32 56.1849 2820.11 56.1849C2830.51 56.1849 2842.9 57.6992 2857.27 60.7279V84.9572C2843.44 80.1424 2831.99 77.735 2822.9 77.735C2815.76 77.735 2810.4 78.9775 2806.83 81.4626C2803.26 83.87 2801.47 87.0152 2801.47 90.8981C2801.47 93.9267 2802.63 96.6059 2804.96 98.9357C2807.22 101.265 2811.33 103.556 2817.31 105.808L2827.33 109.653C2843.87 115.943 2854.7 122.039 2859.83 127.941C2864.88 133.921 2867.4 141.065 2867.4 149.375C2867.4 160.169 2862.74 169.643 2853.42 177.798C2844.18 185.874 2830.71 189.912 2813 189.912C2797.94 189.912 2782.56 187.582 2766.87 182.923ZM2908.75 187V80.6472H2891.16V59.0971H2908.75V49.8946C2908.75 32.0332 2912.83 19.2973 2920.99 11.6868C2929.22 3.99862 2940.87 0.154547 2955.93 0.154547C2966.1 0.154547 2976.59 1.63005 2987.38 4.58106V27.8785C2977.6 23.7626 2968.82 21.7047 2961.06 21.7047C2957.41 21.7047 2954.26 22.4424 2951.62 23.9179C2949.06 25.3158 2947 27.7232 2945.45 31.1401C2943.97 34.4794 2943.23 40.3038 2943.23 48.6132V59.0971H2975.62V80.6472H2943.23V187H2908.75ZM3083.25 187V162.887C3077.12 172.672 3070.28 179.622 3062.75 183.738C3055.22 187.854 3047.53 189.912 3039.69 189.912C3029.59 189.912 3020.89 186.689 3013.59 180.244C3006.37 173.72 3002.76 163.47 3002.76 149.491V59.0971H3037.24V140.988C3037.24 147.977 3037.86 152.714 3039.1 155.199C3040.42 157.684 3042.17 159.587 3044.35 160.907C3046.6 162.149 3049.08 162.771 3051.8 162.771C3056.54 162.771 3061.47 161.218 3066.59 158.111C3071.72 154.927 3077.27 148.753 3083.25 139.59V59.0971H3117.73V187H3083.25ZM3160.95 187V3.06673H3195.43V187H3160.95ZM3238.53 187V3.06673H3273.01V187H3238.53ZM3316.58 233.012L3345.58 187L3298.17 59.0971H3335.21L3366.9 144.599L3404.52 59.0971H3430.73L3351.75 233.012H3316.58Z" fill="#DCA413"/>
<path d="M1938.88 185.486H1933.88V189.537L1937.85 190.377L1938.88 185.486ZM1938.88 155.898L1940.82 151.29L1933.88 148.368V155.898H1938.88ZM1968.59 165.916L1967.76 170.848L1967.77 170.849L1968.59 165.916ZM2012.39 131.552L2016.52 128.741L2016.51 128.721L2016.49 128.702L2012.39 131.552ZM1992.35 116.758L1994.81 112.405L1994.79 112.396L1994.78 112.387L1992.35 116.758ZM1980.82 110.351L1978.37 114.712L1978.38 114.717L1978.39 114.722L1980.82 110.351ZM1947.39 84.7242L1951.4 81.7434L1951.39 81.7306L1951.38 81.7179L1947.39 84.7242ZM1953.21 24.1509L1949.79 20.5023L1949.78 20.5091L1949.78 20.5158L1953.21 24.1509ZM2042.09 16.2298H2047.09V12.2482L2043.21 11.3567L2042.09 16.2298ZM2042.09 43.8372L2040.33 48.5172L2047.09 51.0597V43.8372H2042.09ZM1980.7 39.6437L1983.92 43.4683L1983.93 43.4631L1980.7 39.6437ZM1978.02 64.4555L1982.05 61.4987L1982.03 61.4698L1982.01 61.4413L1978.02 64.4555ZM1997.94 78.7834L1995.48 83.1362L1995.49 83.1443L1995.51 83.1522L1997.94 78.7834ZM2010.29 85.6561L2012.74 81.3007L2012.73 81.294L2012.72 81.2873L2010.29 85.6561ZM2046.4 113.38L2050.6 110.664L2050.58 110.64L2050.57 110.616L2046.4 113.38ZM2038.01 176.283L2034.6 172.631L2034.59 172.637L2034.58 172.643L2038.01 176.283ZM1943.88 185.486V155.898H1933.88V185.486H1943.88ZM1936.94 160.506C1950.26 166.115 1960.62 169.658 1967.76 170.848L1969.41 160.984C1963.5 160 1954.06 156.864 1940.82 151.29L1936.94 160.506ZM1967.77 170.849C1974.59 171.972 1980.92 172.547 1986.76 172.547V162.547C1981.57 162.547 1975.79 162.034 1969.4 160.982L1967.77 170.849ZM1986.76 172.547C1997.35 172.547 2006.21 170.16 2012.39 164.469L2005.62 157.112C2002.02 160.429 1996.05 162.547 1986.76 162.547V172.547ZM2012.39 164.469C2018.25 159.079 2021.35 152.374 2021.35 144.599H2011.35C2011.35 149.404 2009.55 153.493 2005.62 157.112L2012.39 164.469ZM2021.35 144.599C2021.35 138.808 2019.74 133.475 2016.52 128.741L2008.25 134.364C2010.31 137.395 2011.35 140.76 2011.35 144.599H2021.35ZM2016.49 128.702C2014.71 126.125 2011.85 123.554 2008.37 120.977C2004.81 118.349 2000.27 115.491 1994.81 112.405L1989.89 121.111C1995.15 124.083 1999.31 126.719 2002.43 129.022C2005.62 131.377 2007.42 133.174 2008.28 134.403L2016.49 128.702ZM1994.78 112.387L1983.25 105.981L1978.39 114.722L1989.92 121.129L1994.78 112.387ZM1983.26 105.991C1966.95 96.8326 1956.57 88.7102 1951.4 81.7434L1943.37 87.7051C1949.85 96.4252 1961.76 105.388 1978.37 114.712L1983.26 105.991ZM1951.38 81.7179C1946.17 74.7882 1943.53 66.7707 1943.53 57.4662H1933.53C1933.53 68.8188 1936.8 78.9733 1943.39 87.7306L1951.38 81.7179ZM1943.53 57.4662C1943.53 45.9305 1947.82 36.123 1956.64 27.786L1949.78 20.5158C1939.03 30.6615 1933.53 43.0642 1933.53 57.4662H1943.53ZM1956.63 27.7995C1965.27 19.7 1978.01 15.2889 1995.61 15.2889V5.28893C1976.4 5.28893 1960.87 10.1192 1949.79 20.5023L1956.63 27.7995ZM1995.61 15.2889C2008.89 15.2889 2024 17.2039 2040.97 21.1028L2043.21 11.3567C2025.7 7.3345 2009.82 5.28893 1995.61 5.28893V15.2889ZM2037.09 16.2298V43.8372H2047.09V16.2298H2037.09ZM2043.85 39.1573C2026.12 32.4883 2011.5 28.9358 2000.27 28.9358V38.9358C2009.69 38.9358 2022.96 41.9843 2040.33 48.5172L2043.85 39.1573ZM2000.27 28.9358C1991.07 28.9358 1983.21 30.9783 1977.47 35.8243L1983.93 43.4631C1987.2 40.6986 1992.39 38.9358 2000.27 38.9358V28.9358ZM1977.48 35.8191C1972.05 40.3937 1969.06 46.2477 1969.06 53.1562H1979.06C1979.06 49.5032 1980.5 46.3489 1983.92 43.4683L1977.48 35.8191ZM1969.06 53.1562C1969.06 58.3761 1970.79 63.1849 1974.03 67.4696L1982.01 61.4413C1979.97 58.7368 1979.06 56.0128 1979.06 53.1562H1969.06ZM1973.99 67.4123C1975.75 69.8074 1978.56 72.244 1982 74.7174C1985.52 77.2502 1990.03 80.0579 1995.48 83.1362L2000.4 74.4306C1995.13 71.4516 1990.96 68.8426 1987.84 66.5994C1984.64 64.2968 1982.86 62.5982 1982.05 61.4987L1973.99 67.4123ZM1995.51 83.1522L2007.86 90.025L2012.72 81.2873L2000.37 74.4146L1995.51 83.1522ZM2007.83 90.0116C2026.69 100.643 2037.75 109.392 2042.23 116.144L2050.57 110.616C2044.64 101.682 2031.63 91.9476 2012.74 81.3007L2007.83 90.0116ZM2042.2 116.096C2046.78 123.171 2049.09 131.111 2049.09 140.056H2059.09C2059.09 129.275 2056.27 119.432 2050.6 110.664L2042.2 116.096ZM2049.09 140.056C2049.09 152.747 2044.35 163.518 2034.6 172.631L2041.43 179.936C2053.11 169.013 2059.09 155.632 2059.09 140.056H2049.09ZM2034.58 172.643C2025.29 181.393 2009.85 186.31 1987.11 186.31V196.31C2010.96 196.31 2029.45 191.209 2041.44 179.923L2034.58 172.643ZM1987.11 186.31C1973.73 186.31 1958.02 184.429 1939.92 180.594L1937.85 190.377C1956.4 194.309 1972.84 196.31 1987.11 196.31V186.31ZM2163.93 187H2158.93V192H2163.93V187ZM2163.93 162.887H2168.93V145.5L2159.7 160.231L2163.93 162.887ZM2094.28 180.244L2090.92 183.954L2090.95 183.973L2090.97 183.992L2094.28 180.244ZM2083.44 59.0971V54.0971H2078.44V59.0971H2083.44ZM2117.92 59.0971H2122.92V54.0971H2117.92V59.0971ZM2119.79 155.199L2115.31 157.435L2115.34 157.49L2115.37 157.545L2119.79 155.199ZM2125.03 160.907L2122.43 165.181L2122.52 165.235L2122.61 165.285L2125.03 160.907ZM2147.28 158.111L2149.87 162.387L2149.89 162.373L2149.92 162.358L2147.28 158.111ZM2163.93 139.59L2168.12 142.322L2168.93 141.077V139.59H2163.93ZM2163.93 59.0971V54.0971H2158.93V59.0971H2163.93ZM2198.42 59.0971H2203.42V54.0971H2198.42V59.0971ZM2198.42 187V192H2203.42V187H2198.42ZM2168.93 187V162.887H2158.93V187H2168.93ZM2159.7 160.231C2153.87 169.532 2147.6 175.763 2141.04 179.351L2145.83 188.126C2154.33 183.482 2161.73 175.812 2168.17 165.543L2159.7 160.231ZM2141.04 179.351C2134.17 183.104 2127.3 184.912 2120.37 184.912V194.912C2129.13 194.912 2137.63 192.605 2145.83 188.126L2141.04 179.351ZM2120.37 184.912C2111.44 184.912 2103.94 182.103 2097.59 176.496L2090.97 183.992C2099.22 191.276 2109.1 194.912 2120.37 194.912V184.912ZM2097.63 176.533C2091.85 171.311 2088.44 162.686 2088.44 149.491H2078.44C2078.44 164.254 2082.26 176.13 2090.92 183.954L2097.63 176.533ZM2088.44 149.491V59.0971H2078.44V149.491H2088.44ZM2083.44 64.0971H2117.92V54.0971H2083.44V64.0971ZM2112.92 59.0971V140.988H2122.92V59.0971H2112.92ZM2112.92 140.988C2112.92 144.61 2113.08 147.775 2113.43 150.433C2113.77 153.016 2114.33 155.461 2115.31 157.435L2124.26 152.963C2124 152.452 2123.63 151.286 2123.35 149.132C2123.07 147.053 2122.92 144.354 2122.92 140.988H2112.92ZM2115.37 157.545C2117.07 160.738 2119.41 163.345 2122.43 165.181L2127.62 156.633C2126.3 155.828 2125.15 154.63 2124.2 152.853L2115.37 157.545ZM2122.61 165.285C2125.65 166.959 2128.97 167.771 2132.48 167.771V157.771C2130.56 157.771 2128.91 157.34 2127.44 156.529L2122.61 165.285ZM2132.48 167.771C2138.35 167.771 2144.17 165.843 2149.87 162.387L2144.69 153.835C2140.14 156.592 2136.09 157.771 2132.48 157.771V167.771ZM2149.92 162.358C2155.98 158.591 2162.02 151.679 2168.12 142.322L2159.75 136.857C2153.89 145.828 2148.83 151.263 2144.64 153.864L2149.92 162.358ZM2168.93 139.59V59.0971H2158.93V139.59H2168.93ZM2163.93 64.0971H2198.42V54.0971H2163.93V64.0971ZM2193.42 59.0971V187H2203.42V59.0971H2193.42ZM2198.42 182H2163.93V192H2198.42V182ZM2335.99 184.204L2337.27 189.036L2340.99 188.047V184.204H2335.99ZM2246.64 170.575L2242.83 173.814L2242.84 173.82L2242.84 173.825L2246.64 170.575ZM2247.57 74.8228L2251.21 78.2539L2251.22 78.2482L2251.22 78.2425L2247.57 74.8228ZM2334.94 61.1938H2339.94V57.2737L2336.13 56.3383L2334.94 61.1938ZM2334.94 86.1221L2333.4 90.8784L2339.94 92.9991V86.1221H2334.94ZM2274.95 92.8784L2279.21 95.4886L2279.22 95.4804L2279.22 95.4723L2274.95 92.8784ZM2271.45 146.229L2266.87 148.228L2266.87 148.237L2266.88 148.246L2271.45 146.229ZM2284.73 162.072L2282.19 166.38L2282.21 166.387L2282.22 166.395L2284.73 162.072ZM2335.99 160.324H2340.99V152.861L2334.08 155.7L2335.99 160.324ZM2334.7 179.373C2320.75 183.087 2307.87 184.912 2296.03 184.912V194.912C2308.89 194.912 2322.64 192.932 2337.27 189.036L2334.7 179.373ZM2296.03 184.912C2275.14 184.912 2260.26 178.801 2250.44 167.325L2242.84 173.825C2255.08 188.132 2273.13 194.912 2296.03 194.912V184.912ZM2250.45 167.336C2240.27 155.367 2235.1 140.671 2235.1 122.932H2225.1C2225.1 142.78 2230.95 159.845 2242.83 173.814L2250.45 167.336ZM2235.1 122.932C2235.1 104.261 2240.58 89.5242 2251.21 78.2539L2243.94 71.3917C2231.27 84.8168 2225.1 102.153 2225.1 122.932H2235.1ZM2251.22 78.2425C2261.64 67.1249 2277.25 61.1849 2298.94 61.1849V51.1849C2275.44 51.1849 2256.8 57.6702 2243.93 71.4031L2251.22 78.2425ZM2298.94 61.1849C2308.84 61.1849 2320.42 62.7754 2333.75 66.0494L2336.13 56.3383C2322.28 52.9336 2309.86 51.1849 2298.94 51.1849V61.1849ZM2329.94 61.1938V86.1221H2339.94V61.1938H2329.94ZM2336.48 81.3658C2322.17 76.7267 2310.32 74.2494 2301.16 74.2494V84.2493C2308.77 84.2493 2319.44 86.3538 2333.4 90.8784L2336.48 81.3658ZM2301.16 74.2494C2287.71 74.2494 2277.22 79.4941 2270.67 90.2844L2279.22 95.4723C2283.7 88.0906 2290.68 84.2493 2301.16 84.2493V74.2494ZM2270.68 90.2681C2264.67 100.086 2261.68 110.934 2261.68 122.699H2271.68C2271.68 112.72 2274.19 103.687 2279.21 95.4886L2270.68 90.2681ZM2261.68 122.699C2261.68 131.737 2263.4 140.265 2266.87 148.228L2276.04 144.23C2273.14 137.594 2271.68 130.435 2271.68 122.699H2261.68ZM2266.88 148.246C2270.4 156.231 2275.45 162.41 2282.19 166.38L2287.27 157.764C2282.67 155.055 2278.88 150.672 2276.03 144.212L2266.88 148.246ZM2282.22 166.395C2288.79 170.211 2296.11 172.081 2304.07 172.081V162.081C2297.74 162.081 2292.17 160.611 2287.24 157.749L2282.22 166.395ZM2304.07 172.081C2315.14 172.081 2326.42 169.665 2337.89 164.949L2334.08 155.7C2323.65 159.992 2313.66 162.081 2304.07 162.081V172.081ZM2330.99 160.324V184.204H2340.99V160.324H2330.99ZM2462.96 184.204L2464.24 189.036L2467.96 188.047V184.204H2462.96ZM2373.61 170.575L2369.8 173.814L2369.81 173.82L2369.81 173.825L2373.61 170.575ZM2374.54 74.8228L2378.18 78.2539L2378.19 78.2482L2378.19 78.2425L2374.54 74.8228ZM2461.91 61.1938H2466.91V57.2737L2463.1 56.3383L2461.91 61.1938ZM2461.91 86.1221L2460.37 90.8784L2466.91 92.9991V86.1221H2461.91ZM2401.92 92.8784L2406.18 95.4886L2406.19 95.4804L2406.19 95.4723L2401.92 92.8784ZM2398.42 146.229L2393.84 148.228L2393.84 148.237L2393.85 148.246L2398.42 146.229ZM2411.7 162.072L2409.17 166.38L2409.18 166.387L2409.19 166.395L2411.7 162.072ZM2462.96 160.324H2467.96V152.861L2461.06 155.7L2462.96 160.324ZM2461.67 179.373C2447.72 183.087 2434.84 184.912 2423 184.912V194.912C2435.86 194.912 2449.62 192.932 2464.24 189.036L2461.67 179.373ZM2423 184.912C2402.11 184.912 2387.23 178.801 2377.41 167.325L2369.81 173.825C2382.05 188.132 2400.1 194.912 2423 194.912V184.912ZM2377.42 167.336C2367.24 155.367 2362.07 140.671 2362.07 122.932H2352.07C2352.07 142.78 2357.93 159.845 2369.8 173.814L2377.42 167.336ZM2362.07 122.932C2362.07 104.261 2367.55 89.5242 2378.18 78.2539L2370.91 71.3917C2358.24 84.8168 2352.07 102.153 2352.07 122.932H2362.07ZM2378.19 78.2425C2388.61 67.1249 2404.23 61.1849 2425.91 61.1849V51.1849C2402.41 51.1849 2383.77 57.6702 2370.9 71.4031L2378.19 78.2425ZM2425.91 61.1849C2435.81 61.1849 2447.39 62.7754 2460.72 66.0494L2463.1 56.3383C2449.25 52.9336 2436.83 51.1849 2425.91 51.1849V61.1849ZM2456.91 61.1938V86.1221H2466.91V61.1938H2456.91ZM2463.45 81.3658C2449.14 76.7267 2437.29 74.2494 2428.13 74.2494V84.2493C2435.74 84.2493 2446.41 86.3538 2460.37 90.8784L2463.45 81.3658ZM2428.13 74.2494C2414.68 74.2494 2404.19 79.4941 2397.64 90.2844L2406.19 95.4723C2410.67 88.0906 2417.65 84.2493 2428.13 84.2493V74.2494ZM2397.65 90.2681C2391.64 100.086 2388.65 110.934 2388.65 122.699H2398.65C2398.65 112.72 2401.16 103.687 2406.18 95.4886L2397.65 90.2681ZM2388.65 122.699C2388.65 131.737 2390.37 140.265 2393.84 148.228L2403.01 144.23C2400.11 137.594 2398.65 130.435 2398.65 122.699H2388.65ZM2393.85 148.246C2397.37 156.231 2402.43 162.41 2409.17 166.38L2414.24 157.764C2409.64 155.055 2405.85 150.672 2403 144.212L2393.85 148.246ZM2409.19 166.395C2415.76 170.211 2423.08 172.081 2431.04 172.081V162.081C2424.71 162.081 2419.14 160.611 2414.22 157.749L2409.19 166.395ZM2431.04 172.081C2442.11 172.081 2453.39 169.665 2464.86 164.949L2461.06 155.7C2450.62 159.992 2440.63 162.081 2431.04 162.081V172.081ZM2457.96 160.324V184.204H2467.96V160.324H2457.96ZM2599.71 182.69L2601.12 187.487L2604.71 186.432V182.69H2599.71ZM2516.54 182.224L2514.31 186.696L2514.33 186.706L2514.35 186.716L2516.54 182.224ZM2492.43 157.995L2487.97 160.256L2487.98 160.275L2487.99 160.294L2492.43 157.995ZM2491.15 89.0343L2486.63 86.8953L2486.62 86.9028L2486.62 86.9103L2491.15 89.0343ZM2512 65.0379L2514.7 69.2473L2514.71 69.2415L2512 65.0379ZM2599.71 129.921V134.921H2604.71V129.921H2599.71ZM2520.39 129.921V124.921H2514.92L2515.41 130.37L2520.39 129.921ZM2526.21 150.307L2521.97 152.957L2521.98 152.98L2522 153.004L2526.21 150.307ZM2539.02 162.188L2536.61 166.568L2536.64 166.581L2536.66 166.595L2539.02 162.188ZM2599.71 158.461H2604.71V151.286L2597.98 153.77L2599.71 158.461ZM2519.92 110.468L2514.95 109.963L2514.39 115.468H2519.92V110.468ZM2565.82 110.468V115.468H2570.82V110.468H2565.82ZM2559.87 85.3067L2555.91 88.3552L2555.93 88.3743L2555.94 88.3931L2559.87 85.3067ZM2528.07 86.1221L2532 89.2185L2532.01 89.2052L2532.02 89.1918L2528.07 86.1221ZM2598.3 177.893C2582.3 182.595 2567.25 184.912 2553.12 184.912V194.912C2568.34 194.912 2584.35 192.415 2601.12 187.487L2598.3 177.893ZM2553.12 184.912C2539.83 184.912 2528.42 182.465 2518.74 177.732L2514.35 186.716C2525.63 192.234 2538.6 194.912 2553.12 194.912V184.912ZM2518.78 177.752C2509.38 173.051 2502.08 165.766 2496.87 155.696L2487.99 160.294C2494.11 172.123 2502.89 180.991 2514.31 186.696L2518.78 177.752ZM2496.89 155.734C2491.67 145.437 2489.04 134.257 2489.04 122.117H2479.04C2479.04 135.759 2482.01 148.497 2487.97 160.256L2496.89 155.734ZM2489.04 122.117C2489.04 110.837 2491.27 100.542 2495.67 91.1582L2486.62 86.9103C2481.55 97.7178 2479.04 109.477 2479.04 122.117H2489.04ZM2495.67 91.1732C2500.1 81.8091 2506.43 74.5436 2514.7 69.2473L2509.3 60.8285C2499.39 67.181 2491.83 75.913 2486.63 86.8953L2495.67 91.1732ZM2514.71 69.2415C2522.9 63.9658 2533.17 61.1849 2545.78 61.1849V51.1849C2531.68 51.1849 2519.43 54.306 2509.29 60.8343L2514.71 69.2415ZM2545.78 61.1849C2561.01 61.1849 2572.7 65.9694 2581.39 75.2193L2588.68 68.369C2577.81 56.8065 2563.32 51.1849 2545.78 51.1849V61.1849ZM2581.39 75.2193C2589.77 84.1322 2594.71 101.767 2594.71 129.921H2604.71C2604.71 101.385 2599.87 80.2685 2588.68 68.369L2581.39 75.2193ZM2599.71 124.921H2520.39V134.921H2599.71V124.921ZM2515.41 130.37C2516.22 139.428 2518.3 147.08 2521.97 152.957L2530.45 147.657C2527.91 143.593 2526.1 137.655 2525.37 129.473L2515.41 130.37ZM2522 153.004C2525.65 158.702 2530.55 163.23 2536.61 166.568L2541.44 157.808C2536.78 155.244 2533.14 151.851 2530.42 147.609L2522 153.004ZM2536.66 166.595C2543.01 170.001 2551.11 171.498 2560.57 171.498V161.498C2552.02 161.498 2545.75 160.123 2541.39 157.782L2536.66 166.595ZM2560.57 171.498C2572.9 171.498 2586.54 168.65 2601.44 163.151L2597.98 153.77C2583.84 158.989 2571.39 161.498 2560.57 161.498V171.498ZM2594.71 158.461V182.69H2604.71V158.461H2594.71ZM2519.92 115.468H2565.82V105.468H2519.92V115.468ZM2570.82 110.468C2570.82 98.4356 2568.83 88.6253 2563.81 82.2202L2555.94 88.3931C2558.84 92.0836 2560.82 99.0475 2560.82 110.468H2570.82ZM2563.84 82.2581C2559.04 76.0161 2552.54 72.735 2544.73 72.735V82.735C2549.35 82.735 2552.95 84.5018 2555.91 88.3552L2563.84 82.2581ZM2544.73 72.735C2536.35 72.735 2529.37 76.3116 2524.13 83.0524L2532.02 89.1918C2535.48 84.7498 2539.6 82.735 2544.73 82.735V72.735ZM2524.15 83.0257C2518.97 89.5848 2516.08 98.768 2514.95 109.963L2524.89 110.973C2525.93 100.734 2528.48 93.6869 2532 89.2185L2524.15 83.0257ZM2631.98 182.923H2626.98V186.654L2630.56 187.716L2631.98 182.923ZM2631.98 157.645L2633.91 153.032L2626.98 150.135V157.645H2631.98ZM2691.16 164.285L2688.29 160.189L2688.27 160.202L2688.25 160.216L2691.16 164.285ZM2692.67 144.715L2695.94 140.933L2695.91 140.908L2695.88 140.883L2692.67 144.715ZM2679.51 137.609L2677.65 142.252L2677.66 142.256L2677.67 142.26L2679.51 137.609ZM2641.18 116.991L2644.74 113.479L2644.73 113.468L2644.72 113.456L2641.18 116.991ZM2645.49 67.0182L2642.3 63.1715L2642.29 63.1785L2642.28 63.1856L2645.49 67.0182ZM2722.37 60.7279H2727.37V56.672L2723.41 55.8354L2722.37 60.7279ZM2722.37 84.9572L2720.73 89.679L2727.37 91.9934V84.9572H2722.37ZM2671.94 81.4626L2674.73 85.6089L2674.76 85.5883L2674.79 85.5671L2671.94 81.4626ZM2670.07 98.9357L2673.67 95.4606L2673.64 95.4301L2673.61 95.4001L2670.07 98.9357ZM2682.42 105.808L2684.21 101.14L2684.2 101.135L2684.18 101.129L2682.42 105.808ZM2692.44 109.653L2690.65 114.321L2690.65 114.323L2690.66 114.326L2692.44 109.653ZM2724.94 127.941L2728.76 124.716L2728.74 124.689L2728.71 124.663L2724.94 127.941ZM2718.53 177.798L2721.82 181.562L2721.82 181.56L2718.53 177.798ZM2636.98 182.923V157.645H2626.98V182.923H2636.98ZM2630.05 162.258C2647.46 169.537 2662.75 173.362 2675.78 173.362V163.362C2664.58 163.362 2650.67 160.043 2633.91 153.032L2630.05 162.258ZM2675.78 173.362C2682.88 173.362 2689.14 171.868 2694.06 168.354L2688.25 160.216C2685.56 162.138 2681.57 163.362 2675.78 163.362V173.362ZM2694.02 168.381C2699.04 164.869 2701.98 159.975 2701.98 153.918H2691.98C2691.98 156.248 2691.04 158.265 2688.29 160.189L2694.02 168.381ZM2701.98 153.918C2701.98 148.749 2699.86 144.324 2695.94 140.933L2689.4 148.497C2691.23 150.077 2691.98 151.786 2691.98 153.918H2701.98ZM2695.88 140.883C2692.41 137.973 2687.45 135.369 2681.34 132.959L2677.67 142.26C2683.37 144.509 2687.19 146.643 2689.46 148.548L2695.88 140.883ZM2681.36 132.967L2669.72 128.308L2666 137.592L2677.65 142.252L2681.36 132.967ZM2669.72 128.308C2657.99 123.616 2649.81 118.611 2644.74 113.479L2637.62 120.503C2644.05 127.02 2653.66 132.655 2666 137.592L2669.72 128.308ZM2644.72 113.456C2640.04 108.778 2637.56 102.622 2637.56 94.5092H2627.56C2627.56 104.879 2630.83 113.711 2637.65 120.527L2644.72 113.456ZM2637.56 94.5092C2637.56 84.9048 2641.2 77.1369 2648.7 70.8508L2642.28 63.1856C2632.54 71.3439 2627.56 81.9033 2627.56 94.5092H2637.56ZM2648.69 70.8649C2656.1 64.7106 2667.97 61.1849 2685.22 61.1849V51.1849C2666.9 51.1849 2652.28 54.8814 2642.3 63.1715L2648.69 70.8649ZM2685.22 61.1849C2695.17 61.1849 2707.19 62.6365 2721.34 65.6204L2723.41 55.8354C2708.83 52.7619 2696.08 51.1849 2685.22 51.1849V61.1849ZM2717.37 60.7279V84.9572H2727.37V60.7279H2717.37ZM2724.02 80.2355C2709.95 75.3347 2697.89 72.735 2688.01 72.735V82.735C2696.3 82.735 2707.15 84.9501 2720.73 89.679L2724.02 80.2355ZM2688.01 72.735C2680.44 72.735 2673.87 74.0237 2669.08 77.3581L2674.79 85.5671C2677.14 83.9314 2681.29 82.735 2688.01 82.735V72.735ZM2669.14 77.3163C2664.37 80.5336 2661.58 85.1494 2661.58 90.8981H2671.58C2671.58 88.881 2672.36 87.2064 2674.73 85.6089L2669.14 77.3163ZM2661.58 90.8981C2661.58 95.3759 2663.36 99.2946 2666.54 102.471L2673.61 95.4001C2672.12 93.9173 2671.58 92.4775 2671.58 90.8981H2661.58ZM2666.48 102.411C2669.53 105.574 2674.53 108.18 2680.66 110.488L2684.18 101.129C2678.35 98.9326 2675.11 96.957 2673.67 95.4606L2666.48 102.411ZM2680.63 110.477L2690.65 114.321L2694.23 104.984L2684.21 101.14L2680.63 110.477ZM2690.66 114.326C2707.17 120.605 2716.93 126.346 2721.16 131.219L2728.71 124.663C2722.69 117.732 2710.78 111.28 2694.21 104.979L2690.66 114.326ZM2721.12 131.166C2725.35 136.185 2727.51 142.167 2727.51 149.375H2737.51C2737.51 139.964 2734.62 131.656 2728.76 124.716L2721.12 131.166ZM2727.51 149.375C2727.51 158.508 2723.65 166.675 2715.24 174.035L2721.82 181.56C2732.05 172.612 2737.51 161.831 2737.51 149.375H2727.51ZM2715.24 174.033C2707.24 181.024 2695.13 184.912 2678.11 184.912V194.912C2696.5 194.912 2711.34 190.724 2721.82 181.562L2715.24 174.033ZM2678.11 184.912C2663.57 184.912 2648.67 182.664 2633.4 178.13L2630.56 187.716C2646.67 192.501 2662.52 194.912 2678.11 194.912V184.912ZM2766.87 182.923H2761.87V186.654L2765.45 187.716L2766.87 182.923ZM2766.87 157.645L2768.8 153.032L2761.87 150.135V157.645H2766.87ZM2826.05 164.285L2823.18 160.189L2823.16 160.202L2823.14 160.216L2826.05 164.285ZM2827.56 144.715L2830.83 140.933L2830.8 140.908L2830.77 140.883L2827.56 144.715ZM2814.4 137.609L2812.54 142.252L2812.55 142.256L2812.56 142.26L2814.4 137.609ZM2776.08 116.991L2779.63 113.479L2779.62 113.468L2779.61 113.456L2776.08 116.991ZM2780.39 67.0182L2777.19 63.1715L2777.18 63.1785L2777.17 63.1856L2780.39 67.0182ZM2857.27 60.7279H2862.27V56.672L2858.3 55.8354L2857.27 60.7279ZM2857.27 84.9572L2855.62 89.679L2862.27 91.9934V84.9572H2857.27ZM2806.83 81.4626L2809.62 85.6089L2809.65 85.5883L2809.68 85.5671L2806.83 81.4626ZM2804.96 98.9357L2808.56 95.4606L2808.53 95.4301L2808.5 95.4001L2804.96 98.9357ZM2817.31 105.808L2819.1 101.14L2819.09 101.135L2819.07 101.129L2817.31 105.808ZM2827.33 109.653L2825.54 114.321L2825.55 114.323L2825.55 114.326L2827.33 109.653ZM2859.83 127.941L2863.65 124.716L2863.63 124.689L2863.6 124.663L2859.83 127.941ZM2853.42 177.798L2856.71 181.562L2856.72 181.56L2853.42 177.798ZM2771.87 182.923V157.645H2761.87V182.923H2771.87ZM2764.94 162.258C2782.35 169.537 2797.64 173.362 2810.67 173.362V163.362C2799.47 163.362 2785.57 160.043 2768.8 153.032L2764.94 162.258ZM2810.67 173.362C2817.77 173.362 2824.03 171.868 2828.95 168.354L2823.14 160.216C2820.45 162.138 2816.46 163.362 2810.67 163.362V173.362ZM2828.92 168.381C2833.93 164.869 2836.87 159.975 2836.87 153.918H2826.87C2826.87 156.248 2825.93 158.265 2823.18 160.189L2828.92 168.381ZM2836.87 153.918C2836.87 148.749 2834.75 144.324 2830.83 140.933L2824.29 148.497C2826.12 150.077 2826.87 151.786 2826.87 153.918H2836.87ZM2830.77 140.883C2827.3 137.973 2822.34 135.369 2816.24 132.959L2812.56 142.26C2818.26 144.509 2822.08 146.643 2824.35 148.548L2830.77 140.883ZM2816.26 132.967L2804.61 128.308L2800.89 137.592L2812.54 142.252L2816.26 132.967ZM2804.61 128.308C2792.88 123.616 2784.7 118.611 2779.63 113.479L2772.52 120.503C2778.95 127.02 2788.55 132.655 2800.89 137.592L2804.61 128.308ZM2779.61 113.456C2774.93 108.778 2772.46 102.622 2772.46 94.5092H2762.46C2762.46 104.879 2765.72 113.711 2772.54 120.527L2779.61 113.456ZM2772.46 94.5092C2772.46 84.9048 2776.09 77.1369 2783.6 70.8508L2777.17 63.1856C2767.44 71.3439 2762.46 81.9033 2762.46 94.5092H2772.46ZM2783.58 70.8649C2790.99 64.7106 2802.86 61.1849 2820.11 61.1849V51.1849C2801.79 51.1849 2787.17 54.8814 2777.19 63.1715L2783.58 70.8649ZM2820.11 61.1849C2830.06 61.1849 2842.08 62.6365 2856.24 65.6204L2858.3 55.8354C2843.72 52.7619 2830.97 51.1849 2820.11 51.1849V61.1849ZM2852.27 60.7279V84.9572H2862.27V60.7279H2852.27ZM2858.91 80.2355C2844.84 75.3347 2832.79 72.735 2822.9 72.735V82.735C2831.19 82.735 2842.05 84.9501 2855.62 89.679L2858.91 80.2355ZM2822.9 72.735C2815.33 72.735 2808.77 74.0237 2803.97 77.3581L2809.68 85.5671C2812.03 83.9314 2816.18 82.735 2822.9 82.735V72.735ZM2804.03 77.3163C2799.26 80.5336 2796.47 85.1494 2796.47 90.8981H2806.47C2806.47 88.881 2807.25 87.2064 2809.62 85.6089L2804.03 77.3163ZM2796.47 90.8981C2796.47 95.3759 2798.25 99.2946 2801.43 102.471L2808.5 95.4001C2807.02 93.9173 2806.47 92.4775 2806.47 90.8981H2796.47ZM2801.37 102.411C2804.43 105.574 2809.42 108.18 2815.55 110.488L2819.07 101.129C2813.24 98.9326 2810.01 96.957 2808.56 95.4606L2801.37 102.411ZM2815.52 110.477L2825.54 114.321L2829.12 104.984L2819.1 101.14L2815.52 110.477ZM2825.55 114.326C2842.06 120.605 2851.82 126.346 2856.05 131.219L2863.6 124.663C2857.59 117.732 2845.68 111.28 2829.11 104.979L2825.55 114.326ZM2856.01 131.166C2860.25 136.185 2862.4 142.167 2862.4 149.375H2872.4C2872.4 139.964 2869.51 131.656 2863.65 124.716L2856.01 131.166ZM2862.4 149.375C2862.4 158.508 2858.54 166.675 2850.13 174.035L2856.72 181.56C2866.94 172.612 2872.4 161.831 2872.4 149.375H2862.4ZM2850.13 174.033C2842.13 181.024 2830.02 184.912 2813 184.912V194.912C2831.39 194.912 2846.23 190.724 2856.71 181.562L2850.13 174.033ZM2813 184.912C2798.46 184.912 2783.56 182.664 2768.3 178.13L2765.45 187.716C2781.56 192.501 2797.41 194.912 2813 194.912V184.912ZM2908.75 187H2903.75V192H2908.75V187ZM2908.75 80.6472H2913.75V75.6472H2908.75V80.6472ZM2891.16 80.6472H2886.16V85.6472H2891.16V80.6472ZM2891.16 59.0971V54.0971H2886.16V59.0971H2891.16ZM2908.75 59.0971V64.0971H2913.75V59.0971H2908.75ZM2920.99 11.6868L2924.4 15.3421L2924.4 15.3409L2920.99 11.6868ZM2987.38 4.58106H2992.38V0.764488L2988.7 -0.241959L2987.38 4.58106ZM2987.38 27.8785L2985.44 32.4874L2992.38 35.406V27.8785H2987.38ZM2951.62 23.9179L2954.02 28.3074L2954.04 28.2951L2954.06 28.2827L2951.62 23.9179ZM2945.45 31.1401L2940.9 29.0711L2940.88 29.0952L2940.87 29.1193L2945.45 31.1401ZM2943.23 59.0971H2938.23V64.0971H2943.23V59.0971ZM2975.62 59.0971H2980.62V54.0971H2975.62V59.0971ZM2975.62 80.6472V85.6472H2980.62V80.6472H2975.62ZM2943.23 80.6472V75.6472H2938.23V80.6472H2943.23ZM2943.23 187V192H2948.23V187H2943.23ZM2913.75 187V80.6472H2903.75V187H2913.75ZM2908.75 75.6472H2891.16V85.6472H2908.75V75.6472ZM2896.16 80.6472V59.0971H2886.16V80.6472H2896.16ZM2891.16 64.0971H2908.75V54.0971H2891.16V64.0971ZM2913.75 59.0971V49.8946H2903.75V59.0971H2913.75ZM2913.75 49.8946C2913.75 32.6088 2917.73 21.5683 2924.4 15.3421L2917.57 8.0315C2907.94 17.0262 2903.75 31.4576 2903.75 49.8946H2913.75ZM2924.4 15.3409C2931.43 8.77563 2941.7 5.15455 2955.93 5.15455V-4.84545C2940.04 -4.84545 2927.01 -0.778381 2917.57 8.03265L2924.4 15.3409ZM2955.93 5.15455C2965.62 5.15455 2975.66 6.55892 2986.06 9.40408L2988.7 -0.241959C2977.52 -3.29882 2966.59 -4.84545 2955.93 -4.84545V5.15455ZM2982.38 4.58106V27.8785H2992.38V4.58106H2982.38ZM2989.32 23.2696C2979.13 18.9844 2969.68 16.7047 2961.06 16.7047V26.7047C2967.96 26.7047 2976.06 28.5408 2985.44 32.4874L2989.32 23.2696ZM2961.06 16.7047C2956.73 16.7047 2952.71 17.583 2949.18 19.5532L2954.06 28.2827C2955.82 27.3018 2958.08 26.7047 2961.06 26.7047V16.7047ZM2949.23 19.5285C2945.47 21.5771 2942.77 24.9509 2940.9 29.0711L2950 33.2092C2951.23 30.4954 2952.65 29.0545 2954.02 28.3074L2949.23 19.5285ZM2940.87 29.1193C2938.94 33.5066 2938.23 40.2747 2938.23 48.6132H2948.23C2948.23 40.3329 2949.01 35.4523 2950.02 33.161L2940.87 29.1193ZM2938.23 48.6132V59.0971H2948.23V48.6132H2938.23ZM2943.23 64.0971H2975.62V54.0971H2943.23V64.0971ZM2970.62 59.0971V80.6472H2980.62V59.0971H2970.62ZM2975.62 75.6472H2943.23V85.6472H2975.62V75.6472ZM2938.23 80.6472V187H2948.23V80.6472H2938.23ZM2943.23 182H2908.75V192H2943.23V182ZM3083.25 187H3078.25V192H3083.25V187ZM3083.25 162.887H3088.25V145.5L3079.02 160.231L3083.25 162.887ZM3013.59 180.244L3010.24 183.954L3010.26 183.973L3010.28 183.992L3013.59 180.244ZM3002.76 59.0971V54.0971H2997.76V59.0971H3002.76ZM3037.24 59.0971H3042.24V54.0971H3037.24V59.0971ZM3039.1 155.199L3034.63 157.435L3034.66 157.49L3034.69 157.545L3039.1 155.199ZM3044.35 160.907L3041.75 165.181L3041.84 165.235L3041.93 165.285L3044.35 160.907ZM3066.59 158.111L3069.19 162.387L3069.21 162.373L3069.23 162.358L3066.59 158.111ZM3083.25 139.59L3087.44 142.322L3088.25 141.077V139.59H3083.25ZM3083.25 59.0971V54.0971H3078.25V59.0971H3083.25ZM3117.73 59.0971H3122.73V54.0971H3117.73V59.0971ZM3117.73 187V192H3122.73V187H3117.73ZM3088.25 187V162.887H3078.25V187H3088.25ZM3079.02 160.231C3073.18 169.532 3066.92 175.763 3060.35 179.351L3065.15 188.126C3073.65 183.482 3081.05 175.812 3087.49 165.543L3079.02 160.231ZM3060.35 179.351C3053.48 183.104 3046.61 184.912 3039.69 184.912V194.912C3048.44 194.912 3056.95 192.605 3065.15 188.126L3060.35 179.351ZM3039.69 184.912C3030.76 184.912 3023.25 182.103 3016.9 176.496L3010.28 183.992C3018.53 191.276 3028.42 194.912 3039.69 194.912V184.912ZM3016.94 176.533C3011.16 171.311 3007.76 162.686 3007.76 149.491H2997.76C2997.76 164.254 3001.58 176.13 3010.24 183.954L3016.94 176.533ZM3007.76 149.491V59.0971H2997.76V149.491H3007.76ZM3002.76 64.0971H3037.24V54.0971H3002.76V64.0971ZM3032.24 59.0971V140.988H3042.24V59.0971H3032.24ZM3032.24 140.988C3032.24 144.61 3032.4 147.775 3032.75 150.433C3033.09 153.016 3033.64 155.461 3034.63 157.435L3043.58 152.963C3043.32 152.452 3042.95 151.286 3042.66 149.132C3042.39 147.053 3042.24 144.354 3042.24 140.988H3032.24ZM3034.69 157.545C3036.38 160.738 3038.73 163.345 3041.75 165.181L3046.94 156.633C3045.61 155.828 3044.46 154.63 3043.52 152.853L3034.69 157.545ZM3041.93 165.285C3044.96 166.959 3048.29 167.771 3051.8 167.771V157.771C3049.88 157.771 3048.23 157.34 3046.76 156.529L3041.93 165.285ZM3051.8 167.771C3057.66 167.771 3063.48 165.843 3069.19 162.387L3064 153.835C3059.45 156.592 3055.41 157.771 3051.8 157.771V167.771ZM3069.23 162.358C3075.3 158.591 3081.33 151.679 3087.44 142.322L3079.06 136.857C3073.21 145.828 3068.14 151.263 3063.96 153.864L3069.23 162.358ZM3088.25 139.59V59.0971H3078.25V139.59H3088.25ZM3083.25 64.0971H3117.73V54.0971H3083.25V64.0971ZM3112.73 59.0971V187H3122.73V59.0971H3112.73ZM3117.73 182H3083.25V192H3117.73V182ZM3160.95 187H3155.95V192H3160.95V187ZM3160.95 3.06673V-1.93327H3155.95V3.06673H3160.95ZM3195.43 3.06673H3200.43V-1.93327H3195.43V3.06673ZM3195.43 187V192H3200.43V187H3195.43ZM3165.95 187V3.06673H3155.95V187H3165.95ZM3160.95 8.06673H3195.43V-1.93327H3160.95V8.06673ZM3190.43 3.06673V187H3200.43V3.06673H3190.43ZM3195.43 182H3160.95V192H3195.43V182ZM3238.53 187H3233.53V192H3238.53V187ZM3238.53 3.06673V-1.93327H3233.53V3.06673H3238.53ZM3273.01 3.06673H3278.01V-1.93327H3273.01V3.06673ZM3273.01 187V192H3278.01V187H3273.01ZM3243.53 187V3.06673H3233.53V187H3243.53ZM3238.53 8.06673H3273.01V-1.93327H3238.53V8.06673ZM3268.01 3.06673V187H3278.01V3.06673H3268.01ZM3273.01 182H3238.53V192H3273.01V182ZM3316.58 233.012L3312.35 230.346L3307.51 238.012H3316.58V233.012ZM3345.58 187L3349.81 189.666L3351.13 187.577L3350.27 185.262L3345.58 187ZM3298.17 59.0971V54.0971H3290.98L3293.48 60.8349L3298.17 59.0971ZM3335.21 59.0971L3339.9 57.3597L3338.69 54.0971H3335.21V59.0971ZM3366.9 144.599L3362.21 146.336L3366.5 157.915L3371.47 146.613L3366.9 144.599ZM3404.52 59.0971V54.0971H3401.26L3399.95 57.0832L3404.52 59.0971ZM3430.73 59.0971L3435.29 61.1645L3438.5 54.0971H3430.73V59.0971ZM3351.75 233.012V238.012H3354.98L3356.31 235.08L3351.75 233.012ZM3320.81 235.679L3349.81 189.666L3341.35 184.334L3312.35 230.346L3320.81 235.679ZM3350.27 185.262L3302.86 57.3592L3293.48 60.8349L3340.89 188.738L3350.27 185.262ZM3298.17 64.0971H3335.21V54.0971H3298.17V64.0971ZM3330.53 60.8345L3362.21 146.336L3371.59 142.861L3339.9 57.3597L3330.53 60.8345ZM3371.47 146.613L3409.1 61.111L3399.95 57.0832L3362.32 142.585L3371.47 146.613ZM3404.52 64.0971H3430.73V54.0971H3404.52V64.0971ZM3426.18 57.0297L3347.2 230.945L3356.31 235.08L3435.29 61.1645L3426.18 57.0297ZM3351.75 228.012H3316.58V238.012H3351.75V228.012Z" fill="#1B1B1B" mask="url(#path-3-outside-2_0_1)"/>
<mask id="path-5-outside-3_0_1" maskUnits="userSpaceOnUse" x="607" y="-2" width="1229" height="199" fill="black">
<rect fill="white" x="607" y="-2" width="1229" height="199"/>
<path d="M612.882 185.486V155.898C626.161 161.489 636.063 164.829 642.586 165.916C649.187 167.003 655.244 167.547 660.758 167.547C670.698 167.547 678.115 165.295 683.007 160.79C687.899 156.286 690.346 150.889 690.346 144.599C690.346 139.784 689.025 135.435 686.385 131.552C683.745 127.747 677.066 122.816 666.349 116.758L654.817 110.351C638.354 101.11 627.21 92.5677 621.385 84.7242C615.483 76.8808 612.532 67.7948 612.532 57.4662C612.532 44.4973 617.425 33.3922 627.21 24.1509C637.072 14.9096 651.206 10.2889 669.611 10.2889C683.356 10.2889 698.849 12.2692 716.089 16.2298V43.8372C698.539 37.2363 684.599 33.9358 674.27 33.9358C665.728 33.9358 659.205 35.8385 654.701 39.6437C650.274 43.3713 648.061 47.8755 648.061 53.1562C648.061 57.1944 649.381 60.9609 652.021 64.4555C654.584 67.9501 661.224 72.7261 671.941 78.7834L684.288 85.6561C703.159 96.2953 715.196 105.537 720.399 113.38C725.525 121.301 728.088 130.193 728.088 140.056C728.088 154.189 722.729 166.265 712.012 176.283C701.373 186.301 684.405 191.31 661.107 191.31C647.284 191.31 631.209 189.369 612.882 185.486ZM837.935 187V162.887C831.8 172.672 824.966 179.622 817.433 183.738C809.9 187.854 802.212 189.912 794.369 189.912C784.273 189.912 775.575 186.689 768.276 180.244C761.053 173.72 757.442 163.47 757.442 149.491V59.0971H791.923V140.988C791.923 147.977 792.544 152.714 793.786 155.199C795.106 157.684 796.854 159.587 799.028 160.907C801.28 162.149 803.765 162.771 806.483 162.771C811.221 162.771 816.152 161.218 821.277 158.111C826.403 154.927 831.955 148.753 837.935 139.59V59.0971H872.415V187H837.935ZM915.632 187V3.06673H950.112V83.2099C954.539 74.2016 960.247 67.4453 967.236 62.9411C974.225 58.437 982.457 56.1849 991.931 56.1849C1007.7 56.1849 1019.89 62.0092 1028.51 73.658C1037.13 85.3067 1041.44 100.605 1041.44 119.554C1041.44 139.59 1036.62 156.325 1026.99 169.76C1017.36 183.195 1003.93 189.912 986.689 189.912C981.874 189.912 977.409 189.369 973.293 188.281C969.177 187.272 965.294 185.719 961.644 183.622C958.072 181.525 954.228 178.341 950.112 174.07L943.705 187H915.632ZM950.112 153.568C955.005 159.004 959.586 162.693 963.858 164.634C968.129 166.576 972.478 167.547 976.904 167.547C986.301 167.547 993.29 163.004 997.872 153.918C1002.45 144.754 1004.74 134.27 1004.74 122.466C1004.74 110.274 1002.53 100.683 998.105 93.6938C993.756 86.7045 987.543 83.2099 979.467 83.2099C974.419 83.2099 969.333 84.9961 964.207 88.5683C959.159 92.0629 954.461 96.8389 950.112 102.896V153.568ZM1073.82 187V59.0971H1106.9V83.2099C1111.25 75.4441 1116.96 68.9985 1124.03 63.873C1131.09 58.7476 1139.75 56.1849 1150 56.1849C1156.22 56.1849 1161.61 57.1556 1166.2 59.0971C1170.78 60.9609 1174.82 63.9507 1178.31 68.0666C1181.88 72.1048 1184.17 77.1526 1185.18 83.2099C1191.55 73.5803 1198 66.6687 1204.52 62.4752C1211.12 58.2817 1219.12 56.1849 1228.52 56.1849C1238.92 56.1849 1247.35 59.2524 1253.79 65.3874C1260.32 71.4447 1263.58 81.2685 1263.58 94.8586V187H1230.5V106.158C1230.5 96.6059 1228.94 90.4321 1225.84 87.6364C1222.81 84.8407 1219.39 83.4429 1215.59 83.4429C1210.38 83.4429 1205.22 85.3067 1200.09 89.0343C1195.05 92.7619 1190.08 98.3532 1185.18 105.808V187H1152.1V106.158C1152.1 96.6836 1150.59 90.5098 1147.56 87.6364C1144.61 84.7631 1141.03 83.3264 1136.84 83.3264C1131.79 83.3264 1126.75 85.1902 1121.7 88.9178C1116.73 92.6454 1111.8 98.2756 1106.9 105.808V187H1073.82ZM1305.17 187V59.0971H1339.65V187H1305.17ZM1305.17 37.5469V8.7746H1339.65V37.5469H1305.17ZM1448.68 186.301C1440.45 188.708 1433.96 189.912 1429.22 189.912C1417.96 189.912 1409.23 188.32 1403.01 185.136C1396.8 181.952 1392.14 177.642 1389.04 172.206C1385.93 166.692 1384.38 158.616 1384.38 147.977V80.6472H1370.05V59.0971H1384.38V37.5469L1418.86 33.5864V59.0971H1446.23V80.6472H1418.86V143.434C1418.86 152.675 1420.49 158.927 1423.75 162.188C1427.01 165.372 1431.79 166.964 1438.08 166.964C1441.03 166.964 1444.56 166.421 1448.68 165.333V186.301ZM1545.36 186.301C1537.13 188.708 1530.65 189.912 1525.91 189.912C1514.65 189.912 1505.91 188.32 1499.7 185.136C1493.49 181.952 1488.83 177.642 1485.72 172.206C1482.61 166.692 1481.06 158.616 1481.06 147.977V80.6472H1466.73V59.0971H1481.06V37.5469L1515.54 33.5864V59.0971H1542.92V80.6472H1515.54V143.434C1515.54 152.675 1517.17 158.927 1520.43 162.188C1523.7 165.372 1528.47 166.964 1534.76 166.964C1537.71 166.964 1541.25 166.421 1545.36 165.333V186.301ZM1680.25 182.69C1663.87 187.505 1648.34 189.912 1633.66 189.912C1619.76 189.912 1607.57 187.349 1597.08 182.224C1586.68 177.021 1578.64 168.944 1572.97 157.995C1567.38 146.967 1564.58 135.008 1564.58 122.117C1564.58 110.157 1566.95 99.1298 1571.69 89.0343C1576.5 78.8611 1583.45 70.8623 1592.54 65.0379C1601.7 59.1359 1612.96 56.1849 1626.32 56.1849C1642.71 56.1849 1655.79 61.388 1665.58 71.7942C1675.36 82.2004 1680.25 101.576 1680.25 129.921H1600.93C1601.7 138.541 1603.64 145.336 1606.75 150.307C1609.93 155.277 1614.21 159.237 1619.56 162.188C1624.92 165.062 1632.11 166.498 1641.11 166.498C1652.69 166.498 1665.73 163.819 1680.25 158.461V182.69ZM1600.46 110.468H1646.36C1646.36 98.7415 1644.38 90.3545 1640.42 85.3067C1636.53 80.2589 1631.48 77.735 1625.27 77.735C1618.52 77.735 1612.96 80.5307 1608.61 86.1221C1604.27 91.6358 1601.55 99.7511 1600.46 110.468ZM1796.39 187V162.887C1791.97 171.895 1786.26 178.652 1779.27 183.156C1772.36 187.66 1764.12 189.912 1754.57 189.912C1738.89 189.912 1726.73 184.127 1718.11 172.556C1709.49 160.907 1705.18 145.569 1705.18 126.543C1705.18 106.43 1710 89.6944 1719.63 76.3372C1729.26 62.9023 1742.69 56.1849 1759.93 56.1849C1764.59 56.1849 1768.86 56.6897 1772.74 57.6992C1776.63 58.6311 1780.36 60.1066 1783.93 62.1257C1787.5 64.1448 1791.65 67.4453 1796.39 72.0271V3.06673H1830.99V187H1796.39ZM1796.39 92.5289C1791.58 87.0928 1787.03 83.4041 1782.76 81.4626C1778.49 79.5212 1774.14 78.5504 1769.72 78.5504C1760.4 78.5504 1753.41 83.0546 1748.75 92.0629C1744.17 100.994 1741.88 111.516 1741.88 123.631C1741.88 135.59 1744.01 145.142 1748.28 152.287C1752.63 159.354 1758.88 162.887 1767.04 162.887C1772.24 162.887 1777.37 161.101 1782.41 157.529C1787.54 153.879 1792.2 149.103 1796.39 143.201V92.5289Z"/>
</mask>
<path d="M612.882 185.486V155.898C626.161 161.489 636.063 164.829 642.586 165.916C649.187 167.003 655.244 167.547 660.758 167.547C670.698 167.547 678.115 165.295 683.007 160.79C687.899 156.286 690.346 150.889 690.346 144.599C690.346 139.784 689.025 135.435 686.385 131.552C683.745 127.747 677.066 122.816 666.349 116.758L654.817 110.351C638.354 101.11 627.21 92.5677 621.385 84.7242C615.483 76.8808 612.532 67.7948 612.532 57.4662C612.532 44.4973 617.425 33.3922 627.21 24.1509C637.072 14.9096 651.206 10.2889 669.611 10.2889C683.356 10.2889 698.849 12.2692 716.089 16.2298V43.8372C698.539 37.2363 684.599 33.9358 674.27 33.9358C665.728 33.9358 659.205 35.8385 654.701 39.6437C650.274 43.3713 648.061 47.8755 648.061 53.1562C648.061 57.1944 649.381 60.9609 652.021 64.4555C654.584 67.9501 661.224 72.7261 671.941 78.7834L684.288 85.6561C703.159 96.2953 715.196 105.537 720.399 113.38C725.525 121.301 728.088 130.193 728.088 140.056C728.088 154.189 722.729 166.265 712.012 176.283C701.373 186.301 684.405 191.31 661.107 191.31C647.284 191.31 631.209 189.369 612.882 185.486ZM837.935 187V162.887C831.8 172.672 824.966 179.622 817.433 183.738C809.9 187.854 802.212 189.912 794.369 189.912C784.273 189.912 775.575 186.689 768.276 180.244C761.053 173.72 757.442 163.47 757.442 149.491V59.0971H791.923V140.988C791.923 147.977 792.544 152.714 793.786 155.199C795.106 157.684 796.854 159.587 799.028 160.907C801.28 162.149 803.765 162.771 806.483 162.771C811.221 162.771 816.152 161.218 821.277 158.111C826.403 154.927 831.955 148.753 837.935 139.59V59.0971H872.415V187H837.935ZM915.632 187V3.06673H950.112V83.2099C954.539 74.2016 960.247 67.4453 967.236 62.9411C974.225 58.437 982.457 56.1849 991.931 56.1849C1007.7 56.1849 1019.89 62.0092 1028.51 73.658C1037.13 85.3067 1041.44 100.605 1041.44 119.554C1041.44 139.59 1036.62 156.325 1026.99 169.76C1017.36 183.195 1003.93 189.912 986.689 189.912C981.874 189.912 977.409 189.369 973.293 188.281C969.177 187.272 965.294 185.719 961.644 183.622C958.072 181.525 954.228 178.341 950.112 174.07L943.705 187H915.632ZM950.112 153.568C955.005 159.004 959.586 162.693 963.858 164.634C968.129 166.576 972.478 167.547 976.904 167.547C986.301 167.547 993.29 163.004 997.872 153.918C1002.45 144.754 1004.74 134.27 1004.74 122.466C1004.74 110.274 1002.53 100.683 998.105 93.6938C993.756 86.7045 987.543 83.2099 979.467 83.2099C974.419 83.2099 969.333 84.9961 964.207 88.5683C959.159 92.0629 954.461 96.8389 950.112 102.896V153.568ZM1073.82 187V59.0971H1106.9V83.2099C1111.25 75.4441 1116.96 68.9985 1124.03 63.873C1131.09 58.7476 1139.75 56.1849 1150 56.1849C1156.22 56.1849 1161.61 57.1556 1166.2 59.0971C1170.78 60.9609 1174.82 63.9507 1178.31 68.0666C1181.88 72.1048 1184.17 77.1526 1185.18 83.2099C1191.55 73.5803 1198 66.6687 1204.52 62.4752C1211.12 58.2817 1219.12 56.1849 1228.52 56.1849C1238.92 56.1849 1247.35 59.2524 1253.79 65.3874C1260.32 71.4447 1263.58 81.2685 1263.58 94.8586V187H1230.5V106.158C1230.5 96.6059 1228.94 90.4321 1225.84 87.6364C1222.81 84.8407 1219.39 83.4429 1215.59 83.4429C1210.38 83.4429 1205.22 85.3067 1200.09 89.0343C1195.05 92.7619 1190.08 98.3532 1185.18 105.808V187H1152.1V106.158C1152.1 96.6836 1150.59 90.5098 1147.56 87.6364C1144.61 84.7631 1141.03 83.3264 1136.84 83.3264C1131.79 83.3264 1126.75 85.1902 1121.7 88.9178C1116.73 92.6454 1111.8 98.2756 1106.9 105.808V187H1073.82ZM1305.17 187V59.0971H1339.65V187H1305.17ZM1305.17 37.5469V8.7746H1339.65V37.5469H1305.17ZM1448.68 186.301C1440.45 188.708 1433.96 189.912 1429.22 189.912C1417.96 189.912 1409.23 188.32 1403.01 185.136C1396.8 181.952 1392.14 177.642 1389.04 172.206C1385.93 166.692 1384.38 158.616 1384.38 147.977V80.6472H1370.05V59.0971H1384.38V37.5469L1418.86 33.5864V59.0971H1446.23V80.6472H1418.86V143.434C1418.86 152.675 1420.49 158.927 1423.75 162.188C1427.01 165.372 1431.79 166.964 1438.08 166.964C1441.03 166.964 1444.56 166.421 1448.68 165.333V186.301ZM1545.36 186.301C1537.13 188.708 1530.65 189.912 1525.91 189.912C1514.65 189.912 1505.91 188.32 1499.7 185.136C1493.49 181.952 1488.83 177.642 1485.72 172.206C1482.61 166.692 1481.06 158.616 1481.06 147.977V80.6472H1466.73V59.0971H1481.06V37.5469L1515.54 33.5864V59.0971H1542.92V80.6472H1515.54V143.434C1515.54 152.675 1517.17 158.927 1520.43 162.188C1523.7 165.372 1528.47 166.964 1534.76 166.964C1537.71 166.964 1541.25 166.421 1545.36 165.333V186.301ZM1680.25 182.69C1663.87 187.505 1648.34 189.912 1633.66 189.912C1619.76 189.912 1607.57 187.349 1597.08 182.224C1586.68 177.021 1578.64 168.944 1572.97 157.995C1567.38 146.967 1564.58 135.008 1564.58 122.117C1564.58 110.157 1566.95 99.1298 1571.69 89.0343C1576.5 78.8611 1583.45 70.8623 1592.54 65.0379C1601.7 59.1359 1612.96 56.1849 1626.32 56.1849C1642.71 56.1849 1655.79 61.388 1665.58 71.7942C1675.36 82.2004 1680.25 101.576 1680.25 129.921H1600.93C1601.7 138.541 1603.64 145.336 1606.75 150.307C1609.93 155.277 1614.21 159.237 1619.56 162.188C1624.92 165.062 1632.11 166.498 1641.11 166.498C1652.69 166.498 1665.73 163.819 1680.25 158.461V182.69ZM1600.46 110.468H1646.36C1646.36 98.7415 1644.38 90.3545 1640.42 85.3067C1636.53 80.2589 1631.48 77.735 1625.27 77.735C1618.52 77.735 1612.96 80.5307 1608.61 86.1221C1604.27 91.6358 1601.55 99.7511 1600.46 110.468ZM1796.39 187V162.887C1791.97 171.895 1786.26 178.652 1779.27 183.156C1772.36 187.66 1764.12 189.912 1754.57 189.912C1738.89 189.912 1726.73 184.127 1718.11 172.556C1709.49 160.907 1705.18 145.569 1705.18 126.543C1705.18 106.43 1710 89.6944 1719.63 76.3372C1729.26 62.9023 1742.69 56.1849 1759.93 56.1849C1764.59 56.1849 1768.86 56.6897 1772.74 57.6992C1776.63 58.6311 1780.36 60.1066 1783.93 62.1257C1787.5 64.1448 1791.65 67.4453 1796.39 72.0271V3.06673H1830.99V187H1796.39ZM1796.39 92.5289C1791.58 87.0928 1787.03 83.4041 1782.76 81.4626C1778.49 79.5212 1774.14 78.5504 1769.72 78.5504C1760.4 78.5504 1753.41 83.0546 1748.75 92.0629C1744.17 100.994 1741.88 111.516 1741.88 123.631C1741.88 135.59 1744.01 145.142 1748.28 152.287C1752.63 159.354 1758.88 162.887 1767.04 162.887C1772.24 162.887 1777.37 161.101 1782.41 157.529C1787.54 153.879 1792.2 149.103 1796.39 143.201V92.5289Z" fill="#1B1B1B"/>
<path d="M612.882 185.486H607.882V189.537L611.845 190.377L612.882 185.486ZM612.882 155.898L614.822 151.29L607.882 148.368V155.898H612.882ZM642.586 165.916L641.764 170.848L641.773 170.849L642.586 165.916ZM686.385 131.552L690.52 128.741L690.506 128.721L690.493 128.702L686.385 131.552ZM666.349 116.758L668.81 112.405L668.794 112.396L668.778 112.387L666.349 116.758ZM654.817 110.351L652.37 114.712L652.379 114.717L652.389 114.722L654.817 110.351ZM621.385 84.7242L625.4 81.7434L625.39 81.7306L625.381 81.7179L621.385 84.7242ZM627.21 24.1509L623.791 20.5023L623.784 20.5091L623.777 20.5158L627.21 24.1509ZM716.089 16.2298H721.089V12.2482L717.209 11.3567L716.089 16.2298ZM716.089 43.8372L714.329 48.5172L721.089 51.0597V43.8372H716.089ZM654.701 39.6437L657.921 43.4683L657.927 43.4631L654.701 39.6437ZM652.021 64.4555L656.053 61.4987L656.032 61.4698L656.011 61.4413L652.021 64.4555ZM671.941 78.7834L669.48 83.1362L669.495 83.1443L669.509 83.1522L671.941 78.7834ZM684.288 85.6561L686.744 81.3007L686.732 81.294L686.72 81.2873L684.288 85.6561ZM720.399 113.38L724.597 110.664L724.582 110.64L724.566 110.616L720.399 113.38ZM712.012 176.283L708.598 172.631L708.591 172.637L708.585 172.643L712.012 176.283ZM617.882 185.486V155.898H607.882V185.486H617.882ZM610.941 160.506C624.261 166.115 634.622 169.658 641.764 170.848L643.408 160.984C637.503 160 628.061 156.864 614.822 151.29L610.941 160.506ZM641.773 170.849C648.588 171.972 654.922 172.547 660.758 172.547V162.547C655.567 162.547 649.785 162.034 643.399 160.982L641.773 170.849ZM660.758 172.547C671.346 172.547 680.212 170.16 686.394 164.469L679.62 157.112C676.017 160.429 670.05 162.547 660.758 162.547V172.547ZM686.394 164.469C692.248 159.079 695.346 152.374 695.346 144.599H685.346C685.346 149.404 683.551 153.493 679.62 157.112L686.394 164.469ZM695.346 144.599C695.346 138.808 693.739 133.475 690.52 128.741L682.25 134.364C684.312 137.395 685.346 140.76 685.346 144.599H695.346ZM690.493 128.702C688.705 126.125 685.855 123.554 682.366 120.977C678.806 118.349 674.269 115.491 668.81 112.405L663.889 121.111C669.146 124.083 673.307 126.719 676.426 129.022C679.616 131.377 681.425 133.174 682.277 134.403L690.493 128.702ZM668.778 112.387L657.245 105.981L652.389 114.722L663.921 121.129L668.778 112.387ZM657.264 105.991C640.948 96.8326 630.573 88.7102 625.4 81.7434L617.371 87.7051C623.846 96.4252 635.759 105.388 652.37 114.712L657.264 105.991ZM625.381 81.7179C620.166 74.7882 617.532 66.7707 617.532 57.4662H607.532C607.532 68.8188 610.8 78.9733 617.39 87.7306L625.381 81.7179ZM617.532 57.4662C617.532 45.9305 621.815 36.123 630.643 27.786L623.777 20.5158C613.034 30.6615 607.532 43.0642 607.532 57.4662H617.532ZM630.628 27.7995C639.272 19.7 652.009 15.2889 669.611 15.2889V5.28893C650.403 5.28893 634.872 10.1192 623.791 20.5023L630.628 27.7995ZM669.611 15.2889C682.89 15.2889 697.998 17.2039 714.97 21.1028L717.209 11.3567C699.7 7.3345 683.823 5.28893 669.611 5.28893V15.2889ZM711.089 16.2298V43.8372H721.089V16.2298H711.089ZM717.85 39.1573C700.118 32.4883 685.505 28.9358 674.27 28.9358V38.9358C683.693 38.9358 696.959 41.9843 714.329 48.5172L717.85 39.1573ZM674.27 28.9358C665.065 28.9358 657.21 30.9783 651.474 35.8243L657.927 43.4631C661.2 40.6986 666.391 38.9358 674.27 38.9358V28.9358ZM651.48 35.8191C646.048 40.3937 643.061 46.2477 643.061 53.1562H653.061C653.061 49.5032 654.501 46.3489 657.921 43.4683L651.48 35.8191ZM643.061 53.1562C643.061 58.3761 644.795 63.1849 648.032 67.4696L656.011 61.4413C653.967 58.7368 653.061 56.0128 653.061 53.1562H643.061ZM647.989 67.4123C649.746 69.8074 652.565 72.244 656.004 74.7174C659.525 77.2502 664.034 80.0579 669.48 83.1362L674.401 74.4306C669.13 71.4516 664.961 68.8426 661.843 66.5994C658.642 64.2968 656.86 62.5982 656.053 61.4987L647.989 67.4123ZM669.509 83.1522L681.857 90.025L686.72 81.2873L674.372 74.4146L669.509 83.1522ZM681.833 90.0116C700.69 100.643 711.754 109.392 716.233 116.144L724.566 110.616C718.639 101.682 705.629 91.9476 686.744 81.3007L681.833 90.0116ZM716.202 116.096C720.779 123.171 723.088 131.111 723.088 140.056H733.088C733.088 129.275 730.271 119.432 724.597 110.664L716.202 116.096ZM723.088 140.056C723.088 152.747 718.347 163.518 708.598 172.631L715.427 179.936C727.112 169.013 733.088 155.632 733.088 140.056H723.088ZM708.585 172.643C699.292 181.393 683.854 186.31 661.107 186.31V196.31C684.956 196.31 703.455 191.209 715.44 179.923L708.585 172.643ZM661.107 186.31C647.73 186.31 632.016 184.429 613.918 180.594L611.845 190.377C630.402 194.309 646.838 196.31 661.107 196.31V186.31ZM837.935 187H832.935V192H837.935V187ZM837.935 162.887H842.935V145.5L833.699 160.231L837.935 162.887ZM768.276 180.244L764.924 183.954L764.945 183.973L764.966 183.992L768.276 180.244ZM757.442 59.0971V54.0971H752.442V59.0971H757.442ZM791.923 59.0971H796.923V54.0971H791.923V59.0971ZM793.786 155.199L789.314 157.435L789.342 157.49L789.371 157.545L793.786 155.199ZM799.028 160.907L796.433 165.181L796.522 165.235L796.613 165.285L799.028 160.907ZM821.277 158.111L823.869 162.387L823.892 162.373L823.916 162.358L821.277 158.111ZM837.935 139.59L842.122 142.322L842.935 141.077V139.59H837.935ZM837.935 59.0971V54.0971H832.935V59.0971H837.935ZM872.415 59.0971H877.415V54.0971H872.415V59.0971ZM872.415 187V192H877.415V187H872.415ZM842.935 187V162.887H832.935V187H842.935ZM833.699 160.231C827.867 169.532 821.602 175.763 815.036 179.351L819.831 188.126C828.33 183.482 835.732 175.812 842.171 165.543L833.699 160.231ZM815.036 179.351C808.167 183.104 801.297 184.912 794.369 184.912V194.912C803.127 194.912 811.634 192.605 819.831 188.126L815.036 179.351ZM794.369 184.912C785.443 184.912 777.935 182.103 771.585 176.496L764.966 183.992C773.216 191.276 783.103 194.912 794.369 194.912V184.912ZM771.627 176.533C765.845 171.311 762.442 162.686 762.442 149.491H752.442C752.442 164.254 756.261 176.13 764.924 183.954L771.627 176.533ZM762.442 149.491V59.0971H752.442V149.491H762.442ZM757.442 64.0971H791.923V54.0971H757.442V64.0971ZM786.923 59.0971V140.988H796.923V59.0971H786.923ZM786.923 140.988C786.923 144.61 787.082 147.775 787.431 150.433C787.77 153.016 788.327 155.461 789.314 157.435L798.258 152.963C798.003 152.452 797.628 151.286 797.346 149.132C797.073 147.053 796.923 144.354 796.923 140.988H786.923ZM789.371 157.545C791.067 160.738 793.41 163.345 796.433 165.181L801.623 156.633C800.298 155.828 799.146 154.63 798.202 152.853L789.371 157.545ZM796.613 165.285C799.647 166.959 802.97 167.771 806.483 167.771V157.771C804.561 157.771 802.914 157.34 801.444 156.529L796.613 165.285ZM806.483 167.771C812.347 167.771 818.167 165.843 823.869 162.387L818.686 153.835C814.137 156.592 810.094 157.771 806.483 157.771V167.771ZM823.916 162.358C829.98 158.591 836.017 151.679 842.122 142.322L833.748 136.857C827.894 145.828 822.826 151.263 818.639 153.864L823.916 162.358ZM842.935 139.59V59.0971H832.935V139.59H842.935ZM837.935 64.0971H872.415V54.0971H837.935V64.0971ZM867.415 59.0971V187H877.415V59.0971H867.415ZM872.415 182H837.935V192H872.415V182ZM915.632 187H910.632V192H915.632V187ZM915.632 3.06673V-1.93327H910.632V3.06673H915.632ZM950.112 3.06673H955.112V-1.93327H950.112V3.06673ZM950.112 83.2099H945.112L954.6 85.415L950.112 83.2099ZM967.236 62.9411L969.944 67.144L967.236 62.9411ZM1026.99 169.76L1022.93 166.847L1026.99 169.76ZM973.293 188.281L974.57 183.447L974.527 183.436L974.484 183.425L973.293 188.281ZM961.644 183.622L959.113 187.934L959.133 187.946L959.154 187.957L961.644 183.622ZM950.112 174.07L953.713 170.6L948.785 165.487L945.632 171.85L950.112 174.07ZM943.705 187V192H946.808L948.186 189.22L943.705 187ZM950.112 153.568H945.112V155.487L946.396 156.913L950.112 153.568ZM997.872 153.918L1002.34 156.169L1002.34 156.161L1002.34 156.154L997.872 153.918ZM998.105 93.6938L993.86 96.3353L993.87 96.3522L993.881 96.369L998.105 93.6938ZM964.207 88.5683L967.053 92.6793L967.06 92.6748L967.066 92.6703L964.207 88.5683ZM950.112 102.896L946.051 99.9802L945.112 101.287V102.896H950.112ZM920.632 187V3.06673H910.632V187H920.632ZM915.632 8.06673H950.112V-1.93327H915.632V8.06673ZM945.112 3.06673V83.2099H955.112V3.06673H945.112ZM954.6 85.415C958.709 77.0525 963.863 71.0631 969.944 67.144L964.527 58.7383C956.63 63.8275 950.368 71.3507 945.625 81.0048L954.6 85.415ZM969.944 67.144C976.018 63.2301 983.28 61.1849 991.931 61.1849V51.1849C981.634 51.1849 972.432 53.6439 964.527 58.7383L969.944 67.144ZM991.931 61.1849C1006.27 61.1849 1016.9 66.3822 1024.49 76.6322L1032.53 70.6837C1022.87 57.6363 1009.12 51.1849 991.931 51.1849V61.1849ZM1024.49 76.6322C1032.3 87.1888 1036.44 101.347 1036.44 119.554H1046.44C1046.44 99.8633 1041.96 83.4246 1032.53 70.6837L1024.49 76.6322ZM1036.44 119.554C1036.44 138.771 1031.83 154.428 1022.93 166.847L1031.06 172.673C1041.42 158.222 1046.44 140.409 1046.44 119.554H1036.44ZM1022.93 166.847C1014.29 178.907 1002.4 184.912 986.689 184.912V194.912C1005.46 194.912 1020.44 187.483 1031.06 172.673L1022.93 166.847ZM986.689 184.912C982.25 184.912 978.219 184.411 974.57 183.447L972.016 193.116C976.599 194.326 981.499 194.912 986.689 194.912V184.912ZM974.484 183.425C970.821 182.527 967.376 181.148 964.135 179.286L959.154 187.957C963.213 190.289 967.534 192.017 972.102 193.137L974.484 183.425ZM964.175 179.31C961.125 177.52 957.636 174.672 953.713 170.6L946.512 177.539C950.82 182.01 955.019 185.531 959.113 187.934L964.175 179.31ZM945.632 171.85L939.225 184.78L948.186 189.22L954.592 176.29L945.632 171.85ZM943.705 182H915.632V192H943.705V182ZM946.396 156.913C951.518 162.605 956.64 166.846 961.789 169.186L965.927 160.083C962.533 158.54 958.491 155.404 953.829 150.223L946.396 156.913ZM961.789 169.186C966.67 171.405 971.722 172.547 976.904 172.547V162.547C973.234 162.547 969.588 161.747 965.927 160.083L961.789 169.186ZM976.904 172.547C982.443 172.547 987.513 171.195 991.919 168.332C996.302 165.482 999.735 161.328 1002.34 156.169L993.407 151.666C991.427 155.594 989.074 158.253 986.469 159.947C983.885 161.626 980.762 162.547 976.904 162.547V172.547ZM1002.34 156.154C1007.32 146.197 1009.74 134.928 1009.74 122.466H999.745C999.745 133.612 997.585 143.311 993.4 151.682L1002.34 156.154ZM1009.74 122.466C1009.74 109.748 1007.45 99.1021 1002.33 91.0185L993.881 96.369C997.614 102.264 999.745 110.799 999.745 122.466H1009.74ZM1002.35 91.0522C997.11 82.6307 989.311 78.2099 979.467 78.2099V88.2099C985.776 88.2099 990.402 90.7784 993.86 96.3353L1002.35 91.0522ZM979.467 78.2099C973.176 78.2099 967.111 80.4498 961.348 84.4663L967.066 92.6703C971.554 89.5423 975.662 88.2099 979.467 88.2099V78.2099ZM961.361 84.4574C955.754 88.3392 950.664 93.5545 946.051 99.9802L954.174 105.812C958.258 100.123 962.565 95.7867 967.053 92.6793L961.361 84.4574ZM945.112 102.896V153.568H955.112V102.896H945.112ZM1073.82 187H1068.82V192H1073.82V187ZM1073.82 59.0971V54.0971H1068.82V59.0971H1073.82ZM1106.9 59.0971H1111.9V54.0971H1106.9V59.0971ZM1106.9 83.2099H1101.9V102.372L1111.27 85.6529L1106.9 83.2099ZM1166.2 59.0971L1164.25 63.7008L1164.28 63.7149L1164.31 63.7285L1166.2 59.0971ZM1178.31 68.0666L1174.5 71.3027L1174.53 71.3414L1174.57 71.3794L1178.31 68.0666ZM1185.18 83.2099L1180.25 84.0319L1182.34 96.5721L1189.35 85.9679L1185.18 83.2099ZM1204.52 62.4752L1201.84 58.2548L1201.83 58.262L1201.82 58.2693L1204.52 62.4752ZM1253.79 65.3874L1250.35 69.0091L1250.37 69.0304L1250.39 69.0513L1253.79 65.3874ZM1263.58 187V192H1268.58V187H1263.58ZM1230.5 187H1225.5V192H1230.5V187ZM1225.84 87.6364L1222.45 91.3104L1222.47 91.3318L1222.49 91.3529L1225.84 87.6364ZM1200.09 89.0343L1197.15 84.9906L1197.14 85.0013L1197.12 85.0121L1200.09 89.0343ZM1185.18 105.808L1181 103.065L1180.18 104.314V105.808H1185.18ZM1185.18 187V192H1190.18V187H1185.18ZM1152.1 187H1147.1V192H1152.1V187ZM1147.56 87.6364L1144.07 91.2188L1144.09 91.2414L1144.12 91.2637L1147.56 87.6364ZM1121.7 88.9178L1118.73 84.8956L1118.71 84.9066L1118.7 84.9178L1121.7 88.9178ZM1106.9 105.808L1102.71 103.085L1101.9 104.327V105.808H1106.9ZM1106.9 187V192H1111.9V187H1106.9ZM1078.82 187V59.0971H1068.82V187H1078.82ZM1073.82 64.0971H1106.9V54.0971H1073.82V64.0971ZM1101.9 59.0971V83.2099H1111.9V59.0971H1101.9ZM1111.27 85.6529C1115.27 78.5062 1120.49 72.6123 1126.96 67.9206L1121.09 59.8255C1113.43 65.3846 1107.24 72.382 1102.54 80.7669L1111.27 85.6529ZM1126.96 67.9206C1133.03 63.5169 1140.62 61.1849 1150 61.1849V51.1849C1138.89 51.1849 1129.15 53.9783 1121.09 59.8255L1126.96 67.9206ZM1150 61.1849C1155.71 61.1849 1160.41 62.0771 1164.25 63.7008L1168.15 54.4933C1162.81 52.2341 1156.73 51.1849 1150 51.1849V61.1849ZM1164.31 63.7285C1168.08 65.262 1171.48 67.743 1174.5 71.3027L1182.12 64.8304C1178.16 60.1584 1173.47 56.6597 1168.08 54.4656L1164.31 63.7285ZM1174.57 71.3794C1177.43 74.6214 1179.37 78.768 1180.25 84.0319L1190.12 82.3879C1188.97 75.5371 1186.33 69.5882 1182.06 64.7537L1174.57 71.3794ZM1189.35 85.9679C1195.51 76.6597 1201.5 70.3618 1207.22 66.6811L1201.82 58.2693C1194.5 62.9757 1187.59 70.501 1181.01 80.452L1189.35 85.9679ZM1207.2 66.6955C1212.85 63.1058 1219.88 61.1849 1228.52 61.1849V51.1849C1218.36 51.1849 1209.39 53.4575 1201.84 58.2548L1207.2 66.6955ZM1228.52 61.1849C1237.87 61.1849 1244.99 63.9074 1250.35 69.0091L1257.24 61.7656C1249.71 54.5974 1239.97 51.1849 1228.52 51.1849V61.1849ZM1250.39 69.0513C1255.46 73.7612 1258.58 81.932 1258.58 94.8586H1268.58C1268.58 80.6049 1265.17 69.1282 1257.2 61.7234L1250.39 69.0513ZM1258.58 94.8586V187H1268.58V94.8586H1258.58ZM1263.58 182H1230.5V192H1263.58V182ZM1235.5 187V106.158H1225.5V187H1235.5ZM1235.5 106.158C1235.5 101.154 1235.09 96.7748 1234.18 93.1437C1233.28 89.5641 1231.77 86.2457 1229.18 83.92L1222.49 91.3529C1223.01 91.8228 1223.83 92.9892 1224.48 95.5834C1225.12 98.1262 1225.5 101.61 1225.5 106.158H1235.5ZM1229.23 83.9624C1225.36 80.3914 1220.76 78.4429 1215.59 78.4429V88.4429C1218.03 88.4429 1220.26 89.29 1222.45 91.3104L1229.23 83.9624ZM1215.59 78.4429C1209.11 78.4429 1202.94 80.7797 1197.15 84.9906L1203.03 93.078C1207.5 89.8337 1211.65 88.4429 1215.59 88.4429V78.4429ZM1197.12 85.0121C1191.45 89.2053 1186.09 95.3068 1181 103.065L1189.36 108.552C1194.06 101.4 1198.65 96.3185 1203.06 93.0564L1197.12 85.0121ZM1180.18 105.808V187H1190.18V105.808H1180.18ZM1185.18 182H1152.1V192H1185.18V182ZM1157.1 187V106.158H1147.1V187H1157.1ZM1157.1 106.158C1157.1 101.195 1156.71 96.8473 1155.82 93.2307C1154.95 89.6651 1153.48 86.3658 1151 84.0091L1144.12 91.2637C1144.66 91.7804 1145.47 93.0047 1146.11 95.6129C1146.74 98.1701 1147.1 101.647 1147.1 106.158H1157.1ZM1151.05 84.0541C1147.14 80.2535 1142.31 78.3264 1136.84 78.3264V88.3264C1139.76 88.3264 1142.07 89.2727 1144.07 91.2188L1151.05 84.0541ZM1136.84 78.3264C1130.49 78.3264 1124.42 80.6896 1118.73 84.8956L1124.67 92.94C1129.07 89.6908 1133.1 88.3264 1136.84 88.3264V78.3264ZM1118.7 84.9178C1113.1 89.1169 1107.79 95.2602 1102.71 103.085L1111.1 108.532C1115.8 101.291 1120.36 96.1738 1124.7 92.9178L1118.7 84.9178ZM1101.9 105.808V187H1111.9V105.808H1101.9ZM1106.9 182H1073.82V192H1106.9V182ZM1305.17 187H1300.17V192H1305.17V187ZM1305.17 59.0971V54.0971H1300.17V59.0971H1305.17ZM1339.65 59.0971H1344.65V54.0971H1339.65V59.0971ZM1339.65 187V192H1344.65V187H1339.65ZM1305.17 37.5469H1300.17V42.5469H1305.17V37.5469ZM1305.17 8.7746V3.7746H1300.17V8.7746H1305.17ZM1339.65 8.7746H1344.65V3.7746H1339.65V8.7746ZM1339.65 37.5469V42.5469H1344.65V37.5469H1339.65ZM1310.17 187V59.0971H1300.17V187H1310.17ZM1305.17 64.0971H1339.65V54.0971H1305.17V64.0971ZM1334.65 59.0971V187H1344.65V59.0971H1334.65ZM1339.65 182H1305.17V192H1339.65V182ZM1310.17 37.5469V8.7746H1300.17V37.5469H1310.17ZM1305.17 13.7746H1339.65V3.7746H1305.17V13.7746ZM1334.65 8.7746V37.5469H1344.65V8.7746H1334.65ZM1339.65 32.5469H1305.17V42.5469H1339.65V32.5469ZM1448.68 186.301L1450.08 191.1L1453.68 190.048V186.301H1448.68ZM1403.01 185.136L1400.73 189.586L1403.01 185.136ZM1389.04 172.206L1384.68 174.66L1384.69 174.674L1384.69 174.687L1389.04 172.206ZM1384.38 80.6472H1389.38V75.6472H1384.38V80.6472ZM1370.05 80.6472H1365.05V85.6472H1370.05V80.6472ZM1370.05 59.0971V54.0971H1365.05V59.0971H1370.05ZM1384.38 59.0971V64.0971H1389.38V59.0971H1384.38ZM1384.38 37.5469L1383.81 32.5796L1379.38 33.0884V37.5469H1384.38ZM1418.86 33.5864H1423.86V27.9792L1418.29 28.619L1418.86 33.5864ZM1418.86 59.0971H1413.86V64.0971H1418.86V59.0971ZM1446.23 59.0971H1451.23V54.0971H1446.23V59.0971ZM1446.23 80.6472V85.6472H1451.23V80.6472H1446.23ZM1418.86 80.6472V75.6472H1413.86V80.6472H1418.86ZM1423.75 162.188L1420.21 165.724L1420.23 165.745L1420.26 165.766L1423.75 162.188ZM1448.68 165.333H1453.68V158.841L1447.4 160.499L1448.68 165.333ZM1447.27 181.502C1439.19 183.865 1433.25 184.912 1429.22 184.912V194.912C1434.67 194.912 1441.7 193.552 1450.08 191.1L1447.27 181.502ZM1429.22 184.912C1418.32 184.912 1410.5 183.353 1405.29 180.687L1400.73 189.586C1407.96 193.288 1417.6 194.912 1429.22 194.912V184.912ZM1405.29 180.687C1399.84 177.892 1395.95 174.224 1393.38 169.725L1384.69 174.687C1388.34 181.06 1393.76 186.012 1400.73 189.586L1405.29 180.687ZM1393.39 169.752C1390.9 165.336 1389.38 158.273 1389.38 147.977H1379.38C1379.38 158.959 1380.95 168.049 1384.68 174.66L1393.39 169.752ZM1389.38 147.977V80.6472H1379.38V147.977H1389.38ZM1384.38 75.6472H1370.05V85.6472H1384.38V75.6472ZM1375.05 80.6472V59.0971H1365.05V80.6472H1375.05ZM1370.05 64.0971H1384.38V54.0971H1370.05V64.0971ZM1389.38 59.0971V37.5469H1379.38V59.0971H1389.38ZM1384.95 42.5143L1419.43 38.5537L1418.29 28.619L1383.81 32.5796L1384.95 42.5143ZM1413.86 33.5864V59.0971H1423.86V33.5864H1413.86ZM1418.86 64.0971H1446.23V54.0971H1418.86V64.0971ZM1441.23 59.0971V80.6472H1451.23V59.0971H1441.23ZM1446.23 75.6472H1418.86V85.6472H1446.23V75.6472ZM1413.86 80.6472V143.434H1423.86V80.6472H1413.86ZM1413.86 143.434C1413.86 152.848 1415.43 160.941 1420.21 165.724L1427.28 158.653C1425.54 156.912 1423.86 152.503 1423.86 143.434H1413.86ZM1420.26 165.766C1424.76 170.162 1430.99 171.964 1438.08 171.964V161.964C1432.59 161.964 1429.26 160.582 1427.24 158.61L1420.26 165.766ZM1438.08 171.964C1441.6 171.964 1445.59 171.321 1449.95 170.168L1447.4 160.499C1443.53 161.52 1440.45 161.964 1438.08 161.964V171.964ZM1443.68 165.333V186.301H1453.68V165.333H1443.68ZM1545.36 186.301L1546.77 191.1L1550.36 190.048V186.301H1545.36ZM1499.7 185.136L1497.42 189.586L1499.7 185.136ZM1485.72 172.206L1481.36 174.66L1481.37 174.674L1481.38 174.687L1485.72 172.206ZM1481.06 80.6472H1486.06V75.6472H1481.06V80.6472ZM1466.73 80.6472H1461.73V85.6472H1466.73V80.6472ZM1466.73 59.0971V54.0971H1461.73V59.0971H1466.73ZM1481.06 59.0971V64.0971H1486.06V59.0971H1481.06ZM1481.06 37.5469L1480.49 32.5796L1476.06 33.0884V37.5469H1481.06ZM1515.54 33.5864H1520.54V27.9792L1514.97 28.619L1515.54 33.5864ZM1515.54 59.0971H1510.54V64.0971H1515.54V59.0971ZM1542.92 59.0971H1547.92V54.0971H1542.92V59.0971ZM1542.92 80.6472V85.6472H1547.92V80.6472H1542.92ZM1515.54 80.6472V75.6472H1510.54V80.6472H1515.54ZM1520.43 162.188L1516.9 165.724L1516.92 165.745L1516.94 165.766L1520.43 162.188ZM1545.36 165.333H1550.36V158.841L1544.08 160.499L1545.36 165.333ZM1543.96 181.502C1535.88 183.865 1529.93 184.912 1525.91 184.912V194.912C1531.36 194.912 1538.38 193.552 1546.77 191.1L1543.96 181.502ZM1525.91 184.912C1515.01 184.912 1507.18 183.353 1501.98 180.687L1497.42 189.586C1504.64 193.288 1514.29 194.912 1525.91 194.912V184.912ZM1501.98 180.687C1496.53 177.892 1492.63 174.224 1490.06 169.725L1481.38 174.687C1485.02 181.06 1490.44 186.012 1497.42 189.586L1501.98 180.687ZM1490.08 169.752C1487.59 165.336 1486.06 158.273 1486.06 147.977H1476.06C1476.06 158.959 1477.64 168.049 1481.36 174.66L1490.08 169.752ZM1486.06 147.977V80.6472H1476.06V147.977H1486.06ZM1481.06 75.6472H1466.73V85.6472H1481.06V75.6472ZM1471.73 80.6472V59.0971H1461.73V80.6472H1471.73ZM1466.73 64.0971H1481.06V54.0971H1466.73V64.0971ZM1486.06 59.0971V37.5469H1476.06V59.0971H1486.06ZM1481.63 42.5143L1516.11 38.5537L1514.97 28.619L1480.49 32.5796L1481.63 42.5143ZM1510.54 33.5864V59.0971H1520.54V33.5864H1510.54ZM1515.54 64.0971H1542.92V54.0971H1515.54V64.0971ZM1537.92 59.0971V80.6472H1547.92V59.0971H1537.92ZM1542.92 75.6472H1515.54V85.6472H1542.92V75.6472ZM1510.54 80.6472V143.434H1520.54V80.6472H1510.54ZM1510.54 143.434C1510.54 152.848 1512.12 160.941 1516.9 165.724L1523.97 158.653C1522.23 156.912 1520.54 152.503 1520.54 143.434H1510.54ZM1516.94 165.766C1521.44 170.162 1527.67 171.964 1534.76 171.964V161.964C1529.27 161.964 1525.95 160.582 1523.93 158.61L1516.94 165.766ZM1534.76 171.964C1538.29 171.964 1542.27 171.321 1546.64 170.168L1544.08 160.499C1540.22 161.52 1537.14 161.964 1534.76 161.964V171.964ZM1540.36 165.333V186.301H1550.36V165.333H1540.36ZM1680.25 182.69L1681.66 187.487L1685.25 186.432V182.69H1680.25ZM1597.08 182.224L1594.85 186.696L1594.87 186.706L1594.89 186.716L1597.08 182.224ZM1572.97 157.995L1568.51 160.256L1568.52 160.275L1568.53 160.294L1572.97 157.995ZM1571.69 89.0343L1567.17 86.8953L1567.16 86.9028L1567.16 86.9103L1571.69 89.0343ZM1592.54 65.0379L1595.24 69.2473L1595.25 69.2415L1592.54 65.0379ZM1680.25 129.921V134.921H1685.25V129.921H1680.25ZM1600.93 129.921V124.921H1595.46L1595.95 130.37L1600.93 129.921ZM1606.75 150.307L1602.51 152.957L1602.53 152.98L1602.54 153.004L1606.75 150.307ZM1619.56 162.188L1617.15 166.568L1617.18 166.581L1617.2 166.595L1619.56 162.188ZM1680.25 158.461H1685.25V151.286L1678.52 153.77L1680.25 158.461ZM1600.46 110.468L1595.49 109.963L1594.93 115.468H1600.46V110.468ZM1646.36 110.468V115.468H1651.36V110.468H1646.36ZM1640.42 85.3067L1636.45 88.3552L1636.47 88.3743L1636.48 88.3931L1640.42 85.3067ZM1608.61 86.1221L1612.54 89.2185L1612.55 89.2052L1612.56 89.1918L1608.61 86.1221ZM1678.84 177.893C1662.84 182.595 1647.79 184.912 1633.66 184.912V194.912C1648.88 194.912 1664.89 192.415 1681.66 187.487L1678.84 177.893ZM1633.66 184.912C1620.38 184.912 1608.96 182.465 1599.28 177.732L1594.89 186.716C1606.17 192.234 1619.14 194.912 1633.66 194.912V184.912ZM1599.32 177.752C1589.92 173.051 1582.62 165.766 1577.41 155.696L1568.53 160.294C1574.65 172.123 1583.44 180.991 1594.85 186.696L1599.32 177.752ZM1577.43 155.734C1572.21 145.437 1569.58 134.257 1569.58 122.117H1559.58C1559.58 135.759 1562.55 148.497 1568.51 160.256L1577.43 155.734ZM1569.58 122.117C1569.58 110.837 1571.81 100.542 1576.21 91.1582L1567.16 86.9103C1562.09 97.7178 1559.58 109.477 1559.58 122.117H1569.58ZM1576.21 91.1732C1580.64 81.8091 1586.98 74.5436 1595.24 69.2473L1589.84 60.8285C1579.93 67.181 1572.37 75.913 1567.17 86.8953L1576.21 91.1732ZM1595.25 69.2415C1603.44 63.9658 1613.71 61.1849 1626.32 61.1849V51.1849C1612.22 51.1849 1599.97 54.306 1589.83 60.8343L1595.25 69.2415ZM1626.32 61.1849C1641.55 61.1849 1653.24 65.9694 1661.93 75.2193L1669.22 68.369C1658.35 56.8065 1643.86 51.1849 1626.32 51.1849V61.1849ZM1661.93 75.2193C1670.31 84.1322 1675.25 101.767 1675.25 129.921H1685.25C1685.25 101.385 1680.41 80.2685 1669.22 68.369L1661.93 75.2193ZM1680.25 124.921H1600.93V134.921H1680.25V124.921ZM1595.95 130.37C1596.76 139.428 1598.84 147.08 1602.51 152.957L1610.99 147.657C1608.45 143.593 1606.64 137.655 1605.91 129.473L1595.95 130.37ZM1602.54 153.004C1606.19 158.702 1611.09 163.23 1617.15 166.568L1621.98 157.808C1617.32 155.244 1613.68 151.851 1610.96 147.609L1602.54 153.004ZM1617.2 166.595C1623.55 170.001 1631.65 171.498 1641.11 171.498V161.498C1632.56 161.498 1626.29 160.123 1621.93 157.782L1617.2 166.595ZM1641.11 171.498C1653.44 171.498 1667.08 168.65 1681.98 163.151L1678.52 153.77C1664.38 158.989 1651.93 161.498 1641.11 161.498V171.498ZM1675.25 158.461V182.69H1685.25V158.461H1675.25ZM1600.46 115.468H1646.36V105.468H1600.46V115.468ZM1651.36 110.468C1651.36 98.4356 1649.37 88.6253 1644.35 82.2202L1636.48 88.3931C1639.38 92.0836 1641.36 99.0475 1641.36 110.468H1651.36ZM1644.38 82.2581C1639.58 76.0161 1633.08 72.735 1625.27 72.735V82.735C1629.89 82.735 1633.49 84.5018 1636.45 88.3552L1644.38 82.2581ZM1625.27 72.735C1616.89 72.735 1609.91 76.3116 1604.67 83.0524L1612.56 89.1918C1616.02 84.7498 1620.14 82.735 1625.27 82.735V72.735ZM1604.69 83.0257C1599.52 89.5848 1596.62 98.768 1595.49 109.963L1605.43 110.973C1606.47 100.734 1609.02 93.6869 1612.54 89.2185L1604.69 83.0257ZM1796.39 187H1791.39V192H1796.39V187ZM1796.39 162.887H1801.39L1791.9 160.682L1796.39 162.887ZM1779.27 183.156L1776.56 178.953L1776.55 178.96L1776.54 178.967L1779.27 183.156ZM1718.11 172.556L1714.09 175.53L1714.1 175.536L1714.1 175.543L1718.11 172.556ZM1719.63 76.3372L1723.68 79.2612L1723.69 79.25L1719.63 76.3372ZM1772.74 57.6992L1771.49 62.5383L1771.53 62.5502L1771.58 62.5612L1772.74 57.6992ZM1796.39 72.0271L1792.92 75.6211L1801.39 83.8193V72.0271H1796.39ZM1796.39 3.06673V-1.93327H1791.39V3.06673H1796.39ZM1830.99 3.06673H1835.99V-1.93327H1830.99V3.06673ZM1830.99 187V192H1835.99V187H1830.99ZM1796.39 92.5289H1801.39V90.633L1800.13 89.2137L1796.39 92.5289ZM1748.75 92.0629L1744.31 89.7658L1744.3 89.7732L1744.3 89.7806L1748.75 92.0629ZM1748.28 152.287L1743.99 154.852L1744.01 154.88L1744.02 154.907L1748.28 152.287ZM1782.41 157.529L1785.3 161.61L1785.31 161.606L1785.31 161.602L1782.41 157.529ZM1796.39 143.201L1800.47 146.097L1801.39 144.796V143.201H1796.39ZM1801.39 187V162.887H1791.39V187H1801.39ZM1791.9 160.682C1787.79 169.045 1782.64 175.034 1776.56 178.953L1781.98 187.359C1789.87 182.27 1796.14 174.746 1800.88 165.092L1791.9 160.682ZM1776.54 178.967C1770.56 182.862 1763.31 184.912 1754.57 184.912V194.912C1764.94 194.912 1774.15 192.458 1782 187.345L1776.54 178.967ZM1754.57 184.912C1740.31 184.912 1729.71 179.75 1722.12 169.569L1714.1 175.543C1723.76 188.503 1737.47 194.912 1754.57 194.912V184.912ZM1722.13 169.581C1714.32 159.028 1710.18 144.833 1710.18 126.543H1700.18C1700.18 146.306 1704.66 162.786 1714.09 175.53L1722.13 169.581ZM1710.18 126.543C1710.18 107.243 1714.79 91.5932 1723.68 79.2612L1715.57 73.4132C1705.2 87.7955 1700.18 105.617 1700.18 126.543H1710.18ZM1723.69 79.25C1732.33 67.1904 1744.22 61.1849 1759.93 61.1849V51.1849C1741.16 51.1849 1726.18 58.6142 1715.56 73.4243L1723.69 79.25ZM1759.93 61.1849C1764.23 61.1849 1768.07 61.6511 1771.49 62.5383L1774 52.8601C1769.65 51.7282 1764.95 51.1849 1759.93 51.1849V61.1849ZM1771.58 62.5612C1775 63.3814 1778.29 64.6822 1781.47 66.4785L1786.39 57.7729C1782.42 55.5311 1778.26 53.8808 1773.91 52.8373L1771.58 62.5612ZM1781.47 66.4785C1784.52 68.202 1788.32 71.1793 1792.92 75.6211L1799.87 68.4332C1794.99 63.7113 1790.48 60.0877 1786.39 57.7729L1781.47 66.4785ZM1801.39 72.0271V3.06673H1791.39V72.0271H1801.39ZM1796.39 8.06673H1830.99V-1.93327H1796.39V8.06673ZM1825.99 3.06673V187H1835.99V3.06673H1825.99ZM1830.99 182H1796.39V192H1830.99V182ZM1800.13 89.2137C1795.08 83.5108 1789.99 79.2575 1784.83 76.9108L1780.69 86.0144C1784.07 87.5506 1788.07 90.6748 1792.65 95.8441L1800.13 89.2137ZM1784.83 76.9108C1779.95 74.692 1774.9 73.5504 1769.72 73.5504V83.5504C1773.39 83.5504 1777.03 84.3503 1780.69 86.0144L1784.83 76.9108ZM1769.72 73.5504C1764.22 73.5504 1759.17 74.8919 1754.78 77.7257C1750.4 80.5445 1746.95 84.6557 1744.31 89.7658L1753.19 94.3601C1755.21 90.4619 1757.58 87.8167 1760.19 86.1314C1762.79 84.461 1765.9 83.5504 1769.72 83.5504V73.5504ZM1744.3 89.7806C1739.29 99.5492 1736.88 110.885 1736.88 123.631H1746.88C1746.88 112.147 1749.05 102.438 1753.2 94.3453L1744.3 89.7806ZM1736.88 123.631C1736.88 136.121 1739.1 146.665 1743.99 154.852L1752.57 149.721C1748.93 143.619 1746.88 135.059 1746.88 123.631H1736.88ZM1744.02 154.907C1749.26 163.421 1757.11 167.887 1767.04 167.887V157.887C1760.66 157.887 1756 155.286 1752.54 149.666L1744.02 154.907ZM1767.04 167.887C1773.46 167.887 1779.57 165.665 1785.3 161.61L1779.52 153.447C1775.16 156.537 1771.02 157.887 1767.04 157.887V167.887ZM1785.31 161.602C1790.96 157.583 1796 152.387 1800.47 146.097L1792.32 140.305C1788.4 145.819 1784.12 150.175 1779.51 153.456L1785.31 161.602ZM1801.39 143.201V92.5289H1791.39V143.201H1801.39Z" fill="#DCA413" mask="url(#path-5-outside-3_0_1)"/>
</svg>
