<svg width="3110" height="234" viewBox="0 0 3110 234" fill="none" xmlns="http://www.w3.org/2000/svg">
<mask id="path-1-outside-1_0_1" maskUnits="userSpaceOnUse" x="-5" y="9" width="516" height="186" fill="black">
<rect fill="white" x="-5" y="9" width="516" height="186"/>
<path d="M0.55013 187V14.599H36.4282V187H0.55013ZM145.693 186.301C137.461 188.708 130.977 189.912 126.24 189.912C114.979 189.912 106.243 188.32 100.03 185.136C93.8175 181.952 89.1581 177.642 86.0517 172.206C82.9454 166.692 81.3922 158.616 81.3922 147.977V80.6472H67.0643V59.0971H81.3922V37.5469L115.872 33.5864V59.0971H143.247V80.6472H115.872V143.434C115.872 152.675 117.503 158.927 120.765 162.188C124.027 165.372 128.803 166.964 135.093 166.964C138.044 166.964 141.577 166.421 145.693 165.333V186.301ZM280.585 182.69C264.199 187.505 248.668 189.912 233.99 189.912C220.09 189.912 207.897 187.349 197.413 182.224C187.007 177.021 178.97 168.944 173.301 157.995C167.709 146.967 164.914 135.008 164.914 122.117C164.914 110.157 167.282 99.1298 172.019 89.0343C176.834 78.8611 183.784 70.8623 192.87 65.0379C202.034 59.1359 213.295 56.1849 226.652 56.1849C243.038 56.1849 256.123 61.388 265.908 71.7942C275.693 82.2004 280.585 101.576 280.585 129.921H201.258C202.034 138.541 203.976 145.336 207.082 150.307C210.266 155.277 214.537 159.237 219.896 162.188C225.254 165.062 232.437 166.498 241.446 166.498C253.017 166.498 266.063 163.819 280.585 158.461V182.69ZM200.792 110.468H246.688C246.688 98.7415 244.707 90.3545 240.747 85.3067C236.864 80.2589 231.816 77.735 225.603 77.735C218.847 77.735 213.295 80.5307 208.946 86.1221C204.597 91.6358 201.879 99.7511 200.792 110.468ZM316.23 187V59.0971H349.313V83.2099C353.662 75.4441 359.369 68.9985 366.436 63.873C373.503 58.7476 382.162 56.1849 392.413 56.1849C398.626 56.1849 404.023 57.1556 408.605 59.0971C413.187 60.9609 417.225 63.9507 420.719 68.0666C424.292 72.1048 426.583 77.1526 427.592 83.2099C433.96 73.5803 440.406 66.6687 446.929 62.4752C453.53 58.2817 461.529 56.1849 470.925 56.1849C481.332 56.1849 489.757 59.2524 496.203 65.3874C502.726 71.4447 505.988 81.2685 505.988 94.8586V187H472.906V106.158C472.906 96.6059 471.353 90.4321 468.246 87.6364C465.218 84.8407 461.801 83.4429 457.995 83.4429C452.792 83.4429 447.628 85.3067 442.503 89.0343C437.455 92.7619 432.485 98.3532 427.592 105.808V187H394.51V106.158C394.51 96.6836 392.995 90.5098 389.967 87.6364C387.016 84.7631 383.444 83.3264 379.25 83.3264C374.202 83.3264 369.154 85.1902 364.107 88.9178C359.137 92.6454 354.205 98.2756 349.313 105.808V187H316.23Z"/>
</mask>
<path d="M0.55013 187V14.599H36.4282V187H0.55013ZM145.693 186.301C137.461 188.708 130.977 189.912 126.24 189.912C114.979 189.912 106.243 188.32 100.03 185.136C93.8175 181.952 89.1581 177.642 86.0517 172.206C82.9454 166.692 81.3922 158.616 81.3922 147.977V80.6472H67.0643V59.0971H81.3922V37.5469L115.872 33.5864V59.0971H143.247V80.6472H115.872V143.434C115.872 152.675 117.503 158.927 120.765 162.188C124.027 165.372 128.803 166.964 135.093 166.964C138.044 166.964 141.577 166.421 145.693 165.333V186.301ZM280.585 182.69C264.199 187.505 248.668 189.912 233.99 189.912C220.09 189.912 207.897 187.349 197.413 182.224C187.007 177.021 178.97 168.944 173.301 157.995C167.709 146.967 164.914 135.008 164.914 122.117C164.914 110.157 167.282 99.1298 172.019 89.0343C176.834 78.8611 183.784 70.8623 192.87 65.0379C202.034 59.1359 213.295 56.1849 226.652 56.1849C243.038 56.1849 256.123 61.388 265.908 71.7942C275.693 82.2004 280.585 101.576 280.585 129.921H201.258C202.034 138.541 203.976 145.336 207.082 150.307C210.266 155.277 214.537 159.237 219.896 162.188C225.254 165.062 232.437 166.498 241.446 166.498C253.017 166.498 266.063 163.819 280.585 158.461V182.69ZM200.792 110.468H246.688C246.688 98.7415 244.707 90.3545 240.747 85.3067C236.864 80.2589 231.816 77.735 225.603 77.735C218.847 77.735 213.295 80.5307 208.946 86.1221C204.597 91.6358 201.879 99.7511 200.792 110.468ZM316.23 187V59.0971H349.313V83.2099C353.662 75.4441 359.369 68.9985 366.436 63.873C373.503 58.7476 382.162 56.1849 392.413 56.1849C398.626 56.1849 404.023 57.1556 408.605 59.0971C413.187 60.9609 417.225 63.9507 420.719 68.0666C424.292 72.1048 426.583 77.1526 427.592 83.2099C433.96 73.5803 440.406 66.6687 446.929 62.4752C453.53 58.2817 461.529 56.1849 470.925 56.1849C481.332 56.1849 489.757 59.2524 496.203 65.3874C502.726 71.4447 505.988 81.2685 505.988 94.8586V187H472.906V106.158C472.906 96.6059 471.353 90.4321 468.246 87.6364C465.218 84.8407 461.801 83.4429 457.995 83.4429C452.792 83.4429 447.628 85.3067 442.503 89.0343C437.455 92.7619 432.485 98.3532 427.592 105.808V187H394.51V106.158C394.51 96.6836 392.995 90.5098 389.967 87.6364C387.016 84.7631 383.444 83.3264 379.25 83.3264C374.202 83.3264 369.154 85.1902 364.107 88.9178C359.137 92.6454 354.205 98.2756 349.313 105.808V187H316.23Z" fill="#DCA413"/>
<path d="M0.550131 187H-4.44987V192H0.550131V187ZM0.550131 14.599V9.59896H-4.44987V14.599H0.550131ZM36.4282 14.599H41.4282V9.59896H36.4282V14.599ZM36.4282 187V192H41.4282V187H36.4282ZM5.55013 187V14.599H-4.44987V187H5.55013ZM0.550131 19.599H36.4282V9.59896H0.550131V19.599ZM31.4282 14.599V187H41.4282V14.599H31.4282ZM36.4282 182H0.550131V192H36.4282V182ZM145.693 186.301L147.097 191.1L150.693 190.048V186.301H145.693ZM100.03 185.136L97.7497 189.586L100.03 185.136ZM86.0517 172.206L81.6955 174.66L81.703 174.674L81.7105 174.687L86.0517 172.206ZM81.3922 80.6472H86.3922V75.6472H81.3922V80.6472ZM67.0643 80.6472H62.0643V85.6472H67.0643V80.6472ZM67.0643 59.0971V54.0971H62.0643V59.0971H67.0643ZM81.3922 59.0971V64.0971H86.3922V59.0971H81.3922ZM81.3922 37.5469L80.8217 32.5796L76.3922 33.0884V37.5469H81.3922ZM115.872 33.5864H120.872V27.9792L115.302 28.619L115.872 33.5864ZM115.872 59.0971H110.872V64.0971H115.872V59.0971ZM143.247 59.0971H148.247V54.0971H143.247V59.0971ZM143.247 80.6472V85.6472H148.247V80.6472H143.247ZM115.872 80.6472V75.6472H110.872V80.6472H115.872ZM120.765 162.188L117.229 165.724L117.251 165.745L117.272 165.766L120.765 162.188ZM145.693 165.333H150.693V158.841L144.416 160.499L145.693 165.333ZM144.29 181.502C136.209 183.865 130.264 184.912 126.24 184.912V194.912C131.69 194.912 138.714 193.552 147.097 191.1L144.29 181.502ZM126.24 184.912C115.339 184.912 107.513 183.353 102.311 180.687L97.7497 189.586C104.973 193.288 114.619 194.912 126.24 194.912V184.912ZM102.311 180.687C96.8586 177.892 92.9637 174.224 90.3929 169.725L81.7105 174.687C85.3525 181.06 90.7765 186.012 97.7497 189.586L102.311 180.687ZM90.408 169.752C87.9201 165.336 86.3922 158.273 86.3922 147.977H76.3922C76.3922 158.959 77.9707 168.049 81.6955 174.66L90.408 169.752ZM86.3922 147.977V80.6472H76.3922V147.977H86.3922ZM81.3922 75.6472H67.0643V85.6472H81.3922V75.6472ZM72.0643 80.6472V59.0971H62.0643V80.6472H72.0643ZM67.0643 64.0971H81.3922V54.0971H67.0643V64.0971ZM86.3922 59.0971V37.5469H76.3922V59.0971H86.3922ZM81.9628 42.5143L116.443 38.5537L115.302 28.619L80.8217 32.5796L81.9628 42.5143ZM110.872 33.5864V59.0971H120.872V33.5864H110.872ZM115.872 64.0971H143.247V54.0971H115.872V64.0971ZM138.247 59.0971V80.6472H148.247V59.0971H138.247ZM143.247 75.6472H115.872V85.6472H143.247V75.6472ZM110.872 80.6472V143.434H120.872V80.6472H110.872ZM110.872 143.434C110.872 152.848 112.447 160.941 117.229 165.724L124.3 158.653C122.56 156.912 120.872 152.503 120.872 143.434H110.872ZM117.272 165.766C121.775 170.162 128.002 171.964 135.093 171.964V161.964C129.604 161.964 126.278 160.582 124.258 158.61L117.272 165.766ZM135.093 171.964C138.619 171.964 142.604 171.321 146.97 170.168L144.416 160.499C140.55 161.52 137.469 161.964 135.093 161.964V171.964ZM140.693 165.333V186.301H150.693V165.333H140.693ZM280.585 182.69L281.995 187.487L285.585 186.432V182.69H280.585ZM197.413 182.224L195.177 186.696L195.197 186.706L195.217 186.716L197.413 182.224ZM173.301 157.995L168.841 160.256L168.851 160.275L168.86 160.294L173.301 157.995ZM172.019 89.0343L167.5 86.8953L167.496 86.9028L167.493 86.9103L172.019 89.0343ZM192.87 65.0379L195.569 69.2473L195.578 69.2415L192.87 65.0379ZM280.585 129.921V134.921H285.585V129.921H280.585ZM201.258 129.921V124.921H195.787L196.278 130.37L201.258 129.921ZM207.082 150.307L202.842 152.957L202.857 152.98L202.872 153.004L207.082 150.307ZM219.896 162.188L217.483 166.568L217.508 166.581L217.533 166.595L219.896 162.188ZM280.585 158.461H285.585V151.286L278.854 153.77L280.585 158.461ZM200.792 110.468L195.817 109.963L195.259 115.468H200.792V110.468ZM246.688 110.468V115.468H251.688V110.468H246.688ZM240.747 85.3067L236.784 88.3552L236.798 88.3743L236.813 88.3931L240.747 85.3067ZM208.946 86.1221L212.872 89.2185L212.882 89.2052L212.892 89.1918L208.946 86.1221ZM279.176 177.893C263.175 182.595 248.12 184.912 233.99 184.912V194.912C249.215 194.912 265.224 192.415 281.995 187.487L279.176 177.893ZM233.99 184.912C220.707 184.912 209.291 182.465 199.61 177.732L195.217 186.716C206.504 192.234 219.473 194.912 233.99 194.912V184.912ZM199.65 177.752C190.248 173.051 182.954 165.766 177.741 155.696L168.86 160.294C174.985 172.123 183.767 180.991 195.177 186.696L199.65 177.752ZM177.76 155.734C172.539 145.437 169.914 134.257 169.914 122.117H159.914C159.914 135.759 162.879 148.497 168.841 160.256L177.76 155.734ZM169.914 122.117C169.914 110.837 172.143 100.542 176.546 91.1582L167.493 86.9103C162.422 97.7178 159.914 109.477 159.914 122.117H169.914ZM176.539 91.1732C180.971 81.8091 187.307 74.5436 195.569 69.2473L190.172 60.8285C180.262 67.181 172.698 75.913 167.5 86.8953L176.539 91.1732ZM195.578 69.2415C203.769 63.9658 214.037 61.1849 226.652 61.1849V51.1849C212.552 51.1849 200.299 54.306 190.163 60.8343L195.578 69.2415ZM226.652 61.1849C241.881 61.1849 253.568 65.9694 262.265 75.2193L269.551 68.369C258.678 56.8065 244.195 51.1849 226.652 51.1849V61.1849ZM262.265 75.2193C270.646 84.1322 275.585 101.767 275.585 129.921H285.585C285.585 101.385 280.74 80.2685 269.551 68.369L262.265 75.2193ZM280.585 124.921H201.258V134.921H280.585V124.921ZM196.278 130.37C197.094 139.428 199.169 147.08 202.842 152.957L211.322 147.657C208.782 143.593 206.975 137.655 206.237 129.473L196.278 130.37ZM202.872 153.004C206.522 158.702 211.422 163.23 217.483 166.568L222.308 157.808C217.652 155.244 214.01 151.851 211.292 147.609L202.872 153.004ZM217.533 166.595C223.884 170.001 231.98 171.498 241.446 171.498V161.498C232.895 161.498 226.624 160.123 222.258 157.782L217.533 166.595ZM241.446 171.498C253.769 171.498 267.416 168.65 282.316 163.151L278.854 153.77C264.711 158.989 252.264 161.498 241.446 161.498V171.498ZM275.585 158.461V182.69H285.585V158.461H275.585ZM200.792 115.468H246.688V105.468H200.792V115.468ZM251.688 110.468C251.688 98.4356 249.706 88.6253 244.68 82.2202L236.813 88.3931C239.709 92.0836 241.688 99.0475 241.688 110.468H251.688ZM244.71 82.2581C239.908 76.0161 233.413 72.735 225.603 72.735V82.735C230.219 82.735 233.819 84.5018 236.784 88.3552L244.71 82.2581ZM225.603 72.735C217.219 72.735 210.242 76.3116 204.999 83.0524L212.892 89.1918C216.347 84.7498 220.475 82.735 225.603 82.735V72.735ZM205.02 83.0257C199.847 89.5848 196.953 98.768 195.817 109.963L205.766 110.973C206.805 100.734 209.347 93.6869 212.872 89.2185L205.02 83.0257ZM316.23 187H311.23V192H316.23V187ZM316.23 59.0971V54.0971H311.23V59.0971H316.23ZM349.313 59.0971H354.313V54.0971H349.313V59.0971ZM349.313 83.2099H344.313V102.372L353.675 85.6529L349.313 83.2099ZM408.605 59.0971L406.654 63.7008L406.687 63.7149L406.721 63.7285L408.605 59.0971ZM420.719 68.0666L416.908 71.3027L416.941 71.3414L416.974 71.3794L420.719 68.0666ZM427.592 83.2099L422.66 84.0319L424.75 96.5721L431.763 85.9679L427.592 83.2099ZM446.929 62.4752L444.248 58.2548L444.237 58.262L444.225 58.2693L446.929 62.4752ZM496.203 65.3874L492.756 69.0091L492.778 69.0304L492.801 69.0513L496.203 65.3874ZM505.988 187V192H510.988V187H505.988ZM472.906 187H467.906V192H472.906V187ZM468.246 87.6364L464.855 91.3104L464.878 91.3318L464.901 91.3529L468.246 87.6364ZM442.503 89.0343L439.562 84.9906L439.547 85.0013L439.532 85.0121L442.503 89.0343ZM427.592 105.808L423.412 103.065L422.592 104.314V105.808H427.592ZM427.592 187V192H432.592V187H427.592ZM394.51 187H389.51V192H394.51V187ZM389.967 87.6364L386.479 91.2188L386.502 91.2414L386.525 91.2637L389.967 87.6364ZM364.107 88.9178L361.136 84.8956L361.121 84.9066L361.107 84.9178L364.107 88.9178ZM349.313 105.808L345.12 103.085L344.313 104.327V105.808H349.313ZM349.313 187V192H354.313V187H349.313ZM321.23 187V59.0971H311.23V187H321.23ZM316.23 64.0971H349.313V54.0971H316.23V64.0971ZM344.313 59.0971V83.2099H354.313V59.0971H344.313ZM353.675 85.6529C357.677 78.5062 362.903 72.6123 369.372 67.9206L363.501 59.8255C355.836 65.3846 349.646 72.382 344.95 80.7669L353.675 85.6529ZM369.372 67.9206C375.444 63.5169 383.027 61.1849 392.413 61.1849V51.1849C381.297 51.1849 371.563 53.9783 363.501 59.8255L369.372 67.9206ZM392.413 61.1849C398.117 61.1849 402.822 62.0771 406.654 63.7008L410.555 54.4933C405.224 52.2341 399.135 51.1849 392.413 51.1849V61.1849ZM406.721 63.7285C410.49 65.262 413.885 67.743 416.908 71.3027L424.531 64.8304C420.564 60.1584 415.883 56.6597 410.489 54.4656L406.721 63.7285ZM416.974 71.3794C419.842 74.6214 421.783 78.768 422.66 84.0319L432.524 82.3879C431.382 75.5371 428.741 69.5882 424.464 64.7537L416.974 71.3794ZM431.763 85.9679C437.918 76.6597 443.907 70.3618 449.633 66.6811L444.225 58.2693C436.904 62.9757 430.002 70.501 423.422 80.452L431.763 85.9679ZM449.61 66.6955C455.261 63.1058 462.285 61.1849 470.925 61.1849V51.1849C460.772 51.1849 451.799 53.4575 444.248 58.2548L449.61 66.6955ZM470.925 61.1849C480.281 61.1849 487.396 63.9074 492.756 69.0091L499.65 61.7656C492.119 54.5974 482.382 51.1849 470.925 51.1849V61.1849ZM492.801 69.0513C497.873 73.7612 500.988 81.932 500.988 94.8586H510.988C510.988 80.6049 507.58 69.1282 499.605 61.7234L492.801 69.0513ZM500.988 94.8586V187H510.988V94.8586H500.988ZM505.988 182H472.906V192H505.988V182ZM477.906 187V106.158H467.906V187H477.906ZM477.906 106.158C477.906 101.154 477.503 96.7748 476.59 93.1437C475.689 89.5641 474.175 86.2457 471.591 83.92L464.901 91.3529C465.423 91.8228 466.239 92.9892 466.892 95.5834C467.532 98.1262 467.906 101.61 467.906 106.158H477.906ZM471.638 83.9624C467.769 80.3914 463.167 78.4429 457.995 78.4429V88.4429C460.434 88.4429 462.666 89.29 464.855 91.3104L471.638 83.9624ZM457.995 78.4429C451.523 78.4429 445.352 80.7797 439.562 84.9906L445.443 93.078C449.904 89.8337 454.062 88.4429 457.995 88.4429V78.4429ZM439.532 85.0121C433.854 89.2053 428.503 95.3068 423.412 103.065L431.772 108.552C436.466 101.4 441.055 96.3185 445.473 93.0564L439.532 85.0121ZM422.592 105.808V187H432.592V105.808H422.592ZM427.592 182H394.51V192H427.592V182ZM399.51 187V106.158H389.51V187H399.51ZM399.51 106.158C399.51 101.195 399.117 96.8473 398.23 93.2307C397.355 89.6651 395.892 86.3658 393.408 84.0091L386.525 91.2637C387.07 91.7804 387.878 93.0047 388.518 95.6129C389.145 98.1701 389.51 101.647 389.51 106.158H399.51ZM393.455 84.0541C389.552 80.2535 384.72 78.3264 379.25 78.3264V88.3264C382.167 88.3264 384.48 89.2727 386.479 91.2188L393.455 84.0541ZM379.25 78.3264C372.896 78.3264 366.832 80.6896 361.136 84.8956L367.077 92.94C371.477 89.6908 375.508 88.3264 379.25 88.3264V78.3264ZM361.107 84.9178C355.508 89.1169 350.202 95.2602 345.12 103.085L353.506 108.532C358.209 101.291 362.765 96.1738 367.107 92.9178L361.107 84.9178ZM344.313 105.808V187H354.313V105.808H344.313ZM349.313 182H316.23V192H349.313V182Z" fill="#1B1B1B" mask="url(#path-1-outside-1_0_1)"/>
<mask id="path-3-outside-2_0_1" maskUnits="userSpaceOnUse" x="1612" y="-5" width="1506" height="244" fill="black">
<rect fill="white" x="1612" y="-5" width="1506" height="244"/>
<path d="M1617.88 185.486V155.898C1631.16 161.489 1641.06 164.829 1647.59 165.916C1654.19 167.003 1660.24 167.547 1665.76 167.547C1675.7 167.547 1683.11 165.295 1688.01 160.79C1692.9 156.286 1695.35 150.889 1695.35 144.599C1695.35 139.784 1694.03 135.435 1691.39 131.552C1688.74 127.747 1682.07 122.816 1671.35 116.758L1659.82 110.351C1643.35 101.11 1632.21 92.5677 1626.39 84.7242C1620.48 76.8808 1617.53 67.7948 1617.53 57.4662C1617.53 44.4973 1622.42 33.3922 1632.21 24.1509C1642.07 14.9096 1656.21 10.2889 1674.61 10.2889C1688.36 10.2889 1703.85 12.2692 1721.09 16.2298V43.8372C1703.54 37.2363 1689.6 33.9358 1679.27 33.9358C1670.73 33.9358 1664.2 35.8385 1659.7 39.6437C1655.27 43.3713 1653.06 47.8755 1653.06 53.1562C1653.06 57.1944 1654.38 60.9609 1657.02 64.4555C1659.58 67.9501 1666.22 72.7261 1676.94 78.7834L1689.29 85.6561C1708.16 96.2953 1720.2 105.537 1725.4 113.38C1730.52 121.301 1733.09 130.193 1733.09 140.056C1733.09 154.189 1727.73 166.265 1717.01 176.283C1706.37 186.301 1689.4 191.31 1666.11 191.31C1652.28 191.31 1636.21 189.369 1617.88 185.486ZM1842.93 187V162.887C1836.8 172.672 1829.97 179.622 1822.43 183.738C1814.9 187.854 1807.21 189.912 1799.37 189.912C1789.27 189.912 1780.58 186.689 1773.28 180.244C1766.05 173.72 1762.44 163.47 1762.44 149.491V59.0971H1796.92V140.988C1796.92 147.977 1797.54 152.714 1798.79 155.199C1800.11 157.684 1801.85 159.587 1804.03 160.907C1806.28 162.149 1808.77 162.771 1811.48 162.771C1816.22 162.771 1821.15 161.218 1826.28 158.111C1831.4 154.927 1836.96 148.753 1842.93 139.59V59.0971H1877.42V187H1842.93ZM2014.99 184.204C2000.7 188.01 1987.38 189.912 1975.03 189.912C1953.13 189.912 1936.67 183.467 1925.64 170.575C1914.61 157.606 1909.1 141.725 1909.1 122.932C1909.1 103.207 1914.92 87.1705 1926.57 74.8228C1938.22 62.3975 1955.35 56.1849 1977.94 56.1849C1988.35 56.1849 2000.35 57.8545 2013.94 61.1938V86.1221C1999.8 81.5403 1988.54 79.2493 1980.16 79.2493C1968.2 79.2493 1959.46 83.7923 1953.95 92.8784C1948.43 101.887 1945.68 111.827 1945.68 122.699C1945.68 131.086 1947.27 138.93 1950.45 146.229C1953.64 153.452 1958.06 158.732 1963.73 162.072C1969.48 165.411 1975.92 167.081 1983.07 167.081C1993.4 167.081 2004.04 164.829 2014.99 160.324V184.204ZM2141.96 184.204C2127.67 188.01 2114.35 189.912 2102 189.912C2080.1 189.912 2063.64 183.467 2052.61 170.575C2041.58 157.606 2036.07 141.725 2036.07 122.932C2036.07 103.207 2041.9 87.1705 2053.54 74.8228C2065.19 62.3975 2082.32 56.1849 2104.91 56.1849C2115.32 56.1849 2127.32 57.8545 2140.91 61.1938V86.1221C2126.78 81.5403 2115.51 79.2493 2107.13 79.2493C2095.17 79.2493 2086.43 83.7923 2080.92 92.8784C2075.4 101.887 2072.65 111.827 2072.65 122.699C2072.65 131.086 2074.24 138.93 2077.42 146.229C2080.61 153.452 2085.03 158.732 2090.7 162.072C2096.45 165.411 2102.9 167.081 2110.04 167.081C2120.37 167.081 2131.01 164.829 2141.96 160.324V184.204ZM2278.71 182.69C2262.33 187.505 2246.8 189.912 2232.12 189.912C2218.22 189.912 2206.03 187.349 2195.54 182.224C2185.14 177.021 2177.1 168.944 2171.43 157.995C2165.84 146.967 2163.04 135.008 2163.04 122.117C2163.04 110.157 2165.41 99.1298 2170.15 89.0343C2174.96 78.8611 2181.91 70.8623 2191 65.0379C2200.16 59.1359 2211.42 56.1849 2224.78 56.1849C2241.17 56.1849 2254.25 61.388 2264.04 71.7942C2273.82 82.2004 2278.71 101.576 2278.71 129.921H2199.39C2200.16 138.541 2202.1 145.336 2205.21 150.307C2208.39 155.277 2212.67 159.237 2218.02 162.188C2223.38 165.062 2230.57 166.498 2239.57 166.498C2251.14 166.498 2264.19 163.819 2278.71 158.461V182.69ZM2198.92 110.468H2244.82C2244.82 98.7415 2242.84 90.3545 2238.87 85.3067C2234.99 80.2589 2229.94 77.735 2223.73 77.735C2216.98 77.735 2211.42 80.5307 2207.07 86.1221C2202.73 91.6358 2200.01 99.7511 2198.92 110.468ZM2310.98 182.923V157.645C2328.07 164.79 2342.66 168.362 2354.78 168.362C2361.23 168.362 2366.35 167.003 2370.16 164.285C2374.04 161.567 2375.98 158.111 2375.98 153.918C2375.98 150.268 2374.54 147.2 2371.67 144.715C2368.8 142.308 2364.41 139.939 2358.51 137.609L2346.86 132.95C2334.82 128.135 2325.93 122.816 2320.18 116.991C2314.44 111.244 2311.56 103.75 2311.56 94.5092C2311.56 83.4041 2315.87 74.2404 2324.49 67.0182C2333.19 59.796 2346.43 56.1849 2364.22 56.1849C2374.62 56.1849 2387.01 57.6992 2401.37 60.7279V84.9572C2387.55 80.1424 2376.1 77.735 2367.01 77.735C2359.87 77.735 2354.51 78.9775 2350.94 81.4626C2347.36 83.87 2345.58 87.0152 2345.58 90.8981C2345.58 93.9267 2346.74 96.6059 2349.07 98.9357C2351.32 101.265 2355.44 103.556 2361.42 105.808L2371.44 109.653C2387.98 115.943 2398.81 122.039 2403.94 127.941C2408.99 133.921 2411.51 141.065 2411.51 149.375C2411.51 160.169 2406.85 169.643 2397.53 177.798C2388.29 185.874 2374.82 189.912 2357.11 189.912C2342.04 189.912 2326.67 187.582 2310.98 182.923ZM2445.87 182.923V157.645C2462.96 164.79 2477.56 168.362 2489.67 168.362C2496.12 168.362 2501.24 167.003 2505.05 164.285C2508.93 161.567 2510.87 158.111 2510.87 153.918C2510.87 150.268 2509.44 147.2 2506.56 144.715C2503.69 142.308 2499.3 139.939 2493.4 137.609L2481.75 132.95C2469.71 128.135 2460.82 122.816 2455.08 116.991C2449.33 111.244 2446.46 103.75 2446.46 94.5092C2446.46 83.4041 2450.77 74.2404 2459.39 67.0182C2468.08 59.796 2481.32 56.1849 2499.11 56.1849C2509.51 56.1849 2521.9 57.6992 2536.27 60.7279V84.9572C2522.44 80.1424 2510.99 77.735 2501.9 77.735C2494.76 77.735 2489.4 78.9775 2485.83 81.4626C2482.26 83.87 2480.47 87.0152 2480.47 90.8981C2480.47 93.9267 2481.63 96.6059 2483.96 98.9357C2486.22 101.265 2490.33 103.556 2496.31 105.808L2506.33 109.653C2522.87 115.943 2533.7 122.039 2538.83 127.941C2543.88 133.921 2546.4 141.065 2546.4 149.375C2546.4 160.169 2541.74 169.643 2532.42 177.798C2523.18 185.874 2509.71 189.912 2492 189.912C2476.94 189.912 2461.56 187.582 2445.87 182.923ZM2587.75 187V80.6472H2570.16V59.0971H2587.75V49.8946C2587.75 32.0332 2591.83 19.2973 2599.99 11.6868C2608.22 3.99862 2619.87 0.154547 2634.93 0.154547C2645.1 0.154547 2655.59 1.63005 2666.38 4.58106V27.8785C2656.6 23.7626 2647.82 21.7047 2640.06 21.7047C2636.41 21.7047 2633.26 22.4424 2630.62 23.9179C2628.06 25.3158 2626 27.7232 2624.45 31.1401C2622.97 34.4794 2622.23 40.3038 2622.23 48.6132V59.0971H2654.62V80.6472H2622.23V187H2587.75ZM2762.25 187V162.887C2756.12 172.672 2749.28 179.622 2741.75 183.738C2734.22 187.854 2726.53 189.912 2718.69 189.912C2708.59 189.912 2699.89 186.689 2692.59 180.244C2685.37 173.72 2681.76 163.47 2681.76 149.491V59.0971H2716.24V140.988C2716.24 147.977 2716.86 152.714 2718.1 155.199C2719.42 157.684 2721.17 159.587 2723.35 160.907C2725.6 162.149 2728.08 162.771 2730.8 162.771C2735.54 162.771 2740.47 161.218 2745.59 158.111C2750.72 154.927 2756.27 148.753 2762.25 139.59V59.0971H2796.73V187H2762.25ZM2839.95 187V3.06673H2874.43V187H2839.95ZM2917.53 187V3.06673H2952.01V187H2917.53ZM2995.58 233.012L3024.58 187L2977.17 59.0971H3014.21L3045.9 144.599L3083.52 59.0971H3109.73L3030.75 233.012H2995.58Z"/>
</mask>
<path d="M1617.88 185.486V155.898C1631.16 161.489 1641.06 164.829 1647.59 165.916C1654.19 167.003 1660.24 167.547 1665.76 167.547C1675.7 167.547 1683.11 165.295 1688.01 160.79C1692.9 156.286 1695.35 150.889 1695.35 144.599C1695.35 139.784 1694.03 135.435 1691.39 131.552C1688.74 127.747 1682.07 122.816 1671.35 116.758L1659.82 110.351C1643.35 101.11 1632.21 92.5677 1626.39 84.7242C1620.48 76.8808 1617.53 67.7948 1617.53 57.4662C1617.53 44.4973 1622.42 33.3922 1632.21 24.1509C1642.07 14.9096 1656.21 10.2889 1674.61 10.2889C1688.36 10.2889 1703.85 12.2692 1721.09 16.2298V43.8372C1703.54 37.2363 1689.6 33.9358 1679.27 33.9358C1670.73 33.9358 1664.2 35.8385 1659.7 39.6437C1655.27 43.3713 1653.06 47.8755 1653.06 53.1562C1653.06 57.1944 1654.38 60.9609 1657.02 64.4555C1659.58 67.9501 1666.22 72.7261 1676.94 78.7834L1689.29 85.6561C1708.16 96.2953 1720.2 105.537 1725.4 113.38C1730.52 121.301 1733.09 130.193 1733.09 140.056C1733.09 154.189 1727.73 166.265 1717.01 176.283C1706.37 186.301 1689.4 191.31 1666.11 191.31C1652.28 191.31 1636.21 189.369 1617.88 185.486ZM1842.93 187V162.887C1836.8 172.672 1829.97 179.622 1822.43 183.738C1814.9 187.854 1807.21 189.912 1799.37 189.912C1789.27 189.912 1780.58 186.689 1773.28 180.244C1766.05 173.72 1762.44 163.47 1762.44 149.491V59.0971H1796.92V140.988C1796.92 147.977 1797.54 152.714 1798.79 155.199C1800.11 157.684 1801.85 159.587 1804.03 160.907C1806.28 162.149 1808.77 162.771 1811.48 162.771C1816.22 162.771 1821.15 161.218 1826.28 158.111C1831.4 154.927 1836.96 148.753 1842.93 139.59V59.0971H1877.42V187H1842.93ZM2014.99 184.204C2000.7 188.01 1987.38 189.912 1975.03 189.912C1953.13 189.912 1936.67 183.467 1925.64 170.575C1914.61 157.606 1909.1 141.725 1909.1 122.932C1909.1 103.207 1914.92 87.1705 1926.57 74.8228C1938.22 62.3975 1955.35 56.1849 1977.94 56.1849C1988.35 56.1849 2000.35 57.8545 2013.94 61.1938V86.1221C1999.8 81.5403 1988.54 79.2493 1980.16 79.2493C1968.2 79.2493 1959.46 83.7923 1953.95 92.8784C1948.43 101.887 1945.68 111.827 1945.68 122.699C1945.68 131.086 1947.27 138.93 1950.45 146.229C1953.64 153.452 1958.06 158.732 1963.73 162.072C1969.48 165.411 1975.92 167.081 1983.07 167.081C1993.4 167.081 2004.04 164.829 2014.99 160.324V184.204ZM2141.96 184.204C2127.67 188.01 2114.35 189.912 2102 189.912C2080.1 189.912 2063.64 183.467 2052.61 170.575C2041.58 157.606 2036.07 141.725 2036.07 122.932C2036.07 103.207 2041.9 87.1705 2053.54 74.8228C2065.19 62.3975 2082.32 56.1849 2104.91 56.1849C2115.32 56.1849 2127.32 57.8545 2140.91 61.1938V86.1221C2126.78 81.5403 2115.51 79.2493 2107.13 79.2493C2095.17 79.2493 2086.43 83.7923 2080.92 92.8784C2075.4 101.887 2072.65 111.827 2072.65 122.699C2072.65 131.086 2074.24 138.93 2077.42 146.229C2080.61 153.452 2085.03 158.732 2090.7 162.072C2096.45 165.411 2102.9 167.081 2110.04 167.081C2120.37 167.081 2131.01 164.829 2141.96 160.324V184.204ZM2278.71 182.69C2262.33 187.505 2246.8 189.912 2232.12 189.912C2218.22 189.912 2206.03 187.349 2195.54 182.224C2185.14 177.021 2177.1 168.944 2171.43 157.995C2165.84 146.967 2163.04 135.008 2163.04 122.117C2163.04 110.157 2165.41 99.1298 2170.15 89.0343C2174.96 78.8611 2181.91 70.8623 2191 65.0379C2200.16 59.1359 2211.42 56.1849 2224.78 56.1849C2241.17 56.1849 2254.25 61.388 2264.04 71.7942C2273.82 82.2004 2278.71 101.576 2278.71 129.921H2199.39C2200.16 138.541 2202.1 145.336 2205.21 150.307C2208.39 155.277 2212.67 159.237 2218.02 162.188C2223.38 165.062 2230.57 166.498 2239.57 166.498C2251.14 166.498 2264.19 163.819 2278.71 158.461V182.69ZM2198.92 110.468H2244.82C2244.82 98.7415 2242.84 90.3545 2238.87 85.3067C2234.99 80.2589 2229.94 77.735 2223.73 77.735C2216.98 77.735 2211.42 80.5307 2207.07 86.1221C2202.73 91.6358 2200.01 99.7511 2198.92 110.468ZM2310.98 182.923V157.645C2328.07 164.79 2342.66 168.362 2354.78 168.362C2361.23 168.362 2366.35 167.003 2370.16 164.285C2374.04 161.567 2375.98 158.111 2375.98 153.918C2375.98 150.268 2374.54 147.2 2371.67 144.715C2368.8 142.308 2364.41 139.939 2358.51 137.609L2346.86 132.95C2334.82 128.135 2325.93 122.816 2320.18 116.991C2314.44 111.244 2311.56 103.75 2311.56 94.5092C2311.56 83.4041 2315.87 74.2404 2324.49 67.0182C2333.19 59.796 2346.43 56.1849 2364.22 56.1849C2374.62 56.1849 2387.01 57.6992 2401.37 60.7279V84.9572C2387.55 80.1424 2376.1 77.735 2367.01 77.735C2359.87 77.735 2354.51 78.9775 2350.94 81.4626C2347.36 83.87 2345.58 87.0152 2345.58 90.8981C2345.58 93.9267 2346.74 96.6059 2349.07 98.9357C2351.32 101.265 2355.44 103.556 2361.42 105.808L2371.44 109.653C2387.98 115.943 2398.81 122.039 2403.94 127.941C2408.99 133.921 2411.51 141.065 2411.51 149.375C2411.51 160.169 2406.85 169.643 2397.53 177.798C2388.29 185.874 2374.82 189.912 2357.11 189.912C2342.04 189.912 2326.67 187.582 2310.98 182.923ZM2445.87 182.923V157.645C2462.96 164.79 2477.56 168.362 2489.67 168.362C2496.12 168.362 2501.24 167.003 2505.05 164.285C2508.93 161.567 2510.87 158.111 2510.87 153.918C2510.87 150.268 2509.44 147.2 2506.56 144.715C2503.69 142.308 2499.3 139.939 2493.4 137.609L2481.75 132.95C2469.71 128.135 2460.82 122.816 2455.08 116.991C2449.33 111.244 2446.46 103.75 2446.46 94.5092C2446.46 83.4041 2450.77 74.2404 2459.39 67.0182C2468.08 59.796 2481.32 56.1849 2499.11 56.1849C2509.51 56.1849 2521.9 57.6992 2536.27 60.7279V84.9572C2522.44 80.1424 2510.99 77.735 2501.9 77.735C2494.76 77.735 2489.4 78.9775 2485.83 81.4626C2482.26 83.87 2480.47 87.0152 2480.47 90.8981C2480.47 93.9267 2481.63 96.6059 2483.96 98.9357C2486.22 101.265 2490.33 103.556 2496.31 105.808L2506.33 109.653C2522.87 115.943 2533.7 122.039 2538.83 127.941C2543.88 133.921 2546.4 141.065 2546.4 149.375C2546.4 160.169 2541.74 169.643 2532.42 177.798C2523.18 185.874 2509.71 189.912 2492 189.912C2476.94 189.912 2461.56 187.582 2445.87 182.923ZM2587.75 187V80.6472H2570.16V59.0971H2587.75V49.8946C2587.75 32.0332 2591.83 19.2973 2599.99 11.6868C2608.22 3.99862 2619.87 0.154547 2634.93 0.154547C2645.1 0.154547 2655.59 1.63005 2666.38 4.58106V27.8785C2656.6 23.7626 2647.82 21.7047 2640.06 21.7047C2636.41 21.7047 2633.26 22.4424 2630.62 23.9179C2628.06 25.3158 2626 27.7232 2624.45 31.1401C2622.97 34.4794 2622.23 40.3038 2622.23 48.6132V59.0971H2654.62V80.6472H2622.23V187H2587.75ZM2762.25 187V162.887C2756.12 172.672 2749.28 179.622 2741.75 183.738C2734.22 187.854 2726.53 189.912 2718.69 189.912C2708.59 189.912 2699.89 186.689 2692.59 180.244C2685.37 173.72 2681.76 163.47 2681.76 149.491V59.0971H2716.24V140.988C2716.24 147.977 2716.86 152.714 2718.1 155.199C2719.42 157.684 2721.17 159.587 2723.35 160.907C2725.6 162.149 2728.08 162.771 2730.8 162.771C2735.54 162.771 2740.47 161.218 2745.59 158.111C2750.72 154.927 2756.27 148.753 2762.25 139.59V59.0971H2796.73V187H2762.25ZM2839.95 187V3.06673H2874.43V187H2839.95ZM2917.53 187V3.06673H2952.01V187H2917.53ZM2995.58 233.012L3024.58 187L2977.17 59.0971H3014.21L3045.9 144.599L3083.52 59.0971H3109.73L3030.75 233.012H2995.58Z" fill="#DCA413"/>
<path d="M1617.88 185.486H1612.88V189.537L1616.85 190.377L1617.88 185.486ZM1617.88 155.898L1619.82 151.29L1612.88 148.368V155.898H1617.88ZM1647.59 165.916L1646.76 170.848L1646.77 170.849L1647.59 165.916ZM1691.39 131.552L1695.52 128.741L1695.51 128.721L1695.49 128.702L1691.39 131.552ZM1671.35 116.758L1673.81 112.405L1673.79 112.396L1673.78 112.387L1671.35 116.758ZM1659.82 110.351L1657.37 114.712L1657.38 114.717L1657.39 114.722L1659.82 110.351ZM1626.39 84.7242L1630.4 81.7434L1630.39 81.7306L1630.38 81.7179L1626.39 84.7242ZM1632.21 24.1509L1628.79 20.5023L1628.78 20.5091L1628.78 20.5158L1632.21 24.1509ZM1721.09 16.2298H1726.09V12.2482L1722.21 11.3567L1721.09 16.2298ZM1721.09 43.8372L1719.33 48.5172L1726.09 51.0597V43.8372H1721.09ZM1659.7 39.6437L1662.92 43.4683L1662.93 43.4631L1659.7 39.6437ZM1657.02 64.4555L1661.05 61.4987L1661.03 61.4698L1661.01 61.4413L1657.02 64.4555ZM1676.94 78.7834L1674.48 83.1362L1674.49 83.1443L1674.51 83.1522L1676.94 78.7834ZM1689.29 85.6561L1691.74 81.3007L1691.73 81.294L1691.72 81.2873L1689.29 85.6561ZM1725.4 113.38L1729.6 110.664L1729.58 110.64L1729.57 110.616L1725.4 113.38ZM1717.01 176.283L1713.6 172.631L1713.59 172.637L1713.58 172.643L1717.01 176.283ZM1622.88 185.486V155.898H1612.88V185.486H1622.88ZM1615.94 160.506C1629.26 166.115 1639.62 169.658 1646.76 170.848L1648.41 160.984C1642.5 160 1633.06 156.864 1619.82 151.29L1615.94 160.506ZM1646.77 170.849C1653.59 171.972 1659.92 172.547 1665.76 172.547V162.547C1660.57 162.547 1654.79 162.034 1648.4 160.982L1646.77 170.849ZM1665.76 172.547C1676.35 172.547 1685.21 170.16 1691.39 164.469L1684.62 157.112C1681.02 160.429 1675.05 162.547 1665.76 162.547V172.547ZM1691.39 164.469C1697.25 159.079 1700.35 152.374 1700.35 144.599H1690.35C1690.35 149.404 1688.55 153.493 1684.62 157.112L1691.39 164.469ZM1700.35 144.599C1700.35 138.808 1698.74 133.475 1695.52 128.741L1687.25 134.364C1689.31 137.395 1690.35 140.76 1690.35 144.599H1700.35ZM1695.49 128.702C1693.71 126.125 1690.85 123.554 1687.37 120.977C1683.81 118.349 1679.27 115.491 1673.81 112.405L1668.89 121.111C1674.15 124.083 1678.31 126.719 1681.43 129.022C1684.62 131.377 1686.42 133.174 1687.28 134.403L1695.49 128.702ZM1673.78 112.387L1662.25 105.981L1657.39 114.722L1668.92 121.129L1673.78 112.387ZM1662.26 105.991C1645.95 96.8326 1635.57 88.7102 1630.4 81.7434L1622.37 87.7051C1628.85 96.4252 1640.76 105.388 1657.37 114.712L1662.26 105.991ZM1630.38 81.7179C1625.17 74.7882 1622.53 66.7707 1622.53 57.4662H1612.53C1612.53 68.8188 1615.8 78.9733 1622.39 87.7306L1630.38 81.7179ZM1622.53 57.4662C1622.53 45.9305 1626.82 36.123 1635.64 27.786L1628.78 20.5158C1618.03 30.6615 1612.53 43.0642 1612.53 57.4662H1622.53ZM1635.63 27.7995C1644.27 19.7 1657.01 15.2889 1674.61 15.2889V5.28893C1655.4 5.28893 1639.87 10.1192 1628.79 20.5023L1635.63 27.7995ZM1674.61 15.2889C1687.89 15.2889 1703 17.2039 1719.97 21.1028L1722.21 11.3567C1704.7 7.3345 1688.82 5.28893 1674.61 5.28893V15.2889ZM1716.09 16.2298V43.8372H1726.09V16.2298H1716.09ZM1722.85 39.1573C1705.12 32.4883 1690.5 28.9358 1679.27 28.9358V38.9358C1688.69 38.9358 1701.96 41.9843 1719.33 48.5172L1722.85 39.1573ZM1679.27 28.9358C1670.07 28.9358 1662.21 30.9783 1656.47 35.8243L1662.93 43.4631C1666.2 40.6986 1671.39 38.9358 1679.27 38.9358V28.9358ZM1656.48 35.8191C1651.05 40.3937 1648.06 46.2477 1648.06 53.1562H1658.06C1658.06 49.5032 1659.5 46.3489 1662.92 43.4683L1656.48 35.8191ZM1648.06 53.1562C1648.06 58.3761 1649.79 63.1849 1653.03 67.4696L1661.01 61.4413C1658.97 58.7368 1658.06 56.0128 1658.06 53.1562H1648.06ZM1652.99 67.4123C1654.75 69.8074 1657.56 72.244 1661 74.7174C1664.52 77.2502 1669.03 80.0579 1674.48 83.1362L1679.4 74.4306C1674.13 71.4516 1669.96 68.8426 1666.84 66.5994C1663.64 64.2968 1661.86 62.5982 1661.05 61.4987L1652.99 67.4123ZM1674.51 83.1522L1686.86 90.025L1691.72 81.2873L1679.37 74.4146L1674.51 83.1522ZM1686.83 90.0116C1705.69 100.643 1716.75 109.392 1721.23 116.144L1729.57 110.616C1723.64 101.682 1710.63 91.9476 1691.74 81.3007L1686.83 90.0116ZM1721.2 116.096C1725.78 123.171 1728.09 131.111 1728.09 140.056H1738.09C1738.09 129.275 1735.27 119.432 1729.6 110.664L1721.2 116.096ZM1728.09 140.056C1728.09 152.747 1723.35 163.518 1713.6 172.631L1720.43 179.936C1732.11 169.013 1738.09 155.632 1738.09 140.056H1728.09ZM1713.58 172.643C1704.29 181.393 1688.85 186.31 1666.11 186.31V196.31C1689.96 196.31 1708.45 191.209 1720.44 179.923L1713.58 172.643ZM1666.11 186.31C1652.73 186.31 1637.02 184.429 1618.92 180.594L1616.85 190.377C1635.4 194.309 1651.84 196.31 1666.11 196.31V186.31ZM1842.93 187H1837.93V192H1842.93V187ZM1842.93 162.887H1847.93V145.5L1838.7 160.231L1842.93 162.887ZM1773.28 180.244L1769.92 183.954L1769.95 183.973L1769.97 183.992L1773.28 180.244ZM1762.44 59.0971V54.0971H1757.44V59.0971H1762.44ZM1796.92 59.0971H1801.92V54.0971H1796.92V59.0971ZM1798.79 155.199L1794.31 157.435L1794.34 157.49L1794.37 157.545L1798.79 155.199ZM1804.03 160.907L1801.43 165.181L1801.52 165.235L1801.61 165.285L1804.03 160.907ZM1826.28 158.111L1828.87 162.387L1828.89 162.373L1828.92 162.358L1826.28 158.111ZM1842.93 139.59L1847.12 142.322L1847.93 141.077V139.59H1842.93ZM1842.93 59.0971V54.0971H1837.93V59.0971H1842.93ZM1877.42 59.0971H1882.42V54.0971H1877.42V59.0971ZM1877.42 187V192H1882.42V187H1877.42ZM1847.93 187V162.887H1837.93V187H1847.93ZM1838.7 160.231C1832.87 169.532 1826.6 175.763 1820.04 179.351L1824.83 188.126C1833.33 183.482 1840.73 175.812 1847.17 165.543L1838.7 160.231ZM1820.04 179.351C1813.17 183.104 1806.3 184.912 1799.37 184.912V194.912C1808.13 194.912 1816.63 192.605 1824.83 188.126L1820.04 179.351ZM1799.37 184.912C1790.44 184.912 1782.94 182.103 1776.59 176.496L1769.97 183.992C1778.22 191.276 1788.1 194.912 1799.37 194.912V184.912ZM1776.63 176.533C1770.85 171.311 1767.44 162.686 1767.44 149.491H1757.44C1757.44 164.254 1761.26 176.13 1769.92 183.954L1776.63 176.533ZM1767.44 149.491V59.0971H1757.44V149.491H1767.44ZM1762.44 64.0971H1796.92V54.0971H1762.44V64.0971ZM1791.92 59.0971V140.988H1801.92V59.0971H1791.92ZM1791.92 140.988C1791.92 144.61 1792.08 147.775 1792.43 150.433C1792.77 153.016 1793.33 155.461 1794.31 157.435L1803.26 152.963C1803 152.452 1802.63 151.286 1802.35 149.132C1802.07 147.053 1801.92 144.354 1801.92 140.988H1791.92ZM1794.37 157.545C1796.07 160.738 1798.41 163.345 1801.43 165.181L1806.62 156.633C1805.3 155.828 1804.15 154.63 1803.2 152.853L1794.37 157.545ZM1801.61 165.285C1804.65 166.959 1807.97 167.771 1811.48 167.771V157.771C1809.56 157.771 1807.91 157.34 1806.44 156.529L1801.61 165.285ZM1811.48 167.771C1817.35 167.771 1823.17 165.843 1828.87 162.387L1823.69 153.835C1819.14 156.592 1815.09 157.771 1811.48 157.771V167.771ZM1828.92 162.358C1834.98 158.591 1841.02 151.679 1847.12 142.322L1838.75 136.857C1832.89 145.828 1827.83 151.263 1823.64 153.864L1828.92 162.358ZM1847.93 139.59V59.0971H1837.93V139.59H1847.93ZM1842.93 64.0971H1877.42V54.0971H1842.93V64.0971ZM1872.42 59.0971V187H1882.42V59.0971H1872.42ZM1877.42 182H1842.93V192H1877.42V182ZM2014.99 184.204L2016.27 189.036L2019.99 188.047V184.204H2014.99ZM1925.64 170.575L1921.83 173.814L1921.84 173.82L1921.84 173.825L1925.64 170.575ZM1926.57 74.8228L1930.21 78.2539L1930.22 78.2482L1930.22 78.2425L1926.57 74.8228ZM2013.94 61.1938H2018.94V57.2737L2015.13 56.3383L2013.94 61.1938ZM2013.94 86.1221L2012.4 90.8784L2018.94 92.9991V86.1221H2013.94ZM1953.95 92.8784L1958.21 95.4886L1958.22 95.4804L1958.22 95.4723L1953.95 92.8784ZM1950.45 146.229L1945.87 148.228L1945.87 148.237L1945.88 148.246L1950.45 146.229ZM1963.73 162.072L1961.19 166.38L1961.21 166.387L1961.22 166.395L1963.73 162.072ZM2014.99 160.324H2019.99V152.861L2013.08 155.7L2014.99 160.324ZM2013.7 179.373C1999.75 183.087 1986.87 184.912 1975.03 184.912V194.912C1987.89 194.912 2001.64 192.932 2016.27 189.036L2013.7 179.373ZM1975.03 184.912C1954.14 184.912 1939.26 178.801 1929.44 167.325L1921.84 173.825C1934.08 188.132 1952.13 194.912 1975.03 194.912V184.912ZM1929.45 167.336C1919.27 155.367 1914.1 140.671 1914.1 122.932H1904.1C1904.1 142.78 1909.95 159.845 1921.83 173.814L1929.45 167.336ZM1914.1 122.932C1914.1 104.261 1919.58 89.5242 1930.21 78.2539L1922.94 71.3917C1910.27 84.8168 1904.1 102.153 1904.1 122.932H1914.1ZM1930.22 78.2425C1940.64 67.1249 1956.25 61.1849 1977.94 61.1849V51.1849C1954.44 51.1849 1935.8 57.6702 1922.93 71.4031L1930.22 78.2425ZM1977.94 61.1849C1987.84 61.1849 1999.42 62.7754 2012.75 66.0494L2015.13 56.3383C2001.28 52.9336 1988.86 51.1849 1977.94 51.1849V61.1849ZM2008.94 61.1938V86.1221H2018.94V61.1938H2008.94ZM2015.48 81.3658C2001.17 76.7267 1989.32 74.2494 1980.16 74.2494V84.2493C1987.77 84.2493 1998.44 86.3538 2012.4 90.8784L2015.48 81.3658ZM1980.16 74.2494C1966.71 74.2494 1956.22 79.4941 1949.67 90.2844L1958.22 95.4723C1962.7 88.0906 1969.68 84.2493 1980.16 84.2493V74.2494ZM1949.68 90.2681C1943.67 100.086 1940.68 110.934 1940.68 122.699H1950.68C1950.68 112.72 1953.19 103.687 1958.21 95.4886L1949.68 90.2681ZM1940.68 122.699C1940.68 131.737 1942.4 140.265 1945.87 148.228L1955.04 144.23C1952.14 137.594 1950.68 130.435 1950.68 122.699H1940.68ZM1945.88 148.246C1949.4 156.231 1954.45 162.41 1961.19 166.38L1966.27 157.764C1961.67 155.055 1957.88 150.672 1955.03 144.212L1945.88 148.246ZM1961.22 166.395C1967.79 170.211 1975.11 172.081 1983.07 172.081V162.081C1976.74 162.081 1971.17 160.611 1966.24 157.749L1961.22 166.395ZM1983.07 172.081C1994.14 172.081 2005.42 169.665 2016.89 164.949L2013.08 155.7C2002.65 159.992 1992.66 162.081 1983.07 162.081V172.081ZM2009.99 160.324V184.204H2019.99V160.324H2009.99ZM2141.96 184.204L2143.24 189.036L2146.96 188.047V184.204H2141.96ZM2052.61 170.575L2048.8 173.814L2048.81 173.82L2048.81 173.825L2052.61 170.575ZM2053.54 74.8228L2057.18 78.2539L2057.19 78.2482L2057.19 78.2425L2053.54 74.8228ZM2140.91 61.1938H2145.91V57.2737L2142.1 56.3383L2140.91 61.1938ZM2140.91 86.1221L2139.37 90.8784L2145.91 92.9991V86.1221H2140.91ZM2080.92 92.8784L2085.18 95.4886L2085.19 95.4804L2085.19 95.4723L2080.92 92.8784ZM2077.42 146.229L2072.84 148.228L2072.84 148.237L2072.85 148.246L2077.42 146.229ZM2090.7 162.072L2088.17 166.38L2088.18 166.387L2088.19 166.395L2090.7 162.072ZM2141.96 160.324H2146.96V152.861L2140.06 155.7L2141.96 160.324ZM2140.67 179.373C2126.72 183.087 2113.84 184.912 2102 184.912V194.912C2114.86 194.912 2128.62 192.932 2143.24 189.036L2140.67 179.373ZM2102 184.912C2081.11 184.912 2066.23 178.801 2056.41 167.325L2048.81 173.825C2061.05 188.132 2079.1 194.912 2102 194.912V184.912ZM2056.42 167.336C2046.24 155.367 2041.07 140.671 2041.07 122.932H2031.07C2031.07 142.78 2036.93 159.845 2048.8 173.814L2056.42 167.336ZM2041.07 122.932C2041.07 104.261 2046.55 89.5242 2057.18 78.2539L2049.91 71.3917C2037.24 84.8168 2031.07 102.153 2031.07 122.932H2041.07ZM2057.19 78.2425C2067.61 67.1249 2083.23 61.1849 2104.91 61.1849V51.1849C2081.41 51.1849 2062.77 57.6702 2049.9 71.4031L2057.19 78.2425ZM2104.91 61.1849C2114.81 61.1849 2126.39 62.7754 2139.72 66.0494L2142.1 56.3383C2128.25 52.9336 2115.83 51.1849 2104.91 51.1849V61.1849ZM2135.91 61.1938V86.1221H2145.91V61.1938H2135.91ZM2142.45 81.3658C2128.14 76.7267 2116.29 74.2494 2107.13 74.2494V84.2493C2114.74 84.2493 2125.41 86.3538 2139.37 90.8784L2142.45 81.3658ZM2107.13 74.2494C2093.68 74.2494 2083.19 79.4941 2076.64 90.2844L2085.19 95.4723C2089.67 88.0906 2096.65 84.2493 2107.13 84.2493V74.2494ZM2076.65 90.2681C2070.64 100.086 2067.65 110.934 2067.65 122.699H2077.65C2077.65 112.72 2080.16 103.687 2085.18 95.4886L2076.65 90.2681ZM2067.65 122.699C2067.65 131.737 2069.37 140.265 2072.84 148.228L2082.01 144.23C2079.11 137.594 2077.65 130.435 2077.65 122.699H2067.65ZM2072.85 148.246C2076.37 156.231 2081.43 162.41 2088.17 166.38L2093.24 157.764C2088.64 155.055 2084.85 150.672 2082 144.212L2072.85 148.246ZM2088.19 166.395C2094.76 170.211 2102.08 172.081 2110.04 172.081V162.081C2103.71 162.081 2098.14 160.611 2093.22 157.749L2088.19 166.395ZM2110.04 172.081C2121.11 172.081 2132.39 169.665 2143.86 164.949L2140.06 155.7C2129.62 159.992 2119.63 162.081 2110.04 162.081V172.081ZM2136.96 160.324V184.204H2146.96V160.324H2136.96ZM2278.71 182.69L2280.12 187.487L2283.71 186.432V182.69H2278.71ZM2195.54 182.224L2193.31 186.696L2193.33 186.706L2193.35 186.716L2195.54 182.224ZM2171.43 157.995L2166.97 160.256L2166.98 160.275L2166.99 160.294L2171.43 157.995ZM2170.15 89.0343L2165.63 86.8953L2165.62 86.9028L2165.62 86.9103L2170.15 89.0343ZM2191 65.0379L2193.7 69.2473L2193.71 69.2415L2191 65.0379ZM2278.71 129.921V134.921H2283.71V129.921H2278.71ZM2199.39 129.921V124.921H2193.92L2194.41 130.37L2199.39 129.921ZM2205.21 150.307L2200.97 152.957L2200.98 152.98L2201 153.004L2205.21 150.307ZM2218.02 162.188L2215.61 166.568L2215.64 166.581L2215.66 166.595L2218.02 162.188ZM2278.71 158.461H2283.71V151.286L2276.98 153.77L2278.71 158.461ZM2198.92 110.468L2193.95 109.963L2193.39 115.468H2198.92V110.468ZM2244.82 110.468V115.468H2249.82V110.468H2244.82ZM2238.87 85.3067L2234.91 88.3552L2234.93 88.3743L2234.94 88.3931L2238.87 85.3067ZM2207.07 86.1221L2211 89.2185L2211.01 89.2052L2211.02 89.1918L2207.07 86.1221ZM2277.3 177.893C2261.3 182.595 2246.25 184.912 2232.12 184.912V194.912C2247.34 194.912 2263.35 192.415 2280.12 187.487L2277.3 177.893ZM2232.12 184.912C2218.83 184.912 2207.42 182.465 2197.74 177.732L2193.35 186.716C2204.63 192.234 2217.6 194.912 2232.12 194.912V184.912ZM2197.78 177.752C2188.38 173.051 2181.08 165.766 2175.87 155.696L2166.99 160.294C2173.11 172.123 2181.89 180.991 2193.31 186.696L2197.78 177.752ZM2175.89 155.734C2170.67 145.437 2168.04 134.257 2168.04 122.117H2158.04C2158.04 135.759 2161.01 148.497 2166.97 160.256L2175.89 155.734ZM2168.04 122.117C2168.04 110.837 2170.27 100.542 2174.67 91.1582L2165.62 86.9103C2160.55 97.7178 2158.04 109.477 2158.04 122.117H2168.04ZM2174.67 91.1732C2179.1 81.8091 2185.43 74.5436 2193.7 69.2473L2188.3 60.8285C2178.39 67.181 2170.83 75.913 2165.63 86.8953L2174.67 91.1732ZM2193.71 69.2415C2201.9 63.9658 2212.17 61.1849 2224.78 61.1849V51.1849C2210.68 51.1849 2198.43 54.306 2188.29 60.8343L2193.71 69.2415ZM2224.78 61.1849C2240.01 61.1849 2251.7 65.9694 2260.39 75.2193L2267.68 68.369C2256.81 56.8065 2242.32 51.1849 2224.78 51.1849V61.1849ZM2260.39 75.2193C2268.77 84.1322 2273.71 101.767 2273.71 129.921H2283.71C2283.71 101.385 2278.87 80.2685 2267.68 68.369L2260.39 75.2193ZM2278.71 124.921H2199.39V134.921H2278.71V124.921ZM2194.41 130.37C2195.22 139.428 2197.3 147.08 2200.97 152.957L2209.45 147.657C2206.91 143.593 2205.1 137.655 2204.37 129.473L2194.41 130.37ZM2201 153.004C2204.65 158.702 2209.55 163.23 2215.61 166.568L2220.44 157.808C2215.78 155.244 2212.14 151.851 2209.42 147.609L2201 153.004ZM2215.66 166.595C2222.01 170.001 2230.11 171.498 2239.57 171.498V161.498C2231.02 161.498 2224.75 160.123 2220.39 157.782L2215.66 166.595ZM2239.57 171.498C2251.9 171.498 2265.54 168.65 2280.44 163.151L2276.98 153.77C2262.84 158.989 2250.39 161.498 2239.57 161.498V171.498ZM2273.71 158.461V182.69H2283.71V158.461H2273.71ZM2198.92 115.468H2244.82V105.468H2198.92V115.468ZM2249.82 110.468C2249.82 98.4356 2247.83 88.6253 2242.81 82.2202L2234.94 88.3931C2237.84 92.0836 2239.82 99.0475 2239.82 110.468H2249.82ZM2242.84 82.2581C2238.04 76.0161 2231.54 72.735 2223.73 72.735V82.735C2228.35 82.735 2231.95 84.5018 2234.91 88.3552L2242.84 82.2581ZM2223.73 72.735C2215.35 72.735 2208.37 76.3116 2203.13 83.0524L2211.02 89.1918C2214.48 84.7498 2218.6 82.735 2223.73 82.735V72.735ZM2203.15 83.0257C2197.97 89.5848 2195.08 98.768 2193.95 109.963L2203.89 110.973C2204.93 100.734 2207.48 93.6869 2211 89.2185L2203.15 83.0257ZM2310.98 182.923H2305.98V186.654L2309.56 187.716L2310.98 182.923ZM2310.98 157.645L2312.91 153.032L2305.98 150.135V157.645H2310.98ZM2370.16 164.285L2367.29 160.189L2367.27 160.202L2367.25 160.216L2370.16 164.285ZM2371.67 144.715L2374.94 140.933L2374.91 140.908L2374.88 140.883L2371.67 144.715ZM2358.51 137.609L2356.65 142.252L2356.66 142.256L2356.67 142.26L2358.51 137.609ZM2320.18 116.991L2323.74 113.479L2323.73 113.468L2323.72 113.456L2320.18 116.991ZM2324.49 67.0182L2321.3 63.1715L2321.29 63.1785L2321.28 63.1856L2324.49 67.0182ZM2401.37 60.7279H2406.37V56.672L2402.41 55.8354L2401.37 60.7279ZM2401.37 84.9572L2399.73 89.679L2406.37 91.9934V84.9572H2401.37ZM2350.94 81.4626L2353.73 85.6089L2353.76 85.5883L2353.79 85.5671L2350.94 81.4626ZM2349.07 98.9357L2352.67 95.4606L2352.64 95.4301L2352.61 95.4001L2349.07 98.9357ZM2361.42 105.808L2363.21 101.14L2363.2 101.135L2363.18 101.129L2361.42 105.808ZM2371.44 109.653L2369.65 114.321L2369.65 114.323L2369.66 114.326L2371.44 109.653ZM2403.94 127.941L2407.76 124.716L2407.74 124.689L2407.71 124.663L2403.94 127.941ZM2397.53 177.798L2400.82 181.562L2400.82 181.56L2397.53 177.798ZM2315.98 182.923V157.645H2305.98V182.923H2315.98ZM2309.05 162.258C2326.46 169.537 2341.75 173.362 2354.78 173.362V163.362C2343.58 163.362 2329.67 160.043 2312.91 153.032L2309.05 162.258ZM2354.78 173.362C2361.88 173.362 2368.14 171.868 2373.06 168.354L2367.25 160.216C2364.56 162.138 2360.57 163.362 2354.78 163.362V173.362ZM2373.02 168.381C2378.04 164.869 2380.98 159.975 2380.98 153.918H2370.98C2370.98 156.248 2370.04 158.265 2367.29 160.189L2373.02 168.381ZM2380.98 153.918C2380.98 148.749 2378.86 144.324 2374.94 140.933L2368.4 148.497C2370.23 150.077 2370.98 151.786 2370.98 153.918H2380.98ZM2374.88 140.883C2371.41 137.973 2366.45 135.369 2360.34 132.959L2356.67 142.26C2362.37 144.509 2366.19 146.643 2368.46 148.548L2374.88 140.883ZM2360.36 132.967L2348.72 128.308L2345 137.592L2356.65 142.252L2360.36 132.967ZM2348.72 128.308C2336.99 123.616 2328.81 118.611 2323.74 113.479L2316.62 120.503C2323.05 127.02 2332.66 132.655 2345 137.592L2348.72 128.308ZM2323.72 113.456C2319.04 108.778 2316.56 102.622 2316.56 94.5092H2306.56C2306.56 104.879 2309.83 113.711 2316.65 120.527L2323.72 113.456ZM2316.56 94.5092C2316.56 84.9048 2320.2 77.1369 2327.7 70.8508L2321.28 63.1856C2311.54 71.3439 2306.56 81.9033 2306.56 94.5092H2316.56ZM2327.69 70.8649C2335.1 64.7106 2346.97 61.1849 2364.22 61.1849V51.1849C2345.9 51.1849 2331.28 54.8814 2321.3 63.1715L2327.69 70.8649ZM2364.22 61.1849C2374.17 61.1849 2386.19 62.6365 2400.34 65.6204L2402.41 55.8354C2387.83 52.7619 2375.08 51.1849 2364.22 51.1849V61.1849ZM2396.37 60.7279V84.9572H2406.37V60.7279H2396.37ZM2403.02 80.2355C2388.95 75.3347 2376.89 72.735 2367.01 72.735V82.735C2375.3 82.735 2386.15 84.9501 2399.73 89.679L2403.02 80.2355ZM2367.01 72.735C2359.44 72.735 2352.87 74.0237 2348.08 77.3581L2353.79 85.5671C2356.14 83.9314 2360.29 82.735 2367.01 82.735V72.735ZM2348.14 77.3163C2343.37 80.5336 2340.58 85.1494 2340.58 90.8981H2350.58C2350.58 88.881 2351.36 87.2064 2353.73 85.6089L2348.14 77.3163ZM2340.58 90.8981C2340.58 95.3759 2342.36 99.2946 2345.54 102.471L2352.61 95.4001C2351.12 93.9173 2350.58 92.4775 2350.58 90.8981H2340.58ZM2345.48 102.411C2348.53 105.574 2353.53 108.18 2359.66 110.488L2363.18 101.129C2357.35 98.9326 2354.11 96.957 2352.67 95.4606L2345.48 102.411ZM2359.63 110.477L2369.65 114.321L2373.23 104.984L2363.21 101.14L2359.63 110.477ZM2369.66 114.326C2386.17 120.605 2395.93 126.346 2400.16 131.219L2407.71 124.663C2401.69 117.732 2389.78 111.28 2373.21 104.979L2369.66 114.326ZM2400.12 131.166C2404.35 136.185 2406.51 142.167 2406.51 149.375H2416.51C2416.51 139.964 2413.62 131.656 2407.76 124.716L2400.12 131.166ZM2406.51 149.375C2406.51 158.508 2402.65 166.675 2394.24 174.035L2400.82 181.56C2411.05 172.612 2416.51 161.831 2416.51 149.375H2406.51ZM2394.24 174.033C2386.24 181.024 2374.13 184.912 2357.11 184.912V194.912C2375.5 194.912 2390.34 190.724 2400.82 181.562L2394.24 174.033ZM2357.11 184.912C2342.57 184.912 2327.67 182.664 2312.4 178.13L2309.56 187.716C2325.67 192.501 2341.52 194.912 2357.11 194.912V184.912ZM2445.87 182.923H2440.87V186.654L2444.45 187.716L2445.87 182.923ZM2445.87 157.645L2447.8 153.032L2440.87 150.135V157.645H2445.87ZM2505.05 164.285L2502.18 160.189L2502.16 160.202L2502.14 160.216L2505.05 164.285ZM2506.56 144.715L2509.83 140.933L2509.8 140.908L2509.77 140.883L2506.56 144.715ZM2493.4 137.609L2491.54 142.252L2491.55 142.256L2491.56 142.26L2493.4 137.609ZM2455.08 116.991L2458.63 113.479L2458.62 113.468L2458.61 113.456L2455.08 116.991ZM2459.39 67.0182L2456.19 63.1715L2456.18 63.1785L2456.17 63.1856L2459.39 67.0182ZM2536.27 60.7279H2541.27V56.672L2537.3 55.8354L2536.27 60.7279ZM2536.27 84.9572L2534.62 89.679L2541.27 91.9934V84.9572H2536.27ZM2485.83 81.4626L2488.62 85.6089L2488.65 85.5883L2488.68 85.5671L2485.83 81.4626ZM2483.96 98.9357L2487.56 95.4606L2487.53 95.4301L2487.5 95.4001L2483.96 98.9357ZM2496.31 105.808L2498.1 101.14L2498.09 101.135L2498.07 101.129L2496.31 105.808ZM2506.33 109.653L2504.54 114.321L2504.55 114.323L2504.55 114.326L2506.33 109.653ZM2538.83 127.941L2542.65 124.716L2542.63 124.689L2542.6 124.663L2538.83 127.941ZM2532.42 177.798L2535.71 181.562L2535.72 181.56L2532.42 177.798ZM2450.87 182.923V157.645H2440.87V182.923H2450.87ZM2443.94 162.258C2461.35 169.537 2476.64 173.362 2489.67 173.362V163.362C2478.47 163.362 2464.57 160.043 2447.8 153.032L2443.94 162.258ZM2489.67 173.362C2496.77 173.362 2503.03 171.868 2507.95 168.354L2502.14 160.216C2499.45 162.138 2495.46 163.362 2489.67 163.362V173.362ZM2507.92 168.381C2512.93 164.869 2515.87 159.975 2515.87 153.918H2505.87C2505.87 156.248 2504.93 158.265 2502.18 160.189L2507.92 168.381ZM2515.87 153.918C2515.87 148.749 2513.75 144.324 2509.83 140.933L2503.29 148.497C2505.12 150.077 2505.87 151.786 2505.87 153.918H2515.87ZM2509.77 140.883C2506.3 137.973 2501.34 135.369 2495.24 132.959L2491.56 142.26C2497.26 144.509 2501.08 146.643 2503.35 148.548L2509.77 140.883ZM2495.26 132.967L2483.61 128.308L2479.89 137.592L2491.54 142.252L2495.26 132.967ZM2483.61 128.308C2471.88 123.616 2463.7 118.611 2458.63 113.479L2451.52 120.503C2457.95 127.02 2467.55 132.655 2479.89 137.592L2483.61 128.308ZM2458.61 113.456C2453.93 108.778 2451.46 102.622 2451.46 94.5092H2441.46C2441.46 104.879 2444.72 113.711 2451.54 120.527L2458.61 113.456ZM2451.46 94.5092C2451.46 84.9048 2455.09 77.1369 2462.6 70.8508L2456.17 63.1856C2446.44 71.3439 2441.46 81.9033 2441.46 94.5092H2451.46ZM2462.58 70.8649C2469.99 64.7106 2481.86 61.1849 2499.11 61.1849V51.1849C2480.79 51.1849 2466.17 54.8814 2456.19 63.1715L2462.58 70.8649ZM2499.11 61.1849C2509.06 61.1849 2521.08 62.6365 2535.24 65.6204L2537.3 55.8354C2522.72 52.7619 2509.97 51.1849 2499.11 51.1849V61.1849ZM2531.27 60.7279V84.9572H2541.27V60.7279H2531.27ZM2537.91 80.2355C2523.84 75.3347 2511.79 72.735 2501.9 72.735V82.735C2510.19 82.735 2521.05 84.9501 2534.62 89.679L2537.91 80.2355ZM2501.9 72.735C2494.33 72.735 2487.77 74.0237 2482.97 77.3581L2488.68 85.5671C2491.03 83.9314 2495.18 82.735 2501.9 82.735V72.735ZM2483.03 77.3163C2478.26 80.5336 2475.47 85.1494 2475.47 90.8981H2485.47C2485.47 88.881 2486.25 87.2064 2488.62 85.6089L2483.03 77.3163ZM2475.47 90.8981C2475.47 95.3759 2477.25 99.2946 2480.43 102.471L2487.5 95.4001C2486.02 93.9173 2485.47 92.4775 2485.47 90.8981H2475.47ZM2480.37 102.411C2483.43 105.574 2488.42 108.18 2494.55 110.488L2498.07 101.129C2492.24 98.9326 2489.01 96.957 2487.56 95.4606L2480.37 102.411ZM2494.52 110.477L2504.54 114.321L2508.12 104.984L2498.1 101.14L2494.52 110.477ZM2504.55 114.326C2521.06 120.605 2530.82 126.346 2535.05 131.219L2542.6 124.663C2536.59 117.732 2524.68 111.28 2508.11 104.979L2504.55 114.326ZM2535.01 131.166C2539.25 136.185 2541.4 142.167 2541.4 149.375H2551.4C2551.4 139.964 2548.51 131.656 2542.65 124.716L2535.01 131.166ZM2541.4 149.375C2541.4 158.508 2537.54 166.675 2529.13 174.035L2535.72 181.56C2545.94 172.612 2551.4 161.831 2551.4 149.375H2541.4ZM2529.13 174.033C2521.13 181.024 2509.02 184.912 2492 184.912V194.912C2510.39 194.912 2525.23 190.724 2535.71 181.562L2529.13 174.033ZM2492 184.912C2477.46 184.912 2462.56 182.664 2447.3 178.13L2444.45 187.716C2460.56 192.501 2476.41 194.912 2492 194.912V184.912ZM2587.75 187H2582.75V192H2587.75V187ZM2587.75 80.6472H2592.75V75.6472H2587.75V80.6472ZM2570.16 80.6472H2565.16V85.6472H2570.16V80.6472ZM2570.16 59.0971V54.0971H2565.16V59.0971H2570.16ZM2587.75 59.0971V64.0971H2592.75V59.0971H2587.75ZM2599.99 11.6868L2603.4 15.3421L2603.4 15.3409L2599.99 11.6868ZM2666.38 4.58106H2671.38V0.764488L2667.7 -0.241959L2666.38 4.58106ZM2666.38 27.8785L2664.44 32.4874L2671.38 35.406V27.8785H2666.38ZM2630.62 23.9179L2633.02 28.3074L2633.04 28.2951L2633.06 28.2827L2630.62 23.9179ZM2624.45 31.1401L2619.9 29.0711L2619.88 29.0952L2619.87 29.1193L2624.45 31.1401ZM2622.23 59.0971H2617.23V64.0971H2622.23V59.0971ZM2654.62 59.0971H2659.62V54.0971H2654.62V59.0971ZM2654.62 80.6472V85.6472H2659.62V80.6472H2654.62ZM2622.23 80.6472V75.6472H2617.23V80.6472H2622.23ZM2622.23 187V192H2627.23V187H2622.23ZM2592.75 187V80.6472H2582.75V187H2592.75ZM2587.75 75.6472H2570.16V85.6472H2587.75V75.6472ZM2575.16 80.6472V59.0971H2565.16V80.6472H2575.16ZM2570.16 64.0971H2587.75V54.0971H2570.16V64.0971ZM2592.75 59.0971V49.8946H2582.75V59.0971H2592.75ZM2592.75 49.8946C2592.75 32.6088 2596.73 21.5683 2603.4 15.3421L2596.57 8.0315C2586.94 17.0262 2582.75 31.4576 2582.75 49.8946H2592.75ZM2603.4 15.3409C2610.43 8.77563 2620.7 5.15455 2634.93 5.15455V-4.84545C2619.04 -4.84545 2606.01 -0.778381 2596.57 8.03265L2603.4 15.3409ZM2634.93 5.15455C2644.62 5.15455 2654.66 6.55892 2665.06 9.40408L2667.7 -0.241959C2656.52 -3.29882 2645.59 -4.84545 2634.93 -4.84545V5.15455ZM2661.38 4.58106V27.8785H2671.38V4.58106H2661.38ZM2668.32 23.2696C2658.13 18.9844 2648.68 16.7047 2640.06 16.7047V26.7047C2646.96 26.7047 2655.06 28.5408 2664.44 32.4874L2668.32 23.2696ZM2640.06 16.7047C2635.73 16.7047 2631.71 17.583 2628.18 19.5532L2633.06 28.2827C2634.82 27.3018 2637.08 26.7047 2640.06 26.7047V16.7047ZM2628.23 19.5285C2624.47 21.5771 2621.77 24.9509 2619.9 29.0711L2629 33.2092C2630.23 30.4954 2631.65 29.0545 2633.02 28.3074L2628.23 19.5285ZM2619.87 29.1193C2617.94 33.5066 2617.23 40.2747 2617.23 48.6132H2627.23C2627.23 40.3329 2628.01 35.4523 2629.02 33.161L2619.87 29.1193ZM2617.23 48.6132V59.0971H2627.23V48.6132H2617.23ZM2622.23 64.0971H2654.62V54.0971H2622.23V64.0971ZM2649.62 59.0971V80.6472H2659.62V59.0971H2649.62ZM2654.62 75.6472H2622.23V85.6472H2654.62V75.6472ZM2617.23 80.6472V187H2627.23V80.6472H2617.23ZM2622.23 182H2587.75V192H2622.23V182ZM2762.25 187H2757.25V192H2762.25V187ZM2762.25 162.887H2767.25V145.5L2758.02 160.231L2762.25 162.887ZM2692.59 180.244L2689.24 183.954L2689.26 183.973L2689.28 183.992L2692.59 180.244ZM2681.76 59.0971V54.0971H2676.76V59.0971H2681.76ZM2716.24 59.0971H2721.24V54.0971H2716.24V59.0971ZM2718.1 155.199L2713.63 157.435L2713.66 157.49L2713.69 157.545L2718.1 155.199ZM2723.35 160.907L2720.75 165.181L2720.84 165.235L2720.93 165.285L2723.35 160.907ZM2745.59 158.111L2748.19 162.387L2748.21 162.373L2748.23 162.358L2745.59 158.111ZM2762.25 139.59L2766.44 142.322L2767.25 141.077V139.59H2762.25ZM2762.25 59.0971V54.0971H2757.25V59.0971H2762.25ZM2796.73 59.0971H2801.73V54.0971H2796.73V59.0971ZM2796.73 187V192H2801.73V187H2796.73ZM2767.25 187V162.887H2757.25V187H2767.25ZM2758.02 160.231C2752.18 169.532 2745.92 175.763 2739.35 179.351L2744.15 188.126C2752.65 183.482 2760.05 175.812 2766.49 165.543L2758.02 160.231ZM2739.35 179.351C2732.48 183.104 2725.61 184.912 2718.69 184.912V194.912C2727.44 194.912 2735.95 192.605 2744.15 188.126L2739.35 179.351ZM2718.69 184.912C2709.76 184.912 2702.25 182.103 2695.9 176.496L2689.28 183.992C2697.53 191.276 2707.42 194.912 2718.69 194.912V184.912ZM2695.94 176.533C2690.16 171.311 2686.76 162.686 2686.76 149.491H2676.76C2676.76 164.254 2680.58 176.13 2689.24 183.954L2695.94 176.533ZM2686.76 149.491V59.0971H2676.76V149.491H2686.76ZM2681.76 64.0971H2716.24V54.0971H2681.76V64.0971ZM2711.24 59.0971V140.988H2721.24V59.0971H2711.24ZM2711.24 140.988C2711.24 144.61 2711.4 147.775 2711.75 150.433C2712.09 153.016 2712.64 155.461 2713.63 157.435L2722.58 152.963C2722.32 152.452 2721.95 151.286 2721.66 149.132C2721.39 147.053 2721.24 144.354 2721.24 140.988H2711.24ZM2713.69 157.545C2715.38 160.738 2717.73 163.345 2720.75 165.181L2725.94 156.633C2724.61 155.828 2723.46 154.63 2722.52 152.853L2713.69 157.545ZM2720.93 165.285C2723.96 166.959 2727.29 167.771 2730.8 167.771V157.771C2728.88 157.771 2727.23 157.34 2725.76 156.529L2720.93 165.285ZM2730.8 167.771C2736.66 167.771 2742.48 165.843 2748.19 162.387L2743 153.835C2738.45 156.592 2734.41 157.771 2730.8 157.771V167.771ZM2748.23 162.358C2754.3 158.591 2760.33 151.679 2766.44 142.322L2758.06 136.857C2752.21 145.828 2747.14 151.263 2742.96 153.864L2748.23 162.358ZM2767.25 139.59V59.0971H2757.25V139.59H2767.25ZM2762.25 64.0971H2796.73V54.0971H2762.25V64.0971ZM2791.73 59.0971V187H2801.73V59.0971H2791.73ZM2796.73 182H2762.25V192H2796.73V182ZM2839.95 187H2834.95V192H2839.95V187ZM2839.95 3.06673V-1.93327H2834.95V3.06673H2839.95ZM2874.43 3.06673H2879.43V-1.93327H2874.43V3.06673ZM2874.43 187V192H2879.43V187H2874.43ZM2844.95 187V3.06673H2834.95V187H2844.95ZM2839.95 8.06673H2874.43V-1.93327H2839.95V8.06673ZM2869.43 3.06673V187H2879.43V3.06673H2869.43ZM2874.43 182H2839.95V192H2874.43V182ZM2917.53 187H2912.53V192H2917.53V187ZM2917.53 3.06673V-1.93327H2912.53V3.06673H2917.53ZM2952.01 3.06673H2957.01V-1.93327H2952.01V3.06673ZM2952.01 187V192H2957.01V187H2952.01ZM2922.53 187V3.06673H2912.53V187H2922.53ZM2917.53 8.06673H2952.01V-1.93327H2917.53V8.06673ZM2947.01 3.06673V187H2957.01V3.06673H2947.01ZM2952.01 182H2917.53V192H2952.01V182ZM2995.58 233.012L2991.35 230.346L2986.51 238.012H2995.58V233.012ZM3024.58 187L3028.81 189.666L3030.13 187.577L3029.27 185.262L3024.58 187ZM2977.17 59.0971V54.0971H2969.98L2972.48 60.8349L2977.17 59.0971ZM3014.21 59.0971L3018.9 57.3597L3017.69 54.0971H3014.21V59.0971ZM3045.9 144.599L3041.21 146.336L3045.5 157.915L3050.47 146.613L3045.9 144.599ZM3083.52 59.0971V54.0971H3080.26L3078.95 57.0832L3083.52 59.0971ZM3109.73 59.0971L3114.29 61.1645L3117.5 54.0971H3109.73V59.0971ZM3030.75 233.012V238.012H3033.98L3035.31 235.08L3030.75 233.012ZM2999.81 235.679L3028.81 189.666L3020.35 184.334L2991.35 230.346L2999.81 235.679ZM3029.27 185.262L2981.86 57.3592L2972.48 60.8349L3019.89 188.738L3029.27 185.262ZM2977.17 64.0971H3014.21V54.0971H2977.17V64.0971ZM3009.53 60.8345L3041.21 146.336L3050.59 142.861L3018.9 57.3597L3009.53 60.8345ZM3050.47 146.613L3088.1 61.111L3078.95 57.0832L3041.32 142.585L3050.47 146.613ZM3083.52 64.0971H3109.73V54.0971H3083.52V64.0971ZM3105.18 57.0297L3026.2 230.945L3035.31 235.08L3114.29 61.1645L3105.18 57.0297ZM3030.75 228.012H2995.58V238.012H3030.75V228.012Z" fill="#1B1B1B" mask="url(#path-3-outside-2_0_1)"/>
<mask id="path-5-outside-3_0_1" maskUnits="userSpaceOnUse" x="612" y="-2" width="909" height="197" fill="black">
<rect fill="white" x="612" y="-2" width="909" height="197"/>
<path d="M617.55 187V14.599H691.752C711.633 14.599 727.087 17.7829 738.114 24.1509C749.219 30.5189 758.034 39.9155 764.557 52.3408C771.158 64.6885 774.458 79.6376 774.458 97.1884C774.458 114.351 771.313 129.688 765.023 143.201C758.81 156.713 749.724 167.391 737.765 175.235C725.806 183.078 709.42 187 688.607 187H617.55ZM653.428 162.538H680.22C694.199 162.538 704.877 160.363 712.254 156.014C719.709 151.666 725.573 144.327 729.844 133.998C734.193 123.592 736.367 112.021 736.367 99.2851C736.367 87.0928 734.27 76.2983 730.077 66.9017C725.883 57.5051 720.059 50.3994 712.604 45.5846C705.226 40.6921 692.723 38.2459 675.095 38.2459H653.428V162.538ZM910.865 182.69C894.479 187.505 878.947 189.912 864.27 189.912C850.369 189.912 838.177 187.349 827.693 182.224C817.287 177.021 809.249 168.944 803.58 157.995C797.989 146.967 795.193 135.008 795.193 122.117C795.193 110.157 797.562 99.1298 802.299 89.0343C807.114 78.8611 814.064 70.8623 823.15 65.0379C832.314 59.1359 843.574 56.1849 856.931 56.1849C873.317 56.1849 886.403 61.388 896.187 71.7942C905.972 82.2004 910.865 101.576 910.865 129.921H831.537C832.314 138.541 834.255 145.336 837.361 150.307C840.545 155.277 844.817 159.237 850.175 162.188C855.533 165.062 862.717 166.498 871.725 166.498C883.296 166.498 896.343 163.819 910.865 158.461V182.69ZM831.071 110.468H876.967C876.967 98.7415 874.987 90.3545 871.026 85.3067C867.143 80.2589 862.096 77.735 855.883 77.735C849.127 77.735 843.574 80.5307 839.225 86.1221C834.876 91.6358 832.158 99.7511 831.071 110.468ZM946.51 187V3.06673H980.99V187H946.51ZM1128.23 182.69C1111.84 187.505 1096.31 189.912 1081.64 189.912C1067.73 189.912 1055.54 187.349 1045.06 182.224C1034.65 177.021 1026.61 168.944 1020.95 157.995C1015.35 146.967 1012.56 135.008 1012.56 122.117C1012.56 110.157 1014.93 99.1298 1019.66 89.0343C1024.48 78.8611 1031.43 70.8623 1040.52 65.0379C1049.68 59.1359 1060.94 56.1849 1074.3 56.1849C1090.68 56.1849 1103.77 61.388 1113.55 71.7942C1123.34 82.2004 1128.23 101.576 1128.23 129.921H1048.9C1049.68 138.541 1051.62 145.336 1054.73 150.307C1057.91 155.277 1062.18 159.237 1067.54 162.188C1072.9 165.062 1080.08 166.498 1089.09 166.498C1100.66 166.498 1113.71 163.819 1128.23 158.461V182.69ZM1048.44 110.468H1094.33C1094.33 98.7415 1092.35 90.3545 1088.39 85.3067C1084.51 80.2589 1079.46 77.735 1073.25 77.735C1066.49 77.735 1060.94 80.5307 1056.59 86.1221C1052.24 91.6358 1049.52 99.7511 1048.44 110.468ZM1229.81 186.301C1221.58 188.708 1215.09 189.912 1210.35 189.912C1199.09 189.912 1190.36 188.32 1184.14 185.136C1177.93 181.952 1173.27 177.642 1170.17 172.206C1167.06 166.692 1165.51 158.616 1165.51 147.977V80.6472H1151.18V59.0971H1165.51V37.5469L1199.99 33.5864V59.0971H1227.36V80.6472H1199.99V143.434C1199.99 152.675 1201.62 158.927 1204.88 162.188C1208.14 165.372 1212.92 166.964 1219.21 166.964C1222.16 166.964 1225.69 166.421 1229.81 165.333V186.301ZM1364.7 182.69C1348.31 187.505 1332.78 189.912 1318.1 189.912C1304.2 189.912 1292.01 187.349 1281.53 182.224C1271.12 177.021 1263.08 168.944 1257.41 157.995C1251.82 146.967 1249.03 135.008 1249.03 122.117C1249.03 110.157 1251.4 99.1298 1256.13 89.0343C1260.95 78.8611 1267.9 70.8623 1276.98 65.0379C1286.15 59.1359 1297.41 56.1849 1310.77 56.1849C1327.15 56.1849 1340.24 61.388 1350.02 71.7942C1359.81 82.2004 1364.7 101.576 1364.7 129.921H1285.37C1286.15 138.541 1288.09 145.336 1291.2 150.307C1294.38 155.277 1298.65 159.237 1304.01 162.188C1309.37 165.062 1316.55 166.498 1325.56 166.498C1337.13 166.498 1350.18 163.819 1364.7 158.461V182.69ZM1284.91 110.468H1330.8C1330.8 98.7415 1328.82 90.3545 1324.86 85.3067C1320.98 80.2589 1315.93 77.735 1309.72 77.735C1302.96 77.735 1297.41 80.5307 1293.06 86.1221C1288.71 91.6358 1285.99 99.7511 1284.91 110.468ZM1480.84 187V162.887C1476.41 171.895 1470.7 178.652 1463.71 183.156C1456.8 187.66 1448.57 189.912 1439.02 189.912C1423.33 189.912 1411.18 184.127 1402.56 172.556C1393.94 160.907 1389.63 145.569 1389.63 126.543C1389.63 106.43 1394.44 89.6944 1404.07 76.3372C1413.7 62.9023 1427.14 56.1849 1444.38 56.1849C1449.04 56.1849 1453.31 56.6897 1457.19 57.6992C1461.07 58.6311 1464.8 60.1066 1468.37 62.1257C1471.94 64.1448 1476.1 67.4453 1480.84 72.0271V3.06673H1515.43V187H1480.84ZM1480.84 92.5289C1476.02 87.0928 1471.48 83.4041 1467.21 81.4626C1462.94 79.5212 1458.59 78.5504 1454.16 78.5504C1444.84 78.5504 1437.85 83.0546 1433.19 92.0629C1428.61 100.994 1426.32 111.516 1426.32 123.631C1426.32 135.59 1428.46 145.142 1432.73 152.287C1437.08 159.354 1443.33 162.887 1451.48 162.887C1456.68 162.887 1461.81 161.101 1466.86 157.529C1471.98 153.879 1476.64 149.103 1480.84 143.201V92.5289Z"/>
</mask>
<path d="M617.55 187V14.599H691.752C711.633 14.599 727.087 17.7829 738.114 24.1509C749.219 30.5189 758.034 39.9155 764.557 52.3408C771.158 64.6885 774.458 79.6376 774.458 97.1884C774.458 114.351 771.313 129.688 765.023 143.201C758.81 156.713 749.724 167.391 737.765 175.235C725.806 183.078 709.42 187 688.607 187H617.55ZM653.428 162.538H680.22C694.199 162.538 704.877 160.363 712.254 156.014C719.709 151.666 725.573 144.327 729.844 133.998C734.193 123.592 736.367 112.021 736.367 99.2851C736.367 87.0928 734.27 76.2983 730.077 66.9017C725.883 57.5051 720.059 50.3994 712.604 45.5846C705.226 40.6921 692.723 38.2459 675.095 38.2459H653.428V162.538ZM910.865 182.69C894.479 187.505 878.947 189.912 864.27 189.912C850.369 189.912 838.177 187.349 827.693 182.224C817.287 177.021 809.249 168.944 803.58 157.995C797.989 146.967 795.193 135.008 795.193 122.117C795.193 110.157 797.562 99.1298 802.299 89.0343C807.114 78.8611 814.064 70.8623 823.15 65.0379C832.314 59.1359 843.574 56.1849 856.931 56.1849C873.317 56.1849 886.403 61.388 896.187 71.7942C905.972 82.2004 910.865 101.576 910.865 129.921H831.537C832.314 138.541 834.255 145.336 837.361 150.307C840.545 155.277 844.817 159.237 850.175 162.188C855.533 165.062 862.717 166.498 871.725 166.498C883.296 166.498 896.343 163.819 910.865 158.461V182.69ZM831.071 110.468H876.967C876.967 98.7415 874.987 90.3545 871.026 85.3067C867.143 80.2589 862.096 77.735 855.883 77.735C849.127 77.735 843.574 80.5307 839.225 86.1221C834.876 91.6358 832.158 99.7511 831.071 110.468ZM946.51 187V3.06673H980.99V187H946.51ZM1128.23 182.69C1111.84 187.505 1096.31 189.912 1081.64 189.912C1067.73 189.912 1055.54 187.349 1045.06 182.224C1034.65 177.021 1026.61 168.944 1020.95 157.995C1015.35 146.967 1012.56 135.008 1012.56 122.117C1012.56 110.157 1014.93 99.1298 1019.66 89.0343C1024.48 78.8611 1031.43 70.8623 1040.52 65.0379C1049.68 59.1359 1060.94 56.1849 1074.3 56.1849C1090.68 56.1849 1103.77 61.388 1113.55 71.7942C1123.34 82.2004 1128.23 101.576 1128.23 129.921H1048.9C1049.68 138.541 1051.62 145.336 1054.73 150.307C1057.91 155.277 1062.18 159.237 1067.54 162.188C1072.9 165.062 1080.08 166.498 1089.09 166.498C1100.66 166.498 1113.71 163.819 1128.23 158.461V182.69ZM1048.44 110.468H1094.33C1094.33 98.7415 1092.35 90.3545 1088.39 85.3067C1084.51 80.2589 1079.46 77.735 1073.25 77.735C1066.49 77.735 1060.94 80.5307 1056.59 86.1221C1052.24 91.6358 1049.52 99.7511 1048.44 110.468ZM1229.81 186.301C1221.58 188.708 1215.09 189.912 1210.35 189.912C1199.09 189.912 1190.36 188.32 1184.14 185.136C1177.93 181.952 1173.27 177.642 1170.17 172.206C1167.06 166.692 1165.51 158.616 1165.51 147.977V80.6472H1151.18V59.0971H1165.51V37.5469L1199.99 33.5864V59.0971H1227.36V80.6472H1199.99V143.434C1199.99 152.675 1201.62 158.927 1204.88 162.188C1208.14 165.372 1212.92 166.964 1219.21 166.964C1222.16 166.964 1225.69 166.421 1229.81 165.333V186.301ZM1364.7 182.69C1348.31 187.505 1332.78 189.912 1318.1 189.912C1304.2 189.912 1292.01 187.349 1281.53 182.224C1271.12 177.021 1263.08 168.944 1257.41 157.995C1251.82 146.967 1249.03 135.008 1249.03 122.117C1249.03 110.157 1251.4 99.1298 1256.13 89.0343C1260.95 78.8611 1267.9 70.8623 1276.98 65.0379C1286.15 59.1359 1297.41 56.1849 1310.77 56.1849C1327.15 56.1849 1340.24 61.388 1350.02 71.7942C1359.81 82.2004 1364.7 101.576 1364.7 129.921H1285.37C1286.15 138.541 1288.09 145.336 1291.2 150.307C1294.38 155.277 1298.65 159.237 1304.01 162.188C1309.37 165.062 1316.55 166.498 1325.56 166.498C1337.13 166.498 1350.18 163.819 1364.7 158.461V182.69ZM1284.91 110.468H1330.8C1330.8 98.7415 1328.82 90.3545 1324.86 85.3067C1320.98 80.2589 1315.93 77.735 1309.72 77.735C1302.96 77.735 1297.41 80.5307 1293.06 86.1221C1288.71 91.6358 1285.99 99.7511 1284.91 110.468ZM1480.84 187V162.887C1476.41 171.895 1470.7 178.652 1463.71 183.156C1456.8 187.66 1448.57 189.912 1439.02 189.912C1423.33 189.912 1411.18 184.127 1402.56 172.556C1393.94 160.907 1389.63 145.569 1389.63 126.543C1389.63 106.43 1394.44 89.6944 1404.07 76.3372C1413.7 62.9023 1427.14 56.1849 1444.38 56.1849C1449.04 56.1849 1453.31 56.6897 1457.19 57.6992C1461.07 58.6311 1464.8 60.1066 1468.37 62.1257C1471.94 64.1448 1476.1 67.4453 1480.84 72.0271V3.06673H1515.43V187H1480.84ZM1480.84 92.5289C1476.02 87.0928 1471.48 83.4041 1467.21 81.4626C1462.94 79.5212 1458.59 78.5504 1454.16 78.5504C1444.84 78.5504 1437.85 83.0546 1433.19 92.0629C1428.61 100.994 1426.32 111.516 1426.32 123.631C1426.32 135.59 1428.46 145.142 1432.73 152.287C1437.08 159.354 1443.33 162.887 1451.48 162.887C1456.68 162.887 1461.81 161.101 1466.86 157.529C1471.98 153.879 1476.64 149.103 1480.84 143.201V92.5289Z" fill="#1B1B1B"/>
<path d="M617.55 187H612.55V192H617.55V187ZM617.55 14.599V9.59896H612.55V14.599H617.55ZM738.114 24.1509L735.614 28.4808L735.621 28.4846L735.627 28.4884L738.114 24.1509ZM764.557 52.3408L760.13 54.665L760.139 54.6816L760.148 54.6981L764.557 52.3408ZM765.023 143.201L760.49 141.091L760.485 141.101L760.48 141.112L765.023 143.201ZM653.428 162.538H648.428V167.538H653.428V162.538ZM712.254 156.014L709.735 151.696L709.725 151.701L709.715 151.707L712.254 156.014ZM729.844 133.998L725.23 132.07L725.227 132.079L725.223 132.088L729.844 133.998ZM730.077 66.9017L725.511 68.9394L730.077 66.9017ZM712.604 45.5845L709.84 49.7515L709.866 49.7683L709.891 49.7847L712.604 45.5845ZM653.428 38.2459V33.2459H648.428V38.2459H653.428ZM622.55 187V14.599H612.55V187H622.55ZM617.55 19.599H691.752V9.59896H617.55V19.599ZM691.752 19.599C711.204 19.599 725.659 22.732 735.614 28.4808L740.615 19.821C728.515 12.8339 712.062 9.59896 691.752 9.59896V19.599ZM735.627 28.4884C745.829 34.3382 754.005 42.9975 760.13 54.665L768.984 50.0166C762.063 36.8335 752.61 26.6995 740.602 19.8134L735.627 28.4884ZM760.148 54.6981C766.275 66.1593 769.458 80.2555 769.458 97.1884H779.458C779.458 79.0198 776.041 63.2176 768.966 49.9836L760.148 54.6981ZM769.458 97.1884C769.458 113.732 766.429 128.332 760.49 141.091L769.556 145.311C776.197 131.044 779.458 114.97 779.458 97.1884H769.458ZM760.48 141.112C754.643 153.808 746.165 163.746 735.023 171.054L740.507 179.416C753.283 171.037 762.978 159.619 769.566 145.289L760.48 141.112ZM735.023 171.054C724.17 178.171 708.866 182 688.607 182V192C709.974 192 727.441 187.985 740.507 179.416L735.023 171.054ZM688.607 182H617.55V192H688.607V182ZM653.428 167.538H680.22V157.538H653.428V167.538ZM680.22 167.538C694.586 167.538 706.304 165.326 714.793 160.322L709.715 151.707C703.449 155.401 693.812 157.538 680.22 157.538V167.538ZM714.774 160.333C723.42 155.29 729.899 146.949 734.464 135.909L725.223 132.088C721.246 141.705 715.999 148.042 709.735 151.696L714.774 160.333ZM734.457 135.926C739.092 124.835 741.367 112.598 741.367 99.2851H731.367C731.367 111.444 729.293 122.349 725.23 132.07L734.457 135.926ZM741.367 99.2851C741.367 86.5187 739.17 75.0093 734.643 64.864L725.511 68.9394C729.37 77.5874 731.367 87.667 731.367 99.2851H741.367ZM734.643 64.864C730.119 54.7266 723.709 46.8048 715.316 41.3844L709.891 49.7847C716.408 53.9939 721.648 60.2836 725.511 68.9394L734.643 64.864ZM715.367 41.4176C706.689 35.6625 692.9 33.2459 675.095 33.2459V43.2459C692.547 43.2459 703.764 45.7217 709.84 49.7515L715.367 41.4176ZM675.095 33.2459H653.428V43.2459H675.095V33.2459ZM648.428 38.2459V162.538H658.428V38.2459H648.428ZM910.865 182.69L912.274 187.487L915.865 186.432V182.69H910.865ZM827.693 182.224L825.457 186.696L825.477 186.706L825.497 186.716L827.693 182.224ZM803.58 157.995L799.121 160.256L799.13 160.275L799.14 160.294L803.58 157.995ZM802.299 89.0343L797.779 86.8953L797.776 86.9028L797.772 86.9103L802.299 89.0343ZM823.15 65.0379L825.848 69.2473L825.857 69.2415L823.15 65.0379ZM910.865 129.921V134.921H915.865V129.921H910.865ZM831.537 129.921V124.921H826.066L826.557 130.37L831.537 129.921ZM837.361 150.307L833.121 152.957L833.136 152.98L833.151 153.004L837.361 150.307ZM850.175 162.188L847.763 166.568L847.788 166.581L847.812 166.595L850.175 162.188ZM910.865 158.461H915.865V151.286L909.134 153.77L910.865 158.461ZM831.071 110.468L826.097 109.963L825.538 115.468H831.071V110.468ZM876.967 110.468V115.468H881.967V110.468H876.967ZM871.026 85.3067L867.063 88.3552L867.078 88.3743L867.093 88.3931L871.026 85.3067ZM839.225 86.1221L843.151 89.2185L843.162 89.2052L843.172 89.1918L839.225 86.1221ZM909.455 177.893C893.454 182.595 878.4 184.912 864.27 184.912V194.912C879.495 194.912 895.504 192.415 912.274 187.487L909.455 177.893ZM864.27 184.912C850.986 184.912 839.57 182.465 829.889 177.732L825.497 186.716C836.783 192.234 849.752 194.912 864.27 194.912V184.912ZM829.929 177.752C820.527 173.051 813.234 165.766 808.02 155.696L799.14 160.294C805.264 172.123 814.046 180.991 825.457 186.696L829.929 177.752ZM808.04 155.734C802.819 145.437 800.193 134.257 800.193 122.117H790.193C790.193 135.759 793.159 148.497 799.121 160.256L808.04 155.734ZM800.193 122.117C800.193 110.837 802.422 100.542 806.825 91.1582L797.772 86.9103C792.701 97.7178 790.193 109.477 790.193 122.117H800.193ZM806.818 91.1732C811.25 81.8091 817.586 74.5436 825.848 69.2473L820.452 60.8285C810.542 67.181 802.977 75.913 797.779 86.8953L806.818 91.1732ZM825.857 69.2415C834.049 63.9658 844.317 61.1849 856.931 61.1849V51.1849C842.831 51.1849 830.579 54.306 820.443 60.8343L825.857 69.2415ZM856.931 61.1849C872.16 61.1849 883.847 65.9694 892.545 75.2193L899.83 68.369C888.958 56.8065 874.474 51.1849 856.931 51.1849V61.1849ZM892.545 75.2193C900.926 84.1322 905.865 101.767 905.865 129.921H915.865C915.865 101.385 911.019 80.2685 899.83 68.369L892.545 75.2193ZM910.865 124.921H831.537V134.921H910.865V124.921ZM826.557 130.37C827.373 139.428 829.448 147.08 833.121 152.957L841.601 147.657C839.062 143.593 837.254 137.655 836.517 129.473L826.557 130.37ZM833.151 153.004C836.802 158.702 841.702 163.23 847.763 166.568L852.587 157.808C847.931 155.244 844.289 151.851 841.572 147.609L833.151 153.004ZM847.812 166.595C854.164 170.001 862.259 171.498 871.725 171.498V161.498C863.174 161.498 856.903 160.123 852.538 157.782L847.812 166.595ZM871.725 171.498C884.049 171.498 897.695 168.65 912.596 163.151L909.134 153.77C894.99 158.989 882.543 161.498 871.725 161.498V171.498ZM905.865 158.461V182.69H915.865V158.461H905.865ZM831.071 115.468H876.967V105.468H831.071V115.468ZM881.967 110.468C881.967 98.4356 879.985 88.6253 874.96 82.2202L867.093 88.3931C869.988 92.0836 871.967 99.0475 871.967 110.468H881.967ZM874.989 82.2581C870.188 76.0161 863.693 72.735 855.883 72.735V82.735C860.498 82.735 864.099 84.5018 867.063 88.3552L874.989 82.2581ZM855.883 72.735C847.499 72.735 840.521 76.3116 835.279 83.0524L843.172 89.1918C846.627 84.7498 850.754 82.735 855.883 82.735V72.735ZM835.299 83.0257C830.126 89.5848 827.232 98.768 826.097 109.963L836.046 110.973C837.084 100.734 839.627 93.6869 843.151 89.2185L835.299 83.0257ZM946.51 187H941.51V192H946.51V187ZM946.51 3.06673V-1.93327H941.51V3.06673H946.51ZM980.99 3.06673H985.99V-1.93327H980.99V3.06673ZM980.99 187V192H985.99V187H980.99ZM951.51 187V3.06673H941.51V187H951.51ZM946.51 8.06673H980.99V-1.93327H946.51V8.06673ZM975.99 3.06673V187H985.99V3.06673H975.99ZM980.99 182H946.51V192H980.99V182ZM1128.23 182.69L1129.64 187.487L1133.23 186.432V182.69H1128.23ZM1045.06 182.224L1042.82 186.696L1042.84 186.706L1042.86 186.716L1045.06 182.224ZM1020.95 157.995L1016.49 160.256L1016.5 160.275L1016.51 160.294L1020.95 157.995ZM1019.66 89.0343L1015.14 86.8953L1015.14 86.9028L1015.14 86.9103L1019.66 89.0343ZM1040.52 65.0379L1043.21 69.2473L1043.22 69.2415L1040.52 65.0379ZM1128.23 129.921V134.921H1133.23V129.921H1128.23ZM1048.9 129.921V124.921H1043.43L1043.92 130.37L1048.9 129.921ZM1054.73 150.307L1050.49 152.957L1050.5 152.98L1050.52 153.004L1054.73 150.307ZM1067.54 162.188L1065.13 166.568L1065.15 166.581L1065.18 166.595L1067.54 162.188ZM1128.23 158.461H1133.23V151.286L1126.5 153.77L1128.23 158.461ZM1048.44 110.468L1043.46 109.963L1042.9 115.468H1048.44V110.468ZM1094.33 110.468V115.468H1099.33V110.468H1094.33ZM1088.39 85.3067L1084.43 88.3552L1084.44 88.3743L1084.46 88.3931L1088.39 85.3067ZM1056.59 86.1221L1060.52 89.2185L1060.53 89.2052L1060.54 89.1918L1056.59 86.1221ZM1126.82 177.893C1110.82 182.595 1095.76 184.912 1081.64 184.912V194.912C1096.86 194.912 1112.87 192.415 1129.64 187.487L1126.82 177.893ZM1081.64 184.912C1068.35 184.912 1056.94 182.465 1047.25 177.732L1042.86 186.716C1054.15 192.234 1067.12 194.912 1081.64 194.912V184.912ZM1047.29 177.752C1037.89 173.051 1030.6 165.766 1025.39 155.696L1016.51 160.294C1022.63 172.123 1031.41 180.991 1042.82 186.696L1047.29 177.752ZM1025.4 155.734C1020.18 145.437 1017.56 134.257 1017.56 122.117H1007.56C1007.56 135.759 1010.52 148.497 1016.49 160.256L1025.4 155.734ZM1017.56 122.117C1017.56 110.837 1019.79 100.542 1024.19 91.1582L1015.14 86.9103C1010.07 97.7178 1007.56 109.477 1007.56 122.117H1017.56ZM1024.18 91.1732C1028.62 81.8091 1034.95 74.5436 1043.21 69.2473L1037.82 60.8285C1027.91 67.181 1020.34 75.913 1015.14 86.8953L1024.18 91.1732ZM1043.22 69.2415C1051.41 63.9658 1061.68 61.1849 1074.3 61.1849V51.1849C1060.2 51.1849 1047.94 54.306 1037.81 60.8343L1043.22 69.2415ZM1074.3 61.1849C1089.53 61.1849 1101.21 65.9694 1109.91 75.2193L1117.2 68.369C1106.32 56.8065 1091.84 51.1849 1074.3 51.1849V61.1849ZM1109.91 75.2193C1118.29 84.1322 1123.23 101.767 1123.23 129.921H1133.23C1133.23 101.385 1128.38 80.2685 1117.2 68.369L1109.91 75.2193ZM1128.23 124.921H1048.9V134.921H1128.23V124.921ZM1043.92 130.37C1044.74 139.428 1046.81 147.08 1050.49 152.957L1058.97 147.657C1056.43 143.593 1054.62 137.655 1053.88 129.473L1043.92 130.37ZM1050.52 153.004C1054.17 158.702 1059.07 163.23 1065.13 166.568L1069.95 157.808C1065.3 155.244 1061.65 151.851 1058.94 147.609L1050.52 153.004ZM1065.18 166.595C1071.53 170.001 1079.62 171.498 1089.09 171.498V161.498C1080.54 161.498 1074.27 160.123 1069.9 157.782L1065.18 166.595ZM1089.09 171.498C1101.41 171.498 1115.06 168.65 1129.96 163.151L1126.5 153.77C1112.36 158.989 1099.91 161.498 1089.09 161.498V171.498ZM1123.23 158.461V182.69H1133.23V158.461H1123.23ZM1048.44 115.468H1094.33V105.468H1048.44V115.468ZM1099.33 110.468C1099.33 98.4356 1097.35 88.6253 1092.33 82.2202L1084.46 88.3931C1087.35 92.0836 1089.33 99.0475 1089.33 110.468H1099.33ZM1092.35 82.2581C1087.55 76.0161 1081.06 72.735 1073.25 72.735V82.735C1077.86 82.735 1081.46 84.5018 1084.43 88.3552L1092.35 82.2581ZM1073.25 72.735C1064.86 72.735 1057.89 76.3116 1052.64 83.0524L1060.54 89.1918C1063.99 84.7498 1068.12 82.735 1073.25 82.735V72.735ZM1052.66 83.0257C1047.49 89.5848 1044.6 98.768 1043.46 109.963L1053.41 110.973C1054.45 100.734 1056.99 93.6869 1060.52 89.2185L1052.66 83.0257ZM1229.81 186.301L1231.21 191.1L1234.81 190.048V186.301H1229.81ZM1184.14 185.136L1181.86 189.586L1184.14 185.136ZM1170.17 172.206L1165.81 174.66L1165.82 174.674L1165.82 174.687L1170.17 172.206ZM1165.51 80.6472H1170.51V75.6472H1165.51V80.6472ZM1151.18 80.6472H1146.18V85.6472H1151.18V80.6472ZM1151.18 59.0971V54.0971H1146.18V59.0971H1151.18ZM1165.51 59.0971V64.0971H1170.51V59.0971H1165.51ZM1165.51 37.5469L1164.94 32.5796L1160.51 33.0884V37.5469H1165.51ZM1199.99 33.5864H1204.99V27.9792L1199.42 28.619L1199.99 33.5864ZM1199.99 59.0971H1194.99V64.0971H1199.99V59.0971ZM1227.36 59.0971H1232.36V54.0971H1227.36V59.0971ZM1227.36 80.6472V85.6472H1232.36V80.6472H1227.36ZM1199.99 80.6472V75.6472H1194.99V80.6472H1199.99ZM1204.88 162.188L1201.34 165.724L1201.36 165.745L1201.39 165.766L1204.88 162.188ZM1229.81 165.333H1234.81V158.841L1228.53 160.499L1229.81 165.333ZM1228.4 181.502C1220.32 183.865 1214.38 184.912 1210.35 184.912V194.912C1215.8 194.912 1222.83 193.552 1231.21 191.1L1228.4 181.502ZM1210.35 184.912C1199.45 184.912 1191.63 183.353 1186.42 180.687L1181.86 189.586C1189.09 193.288 1198.73 194.912 1210.35 194.912V184.912ZM1186.42 180.687C1180.97 177.892 1177.08 174.224 1174.51 169.725L1165.82 174.687C1169.47 181.06 1174.89 186.012 1181.86 189.586L1186.42 180.687ZM1174.52 169.752C1172.03 165.336 1170.51 158.273 1170.51 147.977H1160.51C1160.51 158.959 1162.08 168.049 1165.81 174.66L1174.52 169.752ZM1170.51 147.977V80.6472H1160.51V147.977H1170.51ZM1165.51 75.6472H1151.18V85.6472H1165.51V75.6472ZM1156.18 80.6472V59.0971H1146.18V80.6472H1156.18ZM1151.18 64.0971H1165.51V54.0971H1151.18V64.0971ZM1170.51 59.0971V37.5469H1160.51V59.0971H1170.51ZM1166.08 42.5143L1200.56 38.5537L1199.42 28.619L1164.94 32.5796L1166.08 42.5143ZM1194.99 33.5864V59.0971H1204.99V33.5864H1194.99ZM1199.99 64.0971H1227.36V54.0971H1199.99V64.0971ZM1222.36 59.0971V80.6472H1232.36V59.0971H1222.36ZM1227.36 75.6472H1199.99V85.6472H1227.36V75.6472ZM1194.99 80.6472V143.434H1204.99V80.6472H1194.99ZM1194.99 143.434C1194.99 152.848 1196.56 160.941 1201.34 165.724L1208.41 158.653C1206.67 156.912 1204.99 152.503 1204.99 143.434H1194.99ZM1201.39 165.766C1205.89 170.162 1212.12 171.964 1219.21 171.964V161.964C1213.72 161.964 1210.39 160.582 1208.37 158.61L1201.39 165.766ZM1219.21 171.964C1222.73 171.964 1226.72 171.321 1231.08 170.168L1228.53 160.499C1224.66 161.52 1221.58 161.964 1219.21 161.964V171.964ZM1224.81 165.333V186.301H1234.81V165.333H1224.81ZM1364.7 182.69L1366.11 187.487L1369.7 186.432V182.69H1364.7ZM1281.53 182.224L1279.29 186.696L1279.31 186.706L1279.33 186.716L1281.53 182.224ZM1257.41 157.995L1252.95 160.256L1252.96 160.275L1252.97 160.294L1257.41 157.995ZM1256.13 89.0343L1251.61 86.8953L1251.61 86.9028L1251.61 86.9103L1256.13 89.0343ZM1276.98 65.0379L1279.68 69.2473L1279.69 69.2415L1276.98 65.0379ZM1364.7 129.921V134.921H1369.7V129.921H1364.7ZM1285.37 129.921V124.921H1279.9L1280.39 130.37L1285.37 129.921ZM1291.2 150.307L1286.96 152.957L1286.97 152.98L1286.99 153.004L1291.2 150.307ZM1304.01 162.188L1301.6 166.568L1301.62 166.581L1301.65 166.595L1304.01 162.188ZM1364.7 158.461H1369.7V151.286L1362.97 153.77L1364.7 158.461ZM1284.91 110.468L1279.93 109.963L1279.37 115.468H1284.91V110.468ZM1330.8 110.468V115.468H1335.8V110.468H1330.8ZM1324.86 85.3067L1320.9 88.3552L1320.91 88.3743L1320.93 88.3931L1324.86 85.3067ZM1293.06 86.1221L1296.99 89.2185L1297 89.2052L1297.01 89.1918L1293.06 86.1221ZM1363.29 177.893C1347.29 182.595 1332.23 184.912 1318.1 184.912V194.912C1333.33 194.912 1349.34 192.415 1366.11 187.487L1363.29 177.893ZM1318.1 184.912C1304.82 184.912 1293.4 182.465 1283.72 177.732L1279.33 186.716C1290.62 192.234 1303.59 194.912 1318.1 194.912V184.912ZM1283.76 177.752C1274.36 173.051 1267.07 165.766 1261.85 155.696L1252.97 160.294C1259.1 172.123 1267.88 180.991 1279.29 186.696L1283.76 177.752ZM1261.87 155.734C1256.65 145.437 1254.03 134.257 1254.03 122.117H1244.03C1244.03 135.759 1246.99 148.497 1252.95 160.256L1261.87 155.734ZM1254.03 122.117C1254.03 110.837 1256.26 100.542 1260.66 91.1582L1251.61 86.9103C1246.54 97.7178 1244.03 109.477 1244.03 122.117H1254.03ZM1260.65 91.1732C1265.08 81.8091 1271.42 74.5436 1279.68 69.2473L1274.29 60.8285C1264.38 67.181 1256.81 75.913 1251.61 86.8953L1260.65 91.1732ZM1279.69 69.2415C1287.88 63.9658 1298.15 61.1849 1310.77 61.1849V51.1849C1296.67 51.1849 1284.41 54.306 1274.28 60.8343L1279.69 69.2415ZM1310.77 61.1849C1325.99 61.1849 1337.68 65.9694 1346.38 75.2193L1353.66 68.369C1342.79 56.8065 1328.31 51.1849 1310.77 51.1849V61.1849ZM1346.38 75.2193C1354.76 84.1322 1359.7 101.767 1359.7 129.921H1369.7C1369.7 101.385 1364.85 80.2685 1353.66 68.369L1346.38 75.2193ZM1364.7 124.921H1285.37V134.921H1364.7V124.921ZM1280.39 130.37C1281.21 139.428 1283.28 147.08 1286.96 152.957L1295.44 147.657C1292.9 143.593 1291.09 137.655 1290.35 129.473L1280.39 130.37ZM1286.99 153.004C1290.64 158.702 1295.54 163.23 1301.6 166.568L1306.42 157.808C1301.77 155.244 1298.12 151.851 1295.41 147.609L1286.99 153.004ZM1301.65 166.595C1308 170.001 1316.09 171.498 1325.56 171.498V161.498C1317.01 161.498 1310.74 160.123 1306.37 157.782L1301.65 166.595ZM1325.56 171.498C1337.88 171.498 1351.53 168.65 1366.43 163.151L1362.97 153.77C1348.82 158.989 1336.38 161.498 1325.56 161.498V171.498ZM1359.7 158.461V182.69H1369.7V158.461H1359.7ZM1284.91 115.468H1330.8V105.468H1284.91V115.468ZM1335.8 110.468C1335.8 98.4356 1333.82 88.6253 1328.79 82.2202L1320.93 88.3931C1323.82 92.0836 1325.8 99.0475 1325.8 110.468H1335.8ZM1328.82 82.2581C1324.02 76.0161 1317.53 72.735 1309.72 72.735V82.735C1314.33 82.735 1317.93 84.5018 1320.9 88.3552L1328.82 82.2581ZM1309.72 72.735C1301.33 72.735 1294.36 76.3116 1289.11 83.0524L1297.01 89.1918C1300.46 84.7498 1304.59 82.735 1309.72 82.735V72.735ZM1289.13 83.0257C1283.96 89.5848 1281.07 98.768 1279.93 109.963L1289.88 110.973C1290.92 100.734 1293.46 93.6869 1296.99 89.2185L1289.13 83.0257ZM1480.84 187H1475.84V192H1480.84V187ZM1480.84 162.887H1485.84L1476.35 160.682L1480.84 162.887ZM1463.71 183.156L1461 178.953L1460.99 178.96L1460.98 178.967L1463.71 183.156ZM1402.56 172.556L1398.54 175.53L1398.54 175.536L1398.55 175.543L1402.56 172.556ZM1404.07 76.3372L1408.13 79.2612L1408.14 79.25L1404.07 76.3372ZM1457.19 57.6992L1455.93 62.5383L1455.98 62.5502L1456.02 62.5612L1457.19 57.6992ZM1480.84 72.0271L1477.36 75.6211L1485.84 83.8193V72.0271H1480.84ZM1480.84 3.06673V-1.93327H1475.84V3.06673H1480.84ZM1515.43 3.06673H1520.43V-1.93327H1515.43V3.06673ZM1515.43 187V192H1520.43V187H1515.43ZM1480.84 92.5289H1485.84V90.633L1484.58 89.2137L1480.84 92.5289ZM1433.19 92.0629L1428.75 89.7658L1428.75 89.7732L1428.74 89.7806L1433.19 92.0629ZM1432.73 152.287L1428.44 154.852L1428.45 154.88L1428.47 154.907L1432.73 152.287ZM1466.86 157.529L1469.75 161.61L1469.75 161.606L1469.76 161.602L1466.86 157.529ZM1480.84 143.201L1484.91 146.097L1485.84 144.796V143.201H1480.84ZM1485.84 187V162.887H1475.84V187H1485.84ZM1476.35 160.682C1472.24 169.045 1467.09 175.034 1461 178.953L1466.42 187.359C1474.32 182.27 1480.58 174.746 1485.32 165.092L1476.35 160.682ZM1460.98 178.967C1455.01 182.862 1447.76 184.912 1439.02 184.912V194.912C1449.38 194.912 1458.6 192.458 1466.44 187.345L1460.98 178.967ZM1439.02 184.912C1424.75 184.912 1414.15 179.75 1406.57 169.569L1398.55 175.543C1408.2 188.503 1421.91 194.912 1439.02 194.912V184.912ZM1406.58 169.581C1398.77 159.028 1394.63 144.833 1394.63 126.543H1384.63C1384.63 146.306 1389.11 162.786 1398.54 175.53L1406.58 169.581ZM1394.63 126.543C1394.63 107.243 1399.24 91.5932 1408.13 79.2612L1400.02 73.4132C1389.65 87.7955 1384.63 105.617 1384.63 126.543H1394.63ZM1408.14 79.25C1416.78 67.1904 1428.67 61.1849 1444.38 61.1849V51.1849C1425.61 51.1849 1410.62 58.6142 1400.01 73.4243L1408.14 79.25ZM1444.38 61.1849C1448.68 61.1849 1452.52 61.6511 1455.93 62.5383L1458.45 52.8601C1454.09 51.7282 1449.39 51.1849 1444.38 51.1849V61.1849ZM1456.02 62.5612C1459.44 63.3814 1462.73 64.6822 1465.91 66.4785L1470.83 57.7729C1466.87 55.5311 1462.7 53.8808 1458.36 52.8373L1456.02 62.5612ZM1465.91 66.4785C1468.96 68.202 1472.77 71.1793 1477.36 75.6211L1484.31 68.4332C1479.43 63.7113 1474.93 60.0877 1470.83 57.7729L1465.91 66.4785ZM1485.84 72.0271V3.06673H1475.84V72.0271H1485.84ZM1480.84 8.06673H1515.43V-1.93327H1480.84V8.06673ZM1510.43 3.06673V187H1520.43V3.06673H1510.43ZM1515.43 182H1480.84V192H1515.43V182ZM1484.58 89.2137C1479.53 83.5108 1474.44 79.2575 1469.28 76.9108L1465.14 86.0144C1468.52 87.5506 1472.52 90.6748 1477.09 95.8441L1484.58 89.2137ZM1469.28 76.9108C1464.4 74.692 1459.34 73.5504 1454.16 73.5504V83.5504C1457.83 83.5504 1461.48 84.3503 1465.14 86.0144L1469.28 76.9108ZM1454.16 73.5504C1448.66 73.5504 1443.62 74.8919 1439.22 77.7257C1434.85 80.5445 1431.4 84.6557 1428.75 89.7658L1437.63 94.3601C1439.65 90.4619 1442.02 87.8167 1444.64 86.1314C1447.23 84.461 1450.34 83.5504 1454.16 83.5504V73.5504ZM1428.74 89.7806C1423.73 99.5492 1421.32 110.885 1421.32 123.631H1431.32C1431.32 112.147 1433.49 102.438 1437.64 94.3453L1428.74 89.7806ZM1421.32 123.631C1421.32 136.121 1423.54 146.665 1428.44 154.852L1437.02 149.721C1433.37 143.619 1431.32 135.059 1431.32 123.631H1421.32ZM1428.47 154.907C1433.71 163.421 1441.55 167.887 1451.48 167.887V157.887C1445.1 157.887 1440.44 155.286 1436.99 149.666L1428.47 154.907ZM1451.48 167.887C1457.9 167.887 1464.02 165.665 1469.75 161.61L1463.97 153.447C1459.6 156.537 1455.47 157.887 1451.48 157.887V167.887ZM1469.76 161.602C1475.4 157.583 1480.44 152.387 1484.91 146.097L1476.76 140.305C1472.84 145.819 1468.57 150.175 1463.96 153.456L1469.76 161.602ZM1485.84 143.201V92.5289H1475.84V143.201H1485.84Z" fill="#DCA413" mask="url(#path-5-outside-3_0_1)"/>
</svg>
